<svg xmlns="http://www.w3.org/2000/svg" viewBox="0 0 168.131 152">
  <g id="Capa_2" data-name="Capa 2">
    <rect x="7.373" y="1" width="150" height="150" fill="#fff" stroke="#fff" stroke-miterlimit="10" stroke-width="2"/>
  </g>
  <g id="Capa_1" data-name="Capa 1">
    <g>
      <rect y="132.425" width="168.131" height="0.084" fill="#ebebeb"/>
      <rect x="140.147" y="137.837" width="11.138" height="0.084" fill="#ebebeb"/>
      <rect x="108.454" y="138.75" width="2.923" height="0.084" fill="#ebebeb"/>
      <rect x="133.357" y="134.715" width="6.454" height="0.084" fill="#ebebeb"/>
      <rect x="17.64" y="135.28" width="14.524" height="0.084" fill="#ebebeb"/>
      <rect x="35.158" y="135.28" width="2.13" height="0.084" fill="#ebebeb"/>
      <rect x="44.209" y="136.699" width="31.5" height="0.084" fill="#ebebeb"/>
      <path d="M71.832,116.428H6.9a1.922,1.922,0,0,1-1.92-1.92V23.236A1.922,1.922,0,0,1,6.9,21.317H71.832a1.921,1.921,0,0,1,1.919,1.919v91.272A1.922,1.922,0,0,1,71.832,116.428ZM6.9,21.4a1.838,1.838,0,0,0-1.836,1.835v91.272A1.838,1.838,0,0,0,6.9,116.344H71.832a1.838,1.838,0,0,0,1.835-1.836V23.236A1.837,1.837,0,0,0,71.832,21.4Z" transform="translate(7.867 1)" fill="#ebebeb"/>
      <path d="M144.564,116.428H79.632a1.922,1.922,0,0,1-1.919-1.92V23.236a1.921,1.921,0,0,1,1.919-1.919h64.932a1.921,1.921,0,0,1,1.919,1.919v91.272A1.922,1.922,0,0,1,144.564,116.428ZM79.632,21.4A1.837,1.837,0,0,0,77.8,23.236v91.272a1.838,1.838,0,0,0,1.835,1.836h64.932a1.837,1.837,0,0,0,1.835-1.836V23.236a1.837,1.837,0,0,0-1.835-1.835Z" transform="translate(7.867 1)" fill="#ebebeb"/>
    </g>
    <g>
      <g>
        <rect x="109.38" y="34.432" width="2.659" height="96.993" transform="translate(229.286 166.857) rotate(180)" fill="#ebebeb"/>
        <polygon points="99.937 47.478 132.66 46.064 132.426 40.649 99.703 42.064 95.21 44.97 99.937 47.478" fill="#f0f0f0"/>
        <polygon points="97.521 64.404 129.968 68.875 130.707 63.506 98.261 59.035 93.319 61.09 97.521 64.404" fill="#f0f0f0"/>
        <polygon points="115.144 74.495 137.657 72.97 142.445 75.362 138.024 78.377 115.638 79.894 115.144 74.495" fill="#f5f4f5"/>
        <polygon points="144.023 51.908 111.273 51.454 111.198 56.873 143.948 57.327 148.6 54.682 144.023 51.908" fill="#f5f4f5"/>
      </g>
      <g>
        <g>
          <rect x="31.288" y="109.024" width="2.373" height="23.4" fill="#e6e6e6"/>
          <rect x="56.813" y="109.024" width="2.373" height="23.4" fill="#e6e6e6"/>
        </g>
        <rect x="25.437" y="79.34" width="39.599" height="33.019" rx="3.876" fill="#f0f0f0"/>
        <path d="M55.123,110.132H19.616a.82.82,0,0,1-.82-.82V80.386a.821.821,0,0,1,.82-.821H55.123a.822.822,0,0,1,.821.821v28.926A.821.821,0,0,1,55.123,110.132ZM19.616,79.916a.47.47,0,0,0-.47.47v28.926a.47.47,0,0,0,.47.47H55.123a.47.47,0,0,0,.47-.47V80.386a.47.47,0,0,0-.47-.47Z" transform="translate(7.867 1)" fill="#fbfbfb"/>
        <g>
          <polygon points="34.032 83.909 32.408 81.842 30.784 83.909 31.568 83.909 31.568 88.048 33.248 88.048 33.248 83.909 34.032 83.909" fill="#fbfbfb"/>
          <polygon points="33.443 93.623 35.511 91.999 33.443 90.375 33.443 91.159 29.305 91.159 29.305 92.839 33.443 92.839 33.443 93.623" fill="#fbfbfb"/>
          <polygon points="31.372 97.429 29.305 99.053 31.372 100.677 31.372 99.894 35.511 99.894 35.511 98.213 31.372 98.213 31.372 97.429" fill="#fbfbfb"/>
          <polygon points="30.784 107.143 32.408 109.211 34.032 107.143 33.248 107.143 33.248 103.005 31.567 103.005 31.567 107.143 30.784 107.143" fill="#fbfbfb"/>
          <g>
            <rect x="37.874" y="83.658" width="23.295" height="0.801" fill="#fbfbfb"/>
            <rect x="37.874" y="85.43" width="18.487" height="0.801" fill="#fbfbfb"/>
          </g>
          <g>
            <rect x="37.874" y="90.712" width="23.295" height="0.801" fill="#fbfbfb"/>
            <rect x="37.874" y="92.485" width="18.487" height="0.801" fill="#fbfbfb"/>
          </g>
          <g>
            <rect x="37.874" y="97.766" width="23.295" height="0.801" fill="#fbfbfb"/>
            <rect x="37.874" y="99.539" width="18.487" height="0.801" fill="#fbfbfb"/>
          </g>
          <g>
            <rect x="37.874" y="104.821" width="23.295" height="0.801" fill="#fbfbfb"/>
            <rect x="37.874" y="106.593" width="18.487" height="0.801" fill="#fbfbfb"/>
          </g>
        </g>
      </g>
      <path d="M40.815,45.2c0-2.725-1.563-3.628-2.766-3.792a4.257,4.257,0,0,0-3.382,1.234,5.232,5.232,0,0,0-4.946-3.614c-3.875,0-5.067,3.948-5.067,3.948a4.965,4.965,0,0,0-3.677-.834c-1.521.254-2.427,1.375-3.407,3.058Z" transform="translate(7.867 1)" fill="#f0f0f0"/>
      <path d="M85.055,35.953c0-3.519-2.018-4.685-3.572-4.9a5.5,5.5,0,0,0-4.366,1.593,6.755,6.755,0,0,0-6.387-4.667c-5,0-6.543,5.1-6.543,5.1A6.41,6.41,0,0,0,59.439,32c-1.964.328-3.134,1.776-4.4,3.949Z" transform="translate(7.867 1)" fill="#f0f0f0"/>
      <path d="M43.393,59.362a4,4,0,0,1,3-2.37,3.478,3.478,0,0,1,3.165,1.185,5.2,5.2,0,0,1,4.933-2.553,3.592,3.592,0,0,1,3.371,3.738Z" transform="translate(7.867 1)" fill="#f0f0f0"/>
    </g>
    <ellipse id="_Path_" data-name="&lt;Path&gt;" cx="84.066" cy="145.137" rx="50.918" ry="3.808" fill="#f5f4f5"/>
    <g>
      <g>
        <path d="M68.766,50.419a31.417,31.417,0,0,0-24.233-8.17C30.8,43.5,19.873,53.619,16.7,68.029c-2.926,13.276,1.031,31.516,20.387,44.025l-1.576,2.565,7.715-.176-3.33-6.962-1.4,2.28C20.336,97.991,16.6,80.973,19.324,68.608c2.919-13.243,12.909-22.538,25.453-23.68a28.744,28.744,0,0,1,22.175,7.478c4.3,3.923,7.073,8.951,7.073,12.81h2.69C76.715,60.566,73.669,54.9,68.766,50.419Z" transform="translate(7.867 1)" fill="#4b6fb5"/>
        <path d="M68.766,50.419a31.417,31.417,0,0,0-24.233-8.17C30.8,43.5,19.873,53.619,16.7,68.029c-2.926,13.276,1.031,31.516,20.387,44.025l-1.576,2.565,7.715-.176-3.33-6.962-1.4,2.28C20.336,97.991,16.6,80.973,19.324,68.608c2.919-13.243,12.909-22.538,25.453-23.68a28.744,28.744,0,0,1,22.175,7.478c4.3,3.923,7.073,8.951,7.073,12.81h2.69C76.715,60.566,73.669,54.9,68.766,50.419Z" transform="translate(7.867 1)" fill="#fff" opacity="0.7"/>
      </g>
      <g>
        <path d="M131.323,90.206c-1.45,10.656-8.1,20.454-17.937,24.974a36.746,36.746,0,0,1-15.263,3.275,37.394,37.394,0,0,1-5.9-.467A29.7,29.7,0,0,1,73.6,107.711c-9.755-12.115-6.109-28.491.555-39.779L76.468,69.3c-6.207,10.512-9.671,25.677-.777,36.723,8.979,11.147,25.546,11.776,36.572,6.712,8.777-4.035,14.779-12.67,16.3-22.149a29.7,29.7,0,0,0,.356-5.814,28.336,28.336,0,0,0-1.008-6.561c-1.332-4.8-5.65-9.076-10.579-7.905a7.52,7.52,0,0,0-5.629,8.3c.454,3.282,3.248,5.7,5.709,6.877l-1.156,2.431c-4.009-1.913-6.709-5.253-7.217-8.941a10.233,10.233,0,0,1,7.671-11.279c6.506-1.55,12.122,3.77,13.793,9.8a30.623,30.623,0,0,1,1.032,5.949A31.985,31.985,0,0,1,131.323,90.206Z" transform="translate(7.867 1)" fill="#263239"/>
        <g opacity="0.8">
          <path d="M131.323,90.206c-1.45,10.656-8.1,20.454-17.937,24.974a36.746,36.746,0,0,1-15.263,3.275,37.394,37.394,0,0,1-5.9-.467A29.7,29.7,0,0,1,73.6,107.711c-9.755-12.115-6.109-28.491.555-39.779L76.468,69.3c-6.207,10.512-9.671,25.677-.777,36.723,8.979,11.147,25.546,11.776,36.572,6.712,8.777-4.035,14.779-12.67,16.3-22.149a29.7,29.7,0,0,0,.356-5.814,28.336,28.336,0,0,0-1.008-6.561c-1.332-4.8-5.65-9.076-10.579-7.905a7.52,7.52,0,0,0-5.629,8.3c.454,3.282,3.248,5.7,5.709,6.877l-1.156,2.431c-4.009-1.913-6.709-5.253-7.217-8.941a10.233,10.233,0,0,1,7.671-11.279c6.506-1.55,12.122,3.77,13.793,9.8a30.623,30.623,0,0,1,1.032,5.949A31.985,31.985,0,0,1,131.323,90.206Z" transform="translate(7.867 1)" fill="#fff"/>
        </g>
        <path d="M131.323,90.206a18.548,18.548,0,0,1-2.761.38,29.7,29.7,0,0,0,.356-5.814,21.166,21.166,0,0,0,2.616-1.332A31.985,31.985,0,0,1,131.323,90.206Z" transform="translate(7.867 1)" opacity="0.2"/>
        <path d="M139.54,81.435l-7.714-.26,1.453,2.424c-3.345,1.821-10.069,4.642-15.867,1.88-2.463-1.174-5.257-3.6-5.71-6.878l-2.665.368c.509,3.686,3.208,7.028,7.218,8.938a14.96,14.96,0,0,0,6.5,1.414,25.917,25.917,0,0,0,11.91-3.414l1.471,2.454Z" transform="translate(7.867 1)" fill="#263239"/>
        <path d="M139.54,81.435l-7.714-.26,1.453,2.424c-3.345,1.821-10.069,4.642-15.867,1.88-2.463-1.174-5.257-3.6-5.71-6.878l-2.665.368c.509,3.686,3.208,7.028,7.218,8.938a14.96,14.96,0,0,0,6.5,1.414,25.917,25.917,0,0,0,11.91-3.414l1.471,2.454Z" transform="translate(7.867 1)" fill="#fff" opacity="0.8"/>
      </g>
      <g>
        <path d="M133.342,44.077l-4.529-6.249-3.836,6.7,2.852-.153c.224,5.032-6.395,6.684-7.77,6.971a64.274,64.274,0,0,1-7.147.931c-5.556.518-11.3,1.054-16.082,4.578a16.713,16.713,0,0,0-6.606,11.732,12.079,12.079,0,0,0,5.053,11.121,9.359,9.359,0,0,0,5.1,1.547,8.613,8.613,0,0,0,3.721-.84,8.836,8.836,0,0,0,4.92-7.18,12.385,12.385,0,0,0-4.468-10.249L102.8,65.029a9.769,9.769,0,0,1,3.537,7.928,6.088,6.088,0,0,1-3.4,5.028,6.233,6.233,0,0,1-6.19-.536,9.492,9.492,0,0,1-3.838-8.644,13.951,13.951,0,0,1,5.521-9.788c4.18-3.08,9.307-3.558,14.736-4.065a67.069,67.069,0,0,0,7.447-.976c4.851-1.014,10.186-4.162,9.907-9.748Z" transform="translate(7.867 1)" fill="#4b6fb5"/>
        <path d="M130.515,44.229c.279,5.586-5.054,8.733-9.907,9.749a67.739,67.739,0,0,1-7.448.975c-5.41.5-10.522.982-14.695,4.035l-.04.03a13.9,13.9,0,0,0-3.9,4.513A13.311,13.311,0,0,0,92.9,68.8a9.492,9.492,0,0,0,3.84,8.645,6.225,6.225,0,0,0,6.19.535,6.082,6.082,0,0,0,3.4-5.028,9.212,9.212,0,0,0-1.947-6.217c1.063-.434,1.927-1.076,1.853-2.008a11.956,11.956,0,0,1,2.771,8.5,8.838,8.838,0,0,1-4.92,7.179,8.615,8.615,0,0,1-3.722.841,9.355,9.355,0,0,1-5.094-1.547,12.073,12.073,0,0,1-5.054-11.12A15.865,15.865,0,0,1,91.8,62.969a16.866,16.866,0,0,1,3.588-4.906,15.115,15.115,0,0,1,1.446-1.21c4.782-3.524,10.525-4.062,16.08-4.58a63.667,63.667,0,0,0,7.149-.932c1.375-.285,7.993-1.936,7.768-6.97l-2.852.154,3.837-6.7,4.529,6.251Z" transform="translate(7.867 1)" fill="#fff" opacity="0.5"/>
        <path d="M98.465,58.988l-.04.03a13.9,13.9,0,0,0-3.9,4.513,14.841,14.841,0,0,0-2.727-.562,16.866,16.866,0,0,1,3.588-4.906A24.682,24.682,0,0,1,98.465,58.988Z" transform="translate(7.867 1)" opacity="0.2"/>
        <path d="M109.014,73.232l-2.676-.275a9.769,9.769,0,0,0-3.537-7.928c-6.718-5.729-18.77-3.961-25.385,1.21L75.76,64.12c7.59-5.934,20.968-7.806,28.786-1.137A12.385,12.385,0,0,1,109.014,73.232Z" transform="translate(7.867 1)" fill="#4b6fb5"/>
        <g opacity="0.5">
          <path d="M109.014,73.232l-2.676-.275a9.769,9.769,0,0,0-3.537-7.928c-6.718-5.729-18.77-3.961-25.385,1.21L75.76,64.12c7.59-5.934,20.968-7.806,28.786-1.137A12.385,12.385,0,0,1,109.014,73.232Z" transform="translate(7.867 1)" fill="#fff"/>
        </g>
      </g>
      <g>
        <path d="M88.551,134.836c-12.571,0-25.125-5.407-33.27-14.828A42.947,42.947,0,0,1,45.162,91.966a41.259,41.259,0,0,1,1.575-11.113A20.4,20.4,0,0,1,52.158,71.8a24.621,24.621,0,0,1,20.93-7.381l-.348,2.668A21.921,21.921,0,0,0,54.1,73.659a17.6,17.6,0,0,0-4.781,7.935,38.569,38.569,0,0,0-1.471,10.389,40.22,40.22,0,0,0,9.464,26.266c9.653,11.166,25.922,16.316,40.483,12.816A35.992,35.992,0,0,0,116.231,120.4a27.553,27.553,0,0,0,7.175-19.575c-.51-9.176-6.715-18.084-15.439-22.165-8.358-3.911-18.918-3.524-27.559,1.007-1.118.586-2.242,1.255-3.329,1.9a33.765,33.765,0,0,1-7.887,3.808l-.74-2.586A31.326,31.326,0,0,0,75.7,79.26c1.117-.666,2.273-1.355,3.455-1.975,9.371-4.913,20.846-5.32,29.949-1.061,9.6,4.489,16.421,14.316,16.985,24.453a30.26,30.26,0,0,1-7.852,21.512A38.682,38.682,0,0,1,98.427,133.68,42.243,42.243,0,0,1,88.551,134.836Z" transform="translate(7.867 1)" fill="#263239"/>
        <g opacity="0.5">
          <path d="M118.242,122.189a38.687,38.687,0,0,1-19.816,11.49,42.178,42.178,0,0,1-9.876,1.157c-12.57,0-25.126-5.407-33.27-14.829A42.958,42.958,0,0,1,45.162,91.966a41.424,41.424,0,0,1,1.382-10.418q.09-.348.192-.7a19.145,19.145,0,0,1,2.569-5.592,26.48,26.48,0,0,1,2.851-3.46,24.615,24.615,0,0,1,20.932-7.377l-.349,2.666A21.924,21.924,0,0,0,54.1,73.66a23.029,23.029,0,0,0-2.821,3.5A16.263,16.263,0,0,0,49.321,81.6c-.211.744-.4,1.493-.568,2.253a38.852,38.852,0,0,0-.9,8.135,40.215,40.215,0,0,0,9.466,26.265c9.65,11.167,25.919,16.319,40.479,12.815A35.957,35.957,0,0,0,116.231,120.4a27.547,27.547,0,0,0,7.176-19.574c-.511-9.176-6.715-18.084-15.441-22.166-8.357-3.911-18.915-3.524-27.557,1.009-1.12.585-2.243,1.254-3.329,1.9a33.715,33.715,0,0,1-7.889,3.806l-.74-2.585a31.112,31.112,0,0,0,7.25-3.535c1.12-.665,2.277-1.351,3.457-1.973,9.372-4.913,20.845-5.32,29.948-1.06,9.6,4.489,16.423,14.315,16.988,24.45A30.276,30.276,0,0,1,118.242,122.189Z" transform="translate(7.867 1)" fill="#fff"/>
        </g>
        <path d="M51.282,77.157A16.263,16.263,0,0,0,49.321,81.6c-.211.744-.4,1.493-.568,2.253a27.66,27.66,0,0,1-2.209-2.3q.09-.348.192-.7a19.145,19.145,0,0,1,2.569-5.592A26.926,26.926,0,0,0,51.282,77.157Z" transform="translate(7.867 1)" opacity="0.2"/>
        <path d="M79.158,77.285c-1.182.62-2.338,1.309-3.455,1.975a31.326,31.326,0,0,1-7.251,3.533c-5.224,1.494-11.615-.019-16.677-3.948-4.169-3.236-7.689-8.048-10.761-14.711-1.415-3.069-2.648-6.3-3.841-9.421-.7-1.837-1.426-3.735-2.184-5.592-1.707-4.184-4.4-7.016-7.725-8.209l1.249-2.559-7.662.919,3.985,6.609,1.238-2.535c3.609,1.154,5.545,4.637,6.424,6.791.747,1.829,1.466,3.713,2.162,5.535,1.209,3.165,2.458,6.437,3.911,9.588,3.257,7.065,7.037,12.2,11.554,15.71a23.222,23.222,0,0,0,14.067,5.095,18.156,18.156,0,0,0,5-.686,33.765,33.765,0,0,0,7.887-3.808c1.087-.648,2.211-1.317,3.329-1.9Z" transform="translate(7.867 1)" fill="#263239"/>
        <path d="M79.158,77.285c-1.182.62-2.338,1.309-3.455,1.975a31.326,31.326,0,0,1-7.251,3.533c-5.224,1.494-11.615-.019-16.677-3.948-4.169-3.236-7.689-8.048-10.761-14.711-1.415-3.069-2.648-6.3-3.841-9.421-.7-1.837-1.426-3.735-2.184-5.592-1.707-4.184-4.4-7.016-7.725-8.209l1.249-2.559-7.662.919,3.985,6.609,1.238-2.535c3.609,1.154,5.545,4.637,6.424,6.791.747,1.829,1.466,3.713,2.162,5.535,1.209,3.165,2.458,6.437,3.911,9.588,3.257,7.065,7.037,12.2,11.554,15.71a23.222,23.222,0,0,0,14.067,5.095,18.156,18.156,0,0,0,5-.686,33.765,33.765,0,0,0,7.887-3.808c1.087-.648,2.211-1.317,3.329-1.9Z" transform="translate(7.867 1)" fill="#fff" opacity="0.5"/>
      </g>
      <circle cx="75.55" cy="66.099" r="4.914" transform="translate(1.729 125.442) rotate(-76.718)" fill="#4b6fb5"/>
      <circle cx="75.55" cy="66.099" r="4.914" transform="translate(1.729 125.442) rotate(-76.718)" fill="#fff" opacity="0.5"/>
    </g>
    <g>
      <g>
        <path d="M128.928,126.933c-2.475.175-5.058.3-7.65.3-11.02,0-22.368-2.249-27.755-12.263A29.534,29.534,0,0,1,90.157,102.6a30.224,30.224,0,0,1,.285-6.069q.192-1.272.5-2.512a13.143,13.143,0,0,1,3.7-6.682,8.839,8.839,0,0,1,6.763-2.216,10.121,10.121,0,0,1,7.027,3.692l-2.108,1.672a7.4,7.4,0,0,0-5.135-2.684,6.184,6.184,0,0,0-4.734,1.524,10.468,10.468,0,0,0-2.905,5.336,25.047,25.047,0,0,0-.542,2.973,27.679,27.679,0,0,0-.081,6.036A26.578,26.578,0,0,0,95.893,113.7c5.925,11.013,20.664,11.427,32.843,10.552Z" transform="translate(7.867 1)" fill="#4b6fb5"/>
        <path d="M73.73,63l-2.565.8a4.76,4.76,0,0,0-2.99-3.127c-2.814-1.086-6.557-.316-8.8,1a10.478,10.478,0,0,0-4.755,6.271,11.357,11.357,0,0,0-.323,4.456,12.02,12.02,0,0,0,.273,1.429A32.068,32.068,0,0,0,56.278,78.5c1.628,3.84,3.474,8.192,1.093,12.782-2.414,4.65-7.68,6.251-11.893,6.251-.381,0-.75-.014-1.11-.037-6.4-.444-13.965-4.98-17.583-10.556A12.93,12.93,0,0,1,25.1,75.152l2.529.921a10.447,10.447,0,0,0,1.412,9.405c3.2,4.933,9.873,8.948,15.512,9.338,3.541.246,8.4-.857,10.431-4.771,1.8-3.464.417-6.722-1.184-10.492a25.933,25.933,0,0,1-2.176-6.812c-.016-.131-.03-.266-.043-.4a13.949,13.949,0,0,1,.47-5.195,13.163,13.163,0,0,1,5.956-7.788c2.717-1.6,7.36-2.653,11.137-1.2A7.43,7.43,0,0,1,73.73,63Z" transform="translate(7.867 1)" fill="#4b6fb5"/>
        <polygon points="141.05 126.577 134.373 122.707 134.779 131.075 141.05 126.577" fill="#4b6fb5"/>
        <path d="M54.294,72.408a12.02,12.02,0,0,0,.273,1.429,19.051,19.051,0,0,0-2.986-1.493,13.949,13.949,0,0,1,.47-5.195c.821.215,1.7.481,2.566.8A11.357,11.357,0,0,0,54.294,72.408Z" transform="translate(7.867 1)" opacity="0.2"/>
        <path d="M92.927,103.674a17.913,17.913,0,0,1-2.77-1.07,30.224,30.224,0,0,1,.285-6.069,22.632,22.632,0,0,0,2.566,1.1A27.679,27.679,0,0,0,92.927,103.674Z" transform="translate(7.867 1)" opacity="0.2"/>
      </g>
      <g>
        <path d="M72.337,121.328a21.939,21.939,0,0,1-9.833-2.15c-5.467-2.741-10.113-9.139-8.415-16.064a12.616,12.616,0,0,1,7.474-8.61l.992,2.5a9.885,9.885,0,0,0-5.853,6.75c-1.363,5.558,2.494,10.756,7.007,13.019,3.853,1.932,8.891,2.382,14.186,1.268,9.221-1.94,19.92-8.649,19.726-21.172A27.658,27.658,0,0,0,93.279,83C90.245,78.048,85,71.536,77.217,68.614l.946-2.519c8.493,3.191,14.155,10.187,17.41,15.494a30.344,30.344,0,0,1,4.738,15.238,21.55,21.55,0,0,1-6.524,15.929,30.847,30.847,0,0,1-15.338,7.917A29.738,29.738,0,0,1,72.337,121.328Z" transform="translate(7.867 1)" fill="#263239"/>
        <g opacity="0.2">
          <path d="M100.312,96.827a21.547,21.547,0,0,1-6.524,15.929,30.037,30.037,0,0,1-12.862,7.3c-.813.236-1.641.441-2.478.616a29.567,29.567,0,0,1-6.11.655,24.866,24.866,0,0,1-4.65-.427,20,20,0,0,1-5.186-1.721c-5.464-2.741-10.111-9.14-8.413-16.064A12.612,12.612,0,0,1,61.564,94.5l.992,2.5a9.884,9.884,0,0,0-5.854,6.749c-1.362,5.559,2.5,10.757,7.008,13.02a18.172,18.172,0,0,0,6.375,1.759,25.883,25.883,0,0,0,7.812-.491,31.675,31.675,0,0,0,4.774-1.409c7.771-2.983,15.112-9.372,14.951-19.765A27.673,27.673,0,0,0,93.281,83C90.244,78.047,85,71.537,77.217,68.615l.945-2.519c8.494,3.191,14.157,10.186,17.412,15.492A30.373,30.373,0,0,1,100.312,96.827Z" transform="translate(7.867 1)" fill="#fff"/>
        </g>
        <path d="M82.671,116.633a11.932,11.932,0,0,1-1.745,3.423c-.813.236-1.641.441-2.478.616a29.567,29.567,0,0,1-6.11.655,24.866,24.866,0,0,1-4.65-.427,12.808,12.808,0,0,0,2.4-2.367,25.883,25.883,0,0,0,7.812-.491A31.675,31.675,0,0,0,82.671,116.633Z" transform="translate(7.867 1)" opacity="0.2"/>
      </g>
      <g>
        <g>
          <path d="M76.457,140.819a.276.276,0,0,1-.257-.171.283.283,0,0,1-.017-.237,1.137,1.137,0,0,1,.427-.465c-.256.062-.509.087-.617-.014-.07-.066-.078-.164-.023-.293a.434.434,0,0,1,.267-.246,1.711,1.711,0,0,1,1.052.195.067.067,0,0,1,.027.023h0l.008.014h0a.063.063,0,0,1,0,.03.085.085,0,0,1,0,.022h0l0,0a3.365,3.365,0,0,1-.639,1.031A.4.4,0,0,1,76.457,140.819Zm-.13-.364a.144.144,0,0,0,.007.124c.054.1.1.1.116.095.174-.008.456-.46.647-.859C76.812,139.972,76.4,140.237,76.327,140.455Zm-.217-.76c-.016.038-.04.107-.011.133.092.087.545-.02.968-.18a1.3,1.3,0,0,0-.779-.119.319.319,0,0,0-.1.056A.281.281,0,0,0,76.11,139.7Z" transform="translate(7.867 1)" fill="#4b6fb5"/>
          <path d="M79.466,137.389c-.161-.162-2.156,1.821-2.156,1.821a8.39,8.39,0,0,1-1.088,3.8c-.994,1.392.407,1.5,1.821.264l3.5-3.061C82.548,139.338,81.138,139.066,79.466,137.389Z" transform="translate(7.867 1)" fill="#4b6fb5"/>
          <path d="M79.466,137.389c-.161-.162-2.156,1.821-2.156,1.821a8.39,8.39,0,0,1-1.088,3.8c-.994,1.392.407,1.5,1.821.264l3.5-3.061C82.548,139.338,81.138,139.066,79.466,137.389Z" transform="translate(7.867 1)" fill="#fff" opacity="0.3"/>
          <path d="M79.466,137.389c-.161-.162-2.156,1.821-2.156,1.821a8.39,8.39,0,0,1-1.088,3.8c-.994,1.392.407,1.5,1.821.264l3.5-3.061C82.548,139.338,81.138,139.066,79.466,137.389Z" transform="translate(7.867 1)" opacity="0.2"/>
        </g>
        <g>
          <path d="M77.4,142.493a.257.257,0,0,1-.074-.292.3.3,0,0,1,.151-.188,1.223,1.223,0,0,1,.642-.075c-.234-.116-.44-.259-.451-.4-.007-.094.056-.173.186-.234a.459.459,0,0,1,.37-.014c.391.151.639.788.651.817a.078.078,0,0,1,0,.034h0l0,.015h0a.074.074,0,0,1-.017.025.062.062,0,0,1-.018.014h0a3.65,3.65,0,0,1-1.193.362A.4.4,0,0,1,77.4,142.493Zm.154-.355a.158.158,0,0,0-.081.1c-.027.108.009.136.021.145.136.1.66-.053,1.08-.229A1.941,1.941,0,0,0,77.558,142.138Zm.366-.706c-.039.018-.1.054-.1.092.009.124.421.333.848.483a1.208,1.208,0,0,0-.5-.585.3.3,0,0,0-.248.01Z" transform="translate(7.867 1)" fill="#4b6fb5"/>
          <path d="M82.029,141.85c-.008-.223-2.872-.015-2.872-.015a9.061,9.061,0,0,1-3.451,2.147c-1.708.406-.738,1.381,1.176,1.359l4.737-.055C82.979,145.271,82.115,144.169,82.029,141.85Z" transform="translate(7.867 1)" fill="#4b6fb5"/>
          <path d="M82.029,141.85c-.008-.223-2.872-.015-2.872-.015a9.061,9.061,0,0,1-3.451,2.147c-1.708.406-.738,1.381,1.176,1.359l4.737-.055C82.979,145.271,82.115,144.169,82.029,141.85Z" transform="translate(7.867 1)" fill="#fff" opacity="0.3"/>
        </g>
        <g>
          <path d="M68.018,119.447c1.045,2,2.1,4.149,3.106,6.3,1.327,2.839,2.574,5.681,3.635,8.225.758,1.815,1.746,4.106,2.265,5.491a5.33,5.33,0,0,0,3.028-1.232,90.191,90.191,0,0,0-3.389-14.664,37.955,37.955,0,0,0-3.9-8.362c7.412-18.328,5.976-25.327,5.976-25.327L70.875,89.3s-1.419,6.868-2.608,13.92v0c-.619,3.7-1.174,7.443-1.43,10.277v.029A10.677,10.677,0,0,0,68.018,119.447Z" transform="translate(7.867 1)" fill="#263239"/>
          <path d="M74.836,109.748c1.1-3.12,1.91-5.826,2.494-8.151a9.679,9.679,0,0,0-2.045-4.406A30.829,30.829,0,0,0,74.836,109.748Z" transform="translate(7.867 1)" opacity="0.2"/>
          <path d="M74.759,133.971c.758,1.815,1.746,4.106,2.265,5.491a5.33,5.33,0,0,0,3.028-1.232,90.191,90.191,0,0,0-3.389-14.664C75.986,126.617,75.213,130.477,74.759,133.971Z" transform="translate(7.867 1)" opacity="0.2"/>
        </g>
        <path d="M74.044,88.563s2.293,17.015,3.607,25.2c1.38,8.6,1.555,22.4,1.21,28.022a6.052,6.052,0,0,0,3.323.321s4.676-17.392,1.57-27.494c2.828-19.9-1.265-24.77-1.265-24.77Z" transform="translate(7.867 1)" fill="#263239"/>
        <path d="M73.67,74.52c-3.135.751-8.406,1.915-11.426.526-3.564-2.012-.584-5.749,1.4-7.6a32.589,32.589,0,0,1,4.466-3.576.912.912,0,0,1,1.152,1.4c-1.237,1.307-2.476,2.667-3.573,4.038a9.992,9.992,0,0,0-1.819,2.96c-.047.211.018.2-.019.034a.71.71,0,0,0-.16-.287c0-.011,0-.009.028,0a11.244,11.244,0,0,0,3.845-.06c1.713-.238,3.5-.6,5.2-.984a1.833,1.833,0,0,1,.909,3.551Z" transform="translate(7.867 1)" fill="#f7bebf"/>
        <path d="M74.572,70.812c-1.831-.045-9.347,1.117-9.347,1.117l.725,4.047,5.35-.212Z" transform="translate(7.867 1)" fill="#4b6fb5"/>
        <path d="M74.573,70.814l-2.409,3.644L71.3,75.764l-1.534.071-3.818.142-.724-4.049S72.742,70.768,74.573,70.814Z" transform="translate(7.867 1)" fill="#fff" opacity="0.7"/>
        <path d="M72.164,74.458,71.3,75.764l-1.534.071a3.537,3.537,0,0,1,2.563-2.44C72.373,73.533,72.135,74.32,72.164,74.458Z" transform="translate(7.867 1)" opacity="0.2"/>
        <path d="M67.767,64.533l.372-2.914L69.514,59.6l1.091,1.823-.374,1.253a2.471,2.471,0,0,1-.923,2.546Z" transform="translate(7.867 1)" fill="#f7bebf"/>
        <path d="M70.721,85.582c-.12-2.467-.171-4.2-.179-5.953a33.029,33.029,0,0,1,.172-4.483c.125-1.934,1.642-4.12,3.591-4.323.54-.056,1.1-.106,1.649-.136a34.936,34.936,0,0,1,4.992.17c.473.039.934.092,1.368.151a2.564,2.564,0,0,1,2.078,3.407,50.273,50.273,0,0,0-2.5,10.68c.28.783,1.758,5.019,1.153,5.5-.667.53-11.78.927-12.641,0C69.734,89.875,70.392,86.885,70.721,85.582Z" transform="translate(7.867 1)" fill="#4b6fb5"/>
        <path d="M84.392,74.416c-.284.894-.543,1.731-.774,2.519-.028.1-.056.2-.088.3-.11.39-.217.766-.316,1.128-.248.905-.454,1.739-.628,2.509a32.2,32.2,0,0,0-.7,4.23c.284.784,1.763,5.017,1.157,5.5-.668.529-11.782.923-12.644,0-.667-.72-.007-3.712.323-5.014-.121-2.47-.174-4.2-.181-5.954a33.235,33.235,0,0,1,.174-4.482c.124-1.934,1.639-4.12,3.591-4.322.539-.061,1.1-.11,1.647-.139a34.873,34.873,0,0,1,4.989.171c.475.039.937.092,1.37.149A2.569,2.569,0,0,1,84.392,74.416Z" transform="translate(7.867 1)" fill="#fff" opacity="0.7"/>
        <path d="M83.53,77.23c-.11.39-.217.766-.316,1.128-1.057-.571-.6-2.26-.6-2.26.241-.575,0-.887.444-.806A15.549,15.549,0,0,0,83.53,77.23Z" transform="translate(7.867 1)" opacity="0.2"/>
        <path d="M83.656,86.96l.676,2.858-.578,2.371-1.662-1.323L82,89.561a2.47,2.47,0,0,1-.031-2.708Z" transform="translate(7.867 1)" fill="#f7bebf"/>
        <path d="M84.42,71.857c2.522,1.69,8.024,5.59,6.7,9.144-1.223,3.015-5.268,5.522-8,7.06a.913.913,0,0,1-1.02-1.5,33.7,33.7,0,0,0,5.6-5.86,1.832,1.832,0,0,0,.318-.8c-.011.031-.015,0-.049-.061a8.6,8.6,0,0,0-1.888-2.1,44.891,44.891,0,0,0-3.7-2.83,1.833,1.833,0,0,1,2.035-3.047Z" transform="translate(7.867 1)" fill="#f7bebf"/>
        <path d="M82.314,71.008c2.624.345,6.513,3.125,8.023,5.481l-3.262,2.778A26.091,26.091,0,0,0,81.61,76.64a6.583,6.583,0,0,1-.845-3.533A2.041,2.041,0,0,1,82.314,71.008Z" transform="translate(7.867 1)" fill="#4b6fb5"/>
        <path d="M82.314,71.008c2.624.345,6.513,3.125,8.023,5.481l-3.262,2.778A26.091,26.091,0,0,0,81.61,76.64a6.583,6.583,0,0,1-.845-3.533A2.041,2.041,0,0,1,82.314,71.008Z" transform="translate(7.867 1)" fill="#fff" opacity="0.7"/>
        <path d="M72.617,73.65s.069-2.99,3.738-3.42,4.121.883,3.85,2.627a11.262,11.262,0,0,0-1.79-.611c-.883-.2-3.342,2.627-3.342,2.627s-1.121-2.166-1.313-2.363S72.617,73.65,72.617,73.65Z" transform="translate(7.867 1)" fill="#4b6fb5"/>
        <path d="M69.83,63.735c.707,1.6,1.659,2.234,1.525,4.559s.379,2.961,4.744,2.233,5.561-2,5.509-3.96-.986-2.368-1.848-3.515S78.7,59.1,75.1,59.315,68.734,61.262,69.83,63.735Z" transform="translate(7.867 1)" fill="#263239"/>
        <g>
          <path d="M76.6,65.832c.224,1.65.876,4.571,2.255,5.153,0,0-1.492.381-3.693,3.478a8.23,8.23,0,0,1-1.047-2.58c1.514-1.1,1.184-1.306.5-2.372Z" transform="translate(7.867 1)" fill="#f7bebf"/>
          <path d="M75.787,67.333,74.61,69.51a4.917,4.917,0,0,1,.425.782A2.444,2.444,0,0,0,76.1,68.143,2.4,2.4,0,0,0,75.787,67.333Z" transform="translate(7.867 1)" opacity="0.2"/>
        </g>
        <g>
          <path d="M77.339,62.911c.127,2.637.236,3.748-.916,5.3-1.733,2.337-4.94,2.082-5.837-.424-.807-2.255-.879-6.189,1.524-7.642A3.382,3.382,0,0,1,77.339,62.911Z" transform="translate(7.867 1)" fill="#f7bebf"/>
          <path d="M72.364,64.806a6.5,6.5,0,0,1-.63,1.532.883.883,0,0,0,.773.025Z" transform="translate(7.867 1)" fill="#ed847f"/>
          <path d="M78.425,64.923A2.117,2.117,0,0,1,77.3,66.084c-.665.27-1.053-.37-.914-1.093.124-.652.621-1.576,1.31-1.535A1.007,1.007,0,0,1,78.425,64.923Z" transform="translate(7.867 1)" fill="#f7bebf"/>
          <path d="M71.4,63.127a.121.121,0,0,1,.093.009.128.128,0,0,1,.043.176,1.359,1.359,0,0,1-.968.713.118.118,0,0,1-.131-.117.14.14,0,0,1,.122-.143,1.084,1.084,0,0,0,.761-.572A.139.139,0,0,1,71.4,63.127Z" transform="translate(7.867 1)" fill="#263239"/>
          <path d="M73.211,62.907a.117.117,0,0,0-.083.041.127.127,0,0,0,.022.18,1.358,1.358,0,0,0,1.157.325.118.118,0,0,0,.081-.155.14.14,0,0,0-.164-.091,1.086,1.086,0,0,1-.914-.268A.138.138,0,0,0,73.211,62.907Z" transform="translate(7.867 1)" fill="#263239"/>
          <g>
            <path d="M74.3,64.177a.336.336,0,0,1,.022.074c.049.217-.02.425-.155.464s-.283-.1-.333-.318a.608.608,0,0,1-.014-.167l0,0a.3.3,0,0,1,.166-.295C74.106,63.9,74.232,64,74.3,64.177Z" transform="translate(7.867 1)" fill="#263239"/>
            <path d="M74.073,63.952h-.53S73.89,64.281,74.073,63.952Z" transform="translate(7.867 1)" fill="#263239"/>
          </g>
          <g>
            <path d="M74.756,67.425a13.657,13.657,0,0,0-1.44.5.825.825,0,0,0-.1-.173v0a.665.665,0,0,0-.676-.319c-.206-.082,1.4-1.647,2.2-.423C74.865,67.213,74.843,67.345,74.756,67.425Z" transform="translate(7.867 1)" fill="#263239"/>
            <path d="M74.756,67.425a13.657,13.657,0,0,0-1.44.5.825.825,0,0,0-.1-.173v0A.951.951,0,0,1,74.756,67.425Z" transform="translate(7.867 1)" fill="#bb2520"/>
          </g>
          <path d="M74.277,65.033c-.376,0-.556-.444-.558-.449a.044.044,0,0,1,.024-.057.045.045,0,0,1,.058.024c.008.019.19.465.565.383a.044.044,0,0,1,.052.034.045.045,0,0,1-.034.053A.508.508,0,0,1,74.277,65.033Z" transform="translate(7.867 1)" opacity="0.2"/>
          <g>
            <path d="M71.3,64.7l-.568-.078S71.056,65.027,71.3,64.7Z" transform="translate(7.867 1)" fill="#263239"/>
            <path d="M71,64.661a.755.755,0,0,1,1.055-.135.811.811,0,0,0-.834.255Z" transform="translate(7.867 1)" fill="#263239"/>
          </g>
          <path d="M71.462,65.28a.045.045,0,0,1-.042-.029.044.044,0,0,1,.026-.057.9.9,0,0,0,.566-.536.045.045,0,1,1,.086.024.97.97,0,0,1-.621.595Z" transform="translate(7.867 1)" opacity="0.2"/>
        </g>
        <path d="M73.27,60.617s1.018,3.771,3.447,4.6,2.313,3.4,1.426,3.934a2.211,2.211,0,0,0,2.514-1.565c.509-1.9-.931-3.6-1.292-6.272s-4.244-2.976-6.562-2.4-3.925,1.935-2.973,4.82A3.669,3.669,0,0,1,73.27,60.617Z" transform="translate(7.867 1)" fill="#263239"/>
      </g>
      <path d="M99.719,102.294a29.271,29.271,0,0,1-5.595-.668,63.83,63.83,0,0,1-14.489-4.4,35.805,35.805,0,0,1-12.4-9,34.971,34.971,0,0,1-4.187-6.565c-1.7-3.171-3.3-6.166-6.263-8.191-5.65-3.868-12.667-4.25-17.559-3.89-2.226.164-9.64,1.117-11.6,6.5L25.1,75.153c1.7-4.654,6.9-7.741,13.93-8.259,5.32-.392,12.984.045,19.277,4.353,3.5,2.4,5.338,5.825,7.115,9.14a32.289,32.289,0,0,0,3.85,6.076,33.138,33.138,0,0,0,11.478,8.316,61.244,61.244,0,0,0,13.889,4.207c2.442.478,5.259.936,7.79.315a6.737,6.737,0,0,0,4.734-4.168,4.717,4.717,0,0,0-.841-4.646l2.11-1.668a7.391,7.391,0,0,1,1.276,7.187,9.36,9.36,0,0,1-6.638,5.907A13.988,13.988,0,0,1,99.719,102.294Z" transform="translate(7.867 1)" fill="#4b6fb5"/>
      <g>
        <path d="M81.421,106.279c-.714-5.811-5.637-10.993-11.705-12.321a13.963,13.963,0,0,0-8.153.546l.991,2.5a11.434,11.434,0,0,1,6.587-.418c4.989,1.092,9.031,5.306,9.61,10.021a13.018,13.018,0,0,1-2.276,8.687c-3.174,4.788-8.647,7.536-12.488,9.186-13.987,6.009-28.36,7.11-38.938,3.069l1-2.577-7.561,1.549,4.519,6.257,1.06-2.72a42.335,42.335,0,0,0,15.08,2.569,66.512,66.512,0,0,0,25.9-5.675c4.157-1.786,10.1-4.784,13.668-10.172A15.7,15.7,0,0,0,81.421,106.279Z" transform="translate(7.867 1)" fill="#263239"/>
        <path d="M81.421,106.279c-.714-5.811-5.637-10.993-11.705-12.321a13.963,13.963,0,0,0-8.153.546l.991,2.5a11.434,11.434,0,0,1,6.587-.418c4.989,1.092,9.031,5.306,9.61,10.021a13.018,13.018,0,0,1-2.276,8.687c-3.174,4.788-8.647,7.536-12.488,9.186-13.987,6.009-28.36,7.11-38.938,3.069l1-2.577-7.561,1.549,4.519,6.257,1.06-2.72a42.335,42.335,0,0,0,15.08,2.569,66.512,66.512,0,0,0,25.9-5.675c4.157-1.786,10.1-4.784,13.668-10.172A15.7,15.7,0,0,0,81.421,106.279Z" transform="translate(7.867 1)" fill="#fff" opacity="0.2"/>
      </g>
    </g>
    <g>
      <polygon points="85.15 56.759 84.015 48.282 86.285 48.282 85.15 56.759 85.15 56.759" fill="#4b6fb5"/>
      <polygon points="86.72 57.247 90.454 47.417 92.477 48.447 86.72 57.247 86.72 57.247" fill="#4b6fb5"/>
      <polygon points="87.897 58.395 93.605 52.844 94.94 54.681 87.897 58.395 87.897 58.395" fill="#4b6fb5"/>
    </g>
  </g>
</svg>
