<svg xmlns="http://www.w3.org/2000/svg" viewBox="0 0 499.806 141.969">
  <g id="Capa_2" data-name="Capa 2">
    <g id="Capa_7" data-name="Capa 7">
      <path d="M128,81.49c0,30.375-27.162,55-61.971,55S3,111.865,3,81.49s28.219-55,63.029-55S128,51.114,128,81.49Z" fill="#fff" stroke="#000" stroke-linecap="round" stroke-width="6"/>
      <circle cx="38.276" cy="70.729" r="12.5" fill="#1d1d1b" stroke="#000" stroke-miterlimit="10"/>
      <circle cx="93.226" cy="70.331" r="12.5" fill="#1d1d1b" stroke="#000" stroke-miterlimit="10"/>
      <path d="M43.348,107.763H87.985" fill="#1d1d1b" stroke="#000" stroke-linecap="round" stroke-width="6"/>
      <path d="M38.77,52.016C34.529,49.306,59.1,66.608,55.218,63.577" fill="#1d1d1b" stroke="#000" stroke-linecap="round" stroke-width="6"/>
      <path d="M73.573,64.357C67.924,70.344,103.248,36.068,97.187,41.4" fill="#1d1d1b" stroke="#000" stroke-linecap="round" stroke-width="6"/>
      <path d="M310.242,82.954c0,30.375-27.162,55-61.972,55s-63.028-24.625-63.028-55,28.219-55,63.028-55S310.242,52.578,310.242,82.954Z" fill="#fff" stroke="#000" stroke-linecap="round" stroke-width="6"/>
      <circle cx="220.518" cy="72.193" r="12.5" fill="#1d1d1b" stroke="#000" stroke-miterlimit="10"/>
      <circle cx="275.468" cy="71.794" r="12.5" fill="#1d1d1b" stroke="#000" stroke-miterlimit="10"/>
      <path d="M227.193,117.539l41.436-16.6" fill="#1d1d1b" stroke="#000" stroke-linecap="round" stroke-width="6"/>
      <path d="M221.012,53.479c-4.241-2.709,20.325,14.593,16.447,11.562" fill="#1d1d1b" stroke="#000" stroke-linecap="round" stroke-width="6"/>
      <path d="M255.815,65.821c-5.649,5.987,29.675-28.289,23.613-22.953" fill="#1d1d1b" stroke="#000" stroke-linecap="round" stroke-width="6"/>
      <path d="M496.806,82.555c0,30.376-27.162,55-61.972,55s-63.028-24.624-63.028-55,28.218-55,63.028-55S496.806,52.18,496.806,82.555Z" fill="#fff" stroke="#000" stroke-linecap="round" stroke-width="6"/>
      <circle cx="407.082" cy="71.794" r="12.5" fill="#1d1d1b" stroke="#000" stroke-miterlimit="10"/>
      <circle cx="462.031" cy="71.396" r="12.5" fill="#1d1d1b" stroke="#000" stroke-miterlimit="10"/>
      <line x1="413.756" y1="117.141" x2="455.193" y2="100.543" fill="#1d1d1b" stroke="#000" stroke-linecap="round" stroke-width="6"/>
      <line x1="407.576" y1="53.081" x2="424.023" y2="64.643" fill="#1d1d1b" stroke="#000" stroke-linecap="round" stroke-width="6"/>
      <line x1="442.379" y1="65.423" x2="465.992" y2="42.47" fill="#1d1d1b" stroke="#000" stroke-linecap="round" stroke-width="6"/>
      <path d="M375.128,34.4c13.5-8.649,21.008,3.156,21.008,3.156" fill="none" stroke="#000" stroke-linecap="round" stroke-width="6"/>
      <path d="M382.367,23.444c22.3-5.087,24.351,8.247,24.351,8.247" fill="none" stroke="#000" stroke-linecap="round" stroke-width="6"/>
      <path d="M388.628,11.51c30.954-2.935,30.954,16.045,30.954,16.045" fill="none" stroke="#000" stroke-linecap="round" stroke-width="6"/>
      <path d="M404.671,3.284c30.47-1.62,25.462,22.468,25.462,22.468" fill="none" stroke="#000" stroke-linecap="round" stroke-width="6"/>
      <path d="M128,82.349c0,30.376-27.162,55-61.971,55S3,112.725,3,82.349s28.219-55,63.029-55S128,51.973,128,82.349Z" fill="#fff" stroke="#000" stroke-linecap="round" stroke-width="6"/>
      <circle cx="38.276" cy="71.588" r="12.5" fill="#1d1d1b" stroke="#000" stroke-miterlimit="10"/>
      <circle cx="93.226" cy="71.19" r="12.5" fill="#1d1d1b" stroke="#000" stroke-miterlimit="10"/>
      <line x1="43.348" y1="108.623" x2="87.985" y2="108.623" fill="#1d1d1b" stroke="#000" stroke-linecap="round" stroke-width="6"/>
      <line x1="38.77" y1="52.875" x2="55.218" y2="64.436" fill="#1d1d1b" stroke="#000" stroke-linecap="round" stroke-width="6"/>
      <line x1="73.573" y1="65.217" x2="97.187" y2="42.264" fill="#1d1d1b" stroke="#000" stroke-linecap="round" stroke-width="6"/>
      <path d="M6.322,34.2c13.5-8.649,21.008,3.156,21.008,3.156" fill="none" stroke="#000" stroke-linecap="round" stroke-width="6"/>
      <path d="M13.561,23.238c22.305-5.087,24.352,8.247,24.352,8.247" fill="none" stroke="#000" stroke-linecap="round" stroke-width="6"/>
      <path d="M19.822,11.3C50.776,8.369,50.776,27.349,50.776,27.349" fill="none" stroke="#000" stroke-linecap="round" stroke-width="6"/>
      <path d="M35.866,3.078c30.47-1.62,25.462,22.468,25.462,22.468" fill="none" stroke="#000" stroke-linecap="round" stroke-width="6"/>
      <path d="M310.443,83.969c0,30.376-27.162,55-61.972,55s-63.028-24.624-63.028-55,28.219-55,63.028-55S310.443,53.593,310.443,83.969Z" fill="#fff" stroke="#000" stroke-linecap="round" stroke-width="6"/>
      <circle cx="220.719" cy="73.208" r="12.5" fill="#1d1d1b" stroke="#000" stroke-miterlimit="10"/>
      <circle cx="275.669" cy="72.81" r="12.5" fill="#1d1d1b" stroke="#000" stroke-miterlimit="10"/>
      <line x1="227.394" y1="118.554" x2="268.83" y2="101.956" fill="#1d1d1b" stroke="#000" stroke-linecap="round" stroke-width="6"/>
      <line x1="221.213" y1="54.495" x2="237.66" y2="66.056" fill="#1d1d1b" stroke="#000" stroke-linecap="round" stroke-width="6"/>
      <line x1="256.016" y1="66.836" x2="279.63" y2="43.883" fill="#1d1d1b" stroke="#000" stroke-linecap="round" stroke-width="6"/>
      <path d="M188.765,35.815c13.5-8.649,21.008,3.155,21.008,3.155" fill="none" stroke="#000" stroke-linecap="round" stroke-width="6"/>
      <path d="M196,24.858c22.305-5.087,24.351,8.246,24.351,8.246" fill="none" stroke="#000" stroke-linecap="round" stroke-width="6"/>
      <path d="M202.265,12.923c30.954-2.935,30.954,16.046,30.954,16.046" fill="none" stroke="#000" stroke-linecap="round" stroke-width="6"/>
      <path d="M218.309,4.7c30.469-1.62,25.462,22.468,25.462,22.468" fill="none" stroke="#000" stroke-linecap="round" stroke-width="6"/>
    </g>
  </g>
</svg>
