<svg xmlns="http://www.w3.org/2000/svg" viewBox="0 0 515.089 135.998">
  <g id="Capa_2" data-name="Capa 2">
    <g id="Capa_8" data-name="Capa 8">
      <path d="M319.5,76.779c0,30.376-27.162,55-61.971,55s-63.029-24.624-63.029-55,28.219-55,63.029-55S319.5,46.4,319.5,76.779Z" fill="#fff" stroke="#000" stroke-linecap="round" stroke-width="6"/>
      <circle cx="228.218" cy="62.146" r="8.627" fill="#1d1d1b" stroke="#000" stroke-miterlimit="10"/>
      <circle cx="288.71" cy="61.464" r="7.946" fill="#1d1d1b" stroke="#000" stroke-miterlimit="10"/>
      <line x1="245.839" y1="100.325" x2="278.962" y2="93.03" fill="#1d1d1b" stroke="#000" stroke-linecap="round" stroke-width="6"/>
      <line x1="186.184" y1="21.779" x2="217.092" y2="33.471" fill="#1d1d1b" stroke="#000" stroke-linecap="round" stroke-width="6"/>
      <line x1="207.638" y1="3" x2="229.094" y2="25.813" fill="#1d1d1b" stroke="#000" stroke-linecap="round" stroke-width="6"/>
      <line x1="307.227" y1="8.514" x2="282.704" y2="24.202" fill="#1d1d1b" stroke="#000" stroke-linecap="round" stroke-width="6"/>
      <line x1="324.966" y1="30.391" x2="297.533" y2="33.193" fill="#1d1d1b" stroke="#000" stroke-linecap="round" stroke-width="6"/>
      <path d="M138.205,76.277c0,30.375-27.162,55-61.972,55s-63.028-24.625-63.028-55,28.219-55,63.028-55S138.205,45.9,138.205,76.277Z" fill="#fff" stroke="#000" stroke-linecap="round" stroke-width="6"/>
      <circle cx="46.919" cy="61.643" r="8.627" fill="#1d1d1b" stroke="#000" stroke-miterlimit="10"/>
      <circle cx="107.411" cy="60.961" r="7.946" fill="#1d1d1b" stroke="#000" stroke-miterlimit="10"/>
      <path d="M64.539,99.823c-8.083,1.971,41.447-8.914,33.124-7.295" fill="#1d1d1b" stroke="#000" stroke-linecap="round" stroke-width="6"/>
      <path d="M109.27,50.425c-3.6.085,17.922.544,14.4.3" fill="#1d1d1b" stroke="#000" stroke-linecap="round" stroke-width="6"/>
      <path d="M44.132,48.339c-11.462.482,57.142.622,45.9.053" fill="#1d1d1b" stroke="#000" stroke-linecap="round" stroke-width="6"/>
      <path d="M140.082,17.472c-21.766-5.866-34.9,8.621-34.9,8.621" fill="none" stroke="#000" stroke-linecap="round" stroke-width="6"/>
      <path d="M143.667,29.889c-16.3-8.11-27.2,1.96-27.2,1.96" fill="none" stroke="#000" stroke-linecap="round" stroke-width="6"/>
      <path d="M6.585,18.965c21.766-5.866,35.049,8.753,35.049,8.753" fill="none" stroke="#000" stroke-linecap="round" stroke-width="6"/>
      <path d="M3,31.382c16.3-8.11,29.717,3.034,29.717,3.034" fill="none" stroke="#000" stroke-linecap="round" stroke-width="6"/>
      <line x1="230.247" y1="47.502" x2="272.499" y2="47.502" fill="#1d1d1b" stroke="#000" stroke-linecap="round" stroke-width="6"/>
      <line x1="288.71" y1="50.371" x2="302.369" y2="50.371" fill="#1d1d1b" stroke="#000" stroke-linecap="round" stroke-width="6"/>
      <path d="M506.626,76.779c0,30.376-27.161,55-61.971,55s-63.029-24.624-63.029-55,28.219-55,63.029-55S506.626,46.4,506.626,76.779Z" fill="#fff" stroke="#000" stroke-linecap="round" stroke-width="6"/>
      <circle cx="415.34" cy="62.146" r="8.627" fill="#1d1d1b" stroke="#000" stroke-miterlimit="10"/>
      <circle cx="475.833" cy="61.464" r="7.946" fill="#1d1d1b" stroke="#000" stroke-miterlimit="10"/>
      <line x1="432.961" y1="100.325" x2="466.084" y2="93.03" fill="#1d1d1b" stroke="#000" stroke-linecap="round" stroke-width="6"/>
      <line x1="373.306" y1="21.779" x2="404.215" y2="33.471" fill="#1d1d1b" stroke="#000" stroke-linecap="round" stroke-width="6"/>
      <line x1="394.76" y1="3" x2="416.217" y2="25.813" fill="#1d1d1b" stroke="#000" stroke-linecap="round" stroke-width="6"/>
      <line x1="494.35" y1="8.514" x2="469.826" y2="24.202" fill="#1d1d1b" stroke="#000" stroke-linecap="round" stroke-width="6"/>
      <line x1="512.089" y1="30.391" x2="484.656" y2="33.193" fill="#1d1d1b" stroke="#000" stroke-linecap="round" stroke-width="6"/>
      <line x1="417.37" y1="47.502" x2="459.621" y2="47.502" fill="#1d1d1b" stroke="#000" stroke-linecap="round" stroke-width="6"/>
      <line x1="475.833" y1="50.371" x2="489.491" y2="50.371" fill="#1d1d1b" stroke="#000" stroke-linecap="round" stroke-width="6"/>
      <path d="M138.205,78c0,30.376-27.162,55-61.972,55S13.205,108.374,13.205,78,41.424,23,76.233,23,138.205,47.623,138.205,78Z" fill="#fff" stroke="#000" stroke-linecap="round" stroke-width="6"/>
      <circle cx="46.919" cy="63.365" r="8.627" fill="#1d1d1b" stroke="#000" stroke-miterlimit="10"/>
      <circle cx="107.411" cy="62.683" r="7.946" fill="#1d1d1b" stroke="#000" stroke-miterlimit="10"/>
      <path d="M64.539,101.544c-8.083,1.972,41.447-8.913,33.124-7.3" fill="#1d1d1b" stroke="#000" stroke-linecap="round" stroke-width="6"/>
      <line x1="48.948" y1="48.721" x2="91.2" y2="48.721" fill="#1d1d1b" stroke="#000" stroke-linecap="round" stroke-width="6"/>
      <line x1="107.411" y1="51.59" x2="121.069" y2="51.59" fill="#1d1d1b" stroke="#000" stroke-linecap="round" stroke-width="6"/>
    </g>
  </g>
</svg>
