<svg xmlns="http://www.w3.org/2000/svg" viewBox="0 0 521.149 137.131">
  <g id="Capa_2" data-name="Capa 2">
    <g id="Capa_49" data-name="Capa 49">
      <path d="M135.939,78.605c0,30.376-27.162,55-61.972,55s-63.028-24.624-63.028-55,28.218-55,63.028-55S135.939,48.23,135.939,78.605Z" fill="none" stroke="#000" stroke-linecap="round" stroke-width="6"/>
      <line x1="105.96" y1="31.358" x2="133.435" y2="12.391" fill="none" stroke="#000" stroke-linecap="round" stroke-width="6"/>
      <line x1="119.697" y1="41.292" x2="148.043" y2="37.957" fill="none" stroke="#000" stroke-linecap="round" stroke-width="6"/>
      <line x1="33.261" y1="49.957" x2="70.304" y2="49.957" fill="none" stroke="#000" stroke-linecap="round" stroke-width="6"/>
      <line x1="95.348" y1="49.957" x2="105.96" y2="49.957" fill="none" stroke="#000" stroke-linecap="round" stroke-width="6"/>
      <circle cx="100.654" cy="68.828" r="5.306" stroke="#000" stroke-linecap="round" stroke-width="6"/>
      <circle cx="46.477" cy="68.828" r="5.306" stroke="#000" stroke-linecap="round" stroke-width="6"/>
      <line x1="64.565" y1="105.783" x2="80.217" y2="101.609" stroke="#000" stroke-linecap="round" stroke-width="6"/>
      <path d="M15.334,3,27.093,39.509a.618.618,0,0,1-.948.691L3,23.605" fill="none" stroke="#000" stroke-linecap="round" stroke-width="6"/>
      <path d="M506.044,79.131c0,30.375-27.162,55-61.972,55s-63.028-24.625-63.028-55,28.219-55,63.028-55S506.044,48.755,506.044,79.131Z" fill="none" stroke="#000" stroke-linecap="round" stroke-width="6"/>
      <line x1="476.065" y1="31.883" x2="503.54" y2="12.916" fill="none" stroke="#000" stroke-linecap="round" stroke-width="6"/>
      <line x1="489.803" y1="41.817" x2="518.149" y2="38.482" fill="none" stroke="#000" stroke-linecap="round" stroke-width="6"/>
      <line x1="403.366" y1="50.482" x2="440.41" y2="50.482" fill="none" stroke="#000" stroke-linecap="round" stroke-width="6"/>
      <line x1="465.453" y1="50.482" x2="476.065" y2="50.482" fill="none" stroke="#000" stroke-linecap="round" stroke-width="6"/>
      <circle cx="470.759" cy="69.353" r="5.306" stroke="#000" stroke-linecap="round" stroke-width="6"/>
      <circle cx="416.582" cy="69.353" r="5.306" stroke="#000" stroke-linecap="round" stroke-width="6"/>
      <line x1="434.67" y1="106.308" x2="450.323" y2="102.134" stroke="#000" stroke-linecap="round" stroke-width="6"/>
      <path d="M385.439,3.525,397.2,40.034a.617.617,0,0,1-.947.692L373.105,24.131" fill="none" stroke="#000" stroke-linecap="round" stroke-width="6"/>
      <path d="M319.855,79.131c0,30.375-27.161,55-61.971,55s-63.029-24.625-63.029-55,28.219-55,63.029-55S319.855,48.755,319.855,79.131Z" fill="none" stroke="#000" stroke-linecap="round" stroke-width="6"/>
      <line x1="289.877" y1="31.883" x2="317.352" y2="12.916" fill="none" stroke="#000" stroke-linecap="round" stroke-width="6"/>
      <line x1="303.614" y1="41.817" x2="331.96" y2="38.482" fill="none" stroke="#000" stroke-linecap="round" stroke-width="6"/>
      <line x1="217.178" y1="50.482" x2="254.221" y2="50.482" fill="none" stroke="#000" stroke-linecap="round" stroke-width="6"/>
      <line x1="279.265" y1="50.482" x2="289.877" y2="50.482" fill="none" stroke="#000" stroke-linecap="round" stroke-width="6"/>
      <circle cx="281.266" cy="66.048" r="8.611" stroke="#000" stroke-linecap="round" stroke-width="6"/>
      <circle cx="228.305" cy="66.048" r="8.611" stroke="#000" stroke-linecap="round" stroke-width="6"/>
      <line x1="248.482" y1="106.308" x2="264.134" y2="102.134" stroke="#000" stroke-linecap="round" stroke-width="6"/>
      <path d="M199.251,3.525,211.01,40.034a.618.618,0,0,1-.948.692L186.917,24.131" fill="none" stroke="#000" stroke-linecap="round" stroke-width="6"/>
    </g>
  </g>
</svg>
