<svg xmlns="http://www.w3.org/2000/svg" viewBox="0 0 515.125 116">
  <g id="Capa_2" data-name="Capa 2">
    <g id="Capa_34" data-name="Capa 34">
      <path d="M311.036,58c0,30.376-27.162,55-61.972,55s-63.028-24.624-63.028-55S214.255,3,249.064,3,311.036,27.624,311.036,58Z" fill="none" stroke="#000" stroke-linecap="round" stroke-width="6"/>
      <path d="M498.036,58c0,30.376-27.162,55-61.972,55s-63.028-24.624-63.028-55S401.255,3,436.064,3,498.036,27.624,498.036,58Z" fill="none" stroke="#000" stroke-linecap="round" stroke-width="6"/>
      <path d="M128,58c0,30.376-27.162,55-61.971,55S3,88.376,3,58,31.219,3,66.029,3,128,27.624,128,58Z" fill="none" stroke="#000" stroke-linecap="round" stroke-width="6"/>
      <line x1="281.189" y1="10.374" x2="302.105" y2="10.374" fill="none" stroke="#000" stroke-linecap="round" stroke-width="6"/>
      <line x1="293.136" y1="18.395" x2="320.105" y2="18.395" fill="none" stroke="#000" stroke-linecap="round" stroke-width="6"/>
      <line x1="301.22" y1="26.941" x2="324.54" y2="26.941" fill="none" stroke="#000" stroke-linecap="round" stroke-width="6"/>
      <line x1="306.555" y1="35.471" x2="326.627" y2="35.471" fill="none" stroke="#000" stroke-linecap="round" stroke-width="6"/>
      <line x1="251.5" y1="44.221" x2="276.54" y2="18.395" fill="none" stroke="#000" stroke-linecap="round" stroke-width="6"/>
      <line x1="221.235" y1="18.395" x2="240.801" y2="37.177" fill="none" stroke="#000" stroke-linecap="round" stroke-width="6"/>
      <circle cx="220.996" cy="46.155" r="6.587" stroke="#000" stroke-linecap="round" stroke-width="6"/>
      <circle cx="278.627" cy="46.155" r="6.587" stroke="#000" stroke-linecap="round" stroke-width="6"/>
      <line x1="466.688" y1="10.374" x2="487.604" y2="10.374" fill="none" stroke="#000" stroke-linecap="round" stroke-width="6"/>
      <line x1="478.635" y1="18.395" x2="505.604" y2="18.395" fill="none" stroke="#000" stroke-linecap="round" stroke-width="6"/>
      <line x1="486.719" y1="26.941" x2="510.038" y2="26.941" fill="none" stroke="#000" stroke-linecap="round" stroke-width="6"/>
      <line x1="492.054" y1="35.471" x2="512.125" y2="35.471" fill="none" stroke="#000" stroke-linecap="round" stroke-width="6"/>
      <line x1="436.999" y1="44.221" x2="462.038" y2="18.395" fill="none" stroke="#000" stroke-linecap="round" stroke-width="6"/>
      <line x1="406.734" y1="18.395" x2="426.299" y2="37.177" fill="none" stroke="#000" stroke-linecap="round" stroke-width="6"/>
      <circle cx="406.495" cy="46.155" r="6.587" stroke="#000" stroke-linecap="round" stroke-width="6"/>
      <circle cx="464.125" cy="46.155" r="6.587" stroke="#000" stroke-linecap="round" stroke-width="6"/>
      <path d="M420.54,100.308s17-15.913,41.5-11.479" fill="none" stroke="#000" stroke-linecap="round" stroke-width="6"/>
      <line x1="97.976" y1="10.374" x2="118.891" y2="10.374" fill="none" stroke="#000" stroke-linecap="round" stroke-width="6"/>
      <line x1="109.922" y1="18.395" x2="136.891" y2="18.395" fill="none" stroke="#000" stroke-linecap="round" stroke-width="6"/>
      <line x1="118.006" y1="26.941" x2="141.326" y2="26.941" fill="none" stroke="#000" stroke-linecap="round" stroke-width="6"/>
      <line x1="123.342" y1="35.471" x2="143.413" y2="35.471" fill="none" stroke="#000" stroke-linecap="round" stroke-width="6"/>
      <line x1="68.286" y1="44.221" x2="93.326" y2="18.395" fill="none" stroke="#000" stroke-linecap="round" stroke-width="6"/>
      <line x1="38.022" y1="18.395" x2="57.587" y2="37.177" fill="none" stroke="#000" stroke-linecap="round" stroke-width="6"/>
      <circle cx="37.783" cy="46.155" r="6.587" stroke="#000" stroke-linecap="round" stroke-width="6"/>
      <circle cx="95.413" cy="46.155" r="6.587" stroke="#000" stroke-linecap="round" stroke-width="6"/>
      <path d="M51.827,100.308s17-15.913,41.5-11.479" fill="none" stroke="#000" stroke-linecap="round" stroke-width="6"/>
      <line x1="232.192" y1="96.134" x2="264.02" y2="76.047" fill="none" stroke="#000" stroke-linecap="round" stroke-width="6"/>
    </g>
  </g>
</svg>
