<svg xmlns="http://www.w3.org/2000/svg" viewBox="0 0 501.731 132.079">
  <g id="Capa_2" data-name="Capa 2">
    <g id="Capa_33" data-name="Capa 33">
      <path d="M498.036,72.5c0,30.375-27.162,55-61.972,55s-63.028-24.625-63.028-55,28.219-55,63.028-55S498.036,42.124,498.036,72.5Z" fill="none" stroke="#000" stroke-linecap="round" stroke-width="6"/>
      <path d="M128,72.5c0,30.375-27.162,55-61.971,55S3,102.875,3,72.5s28.219-55,63.029-55S128,42.124,128,72.5Z" fill="none" stroke="#000" stroke-linecap="round" stroke-width="6"/>
      <line x1="4.844" y1="22.72" x2="18.896" y2="35.989" stroke="#000" stroke-linecap="round" stroke-width="6"/>
      <line x1="15.018" y1="17.5" x2="26.939" y2="29.355" stroke="#000" stroke-linecap="round" stroke-width="6"/>
      <line x1="23.235" y1="10.981" x2="34.974" y2="23.427" stroke="#000" stroke-linecap="round" stroke-width="6"/>
      <line x1="26.939" y1="43.46" x2="60.018" y2="43.46" stroke="#000" stroke-linecap="round" stroke-width="6"/>
      <line x1="85.061" y1="43.46" x2="99.54" y2="43.46" stroke="#000" stroke-linecap="round" stroke-width="6"/>
      <circle cx="36.292" cy="59.646" r="7.187" stroke="#000" stroke-linecap="round" stroke-width="6"/>
      <circle cx="92.301" cy="59.646" r="7.187" stroke="#000" stroke-linecap="round" stroke-width="6"/>
      <line x1="85.114" y1="89.242" x2="55.375" y2="97.851" stroke="#000" stroke-linecap="round" stroke-width="6"/>
      <path d="M310.627,74.079c0,30.376-27.162,55-61.972,55s-63.028-24.624-63.028-55,28.219-55,63.028-55S310.627,43.7,310.627,74.079Z" fill="none" stroke="#000" stroke-linecap="round" stroke-width="6"/>
      <line x1="209.566" y1="45.039" x2="242.645" y2="45.039" stroke="#000" stroke-linecap="round" stroke-width="6"/>
      <line x1="267.688" y1="45.039" x2="282.166" y2="45.039" stroke="#000" stroke-linecap="round" stroke-width="6"/>
      <circle cx="218.918" cy="61.225" r="7.187" stroke="#000" stroke-linecap="round" stroke-width="6"/>
      <circle cx="274.927" cy="61.225" r="7.187" stroke="#000" stroke-linecap="round" stroke-width="6"/>
      <line x1="267.74" y1="90.821" x2="238.001" y2="99.43" stroke="#000" stroke-linecap="round" stroke-width="6"/>
      <line x1="275.503" y1="22.72" x2="294.409" y2="6.286" fill="none" stroke="#000" stroke-linecap="round" stroke-width="6"/>
      <line x1="287.555" y1="29.355" x2="304.583" y2="14.503" fill="none" stroke="#000" stroke-linecap="round" stroke-width="6"/>
      <line x1="295.416" y1="35.989" x2="312.018" y2="21.929" fill="none" stroke="#000" stroke-linecap="round" stroke-width="6"/>
      <line x1="396.279" y1="41.753" x2="429.358" y2="41.753" stroke="#000" stroke-linecap="round" stroke-width="6"/>
      <line x1="454.401" y1="41.753" x2="468.88" y2="41.753" stroke="#000" stroke-linecap="round" stroke-width="6"/>
      <circle cx="405.632" cy="57.94" r="7.187" stroke="#000" stroke-linecap="round" stroke-width="6"/>
      <circle cx="461.641" cy="57.94" r="7.187" stroke="#000" stroke-linecap="round" stroke-width="6"/>
      <line x1="454.454" y1="87.536" x2="424.715" y2="96.144" stroke="#000" stroke-linecap="round" stroke-width="6"/>
      <line x1="462.217" y1="19.435" x2="481.123" y2="3" fill="none" stroke="#000" stroke-linecap="round" stroke-width="6"/>
      <line x1="474.268" y1="26.069" x2="491.297" y2="11.217" fill="none" stroke="#000" stroke-linecap="round" stroke-width="6"/>
      <line x1="482.129" y1="32.703" x2="498.731" y2="18.643" fill="none" stroke="#000" stroke-linecap="round" stroke-width="6"/>
    </g>
  </g>
</svg>
