<svg xmlns="http://www.w3.org/2000/svg" viewBox="0 0 499.859 149.822">
  <g id="Capa_2" data-name="Capa 2">
    <g id="Capa_15" data-name="Capa 15">
      <path d="M128,90.736c0,30.376-27.162,55-61.971,55S3,121.112,3,90.736s28.219-55,63.029-55S128,60.36,128,90.736Z" fill="#fff" stroke="#000" stroke-linecap="round" stroke-width="6"/>
      <circle cx="38.276" cy="79.975" r="12.5" fill="#1d1d1b" stroke="#000" stroke-miterlimit="10"/>
      <circle cx="93.226" cy="79.577" r="12.5" fill="#1d1d1b" stroke="#000" stroke-miterlimit="10"/>
      <path d="M43.348,117.01H87.985" fill="#1d1d1b" stroke="#000" stroke-linecap="round" stroke-width="6"/>
      <line x1="24.979" y1="6.13" x2="43.922" y2="40.245" fill="#1d1d1b" stroke="#000" stroke-linecap="round" stroke-width="6"/>
      <line x1="50.582" y1="3" x2="58.863" y2="36.165" fill="#1d1d1b" stroke="#000" stroke-linecap="round" stroke-width="6"/>
      <line x1="85.424" y1="3" x2="76.773" y2="36.839" fill="#1d1d1b" stroke="#000" stroke-linecap="round" stroke-width="6"/>
      <line x1="114.261" y1="7.696" x2="89.261" y2="40.996" fill="#1d1d1b" stroke="#000" stroke-linecap="round" stroke-width="6"/>
      <path d="M128,90.736c0,30.376-27.162,55-61.971,55S3,121.112,3,90.736s28.219-55,63.029-55S128,60.36,128,90.736Z" fill="#fff" stroke="#000" stroke-linecap="round" stroke-width="6"/>
      <circle cx="38.276" cy="79.975" r="12.5" fill="#1d1d1b" stroke="#000" stroke-miterlimit="10"/>
      <circle cx="93.226" cy="79.577" r="12.5" fill="#1d1d1b" stroke="#000" stroke-miterlimit="10"/>
      <line x1="55.413" y1="114.969" x2="77.766" y2="114.969" fill="#1d1d1b" stroke="#000" stroke-linecap="round" stroke-width="6"/>
      <line x1="24.979" y1="6.13" x2="42.141" y2="37.038" fill="#1d1d1b" stroke="#000" stroke-linecap="round" stroke-width="6"/>
      <line x1="50.582" y1="3" x2="58.121" y2="33.192" fill="#1d1d1b" stroke="#000" stroke-linecap="round" stroke-width="6"/>
      <line x1="85.424" y1="3" x2="77.706" y2="33.192" fill="#1d1d1b" stroke="#000" stroke-linecap="round" stroke-width="6"/>
      <line x1="114.261" y1="7.696" x2="91.166" y2="38.459" fill="#1d1d1b" stroke="#000" stroke-linecap="round" stroke-width="6"/>
      <line x1="21.81" y1="61.565" x2="48.919" y2="61.565" fill="#1d1d1b" stroke="#000" stroke-linecap="round" stroke-width="6"/>
      <line x1="81.565" y1="61.565" x2="93.226" y2="61.565" fill="#1d1d1b" stroke="#000" stroke-linecap="round" stroke-width="6"/>
      <path d="M311.263,90.8c0,30.376-27.162,55-61.972,55s-63.028-24.624-63.028-55,28.219-55,63.028-55S311.263,60.429,311.263,90.8Z" fill="#fff" stroke="#000" stroke-linecap="round" stroke-width="6"/>
      <circle cx="221.539" cy="80.043" r="12.5" fill="#1d1d1b" stroke="#000" stroke-miterlimit="10"/>
      <circle cx="276.489" cy="79.645" r="12.5" fill="#1d1d1b" stroke="#000" stroke-miterlimit="10"/>
      <path d="M226.611,117.078h44.637" fill="#1d1d1b" stroke="#000" stroke-linecap="round" stroke-width="6"/>
      <line x1="208.242" y1="6.199" x2="227.185" y2="40.314" fill="#1d1d1b" stroke="#000" stroke-linecap="round" stroke-width="6"/>
      <line x1="233.845" y1="3.068" x2="242.126" y2="36.233" fill="#1d1d1b" stroke="#000" stroke-linecap="round" stroke-width="6"/>
      <line x1="268.686" y1="3.068" x2="260.036" y2="36.908" fill="#1d1d1b" stroke="#000" stroke-linecap="round" stroke-width="6"/>
      <line x1="297.524" y1="7.764" x2="272.524" y2="41.065" fill="#1d1d1b" stroke="#000" stroke-linecap="round" stroke-width="6"/>
      <path d="M311.263,90.8c0,30.376-27.162,55-61.972,55s-63.028-24.624-63.028-55,28.219-55,63.028-55S311.263,60.429,311.263,90.8Z" fill="#fff" stroke="#000" stroke-linecap="round" stroke-width="6"/>
      <circle cx="221.539" cy="80.043" r="12.5" fill="#1d1d1b" stroke="#000" stroke-miterlimit="10"/>
      <circle cx="276.489" cy="79.645" r="12.5" fill="#1d1d1b" stroke="#000" stroke-miterlimit="10"/>
      <line x1="237.538" y1="114.969" x2="259.891" y2="114.969" fill="#1d1d1b" stroke="#000" stroke-linecap="round" stroke-width="6"/>
      <line x1="208.242" y1="6.199" x2="225.404" y2="37.106" fill="#1d1d1b" stroke="#000" stroke-linecap="round" stroke-width="6"/>
      <line x1="233.845" y1="3.068" x2="241.383" y2="33.26" fill="#1d1d1b" stroke="#000" stroke-linecap="round" stroke-width="6"/>
      <line x1="268.686" y1="3.068" x2="260.968" y2="33.26" fill="#1d1d1b" stroke="#000" stroke-linecap="round" stroke-width="6"/>
      <line x1="297.524" y1="7.764" x2="274.428" y2="38.527" fill="#1d1d1b" stroke="#000" stroke-linecap="round" stroke-width="6"/>
      <line x1="205.073" y1="61.634" x2="232.182" y2="61.634" fill="#1d1d1b" stroke="#000" stroke-linecap="round" stroke-width="6"/>
      <line x1="264.827" y1="61.634" x2="276.489" y2="61.634" fill="#1d1d1b" stroke="#000" stroke-linecap="round" stroke-width="6"/>
      <path d="M496.859,91.822c0,30.376-27.162,55-61.972,55s-63.028-24.624-63.028-55,28.218-55,63.028-55S496.859,61.446,496.859,91.822Z" fill="#fff" stroke="#000" stroke-linecap="round" stroke-width="6"/>
      <circle cx="407.135" cy="81.061" r="12.5" fill="#1d1d1b" stroke="#000" stroke-miterlimit="10"/>
      <circle cx="462.084" cy="80.663" r="12.5" fill="#1d1d1b" stroke="#000" stroke-miterlimit="10"/>
      <path d="M412.207,118.1c-10.894,0,55.854,0,44.637,0" fill="#1d1d1b" stroke="#000" stroke-linecap="round" stroke-width="6"/>
      <line x1="393.838" y1="7.216" x2="412.781" y2="41.331" fill="#1d1d1b" stroke="#000" stroke-linecap="round" stroke-width="6"/>
      <line x1="419.441" y1="4.086" x2="427.722" y2="37.251" fill="#1d1d1b" stroke="#000" stroke-linecap="round" stroke-width="6"/>
      <line x1="454.282" y1="4.086" x2="445.632" y2="37.925" fill="#1d1d1b" stroke="#000" stroke-linecap="round" stroke-width="6"/>
      <line x1="483.119" y1="8.782" x2="458.119" y2="42.082" fill="#1d1d1b" stroke="#000" stroke-linecap="round" stroke-width="6"/>
      <path d="M496.859,91.822c0,30.376-27.162,55-61.972,55s-63.028-24.624-63.028-55,28.218-55,63.028-55S496.859,61.446,496.859,91.822Z" fill="#fff" stroke="#000" stroke-linecap="round" stroke-width="6"/>
      <circle cx="407.135" cy="81.061" r="12.5" fill="#1d1d1b" stroke="#000" stroke-miterlimit="10"/>
      <circle cx="462.084" cy="80.663" r="12.5" fill="#1d1d1b" stroke="#000" stroke-miterlimit="10"/>
      <line x1="403.47" y1="118.027" x2="465.191" y2="118.027" fill="#1d1d1b" stroke="#000" stroke-linecap="round" stroke-width="6"/>
      <line x1="393.838" y1="7.216" x2="411" y2="38.124" fill="#1d1d1b" stroke="#000" stroke-linecap="round" stroke-width="6"/>
      <line x1="419.441" y1="4.086" x2="426.979" y2="34.278" fill="#1d1d1b" stroke="#000" stroke-linecap="round" stroke-width="6"/>
      <line x1="454.282" y1="4.086" x2="446.564" y2="34.278" fill="#1d1d1b" stroke="#000" stroke-linecap="round" stroke-width="6"/>
      <line x1="483.119" y1="8.782" x2="460.024" y2="39.545" fill="#1d1d1b" stroke="#000" stroke-linecap="round" stroke-width="6"/>
      <line x1="390.669" y1="62.651" x2="417.778" y2="62.651" fill="#1d1d1b" stroke="#000" stroke-linecap="round" stroke-width="6"/>
      <line x1="450.423" y1="62.651" x2="462.084" y2="62.651" fill="#1d1d1b" stroke="#000" stroke-linecap="round" stroke-width="6"/>
    </g>
  </g>
</svg>
