<svg xmlns="http://www.w3.org/2000/svg" viewBox="0 0 500.591 132.01">
  <g id="Capa_2" data-name="Capa 2">
    <g id="Capa_22" data-name="Capa 22">
      <path d="M247.563,127.423c34.81,0,63.029-24.624,63.029-55s-28.219-55-63.029-55-61.971,24.625-61.971,55" fill="#fff" stroke="#000" stroke-linecap="round" stroke-width="6"/>
      <path d="M185.592,72.423c0,30.376,27.161,55,61.971,55" fill="#fff" stroke="#000" stroke-linecap="round" stroke-width="6"/>
      <path d="M243.66,119.119c-34.945-2.087-43.636-31.194-43.636-31.194" fill="none" stroke="#000" stroke-linecap="round" stroke-width="6"/>
      <line x1="218.457" y1="34.811" x2="234.675" y2="50.198" fill="#1d1d1b" stroke="#000" stroke-linecap="round" stroke-width="6"/>
      <line x1="250.479" y1="51.545" x2="272.785" y2="23.643" fill="#1d1d1b" stroke="#000" stroke-linecap="round" stroke-width="6"/>
      <circle cx="213.771" cy="56.95" r="12.554" fill="#1d1d1b" stroke="#000" stroke-miterlimit="10"/>
      <circle cx="274.012" cy="56.95" r="12.554" fill="#1d1d1b" stroke="#000" stroke-miterlimit="10"/>
      <line x1="291.831" y1="3" x2="269.555" y2="19.408" fill="#1d1d1b" stroke="#000" stroke-linecap="round" stroke-width="6"/>
      <line x1="300.603" y1="13.188" x2="283.715" y2="25.627" fill="#1d1d1b" stroke="#000" stroke-linecap="round" stroke-width="6"/>
      <line x1="309.36" y1="28.265" x2="296.694" y2="37.594" fill="#1d1d1b" stroke="#000" stroke-linecap="round" stroke-width="6"/>
      <path d="M434.563,129.01c34.809,0,63.028-24.624,63.028-55s-28.219-55-63.028-55-61.972,24.624-61.972,55" fill="#fff" stroke="#000" stroke-linecap="round" stroke-width="6"/>
      <path d="M372.591,74.01c0,30.376,27.162,55,61.972,55" fill="#fff" stroke="#000" stroke-linecap="round" stroke-width="6"/>
      <path d="M430.66,120.705c-34.946-2.087-43.636-31.193-43.636-31.193" fill="none" stroke="#000" stroke-linecap="round" stroke-width="6"/>
      <line x1="405.456" y1="36.398" x2="421.674" y2="51.785" fill="#1d1d1b" stroke="#000" stroke-linecap="round" stroke-width="6"/>
      <line x1="437.479" y1="53.132" x2="459.784" y2="25.229" fill="#1d1d1b" stroke="#000" stroke-linecap="round" stroke-width="6"/>
      <circle cx="400.771" cy="58.536" r="12.554" fill="#1d1d1b" stroke="#000" stroke-miterlimit="10"/>
      <circle cx="461.011" cy="58.536" r="12.554" fill="#1d1d1b" stroke="#000" stroke-miterlimit="10"/>
      <line x1="478.83" y1="4.587" x2="456.555" y2="20.994" fill="#1d1d1b" stroke="#000" stroke-linecap="round" stroke-width="6"/>
      <line x1="487.602" y1="14.775" x2="470.715" y2="27.214" fill="#1d1d1b" stroke="#000" stroke-linecap="round" stroke-width="6"/>
      <line x1="496.359" y1="29.852" x2="483.694" y2="39.181" fill="#1d1d1b" stroke="#000" stroke-linecap="round" stroke-width="6"/>
      <path d="M64.971,127.423c34.81,0,63.029-24.624,63.029-55s-28.219-55-63.029-55S3,42.048,3,72.423" fill="#fff" stroke="#000" stroke-linecap="round" stroke-width="6"/>
      <path d="M3,72.423c0,30.376,27.162,55,61.971,55" fill="#fff" stroke="#000" stroke-linecap="round" stroke-width="6"/>
      <path d="M61.069,119.119c-34.946-2.087-43.636-31.194-43.636-31.194" fill="none" stroke="#000" stroke-linecap="round" stroke-width="6"/>
      <line x1="35.865" y1="34.811" x2="52.083" y2="50.198" fill="#1d1d1b" stroke="#000" stroke-linecap="round" stroke-width="6"/>
      <line x1="67.888" y1="51.545" x2="90.193" y2="23.643" fill="#1d1d1b" stroke="#000" stroke-linecap="round" stroke-width="6"/>
      <circle cx="33.986" cy="59.757" r="9.748" fill="#1d1d1b" stroke="#000" stroke-miterlimit="10"/>
      <line x1="109.239" y1="3" x2="86.964" y2="19.408" fill="#1d1d1b" stroke="#000" stroke-linecap="round" stroke-width="6"/>
      <line x1="118.011" y1="13.188" x2="101.124" y2="25.627" fill="#1d1d1b" stroke="#000" stroke-linecap="round" stroke-width="6"/>
      <line x1="126.768" y1="28.265" x2="114.103" y2="37.594" fill="#1d1d1b" stroke="#000" stroke-linecap="round" stroke-width="6"/>
      <circle cx="86.964" cy="59.757" r="9.748" fill="#1d1d1b" stroke="#000" stroke-miterlimit="10"/>
    </g>
  </g>
</svg>
