<svg xmlns="http://www.w3.org/2000/svg" viewBox="0 0 499.631 149.971">
  <g id="Capa_2" data-name="Capa 2">
    <g id="Capa_6" data-name="Capa 6">
      <path d="M128,90.8c0,30.375-27.162,55-61.971,55S3,121.171,3,90.8s28.219-55,63.029-55S128,60.42,128,90.8Z" fill="#fff" stroke="#000" stroke-linecap="round" stroke-width="6"/>
      <circle cx="38.276" cy="80.035" r="12.5" fill="#1d1d1b" stroke="#000" stroke-miterlimit="10"/>
      <circle cx="93.226" cy="79.637" r="12.5" fill="#1d1d1b" stroke="#000" stroke-miterlimit="10"/>
      <path d="M43.348,117.069H87.985" fill="#1d1d1b" stroke="#000" stroke-linecap="round" stroke-width="6"/>
      <line x1="38.77" y1="61.322" x2="55.218" y2="72.883" fill="#1d1d1b" stroke="#000" stroke-linecap="round" stroke-width="6"/>
      <line x1="73.573" y1="73.663" x2="97.187" y2="50.71" fill="#1d1d1b" stroke="#000" stroke-linecap="round" stroke-width="6"/>
      <line x1="24.979" y1="6.19" x2="42.141" y2="37.098" fill="#1d1d1b" stroke="#000" stroke-linecap="round" stroke-width="6"/>
      <line x1="50.582" y1="3.06" x2="58.121" y2="33.251" fill="#1d1d1b" stroke="#000" stroke-linecap="round" stroke-width="6"/>
      <line x1="85.424" y1="3.06" x2="77.706" y2="33.251" fill="#1d1d1b" stroke="#000" stroke-linecap="round" stroke-width="6"/>
      <line x1="114.261" y1="7.755" x2="91.166" y2="38.519" fill="#1d1d1b" stroke="#000" stroke-linecap="round" stroke-width="6"/>
      <path d="M311.036,90.736c0,30.376-27.162,55-61.972,55s-63.028-24.624-63.028-55,28.219-55,63.028-55S311.036,60.36,311.036,90.736Z" fill="#fff" stroke="#000" stroke-linecap="round" stroke-width="6"/>
      <circle cx="221.312" cy="79.975" r="12.5" fill="#1d1d1b" stroke="#000" stroke-miterlimit="10"/>
      <circle cx="276.262" cy="79.577" r="12.5" fill="#1d1d1b" stroke="#000" stroke-miterlimit="10"/>
      <path d="M226.384,117.01h44.637" fill="#1d1d1b" stroke="#000" stroke-linecap="round" stroke-width="6"/>
      <line x1="208.015" y1="6.13" x2="226.958" y2="40.245" fill="#1d1d1b" stroke="#000" stroke-linecap="round" stroke-width="6"/>
      <line x1="233.618" y1="3" x2="241.899" y2="36.165" fill="#1d1d1b" stroke="#000" stroke-linecap="round" stroke-width="6"/>
      <line x1="268.459" y1="3" x2="259.809" y2="36.839" fill="#1d1d1b" stroke="#000" stroke-linecap="round" stroke-width="6"/>
      <line x1="297.297" y1="7.696" x2="272.297" y2="40.996" fill="#1d1d1b" stroke="#000" stroke-linecap="round" stroke-width="6"/>
      <path d="M496.631,91.912c0,30.375-27.161,55-61.971,55s-63.029-24.625-63.029-55,28.219-55,63.029-55S496.631,61.536,496.631,91.912Z" fill="#fff" stroke="#000" stroke-linecap="round" stroke-width="6"/>
      <circle cx="406.908" cy="81.151" r="12.5" fill="#1d1d1b" stroke="#000" stroke-miterlimit="10"/>
      <circle cx="461.857" cy="80.752" r="12.5" fill="#1d1d1b" stroke="#000" stroke-miterlimit="10"/>
      <path d="M411.98,118.185h44.637" fill="#1d1d1b" stroke="#000" stroke-linecap="round" stroke-width="6"/>
      <path d="M407.4,62.437C403.161,59.728,427.727,77.03,423.849,74" fill="#1d1d1b" stroke="#000" stroke-linecap="round" stroke-width="6"/>
      <path d="M442.205,74.779c-5.649,5.987,29.675-28.289,23.613-22.953" fill="#1d1d1b" stroke="#000" stroke-linecap="round" stroke-width="6"/>
      <line x1="393.61" y1="7.306" x2="412.554" y2="41.421" fill="#1d1d1b" stroke="#000" stroke-linecap="round" stroke-width="6"/>
      <line x1="419.214" y1="4.176" x2="427.494" y2="37.341" fill="#1d1d1b" stroke="#000" stroke-linecap="round" stroke-width="6"/>
      <line x1="454.055" y1="4.176" x2="445.405" y2="38.015" fill="#1d1d1b" stroke="#000" stroke-linecap="round" stroke-width="6"/>
      <line x1="482.892" y1="8.871" x2="457.892" y2="42.172" fill="#1d1d1b" stroke="#000" stroke-linecap="round" stroke-width="6"/>
      <path d="M496.631,91.971c0,30.376-27.161,55-61.971,55s-63.029-24.624-63.029-55,28.219-55,63.029-55S496.631,61.6,496.631,91.971Z" fill="#fff" stroke="#000" stroke-linecap="round" stroke-width="6"/>
      <circle cx="406.908" cy="81.21" r="12.5" fill="#1d1d1b" stroke="#000" stroke-miterlimit="10"/>
      <circle cx="461.857" cy="80.812" r="12.5" fill="#1d1d1b" stroke="#000" stroke-miterlimit="10"/>
      <line x1="411.98" y1="118.245" x2="456.617" y2="118.245" fill="#1d1d1b" stroke="#000" stroke-linecap="round" stroke-width="6"/>
      <line x1="407.402" y1="62.497" x2="423.849" y2="74.059" fill="#1d1d1b" stroke="#000" stroke-linecap="round" stroke-width="6"/>
      <line x1="442.205" y1="74.839" x2="465.818" y2="51.886" fill="#1d1d1b" stroke="#000" stroke-linecap="round" stroke-width="6"/>
      <line x1="393.61" y1="7.366" x2="410.773" y2="38.273" fill="#1d1d1b" stroke="#000" stroke-linecap="round" stroke-width="6"/>
      <line x1="419.214" y1="4.235" x2="426.752" y2="34.427" fill="#1d1d1b" stroke="#000" stroke-linecap="round" stroke-width="6"/>
      <line x1="454.055" y1="4.235" x2="446.337" y2="34.427" fill="#1d1d1b" stroke="#000" stroke-linecap="round" stroke-width="6"/>
      <line x1="482.892" y1="8.931" x2="459.797" y2="39.694" fill="#1d1d1b" stroke="#000" stroke-linecap="round" stroke-width="6"/>
      <path d="M311.036,90.736c0,30.376-27.162,55-61.972,55s-63.028-24.624-63.028-55,28.219-55,63.028-55S311.036,60.36,311.036,90.736Z" fill="#fff" stroke="#000" stroke-linecap="round" stroke-width="6"/>
      <circle cx="221.312" cy="79.975" r="12.5" fill="#1d1d1b" stroke="#000" stroke-miterlimit="10"/>
      <circle cx="276.262" cy="79.577" r="12.5" fill="#1d1d1b" stroke="#000" stroke-miterlimit="10"/>
      <line x1="226.384" y1="117.01" x2="271.021" y2="117.01" fill="#1d1d1b" stroke="#000" stroke-linecap="round" stroke-width="6"/>
      <line x1="208.015" y1="6.13" x2="225.177" y2="37.038" fill="#1d1d1b" stroke="#000" stroke-linecap="round" stroke-width="6"/>
      <line x1="233.618" y1="3" x2="241.156" y2="33.192" fill="#1d1d1b" stroke="#000" stroke-linecap="round" stroke-width="6"/>
      <line x1="268.459" y1="3" x2="260.741" y2="33.192" fill="#1d1d1b" stroke="#000" stroke-linecap="round" stroke-width="6"/>
      <line x1="297.297" y1="7.696" x2="274.201" y2="38.459" fill="#1d1d1b" stroke="#000" stroke-linecap="round" stroke-width="6"/>
    </g>
  </g>
</svg>
