<svg xmlns="http://www.w3.org/2000/svg" viewBox="0 0 517.184 116">
  <g id="Capa_2" data-name="Capa 2">
    <g id="Capa_46" data-name="Capa 46">
      <path d="M128,58c0,30.376-27.162,55-61.971,55S3,88.376,3,58,31.219,3,66.029,3,128,27.624,128,58Z" fill="none" stroke="#000" stroke-linecap="round" stroke-width="6"/>
      <line x1="133.583" y1="8.221" x2="92.659" y2="8.221" fill="none" stroke="#000" stroke-linecap="round" stroke-width="6"/>
      <line x1="144.148" y1="18.395" x2="109.249" y2="18.395" fill="none" stroke="#000" stroke-linecap="round" stroke-width="6"/>
      <line x1="138.67" y1="32.09" x2="120.818" y2="32.09" fill="none" stroke="#000" stroke-linecap="round" stroke-width="6"/>
      <line x1="31.844" y1="30.134" x2="45.931" y2="30.134" fill="none" stroke="#000" stroke-linecap="round" stroke-width="6"/>
      <line x1="65.5" y1="30.134" x2="97.583" y2="30.134" fill="none" stroke="#000" stroke-linecap="round" stroke-width="6"/>
      <line x1="40.844" y1="82.177" x2="90.931" y2="82.177" fill="none" stroke="#000" stroke-linecap="round" stroke-width="6"/>
      <circle cx="38.888" cy="46.841" r="5.704" stroke="#000" stroke-linecap="round" stroke-width="6"/>
      <circle cx="92.164" cy="46.39" r="5.253" stroke="#000" stroke-linecap="round" stroke-width="6"/>
      <path d="M310.279,58c0,30.376-27.162,55-61.972,55s-63.028-24.624-63.028-55S213.5,3,248.307,3,310.279,27.624,310.279,58Z" fill="none" stroke="#000" stroke-linecap="round" stroke-width="6"/>
      <line x1="315.862" y1="8.221" x2="274.938" y2="8.221" fill="none" stroke="#000" stroke-linecap="round" stroke-width="6"/>
      <line x1="326.427" y1="18.395" x2="291.527" y2="18.395" fill="none" stroke="#000" stroke-linecap="round" stroke-width="6"/>
      <line x1="320.949" y1="32.09" x2="303.097" y2="32.09" fill="none" stroke="#000" stroke-linecap="round" stroke-width="6"/>
      <line x1="214.123" y1="31.383" x2="228.21" y2="31.383" fill="none" stroke="#000" stroke-linecap="round" stroke-width="6"/>
      <line x1="247.779" y1="30.134" x2="279.862" y2="30.134" fill="none" stroke="#000" stroke-linecap="round" stroke-width="6"/>
      <line x1="223.123" y1="82.177" x2="273.21" y2="82.177" fill="none" stroke="#000" stroke-linecap="round" stroke-width="6"/>
      <circle cx="219.419" cy="46.342" r="7.451" stroke="#000" stroke-linecap="round" stroke-width="6"/>
      <circle cx="272.696" cy="44.643" r="7" stroke="#000" stroke-linecap="round" stroke-width="6"/>
      <path d="M498.036,58c0,30.376-27.162,55-61.972,55s-63.028-24.624-63.028-55S401.255,3,436.064,3,498.036,27.624,498.036,58Z" fill="none" stroke="#000" stroke-linecap="round" stroke-width="6"/>
      <line x1="503.619" y1="8.221" x2="462.695" y2="8.221" fill="none" stroke="#000" stroke-linecap="round" stroke-width="6"/>
      <line x1="514.184" y1="18.395" x2="479.284" y2="18.395" fill="none" stroke="#000" stroke-linecap="round" stroke-width="6"/>
      <line x1="508.706" y1="32.09" x2="490.854" y2="32.09" fill="none" stroke="#000" stroke-linecap="round" stroke-width="6"/>
      <line x1="401.88" y1="30.134" x2="415.967" y2="30.134" fill="none" stroke="#000" stroke-linecap="round" stroke-width="6"/>
      <line x1="435.536" y1="30.134" x2="467.619" y2="30.134" fill="none" stroke="#000" stroke-linecap="round" stroke-width="6"/>
      <line x1="410.88" y1="82.177" x2="460.967" y2="82.177" fill="none" stroke="#000" stroke-linecap="round" stroke-width="6"/>
      <circle cx="408.923" cy="46.841" r="5.704" stroke="#000" stroke-linecap="round" stroke-width="6"/>
      <circle cx="462.2" cy="46.39" r="5.253" stroke="#000" stroke-linecap="round" stroke-width="6"/>
    </g>
  </g>
</svg>
