<svg xmlns="http://www.w3.org/2000/svg" viewBox="0 0 528.784 144.863">
  <g id="Capa_2" data-name="Capa 2">
    <g id="Capa_16" data-name="Capa 16">
      <path d="M64.971,141.053c34.81,0,63.029-24.624,63.029-55s-28.219-55-63.029-55S3,55.677,3,86.053" fill="#fff" stroke="#000" stroke-linecap="round" stroke-width="6"/>
      <path d="M3,86.053c0,30.376,27.162,55,61.971,55" fill="#fff" stroke="#000" stroke-linecap="round" stroke-width="6"/>
      <circle cx="91.809" cy="71.99" r="7.895" fill="#1d1d1b" stroke="#000" stroke-miterlimit="10"/>
      <line x1="91.809" y1="98.16" x2="46.704" y2="115.985" fill="#1d1d1b" stroke="#000" stroke-linecap="round" stroke-width="6"/>
      <line x1="39.206" y1="54.814" x2="58.165" y2="72.873" fill="#1d1d1b" stroke="#000" stroke-linecap="round" stroke-width="6"/>
      <line x1="72.445" y1="71.743" x2="88.814" y2="54.062" fill="#1d1d1b" stroke="#000" stroke-linecap="round" stroke-width="6"/>
      <line x1="156.193" y1="23.795" x2="116.203" y2="51.98" fill="#1d1d1b" stroke="#000" stroke-linecap="round" stroke-width="6"/>
      <line x1="147.785" y1="15.103" x2="108.73" y2="44.334" fill="#1d1d1b" stroke="#000" stroke-linecap="round" stroke-width="6"/>
      <line x1="140.42" y1="7.335" x2="98.13" y2="38.485" fill="#1d1d1b" stroke="#000" stroke-linecap="round" stroke-width="6"/>
      <circle cx="39.206" cy="73.496" r="7.498" fill="#1d1d1b" stroke="#000" stroke-miterlimit="10"/>
      <path d="M187.652,86.053c0,30.376,27.162,55,61.972,55" fill="#fff" stroke="#000" stroke-linecap="round" stroke-width="6"/>
      <circle cx="291.36" cy="76.837" r="7.895" fill="#1d1d1b" stroke="#000" stroke-miterlimit="10"/>
      <path d="M276.461,98.16c12.984-4.841-65.656,26.272-52.6,20.788" fill="#1d1d1b" stroke="#000" stroke-linecap="round" stroke-width="6"/>
      <path d="M209.489,54.814c-5.2-4.943,24.3,23.162,18.959,18.059" fill="#1d1d1b" stroke="#000" stroke-linecap="round" stroke-width="6"/>
      <path d="M279.963,71.759c-2.22,2.137,10.54-11.325,8.585-9.041" fill="#1d1d1b" stroke="#000" stroke-linecap="round" stroke-width="6"/>
      <circle cx="211.487" cy="76.44" r="7.498" fill="#1d1d1b" stroke="#000" stroke-miterlimit="10"/>
      <path d="M435.3,140.17c34.81,0,63.029-24.625,63.029-55s-28.219-55-63.029-55-61.971,24.624-61.971,55" fill="#fff" stroke="#000" stroke-linecap="round" stroke-width="6"/>
      <path d="M373.327,85.17c0,30.375,27.161,55,61.971,55" fill="#fff" stroke="#000" stroke-linecap="round" stroke-width="6"/>
      <circle cx="477.035" cy="75.954" r="7.895" fill="#1d1d1b" stroke="#000" stroke-miterlimit="10"/>
      <path d="M462.135,97.277c12.984-4.841-65.656,26.272-52.6,20.788" fill="#1d1d1b" stroke="#000" stroke-linecap="round" stroke-width="6"/>
      <path d="M395.163,53.931c-5.2-4.943,24.3,23.162,18.959,18.059" fill="#1d1d1b" stroke="#000" stroke-linecap="round" stroke-width="6"/>
      <path d="M465.637,70.876c-2.22,2.137,10.541-11.325,8.585-9.041" fill="#1d1d1b" stroke="#000" stroke-linecap="round" stroke-width="6"/>
      <circle cx="397.161" cy="75.557" r="7.498" fill="#1d1d1b" stroke="#000" stroke-miterlimit="10"/>
      <path d="M247.563,141.258c34.81,0,63.029-24.625,63.029-55s-28.219-55-63.029-55-61.971,24.624-61.971,55" fill="#fff" stroke="#000" stroke-linecap="round" stroke-width="6"/>
      <path d="M185.592,86.258c0,30.375,27.161,55,61.971,55" fill="#fff" stroke="#000" stroke-linecap="round" stroke-width="6"/>
      <circle cx="289.3" cy="77.042" r="7.895" fill="#1d1d1b" stroke="#000" stroke-miterlimit="10"/>
      <line x1="274.401" y1="98.365" x2="221.798" y2="119.153" fill="#1d1d1b" stroke="#000" stroke-linecap="round" stroke-width="6"/>
      <line x1="207.428" y1="55.019" x2="226.387" y2="73.078" fill="#1d1d1b" stroke="#000" stroke-linecap="round" stroke-width="6"/>
      <line x1="277.903" y1="71.964" x2="286.487" y2="62.923" fill="#1d1d1b" stroke="#000" stroke-linecap="round" stroke-width="6"/>
      <line x1="338.784" y1="24" x2="298.794" y2="52.184" fill="#1d1d1b" stroke="#000" stroke-linecap="round" stroke-width="6"/>
      <line x1="330.377" y1="15.307" x2="291.322" y2="44.539" fill="#1d1d1b" stroke="#000" stroke-linecap="round" stroke-width="6"/>
      <line x1="323.012" y1="7.54" x2="280.721" y2="38.69" fill="#1d1d1b" stroke="#000" stroke-linecap="round" stroke-width="6"/>
      <circle cx="209.426" cy="76.645" r="7.498" fill="#1d1d1b" stroke="#000" stroke-miterlimit="10"/>
      <path d="M435.3,140.374c34.81,0,63.029-24.624,63.029-55s-28.219-55-63.029-55-61.971,24.625-61.971,55" fill="#fff" stroke="#000" stroke-linecap="round" stroke-width="6"/>
      <path d="M373.327,85.374c0,30.376,27.161,55,61.971,55" fill="#fff" stroke="#000" stroke-linecap="round" stroke-width="6"/>
      <circle cx="477.035" cy="76.159" r="7.895" fill="#1d1d1b" stroke="#000" stroke-miterlimit="10"/>
      <line x1="462.135" y1="97.482" x2="409.533" y2="118.27" fill="#1d1d1b" stroke="#000" stroke-linecap="round" stroke-width="6"/>
      <line x1="395.163" y1="54.135" x2="414.122" y2="72.195" fill="#1d1d1b" stroke="#000" stroke-linecap="round" stroke-width="6"/>
      <line x1="465.637" y1="71.08" x2="474.222" y2="62.04" fill="#1d1d1b" stroke="#000" stroke-linecap="round" stroke-width="6"/>
      <line x1="525.784" y1="24" x2="485.794" y2="52.184" fill="#1d1d1b" stroke="#000" stroke-linecap="round" stroke-width="6"/>
      <line x1="502.679" y1="26.308" x2="478.322" y2="44.539" fill="#1d1d1b" stroke="#000" stroke-linecap="round" stroke-width="6"/>
      <line x1="510.747" y1="6.657" x2="468.456" y2="37.807" fill="#1d1d1b" stroke="#000" stroke-linecap="round" stroke-width="6"/>
      <circle cx="397.161" cy="75.761" r="7.498" fill="#1d1d1b" stroke="#000" stroke-miterlimit="10"/>
      <line x1="128.725" y1="3.073" x2="86.52" y2="34.353" fill="#1d1d1b" stroke="#000" stroke-linecap="round" stroke-width="6"/>
      <path d="M435.3,140.98c34.81,0,63.029-24.625,63.029-55s-28.219-55-63.029-55-61.971,24.624-61.971,55" fill="#fff" stroke="#000" stroke-linecap="round" stroke-width="6"/>
      <path d="M373.327,85.98c0,30.375,27.161,55,61.971,55" fill="#fff" stroke="#000" stroke-linecap="round" stroke-width="6"/>
      <circle cx="462.135" cy="71.917" r="7.895" fill="#1d1d1b" stroke="#000" stroke-miterlimit="10"/>
      <line x1="462.135" y1="98.087" x2="417.031" y2="115.912" fill="#1d1d1b" stroke="#000" stroke-linecap="round" stroke-width="6"/>
      <line x1="409.533" y1="54.741" x2="428.492" y2="72.8" fill="#1d1d1b" stroke="#000" stroke-linecap="round" stroke-width="6"/>
      <line x1="442.772" y1="71.67" x2="459.141" y2="53.989" fill="#1d1d1b" stroke="#000" stroke-linecap="round" stroke-width="6"/>
      <line x1="525.784" y1="24.605" x2="485.794" y2="52.79" fill="#1d1d1b" stroke="#000" stroke-linecap="round" stroke-width="6"/>
      <line x1="517.376" y1="15.913" x2="478.322" y2="45.144" fill="#1d1d1b" stroke="#000" stroke-linecap="round" stroke-width="6"/>
      <line x1="510.747" y1="7.262" x2="468.456" y2="38.412" fill="#1d1d1b" stroke="#000" stroke-linecap="round" stroke-width="6"/>
      <circle cx="409.533" cy="73.422" r="7.498" fill="#1d1d1b" stroke="#000" stroke-miterlimit="10"/>
      <line x1="499.052" y1="3" x2="456.847" y2="34.279" fill="#1d1d1b" stroke="#000" stroke-linecap="round" stroke-width="6"/>
      <path d="M247.175,141.863c34.81,0,63.029-24.624,63.029-55s-28.219-55-63.029-55-61.971,24.624-61.971,55" fill="#fff" stroke="#000" stroke-linecap="round" stroke-width="6"/>
      <path d="M185.2,86.863c0,30.376,27.162,55,61.971,55" fill="#fff" stroke="#000" stroke-linecap="round" stroke-width="6"/>
      <circle cx="274.013" cy="72.8" r="7.895" fill="#1d1d1b" stroke="#000" stroke-miterlimit="10"/>
      <line x1="270.559" y1="106.746" x2="225.454" y2="107.556" fill="#1d1d1b" stroke="#000" stroke-linecap="round" stroke-width="6"/>
      <line x1="221.41" y1="55.624" x2="240.369" y2="73.683" fill="#1d1d1b" stroke="#000" stroke-linecap="round" stroke-width="6"/>
      <line x1="254.649" y1="72.554" x2="271.018" y2="54.872" fill="#1d1d1b" stroke="#000" stroke-linecap="round" stroke-width="6"/>
      <line x1="338.397" y1="24.605" x2="298.407" y2="52.79" fill="#1d1d1b" stroke="#000" stroke-linecap="round" stroke-width="6"/>
      <line x1="329.989" y1="15.913" x2="290.934" y2="45.144" fill="#1d1d1b" stroke="#000" stroke-linecap="round" stroke-width="6"/>
      <line x1="322.624" y1="8.145" x2="280.334" y2="39.295" fill="#1d1d1b" stroke="#000" stroke-linecap="round" stroke-width="6"/>
      <circle cx="221.41" cy="74.306" r="7.498" fill="#1d1d1b" stroke="#000" stroke-miterlimit="10"/>
      <line x1="310.929" y1="3.883" x2="268.724" y2="35.163" fill="#1d1d1b" stroke="#000" stroke-linecap="round" stroke-width="6"/>
    </g>
  </g>
</svg>
