<svg xmlns="http://www.w3.org/2000/svg" viewBox="0 0 502.353 127.736">
  <g id="Capa_2" data-name="Capa 2">
    <g id="Capa_24" data-name="Capa 24">
      <path d="M130.721,69.736c0,30.376-27.161,55-61.971,55s-63.029-24.624-63.029-55,28.219-55,63.029-55S130.721,39.36,130.721,69.736Z" fill="#fff" stroke="#000" stroke-linecap="round" stroke-width="6"/>
      <line x1="27" y1="40.565" x2="61.957" y2="40.565" fill="#fff" stroke="#000" stroke-linecap="round" stroke-width="6"/>
      <line x1="86.478" y1="43.174" x2="101.609" y2="43.174" fill="#fff" stroke="#000" stroke-linecap="round" stroke-width="6"/>
      <line x1="86.478" y1="16.968" x2="118.304" y2="3" fill="#fff" stroke="#000" stroke-linecap="round" stroke-width="6"/>
      <line x1="99" y1="22.826" x2="130.721" y2="22.826" fill="#fff" stroke="#000" stroke-linecap="round" stroke-width="6"/>
      <line x1="23.348" y1="27.522" x2="3" y2="14.736" fill="#fff" stroke="#000" stroke-linecap="round" stroke-width="6"/>
      <line x1="20.739" y1="30.652" x2="20.739" y2="3" fill="#fff" stroke="#000" stroke-linecap="round" stroke-width="6"/>
      <line x1="53.087" y1="94.826" x2="72.391" y2="88.565" fill="#fff" stroke="#000" stroke-linecap="round" stroke-width="6"/>
      <circle cx="45.652" cy="56.609" r="5.087" stroke="#000" stroke-linecap="round" stroke-width="6"/>
      <circle cx="77.478" cy="56.609" r="5.087" stroke="#000" stroke-linecap="round" stroke-width="6"/>
      <path d="M314.013,69.736c0,30.376-27.162,55-61.972,55s-63.028-24.624-63.028-55,28.219-55,63.028-55S314.013,39.36,314.013,69.736Z" fill="#fff" stroke="#000" stroke-linecap="round" stroke-width="6"/>
      <line x1="211.4" y1="42" x2="240.578" y2="42" fill="#fff" stroke="#000" stroke-linecap="round" stroke-width="6"/>
      <line x1="268.009" y1="42" x2="280.661" y2="42" fill="#fff" stroke="#000" stroke-linecap="round" stroke-width="6"/>
      <line x1="269.77" y1="16.968" x2="301.596" y2="3" fill="#fff" stroke="#000" stroke-linecap="round" stroke-width="6"/>
      <line x1="282.292" y1="22.826" x2="314.013" y2="22.826" fill="#fff" stroke="#000" stroke-linecap="round" stroke-width="6"/>
      <line x1="206.639" y1="27.522" x2="186.292" y2="14.736" fill="#fff" stroke="#000" stroke-linecap="round" stroke-width="6"/>
      <line x1="204.031" y1="30.652" x2="204.031" y2="3" fill="#fff" stroke="#000" stroke-linecap="round" stroke-width="6"/>
      <line x1="236.379" y1="94.826" x2="255.683" y2="88.565" fill="#fff" stroke="#000" stroke-linecap="round" stroke-width="6"/>
      <circle cx="218.6" cy="55.957" r="5.087" stroke="#000" stroke-linecap="round" stroke-width="6"/>
      <circle cx="273.096" cy="55.957" r="5.087" stroke="#000" stroke-linecap="round" stroke-width="6"/>
      <path d="M499.353,69.736c0,30.376-27.162,55-61.972,55s-63.028-24.624-63.028-55,28.219-55,63.028-55S499.353,39.36,499.353,69.736Z" fill="#fff" stroke="#000" stroke-linecap="round" stroke-width="6"/>
      <line x1="396.74" y1="42" x2="425.918" y2="42" fill="#fff" stroke="#000" stroke-linecap="round" stroke-width="6"/>
      <line x1="453.349" y1="42" x2="466.001" y2="42" fill="#fff" stroke="#000" stroke-linecap="round" stroke-width="6"/>
      <line x1="455.11" y1="16.968" x2="486.936" y2="3" fill="#fff" stroke="#000" stroke-linecap="round" stroke-width="6"/>
      <line x1="467.631" y1="22.826" x2="499.353" y2="22.826" fill="#fff" stroke="#000" stroke-linecap="round" stroke-width="6"/>
      <line x1="391.979" y1="27.522" x2="371.631" y2="14.736" fill="#fff" stroke="#000" stroke-linecap="round" stroke-width="6"/>
      <line x1="389.371" y1="30.652" x2="389.371" y2="3" fill="#fff" stroke="#000" stroke-linecap="round" stroke-width="6"/>
      <line x1="421.718" y1="94.826" x2="441.023" y2="88.565" fill="#fff" stroke="#000" stroke-linecap="round" stroke-width="6"/>
      <circle cx="403.94" cy="55.957" r="5.087" stroke="#000" stroke-linecap="round" stroke-width="6"/>
      <circle cx="458.436" cy="55.957" r="5.087" stroke="#000" stroke-linecap="round" stroke-width="6"/>
    </g>
  </g>
</svg>
