<svg xmlns="http://www.w3.org/2000/svg" viewBox="0 0 503.42 137.481">
  <g id="Capa_2" data-name="Capa 2">
    <g id="Capa_28" data-name="Capa 28">
      <path d="M310.266,79.481c0,30.376-27.162,55-61.972,55s-63.028-24.624-63.028-55,28.219-55,63.028-55S310.266,49.106,310.266,79.481Z" fill="none" stroke="#000" stroke-linecap="round" stroke-width="6"/>
      <path d="M207.944,57.658s22.7-8,30.13,2.761" fill="none" stroke="#000" stroke-linecap="round" stroke-width="6"/>
      <path d="M260.378,60.419s13.906-12.743,31.7,0" fill="none" stroke="#000" stroke-linecap="round" stroke-width="6"/>
      <circle cx="219.291" cy="69.615" r="5.87" stroke="#000" stroke-linecap="round" stroke-width="6"/>
      <circle cx="276.521" cy="68.93" r="5.184" stroke="#000" stroke-linecap="round" stroke-width="6"/>
      <line x1="238.074" y1="105.615" x2="254.9" y2="105.615" stroke="#000" stroke-linecap="round" stroke-width="6"/>
      <path d="M267.026,26.979s14.483-23.1,34.439-21.147" fill="none" stroke="#000" stroke-linecap="round" stroke-width="6"/>
      <path d="M276.521,30.39S287.77,11.6,305.378,16.347" fill="none" stroke="#000" stroke-linecap="round" stroke-width="6"/>
      <path d="M286.987,36.354S292.857,22,312.813,24.481" fill="none" stroke="#000" stroke-linecap="round" stroke-width="6"/>
      <path d="M497.872,76.767c0,30.375-27.161,55-61.971,55s-63.029-24.625-63.029-55,28.219-55,63.029-55S497.872,46.391,497.872,76.767Z" fill="none" stroke="#000" stroke-linecap="round" stroke-width="6"/>
      <path d="M395.55,54.943s22.7-8,30.131,2.762" fill="none" stroke="#000" stroke-linecap="round" stroke-width="6"/>
      <path d="M447.985,57.705s13.9-12.744,31.7,0" fill="none" stroke="#000" stroke-linecap="round" stroke-width="6"/>
      <circle cx="406.898" cy="66.9" r="5.87" stroke="#000" stroke-linecap="round" stroke-width="6"/>
      <circle cx="464.128" cy="66.215" r="5.184" stroke="#000" stroke-linecap="round" stroke-width="6"/>
      <line x1="425.681" y1="102.9" x2="442.507" y2="102.9" stroke="#000" stroke-linecap="round" stroke-width="6"/>
      <path d="M454.633,24.264s14.483-23.1,34.439-21.146" fill="none" stroke="#000" stroke-linecap="round" stroke-width="6"/>
      <path d="M464.128,27.675s11.248-18.789,28.857-14.043" fill="none" stroke="#000" stroke-linecap="round" stroke-width="6"/>
      <path d="M474.594,33.639s5.869-14.354,25.826-11.872" fill="none" stroke="#000" stroke-linecap="round" stroke-width="6"/>
      <path d="M128,78.072c0,30.375-27.162,55-61.971,55S3,108.447,3,78.072s28.219-55,63.029-55S128,47.7,128,78.072Z" fill="none" stroke="#000" stroke-linecap="round" stroke-width="6"/>
      <path d="M25.678,56.248s22.7-8,30.13,2.762" fill="none" stroke="#000" stroke-linecap="round" stroke-width="6"/>
      <path d="M78.113,59.01s13.905-12.744,31.7,0" fill="none" stroke="#000" stroke-linecap="round" stroke-width="6"/>
      <circle cx="37.026" cy="68.205" r="5.87" stroke="#000" stroke-linecap="round" stroke-width="6"/>
      <circle cx="94.255" cy="67.52" r="5.184" stroke="#000" stroke-linecap="round" stroke-width="6"/>
      <line x1="55.808" y1="104.205" x2="72.634" y2="104.205" stroke="#000" stroke-linecap="round" stroke-width="6"/>
      <line x1="89.051" y1="23.962" x2="107.204" y2="4.788" fill="none" stroke="#000" stroke-linecap="round" stroke-width="6"/>
      <line x1="98.148" y1="29.44" x2="118.885" y2="7.136" fill="none" stroke="#000" stroke-linecap="round" stroke-width="6"/>
      <line x1="107.204" y1="33.353" x2="129.355" y2="10.266" fill="none" stroke="#000" stroke-linecap="round" stroke-width="6"/>
    </g>
  </g>
</svg>
