<svg xmlns="http://www.w3.org/2000/svg" viewBox="0 0 501.045 128.61">
  <g id="Capa_2" data-name="Capa 2">
    <g id="Capa_31" data-name="Capa 31">
      <path d="M311.027,69.911c0,30.376-27.162,55-61.972,55s-63.028-24.624-63.028-55,28.219-55,63.028-55S311.027,39.536,311.027,69.911Z" fill="none" stroke="#000" stroke-linecap="round" stroke-width="6"/>
      <path d="M128,70.258c0,30.375-27.162,55-61.971,55S3,100.633,3,70.258s28.219-55,63.029-55S128,39.882,128,70.258Z" fill="none" stroke="#000" stroke-linecap="round" stroke-width="6"/>
      <path d="M498.036,70.258c0,30.375-27.162,55-61.972,55s-63.028-24.625-63.028-55,28.219-55,63.028-55S498.036,39.882,498.036,70.258Z" fill="none" stroke="#000" stroke-linecap="round" stroke-width="6"/>
      <line x1="31.844" y1="38.217" x2="50.888" y2="55.696" fill="none" stroke="#000" stroke-linecap="round" stroke-width="6"/>
      <line x1="73.322" y1="55.696" x2="85.583" y2="44.739" fill="none" stroke="#000" stroke-linecap="round" stroke-width="6"/>
      <line x1="37.844" y1="83.87" x2="85.583" y2="97.696" fill="none" stroke="#000" stroke-linecap="round" stroke-width="6"/>
      <line x1="79.453" y1="3" x2="76.714" y2="15.258" fill="none" stroke="#000" stroke-linecap="round" stroke-width="6"/>
      <line x1="106.714" y1="10.826" x2="97.178" y2="22.567" fill="none" stroke="#000" stroke-linecap="round" stroke-width="6"/>
      <line x1="48.018" y1="3" x2="56.366" y2="15.258" fill="none" stroke="#000" stroke-linecap="round" stroke-width="6"/>
      <line x1="27.931" y1="6.391" x2="39.695" y2="20.277" fill="none" stroke="#000" stroke-linecap="round" stroke-width="6"/>
      <circle cx="36.279" cy="57.522" r="6.261" stroke="#000" stroke-linecap="round" stroke-width="6"/>
      <circle cx="93.409" cy="57.522" r="6.261" stroke="#000" stroke-linecap="round" stroke-width="6"/>
      <path d="M311.045,70.61c0,30.375-27.162,55-61.972,55s-63.028-24.625-63.028-55,28.219-55,63.028-55S311.045,40.234,311.045,70.61Z" fill="none" stroke="#000" stroke-linecap="round" stroke-width="6"/>
      <line x1="214.889" y1="38.569" x2="233.932" y2="56.048" fill="none" stroke="#000" stroke-linecap="round" stroke-width="6"/>
      <line x1="256.367" y1="56.048" x2="268.628" y2="45.091" fill="none" stroke="#000" stroke-linecap="round" stroke-width="6"/>
      <line x1="233.766" y1="95.67" x2="254.627" y2="101.712" fill="none" stroke="#000" stroke-linecap="round" stroke-width="6"/>
      <line x1="262.497" y1="3.352" x2="259.758" y2="15.61" fill="none" stroke="#000" stroke-linecap="round" stroke-width="6"/>
      <line x1="289.758" y1="11.178" x2="280.223" y2="22.919" fill="none" stroke="#000" stroke-linecap="round" stroke-width="6"/>
      <line x1="231.063" y1="3.352" x2="239.41" y2="15.61" fill="none" stroke="#000" stroke-linecap="round" stroke-width="6"/>
      <line x1="210.976" y1="6.743" x2="222.739" y2="20.629" fill="none" stroke="#000" stroke-linecap="round" stroke-width="6"/>
      <circle cx="219.323" cy="57.874" r="6.261" stroke="#000" stroke-linecap="round" stroke-width="6"/>
      <circle cx="276.454" cy="57.874" r="6.261" stroke="#000" stroke-linecap="round" stroke-width="6"/>
      <path d="M498.027,69.911c0,30.376-27.162,55-61.972,55s-63.028-24.624-63.028-55,28.219-55,63.028-55S498.027,39.536,498.027,69.911Z" fill="none" stroke="#000" stroke-linecap="round" stroke-width="6"/>
      <path d="M498.045,70.61c0,30.375-27.162,55-61.972,55s-63.028-24.625-63.028-55,28.219-55,63.028-55S498.045,40.234,498.045,70.61Z" fill="none" stroke="#000" stroke-linecap="round" stroke-width="6"/>
      <line x1="401.889" y1="38.569" x2="420.932" y2="56.048" fill="none" stroke="#000" stroke-linecap="round" stroke-width="6"/>
      <line x1="443.367" y1="56.048" x2="455.628" y2="45.091" fill="none" stroke="#000" stroke-linecap="round" stroke-width="6"/>
      <line x1="407.889" y1="84.221" x2="455.628" y2="98.048" fill="none" stroke="#000" stroke-linecap="round" stroke-width="6"/>
      <line x1="449.497" y1="3.352" x2="446.758" y2="15.61" fill="none" stroke="#000" stroke-linecap="round" stroke-width="6"/>
      <line x1="476.758" y1="11.178" x2="467.223" y2="22.919" fill="none" stroke="#000" stroke-linecap="round" stroke-width="6"/>
      <line x1="418.063" y1="3.352" x2="426.41" y2="15.61" fill="none" stroke="#000" stroke-linecap="round" stroke-width="6"/>
      <line x1="397.976" y1="6.743" x2="409.739" y2="20.629" fill="none" stroke="#000" stroke-linecap="round" stroke-width="6"/>
      <circle cx="406.323" cy="57.874" r="6.261" stroke="#000" stroke-linecap="round" stroke-width="6"/>
      <circle cx="463.454" cy="57.874" r="6.261" stroke="#000" stroke-linecap="round" stroke-width="6"/>
    </g>
  </g>
</svg>
