<svg xmlns="http://www.w3.org/2000/svg" viewBox="0 0 514.65 123.905">
  <g id="Capa_2" data-name="Capa 2">
    <g id="Capa_13" data-name="Capa 13">
      <circle cx="46.919" cy="48.569" r="8.627" fill="#1d1d1b" stroke="#000" stroke-miterlimit="10"/>
      <circle cx="107.411" cy="47.887" r="7.946" fill="#1d1d1b" stroke="#000" stroke-miterlimit="10"/>
      <path d="M64.539,86.749c-8.083,1.971,41.447-8.914,33.124-7.3" fill="#1d1d1b" stroke="#000" stroke-linecap="round" stroke-width="6"/>
      <path d="M109.27,37.351c-3.6.084,17.922.544,14.4.3" fill="#1d1d1b" stroke="#000" stroke-linecap="round" stroke-width="6"/>
      <path d="M44.132,35.265c-11.462.482,57.142.622,45.9.053" fill="#1d1d1b" stroke="#000" stroke-linecap="round" stroke-width="6"/>
      <path d="M140.082,4.4c-21.766-5.866-34.9,8.621-34.9,8.621" fill="none" stroke="#000" stroke-linecap="round" stroke-width="6"/>
      <path d="M143.667,16.815c-16.3-8.11-27.2,1.96-27.2,1.96" fill="none" stroke="#000" stroke-linecap="round" stroke-width="6"/>
      <path d="M6.585,5.891C28.351.025,41.634,14.644,41.634,14.644" fill="none" stroke="#000" stroke-linecap="round" stroke-width="6"/>
      <path d="M3,18.308c16.3-8.11,29.717,3.034,29.717,3.034" fill="none" stroke="#000" stroke-linecap="round" stroke-width="6"/>
      <path d="M138.205,64.924c0,30.376-27.162,55-61.972,55s-63.028-24.624-63.028-55,28.219-55,63.028-55S138.205,34.549,138.205,64.924Z" fill="#fff" stroke="#000" stroke-linecap="round" stroke-width="6"/>
      <circle cx="55.546" cy="50.681" r="8.627" fill="#1d1d1b" stroke="#000" stroke-miterlimit="10"/>
      <circle cx="99.466" cy="49.609" r="7.946" fill="#1d1d1b" stroke="#000" stroke-miterlimit="10"/>
      <line x1="48.72" y1="86.986" x2="102.651" y2="79.219" fill="#1d1d1b" stroke="#000" stroke-linecap="round" stroke-width="6"/>
      <line x1="43.228" y1="28.476" x2="67.864" y2="42.053" fill="#1d1d1b" stroke="#000" stroke-linecap="round" stroke-width="6"/>
      <line x1="105.763" y1="28.476" x2="81.127" y2="42.053" fill="#1d1d1b" stroke="#000" stroke-linecap="round" stroke-width="6"/>
      <circle cx="230.692" cy="48.778" r="8.627" fill="#1d1d1b" stroke="#000" stroke-miterlimit="10"/>
      <circle cx="291.184" cy="48.096" r="7.946" fill="#1d1d1b" stroke="#000" stroke-miterlimit="10"/>
      <path d="M248.312,86.957c-8.083,1.972,41.447-8.913,33.123-7.294" fill="#1d1d1b" stroke="#000" stroke-linecap="round" stroke-width="6"/>
      <path d="M293.043,37.56c-3.6.084,17.922.544,14.4.294" fill="#1d1d1b" stroke="#000" stroke-linecap="round" stroke-width="6"/>
      <path d="M227.905,35.473c-11.462.482,57.142.622,45.9.053" fill="#1d1d1b" stroke="#000" stroke-linecap="round" stroke-width="6"/>
      <path d="M323.855,4.607c-21.766-5.866-34.9,8.621-34.9,8.621" fill="none" stroke="#000" stroke-linecap="round" stroke-width="6"/>
      <path d="M327.44,17.023c-16.3-8.109-27.2,1.961-27.2,1.961" fill="none" stroke="#000" stroke-linecap="round" stroke-width="6"/>
      <path d="M190.357,6.1c21.767-5.866,35.049,8.753,35.049,8.753" fill="none" stroke="#000" stroke-linecap="round" stroke-width="6"/>
      <path d="M186.773,18.516c16.3-8.109,29.717,3.035,29.717,3.035" fill="none" stroke="#000" stroke-linecap="round" stroke-width="6"/>
      <path d="M321.977,65.133c0,30.376-27.161,55-61.971,55s-63.029-24.624-63.029-55,28.219-55,63.029-55S321.977,34.757,321.977,65.133Z" fill="#fff" stroke="#000" stroke-linecap="round" stroke-width="6"/>
      <circle cx="239.319" cy="50.889" r="8.627" fill="#1d1d1b" stroke="#000" stroke-miterlimit="10"/>
      <circle cx="283.238" cy="49.818" r="7.946" fill="#1d1d1b" stroke="#000" stroke-miterlimit="10"/>
      <line x1="232.493" y1="87.195" x2="286.424" y2="79.428" fill="#1d1d1b" stroke="#000" stroke-linecap="round" stroke-width="6"/>
      <line x1="237.422" y1="34.428" x2="251.637" y2="42.262" fill="#1d1d1b" stroke="#000" stroke-linecap="round" stroke-width="6"/>
      <line x1="279.115" y1="34.428" x2="264.899" y2="42.262" fill="#1d1d1b" stroke="#000" stroke-linecap="round" stroke-width="6"/>
      <circle cx="414.902" cy="49.55" r="8.627" fill="#1d1d1b" stroke="#000" stroke-miterlimit="10"/>
      <circle cx="475.394" cy="48.868" r="7.946" fill="#1d1d1b" stroke="#000" stroke-miterlimit="10"/>
      <path d="M432.522,87.73c-8.083,1.971,41.447-8.914,33.123-7.3" fill="#1d1d1b" stroke="#000" stroke-linecap="round" stroke-width="6"/>
      <path d="M477.253,38.332c-3.6.084,17.922.544,14.4.294" fill="#1d1d1b" stroke="#000" stroke-linecap="round" stroke-width="6"/>
      <path d="M412.115,36.245c-11.462.482,57.142.622,45.9.054" fill="#1d1d1b" stroke="#000" stroke-linecap="round" stroke-width="6"/>
      <path d="M508.065,5.379C486.3-.487,473.162,14,473.162,14" fill="none" stroke="#000" stroke-linecap="round" stroke-width="6"/>
      <path d="M511.65,17.8c-16.3-8.109-27.2,1.961-27.2,1.961" fill="none" stroke="#000" stroke-linecap="round" stroke-width="6"/>
      <path d="M374.567,6.872c21.767-5.866,35.049,8.753,35.049,8.753" fill="none" stroke="#000" stroke-linecap="round" stroke-width="6"/>
      <path d="M370.983,19.289c16.3-8.11,29.717,3.034,29.717,3.034" fill="none" stroke="#000" stroke-linecap="round" stroke-width="6"/>
      <path d="M506.187,65.905c0,30.376-27.161,55-61.971,55s-63.029-24.624-63.029-55,28.219-55,63.029-55S506.187,35.53,506.187,65.905Z" fill="#fff" stroke="#000" stroke-linecap="round" stroke-width="6"/>
      <circle cx="423.529" cy="51.662" r="8.627" fill="#1d1d1b" stroke="#000" stroke-miterlimit="10"/>
      <circle cx="467.448" cy="50.59" r="7.946" fill="#1d1d1b" stroke="#000" stroke-miterlimit="10"/>
      <line x1="416.703" y1="87.967" x2="470.634" y2="80.2" fill="#1d1d1b" stroke="#000" stroke-linecap="round" stroke-width="6"/>
      <line x1="421.632" y1="35.2" x2="435.847" y2="43.034" fill="#1d1d1b" stroke="#000" stroke-linecap="round" stroke-width="6"/>
      <line x1="463.325" y1="35.2" x2="449.109" y2="43.034" fill="#1d1d1b" stroke="#000" stroke-linecap="round" stroke-width="6"/>
    </g>
  </g>
</svg>
