<svg xmlns="http://www.w3.org/2000/svg" viewBox="0 0 531.662 117.202">
  <g id="Capa_2" data-name="Capa 2">
    <g id="Capa_42" data-name="Capa 42">
      <path d="M128,58c0,30.376-27.162,55-61.971,55S3,88.376,3,58,31.219,3,66.029,3,128,27.624,128,58Z" fill="none" stroke="#000" stroke-linecap="round" stroke-width="6"/>
      <line x1="38.105" y1="20.742" x2="61.974" y2="46.841" stroke="#000" stroke-linecap="round" stroke-width="6"/>
      <line x1="75.67" y1="41.09" x2="86.235" y2="30.916" stroke="#000" stroke-linecap="round" stroke-width="6"/>
      <circle cx="96.507" cy="46.666" r="5.576" stroke="#000" stroke-linecap="round" stroke-width="6"/>
      <circle cx="40.061" cy="46.841" r="5.576" stroke="#000" stroke-linecap="round" stroke-width="6"/>
      <line x1="78.801" y1="73.177" x2="50.04" y2="92.351" stroke="#000" stroke-linecap="round" stroke-width="6"/>
      <line x1="96.507" y1="9.976" x2="136.322" y2="9.976" stroke="#000" stroke-linecap="round" stroke-width="6"/>
      <line x1="109.872" y1="18.938" x2="146.888" y2="18.938" stroke="#000" stroke-linecap="round" stroke-width="6"/>
      <line x1="118.002" y1="27.838" x2="158.627" y2="27.838" stroke="#000" stroke-linecap="round" stroke-width="6"/>
      <path d="M310.431,59.2c0,30.376-27.162,55-61.971,55s-63.029-24.624-63.029-55,28.219-55,63.029-55S310.431,28.826,310.431,59.2Z" fill="none" stroke="#000" stroke-linecap="round" stroke-width="6"/>
      <line x1="220.536" y1="21.944" x2="244.405" y2="48.043" stroke="#000" stroke-linecap="round" stroke-width="6"/>
      <line x1="258.101" y1="42.292" x2="268.666" y2="32.118" stroke="#000" stroke-linecap="round" stroke-width="6"/>
      <circle cx="278.938" cy="47.868" r="5.576" stroke="#000" stroke-linecap="round" stroke-width="6"/>
      <circle cx="222.492" cy="48.043" r="5.576" stroke="#000" stroke-linecap="round" stroke-width="6"/>
      <line x1="278.938" y1="11.178" x2="318.753" y2="11.178" stroke="#000" stroke-linecap="round" stroke-width="6"/>
      <line x1="292.303" y1="20.14" x2="329.319" y2="20.14" stroke="#000" stroke-linecap="round" stroke-width="6"/>
      <line x1="300.433" y1="29.04" x2="341.058" y2="29.04" stroke="#000" stroke-linecap="round" stroke-width="6"/>
      <path d="M498.036,58c0,30.376-27.162,55-61.972,55s-63.028-24.624-63.028-55S401.255,3,436.064,3,498.036,27.624,498.036,58Z" fill="none" stroke="#000" stroke-linecap="round" stroke-width="6"/>
      <line x1="408.141" y1="20.742" x2="432.01" y2="46.841" stroke="#000" stroke-linecap="round" stroke-width="6"/>
      <line x1="445.706" y1="41.09" x2="456.271" y2="30.916" stroke="#000" stroke-linecap="round" stroke-width="6"/>
      <circle cx="466.543" cy="46.666" r="5.576" stroke="#000" stroke-linecap="round" stroke-width="6"/>
      <circle cx="410.097" cy="46.841" r="5.576" stroke="#000" stroke-linecap="round" stroke-width="6"/>
      <line x1="448.836" y1="73.177" x2="420.075" y2="92.351" stroke="#000" stroke-linecap="round" stroke-width="6"/>
      <line x1="466.543" y1="9.976" x2="506.358" y2="9.976" stroke="#000" stroke-linecap="round" stroke-width="6"/>
      <line x1="479.908" y1="18.938" x2="516.923" y2="18.938" stroke="#000" stroke-linecap="round" stroke-width="6"/>
      <line x1="488.038" y1="27.838" x2="528.662" y2="27.838" stroke="#000" stroke-linecap="round" stroke-width="6"/>
      <path d="M228.069,99s29.724-3.13,35.315-22.3" fill="none" stroke="#000" stroke-linecap="round" stroke-width="6"/>
    </g>
  </g>
</svg>
