<svg xmlns="http://www.w3.org/2000/svg" viewBox="0 0 513.148 117.211">
  <g id="Capa_2" data-name="Capa 2">
    <g id="Capa_50" data-name="Capa 50">
      <path d="M140.112,59.211c0,30.376-27.161,55-61.971,55s-63.029-24.624-63.029-55,28.219-55,63.029-55S140.112,28.835,140.112,59.211Z" fill="none" stroke="#000" stroke-linecap="round" stroke-width="6"/>
      <line x1="82.826" y1="39.432" x2="102.13" y2="23.258" fill="none" stroke="#000" stroke-linecap="round" stroke-width="6"/>
      <line x1="58.826" y1="31.345" x2="71.87" y2="39.432" stroke="#000" stroke-linecap="round" stroke-width="6"/>
      <circle cx="98.739" cy="45.692" r="6.261" stroke="#000" stroke-linecap="round" stroke-width="6"/>
      <circle cx="56.217" cy="45.692" r="6.261" stroke="#000" stroke-linecap="round" stroke-width="6"/>
      <line x1="3" y1="8.649" x2="49.957" y2="8.649" stroke="#000" stroke-linecap="round" stroke-width="6"/>
      <line x1="7.174" y1="19.605" x2="34.412" y2="19.605" stroke="#000" stroke-linecap="round" stroke-width="6"/>
      <line x1="10.304" y1="29.519" x2="25.078" y2="29.519" stroke="#000" stroke-linecap="round" stroke-width="6"/>
      <path d="M324.13,58c0,30.376-27.161,55-61.971,55S199.13,88.376,199.13,58,227.349,3,262.159,3,324.13,27.624,324.13,58Z" fill="none" stroke="#000" stroke-linecap="round" stroke-width="6"/>
      <line x1="266.844" y1="38.221" x2="286.148" y2="22.047" fill="none" stroke="#000" stroke-linecap="round" stroke-width="6"/>
      <line x1="242.844" y1="30.134" x2="255.888" y2="38.221" stroke="#000" stroke-linecap="round" stroke-width="6"/>
      <circle cx="282.757" cy="44.481" r="6.261" stroke="#000" stroke-linecap="round" stroke-width="6"/>
      <circle cx="240.235" cy="44.481" r="6.261" stroke="#000" stroke-linecap="round" stroke-width="6"/>
      <line x1="187.018" y1="7.438" x2="233.974" y2="7.438" stroke="#000" stroke-linecap="round" stroke-width="6"/>
      <line x1="191.192" y1="18.395" x2="218.43" y2="18.395" stroke="#000" stroke-linecap="round" stroke-width="6"/>
      <line x1="194.322" y1="28.308" x2="209.096" y2="28.308" stroke="#000" stroke-linecap="round" stroke-width="6"/>
      <line x1="276.496" y1="74.91" x2="242.844" y2="94.736" stroke="#000" stroke-linecap="round" stroke-width="6"/>
      <path d="M510.148,58c0,30.376-27.161,55-61.971,55s-63.029-24.624-63.029-55S413.367,3,448.177,3,510.148,27.624,510.148,58Z" fill="none" stroke="#000" stroke-linecap="round" stroke-width="6"/>
      <line x1="452.862" y1="38.221" x2="472.166" y2="22.047" fill="none" stroke="#000" stroke-linecap="round" stroke-width="6"/>
      <line x1="428.862" y1="30.134" x2="441.905" y2="38.221" stroke="#000" stroke-linecap="round" stroke-width="6"/>
      <circle cx="468.775" cy="44.481" r="6.261" stroke="#000" stroke-linecap="round" stroke-width="6"/>
      <circle cx="426.253" cy="44.481" r="6.261" stroke="#000" stroke-linecap="round" stroke-width="6"/>
      <line x1="373.036" y1="7.438" x2="419.992" y2="7.438" stroke="#000" stroke-linecap="round" stroke-width="6"/>
      <line x1="377.21" y1="18.395" x2="404.448" y2="18.395" stroke="#000" stroke-linecap="round" stroke-width="6"/>
      <line x1="380.34" y1="28.308" x2="395.114" y2="28.308" stroke="#000" stroke-linecap="round" stroke-width="6"/>
      <line x1="462.514" y1="74.91" x2="428.862" y2="94.736" stroke="#000" stroke-linecap="round" stroke-width="6"/>
      <path d="M98.739,74.91s5.478,15.652-36.261,25.043" fill="none" stroke="#000" stroke-linecap="round" stroke-width="6"/>
    </g>
  </g>
</svg>
