<svg xmlns="http://www.w3.org/2000/svg" viewBox="0 0 517.974 130.262">
  <g id="Capa_2" data-name="Capa 2">
    <g id="Capa_38" data-name="Capa 38">
      <path d="M327.783,72.262c0,30.375-27.162,55-61.972,55s-63.028-24.625-63.028-55,28.219-55,63.028-55S327.783,41.886,327.783,72.262Z" fill="none" stroke="#000" stroke-linecap="round" stroke-width="6"/>
      <path d="M514.974,72.262c0,30.375-27.161,55-61.971,55s-63.029-24.625-63.029-55,28.219-55,63.029-55S514.974,41.886,514.974,72.262Z" fill="none" stroke="#000" stroke-linecap="round" stroke-width="6"/>
      <path d="M144.939,72.262c0,30.375-27.162,55-61.972,55s-63.028-24.625-63.028-55,28.218-55,63.028-55S144.939,41.886,144.939,72.262Z" fill="none" stroke="#000" stroke-linecap="round" stroke-width="6"/>
      <path d="M3,34.221s16.46-9,34.447,0" fill="none" stroke="#000" stroke-linecap="round" stroke-width="6"/>
      <path d="M15.13,15.047S41.478,12.169,50.8,24.956" fill="none" stroke="#000" stroke-linecap="round" stroke-width="6"/>
      <path d="M27.261,3.7S50.348-1.655,62.87,17.262" fill="none" stroke="#000" stroke-linecap="round" stroke-width="6"/>
      <line x1="53.087" y1="40.874" x2="65.217" y2="50.265" fill="none" stroke="#000" stroke-linecap="round" stroke-width="6"/>
      <line x1="94.174" y1="52.613" x2="105.522" y2="40.874" stroke="#000" stroke-linecap="round" stroke-width="6"/>
      <circle cx="110.413" cy="61.102" r="6.457" stroke="#000" stroke-linecap="round" stroke-width="6"/>
      <circle cx="53.087" cy="61.102" r="6.457" stroke="#000" stroke-linecap="round" stroke-width="6"/>
      <line x1="53.087" y1="92.134" x2="105.522" y2="92.134" stroke="#000" stroke-linecap="round" stroke-width="6"/>
      <path d="M514.756,72.262c0,30.375-27.162,55-61.972,55s-63.028-24.625-63.028-55,28.218-55,63.028-55S514.756,41.886,514.756,72.262Z" fill="none" stroke="#000" stroke-linecap="round" stroke-width="6"/>
      <path d="M372.817,34.221s16.46-9,34.447,0" fill="none" stroke="#000" stroke-linecap="round" stroke-width="6"/>
      <path d="M384.947,15.047s26.348-2.878,35.674,9.909" fill="none" stroke="#000" stroke-linecap="round" stroke-width="6"/>
      <path d="M397.078,3.7s23.087-5.355,35.609,13.562" fill="none" stroke="#000" stroke-linecap="round" stroke-width="6"/>
      <line x1="422.904" y1="40.874" x2="435.034" y2="50.265" fill="none" stroke="#000" stroke-linecap="round" stroke-width="6"/>
      <line x1="463.991" y1="52.613" x2="475.339" y2="40.874" stroke="#000" stroke-linecap="round" stroke-width="6"/>
      <circle cx="480.23" cy="61.102" r="6.457" stroke="#000" stroke-linecap="round" stroke-width="6"/>
      <circle cx="422.904" cy="61.102" r="6.457" stroke="#000" stroke-linecap="round" stroke-width="6"/>
      <line x1="422.904" y1="92.134" x2="475.339" y2="92.134" stroke="#000" stroke-linecap="round" stroke-width="6"/>
      <path d="M326.413,72.262c0,30.375-27.161,55-61.971,55s-63.029-24.625-63.029-55,28.219-55,63.029-55S326.413,41.886,326.413,72.262Z" fill="none" stroke="#000" stroke-linecap="round" stroke-width="6"/>
      <path d="M184.474,34.221s16.46-9,34.448,0" fill="none" stroke="#000" stroke-linecap="round" stroke-width="6"/>
      <path d="M196.605,15.047s26.347-2.878,35.674,9.909" fill="none" stroke="#000" stroke-linecap="round" stroke-width="6"/>
      <path d="M208.735,3.7s23.087-5.355,35.609,13.562" fill="none" stroke="#000" stroke-linecap="round" stroke-width="6"/>
      <line x1="234.561" y1="40.874" x2="246.692" y2="50.265" fill="none" stroke="#000" stroke-linecap="round" stroke-width="6"/>
      <line x1="275.648" y1="52.613" x2="286.996" y2="40.874" stroke="#000" stroke-linecap="round" stroke-width="6"/>
      <circle cx="291.888" cy="61.102" r="6.457" stroke="#000" stroke-linecap="round" stroke-width="6"/>
      <circle cx="234.561" cy="61.102" r="6.457" stroke="#000" stroke-linecap="round" stroke-width="6"/>
      <line x1="244.344" y1="110.951" x2="289.435" y2="95.265" stroke="#000" stroke-linecap="round" stroke-width="6"/>
    </g>
  </g>
</svg>
