<svg xmlns="http://www.w3.org/2000/svg" viewBox="0 0 499.422 149.639">
  <g id="Capa_2" data-name="Capa 2">
    <g id="Capa_18" data-name="Capa 18">
      <path d="M128,91.639c0,30.376-27.162,55-61.971,55S3,122.015,3,91.639s28.219-55,63.029-55S128,61.263,128,91.639Z" fill="#fff" stroke="#000" stroke-linecap="round" stroke-width="6"/>
      <circle cx="35.828" cy="80.878" r="12.5" fill="#1d1d1b" stroke="#000" stroke-miterlimit="10"/>
      <circle cx="91.166" cy="80.878" r="12.5" fill="#1d1d1b" stroke="#000" stroke-miterlimit="10"/>
      <path d="M36.164,117.913H93.779" fill="#1d1d1b" stroke="#000" stroke-linecap="round" stroke-width="6"/>
      <line x1="25.776" y1="63.438" x2="45.879" y2="63.704" fill="#1d1d1b" stroke="#000" stroke-linecap="round" stroke-width="6"/>
      <line x1="31.165" y1="5.732" x2="48.328" y2="36.639" fill="#1d1d1b" stroke="#000" stroke-linecap="round" stroke-width="6"/>
      <line x1="65.5" y1="3" x2="65.5" y2="34.095" fill="#1d1d1b" stroke="#000" stroke-linecap="round" stroke-width="6"/>
      <line x1="100.808" y1="6.989" x2="77.713" y2="37.753" fill="#1d1d1b" stroke="#000" stroke-linecap="round" stroke-width="6"/>
      <line x1="83.175" y1="63.305" x2="103.277" y2="63.571" fill="#1d1d1b" stroke="#000" stroke-linecap="round" stroke-width="6"/>
      <path d="M310.625,91.639c0,30.376-27.161,55-61.971,55s-63.029-24.624-63.029-55,28.219-55,63.029-55S310.625,61.263,310.625,91.639Z" fill="#fff" stroke="#000" stroke-linecap="round" stroke-width="6"/>
      <circle cx="218.453" cy="80.878" r="12.5" fill="#1d1d1b" stroke="#000" stroke-miterlimit="10"/>
      <circle cx="273.791" cy="80.878" r="12.5" fill="#1d1d1b" stroke="#000" stroke-miterlimit="10"/>
      <path d="M218.789,117.913H276.4" fill="#1d1d1b" stroke="#000" stroke-linecap="round" stroke-width="6"/>
      <line x1="208.402" y1="63.438" x2="228.504" y2="63.704" fill="#1d1d1b" stroke="#000" stroke-linecap="round" stroke-width="6"/>
      <line x1="213.79" y1="5.732" x2="230.953" y2="36.639" fill="#1d1d1b" stroke="#000" stroke-linecap="round" stroke-width="6"/>
      <line x1="248.125" y1="3" x2="248.125" y2="34.095" fill="#1d1d1b" stroke="#000" stroke-linecap="round" stroke-width="6"/>
      <line x1="283.434" y1="6.989" x2="260.338" y2="37.753" fill="#1d1d1b" stroke="#000" stroke-linecap="round" stroke-width="6"/>
      <line x1="265.8" y1="63.305" x2="285.902" y2="63.571" fill="#1d1d1b" stroke="#000" stroke-linecap="round" stroke-width="6"/>
      <path d="M496.422,90.332c0,30.376-27.161,55-61.971,55s-63.029-24.624-63.029-55,28.219-55,63.029-55S496.422,59.956,496.422,90.332Z" fill="#fff" stroke="#000" stroke-linecap="round" stroke-width="6"/>
      <circle cx="404.25" cy="79.571" r="12.5" fill="#1d1d1b" stroke="#000" stroke-miterlimit="10"/>
      <circle cx="459.588" cy="79.571" r="12.5" fill="#1d1d1b" stroke="#000" stroke-miterlimit="10"/>
      <path d="M404.586,116.606H462.2" fill="#1d1d1b" stroke="#000" stroke-linecap="round" stroke-width="6"/>
      <line x1="394.199" y1="62.131" x2="414.301" y2="62.397" fill="#1d1d1b" stroke="#000" stroke-linecap="round" stroke-width="6"/>
      <line x1="399.588" y1="4.424" x2="416.75" y2="35.332" fill="#1d1d1b" stroke="#000" stroke-linecap="round" stroke-width="6"/>
      <line x1="469.231" y1="5.682" x2="446.136" y2="36.445" fill="#1d1d1b" stroke="#000" stroke-linecap="round" stroke-width="6"/>
      <line x1="451.597" y1="61.998" x2="471.699" y2="62.264" fill="#1d1d1b" stroke="#000" stroke-linecap="round" stroke-width="6"/>
    </g>
  </g>
</svg>
