<svg xmlns="http://www.w3.org/2000/svg" viewBox="0 0 524.119 117.445">
  <g id="Capa_2" data-name="Capa 2">
    <g id="Capa_5" data-name="Capa 5">
      <path d="M309.519,59.445c0,30.376-27.161,55-61.971,55s-63.029-24.624-63.029-55,28.219-55,63.029-55S309.519,29.07,309.519,59.445Z" fill="#fff" stroke="#000" stroke-linecap="round" stroke-width="6"/>
      <circle cx="217.317" cy="48.223" r="9.107" fill="#1d1d1b" stroke="#000" stroke-miterlimit="10"/>
      <line x1="222.938" y1="74.37" x2="275.032" y2="86.229" fill="#1d1d1b" stroke="#000" stroke-linecap="round" stroke-width="6"/>
      <line x1="214.017" y1="32.997" x2="228.874" y2="42.986" fill="#1d1d1b" stroke="#000" stroke-linecap="round" stroke-width="6"/>
      <line x1="257.914" y1="44.719" x2="280.941" y2="20.543" fill="#1d1d1b" stroke="#000" stroke-linecap="round" stroke-width="6"/>
      <path d="M216.37,9.519c12.334-.143-49.337.133-49.337.133" fill="#1d1d1b" stroke="#000" stroke-linecap="round" stroke-width="6"/>
      <line x1="196.12" y1="25.78" x2="183.729" y2="25.78" fill="#1d1d1b" stroke="#000" stroke-linecap="round" stroke-width="6"/>
      <circle cx="276.393" cy="48.223" r="9.107" fill="#1d1d1b" stroke="#000" stroke-miterlimit="10"/>
      <path d="M204.1,17.428h-27.02" fill="#1d1d1b" stroke="#000" stroke-linecap="round" stroke-width="6"/>
      <path d="M128,58c0,30.376-27.162,55-61.971,55S3,88.376,3,58,31.219,3,66.029,3,128,27.624,128,58Z" fill="#fff" stroke="#000" stroke-linecap="round" stroke-width="6"/>
      <circle cx="35.798" cy="46.778" r="9.107" fill="#1d1d1b" stroke="#000" stroke-miterlimit="10"/>
      <line x1="41.419" y1="72.925" x2="93.513" y2="84.784" fill="#1d1d1b" stroke="#000" stroke-linecap="round" stroke-width="6"/>
      <line x1="32.498" y1="31.551" x2="47.355" y2="41.541" fill="#1d1d1b" stroke="#000" stroke-linecap="round" stroke-width="6"/>
      <line x1="76.395" y1="43.273" x2="99.421" y2="19.098" fill="#1d1d1b" stroke="#000" stroke-linecap="round" stroke-width="6"/>
      <circle cx="94.874" cy="46.778" r="9.107" fill="#1d1d1b" stroke="#000" stroke-miterlimit="10"/>
      <path d="M152.809,7.918S88.993,7.3,96.826,8.35" fill="#1d1d1b" stroke="#000" stroke-linecap="round" stroke-width="6"/>
      <line x1="131.006" y1="24.047" x2="116.368" y2="24.047" fill="#1d1d1b" stroke="#000" stroke-linecap="round" stroke-width="6"/>
      <path d="M139.94,15.7H108.472" fill="#1d1d1b" stroke="#000" stroke-linecap="round" stroke-width="6"/>
      <path d="M496.31,59.445c0,30.376-27.161,55-61.971,55s-63.029-24.624-63.029-55,28.219-55,63.029-55S496.31,29.07,496.31,59.445Z" fill="#fff" stroke="#000" stroke-linecap="round" stroke-width="6"/>
      <circle cx="404.108" cy="48.223" r="9.107" fill="#1d1d1b" stroke="#000" stroke-miterlimit="10"/>
      <path d="M409.729,74.37c-13.275-2.36,64.555,15.439,52.1,11.859" fill="#1d1d1b" stroke="#000" stroke-linecap="round" stroke-width="6"/>
      <path d="M400.808,33c-4.3-2.621,18.8,12.939,14.857,9.989" fill="#1d1d1b" stroke="#000" stroke-linecap="round" stroke-width="6"/>
      <path d="M444.705,44.719c-5.414,6.2,28.878-29.741,23.027-24.176" fill="#1d1d1b" stroke="#000" stroke-linecap="round" stroke-width="6"/>
      <circle cx="463.184" cy="48.223" r="9.107" fill="#1d1d1b" stroke="#000" stroke-miterlimit="10"/>
      <path d="M521.119,9.364S457.3,8.749,465.136,9.8" fill="#1d1d1b" stroke="#000" stroke-linecap="round" stroke-width="6"/>
      <line x1="499.317" y1="25.492" x2="483.276" y2="25.492" fill="#1d1d1b" stroke="#000" stroke-linecap="round" stroke-width="6"/>
      <path d="M508.25,17.14H476.782" fill="#1d1d1b" stroke="#000" stroke-linecap="round" stroke-width="6"/>
      <path d="M496.31,59.445c0,30.376-27.161,55-61.971,55s-63.029-24.624-63.029-55,28.219-55,63.029-55S496.31,29.07,496.31,59.445Z" fill="#fff" stroke="#000" stroke-linecap="round" stroke-width="6"/>
      <circle cx="404.108" cy="48.223" r="9.107" fill="#1d1d1b" stroke="#000" stroke-miterlimit="10"/>
      <line x1="409.729" y1="74.37" x2="461.824" y2="86.229" fill="#1d1d1b" stroke="#000" stroke-linecap="round" stroke-width="6"/>
      <line x1="400.808" y1="32.997" x2="415.665" y2="42.986" fill="#1d1d1b" stroke="#000" stroke-linecap="round" stroke-width="6"/>
      <line x1="444.705" y1="44.719" x2="467.732" y2="20.543" fill="#1d1d1b" stroke="#000" stroke-linecap="round" stroke-width="6"/>
      <circle cx="463.184" cy="48.223" r="9.107" fill="#1d1d1b" stroke="#000" stroke-miterlimit="10"/>
      <path d="M521.119,9.364S457.3,8.749,465.136,9.8" fill="#1d1d1b" stroke="#000" stroke-linecap="round" stroke-width="6"/>
      <line x1="499.317" y1="25.492" x2="484.679" y2="25.492" fill="#1d1d1b" stroke="#000" stroke-linecap="round" stroke-width="6"/>
      <path d="M508.25,17.14H476.782" fill="#1d1d1b" stroke="#000" stroke-linecap="round" stroke-width="6"/>
    </g>
  </g>
</svg>
