<svg xmlns="http://www.w3.org/2000/svg" viewBox="0 0 506.358 139.63">
  <g id="Capa_2" data-name="Capa 2">
    <g id="Capa_4" data-name="Capa 4">
      <path d="M316.86,81.63c0,30.376-27.162,55-61.972,55s-63.028-24.624-63.028-55,28.219-55,63.028-55S316.86,51.254,316.86,81.63Z" fill="#fff" stroke="#000" stroke-linecap="round" stroke-width="6"/>
      <circle cx="221.454" cy="70.869" r="12.5" fill="#1d1d1b" stroke="#000" stroke-miterlimit="10"/>
      <circle cx="286.066" cy="70.869" r="12.5" fill="#1d1d1b" stroke="#000" stroke-miterlimit="10"/>
      <path d="M233.06,100.06c-10.624.612,52.474.031,42.223-.43" fill="#1d1d1b" stroke="#000" stroke-linecap="round" stroke-width="6"/>
      <path d="M209.861,52.4c-5.031.144,22.812.6,17.9.277" fill="#1d1d1b" stroke="#000" stroke-linecap="round" stroke-width="6"/>
      <path d="M267.057,55.6c-8.224.346,41.452.447,33.387.039" fill="#1d1d1b" stroke="#000" stroke-linecap="round" stroke-width="6"/>
      <path d="M322.105,31.817c-20.1-11.745-30.614,3.872-30.614,3.872" fill="none" stroke="#000" stroke-linecap="round" stroke-width="6"/>
      <path d="M331.032,47.518c-12.725-14.444-28.84-3.15-28.84-3.15" fill="none" stroke="#000" stroke-linecap="round" stroke-width="6"/>
      <path d="M335.206,66.743C326.72,44.4,310.832,55.6,310.832,55.6" fill="none" stroke="#000" stroke-linecap="round" stroke-width="6"/>
      <path d="M134.9,80.629c0,30.376-27.161,55-61.971,55S9.9,111.005,9.9,80.629s28.219-55,63.029-55S134.9,50.253,134.9,80.629Z" fill="#fff" stroke="#000" stroke-linecap="round" stroke-width="6"/>
      <circle cx="42.696" cy="69.407" r="9.107" fill="#1d1d1b" stroke="#000" stroke-miterlimit="10"/>
      <line x1="51.097" y1="99.082" x2="93.319" y2="99.399" fill="#1d1d1b" stroke="#000" stroke-linecap="round" stroke-width="6"/>
      <line x1="51.66" y1="49.317" x2="33.76" y2="49.317" fill="#1d1d1b" stroke="#000" stroke-linecap="round" stroke-width="6"/>
      <line x1="118.482" y1="54.635" x2="85.095" y2="54.596" fill="#1d1d1b" stroke="#000" stroke-linecap="round" stroke-width="6"/>
      <line x1="3" y1="5.34" x2="28.583" y2="36.372" fill="#1d1d1b" stroke="#000" stroke-linecap="round" stroke-width="6"/>
      <line x1="12.752" y1="3.185" x2="35.503" y2="32.339" fill="#1d1d1b" stroke="#000" stroke-linecap="round" stroke-width="6"/>
      <line x1="24.275" y1="3.082" x2="42.571" y2="28.245" fill="#1d1d1b" stroke="#000" stroke-linecap="round" stroke-width="6"/>
      <line x1="35.503" y1="3" x2="51.726" y2="26.503" fill="#1d1d1b" stroke="#000" stroke-linecap="round" stroke-width="6"/>
      <circle cx="101.772" cy="69.407" r="9.107" fill="#1d1d1b" stroke="#000" stroke-miterlimit="10"/>
      <path d="M503.358,81.63c0,30.376-27.161,55-61.971,55s-63.029-24.624-63.029-55,28.219-55,63.029-55S503.358,51.254,503.358,81.63Z" fill="#fff" stroke="#000" stroke-linecap="round" stroke-width="6"/>
      <circle cx="411.156" cy="70.408" r="9.107" fill="#1d1d1b" stroke="#000" stroke-miterlimit="10"/>
      <line x1="419.557" y1="100.4" x2="461.779" y2="100.4" fill="#1d1d1b" stroke="#000" stroke-linecap="round" stroke-width="6"/>
      <line x1="402.22" y1="50.415" x2="420.12" y2="50.318" fill="#1d1d1b" stroke="#000" stroke-linecap="round" stroke-width="6"/>
      <line x1="453.555" y1="55.597" x2="486.942" y2="55.636" fill="#1d1d1b" stroke="#000" stroke-linecap="round" stroke-width="6"/>
      <line x1="371.46" y1="6.341" x2="397.043" y2="37.373" fill="#1d1d1b" stroke="#000" stroke-linecap="round" stroke-width="6"/>
      <line x1="381.212" y1="4.186" x2="403.963" y2="33.34" fill="#1d1d1b" stroke="#000" stroke-linecap="round" stroke-width="6"/>
      <line x1="392.735" y1="4.083" x2="411.032" y2="29.246" fill="#1d1d1b" stroke="#000" stroke-linecap="round" stroke-width="6"/>
      <line x1="403.963" y1="4.001" x2="420.186" y2="27.504" fill="#1d1d1b" stroke="#000" stroke-linecap="round" stroke-width="6"/>
      <circle cx="470.232" cy="70.408" r="9.107" fill="#1d1d1b" stroke="#000" stroke-miterlimit="10"/>
      <path d="M316.632,81.63c0,30.376-27.162,55-61.972,55s-63.028-24.624-63.028-55,28.219-55,63.028-55S316.632,51.254,316.632,81.63Z" fill="#fff" stroke="#000" stroke-linecap="round" stroke-width="6"/>
      <circle cx="224.43" cy="70.408" r="9.107" fill="#1d1d1b" stroke="#000" stroke-miterlimit="10"/>
      <line x1="232.83" y1="100.4" x2="275.053" y2="100.4" fill="#1d1d1b" stroke="#000" stroke-linecap="round" stroke-width="6"/>
      <line x1="215.323" y1="50.318" x2="233.394" y2="50.318" fill="#1d1d1b" stroke="#000" stroke-linecap="round" stroke-width="6"/>
      <line x1="266.829" y1="55.597" x2="300.216" y2="55.636" fill="#1d1d1b" stroke="#000" stroke-linecap="round" stroke-width="6"/>
      <circle cx="283.506" cy="70.408" r="9.107" fill="#1d1d1b" stroke="#000" stroke-miterlimit="10"/>
    </g>
  </g>
</svg>
