<svg xmlns="http://www.w3.org/2000/svg" viewBox="0 0 501.036 140.127">
  <g id="Capa_2" data-name="Capa 2">
    <g id="Capa_39" data-name="Capa 39">
      <path d="M128,82.127c0,30.376-27.162,55-61.971,55S3,112.5,3,82.127s28.219-55,63.029-55S128,51.752,128,82.127Z" fill="none" stroke="#000" stroke-linecap="round" stroke-width="6"/>
      <line x1="25.583" y1="53.87" x2="63.54" y2="53.87" stroke="#000" stroke-linecap="round" stroke-width="6"/>
      <line x1="83.496" y1="53.87" x2="101.105" y2="53.87" stroke="#000" stroke-linecap="round" stroke-width="6"/>
      <circle cx="92.301" cy="70.968" r="9.293" stroke="#000" stroke-linecap="round" stroke-width="6"/>
      <circle cx="36.931" cy="70.968" r="9.293" stroke="#000" stroke-linecap="round" stroke-width="6"/>
      <line x1="36.931" y1="107.87" x2="92.301" y2="107.87" stroke="#000" stroke-linecap="round" stroke-width="6"/>
      <path d="M311.036,82.127c0,30.376-27.162,55-61.972,55s-63.028-24.624-63.028-55,28.219-55,63.028-55S311.036,51.752,311.036,82.127Z" fill="none" stroke="#000" stroke-linecap="round" stroke-width="6"/>
      <line x1="208.619" y1="53.87" x2="246.575" y2="53.87" stroke="#000" stroke-linecap="round" stroke-width="6"/>
      <line x1="266.532" y1="53.87" x2="284.141" y2="53.87" stroke="#000" stroke-linecap="round" stroke-width="6"/>
      <circle cx="275.336" cy="70.968" r="9.293" stroke="#000" stroke-linecap="round" stroke-width="6"/>
      <circle cx="219.967" cy="70.968" r="9.293" stroke="#000" stroke-linecap="round" stroke-width="6"/>
      <line x1="219.967" y1="107.87" x2="275.336" y2="107.87" stroke="#000" stroke-linecap="round" stroke-width="6"/>
      <path d="M498.036,82.127c0,30.376-27.162,55-61.972,55s-63.028-24.624-63.028-55,28.219-55,63.028-55S498.036,51.752,498.036,82.127Z" fill="none" stroke="#000" stroke-linecap="round" stroke-width="6"/>
      <line x1="395.619" y1="53.87" x2="433.575" y2="53.87" stroke="#000" stroke-linecap="round" stroke-width="6"/>
      <line x1="453.532" y1="53.87" x2="471.141" y2="53.87" stroke="#000" stroke-linecap="round" stroke-width="6"/>
      <circle cx="462.336" cy="70.968" r="9.293" stroke="#000" stroke-linecap="round" stroke-width="6"/>
      <circle cx="406.967" cy="70.968" r="9.293" stroke="#000" stroke-linecap="round" stroke-width="6"/>
      <line x1="406.967" y1="107.87" x2="462.336" y2="107.87" stroke="#000" stroke-linecap="round" stroke-width="6"/>
      <line x1="204.801" y1="9.261" x2="223.302" y2="31.917" fill="none" stroke="#000" stroke-linecap="round" stroke-width="6"/>
      <line x1="235.322" y1="3" x2="239.466" y2="27.761" fill="none" stroke="#000" stroke-linecap="round" stroke-width="6"/>
      <line x1="266.532" y1="3" x2="257.627" y2="27.127" fill="none" stroke="#000" stroke-linecap="round" stroke-width="6"/>
      <line x1="289.714" y1="9.261" x2="274.641" y2="31.917" fill="none" stroke="#000" stroke-linecap="round" stroke-width="6"/>
      <line x1="32.627" y1="15.064" x2="43.563" y2="30.728" fill="none" stroke="#000" stroke-linecap="round" stroke-width="6"/>
      <line x1="55.714" y1="10.826" x2="58.844" y2="27.127" fill="none" stroke="#000" stroke-linecap="round" stroke-width="6"/>
      <line x1="75.601" y1="27.761" x2="83.496" y2="12.783" fill="none" stroke="#000" stroke-linecap="round" stroke-width="6"/>
      <line x1="101.594" y1="15.38" x2="91.605" y2="31.917" fill="none" stroke="#000" stroke-linecap="round" stroke-width="6"/>
      <line x1="404.502" y1="12.669" x2="415.438" y2="28.333" fill="none" stroke="#000" stroke-linecap="round" stroke-width="6"/>
      <line x1="427.589" y1="8.431" x2="430.719" y2="24.732" fill="none" stroke="#000" stroke-linecap="round" stroke-width="6"/>
      <line x1="447.476" y1="25.366" x2="455.371" y2="10.388" fill="none" stroke="#000" stroke-linecap="round" stroke-width="6"/>
      <line x1="473.469" y1="12.986" x2="463.48" y2="29.522" fill="none" stroke="#000" stroke-linecap="round" stroke-width="6"/>
    </g>
  </g>
</svg>
