<svg xmlns="http://www.w3.org/2000/svg" viewBox="0 0 499.397 121.447">
  <g id="Capa_2" data-name="Capa 2">
    <g id="Capa_25" data-name="Capa 25">
      <path d="M128,63.447c0,30.376-27.162,55-61.971,55S3,93.823,3,63.447s28.219-55,63.029-55S128,33.071,128,63.447Z" fill="#fff" stroke="#000" stroke-linecap="round" stroke-width="6"/>
      <circle cx="36.196" cy="51.186" r="10.435" stroke="#000" stroke-linecap="round" stroke-width="6"/>
      <circle cx="92.63" cy="53.024" r="10.435" stroke="#000" stroke-linecap="round" stroke-width="6"/>
      <line x1="25.761" y1="34.49" x2="46.63" y2="34.49" stroke="#000" stroke-linecap="round" stroke-width="6"/>
      <line x1="84.283" y1="34.49" x2="99.413" y2="34.49" stroke="#000" stroke-linecap="round" stroke-width="6"/>
      <line x1="36.196" y1="89.795" x2="91.848" y2="89.795" stroke="#000" stroke-linecap="round" stroke-width="6"/>
      <line x1="97.326" y1="15.186" x2="107.761" y2="3.708" stroke="#000" stroke-linecap="round" stroke-width="6"/>
      <line x1="105.674" y1="21.447" x2="118.196" y2="9.447" stroke="#000" stroke-linecap="round" stroke-width="6"/>
      <line x1="113.829" y1="28.24" x2="125.5" y2="15.447" stroke="#000" stroke-linecap="round" stroke-width="6"/>
      <path d="M310.168,62.739c0,30.376-27.161,55-61.971,55s-63.029-24.624-63.029-55,28.219-55,63.029-55S310.168,32.363,310.168,62.739Z" fill="#fff" stroke="#000" stroke-linecap="round" stroke-width="6"/>
      <circle cx="218.364" cy="50.478" r="10.435" stroke="#000" stroke-linecap="round" stroke-width="6"/>
      <circle cx="274.799" cy="52.316" r="10.435" stroke="#000" stroke-linecap="round" stroke-width="6"/>
      <line x1="207.929" y1="33.783" x2="228.799" y2="33.783" stroke="#000" stroke-linecap="round" stroke-width="6"/>
      <line x1="266.451" y1="33.783" x2="281.581" y2="33.783" stroke="#000" stroke-linecap="round" stroke-width="6"/>
      <line x1="228.799" y1="89.087" x2="260.19" y2="89.087" stroke="#000" stroke-linecap="round" stroke-width="6"/>
      <line x1="279.494" y1="14.478" x2="289.929" y2="3" stroke="#000" stroke-linecap="round" stroke-width="6"/>
      <line x1="287.842" y1="20.739" x2="300.364" y2="8.739" stroke="#000" stroke-linecap="round" stroke-width="6"/>
      <line x1="295.997" y1="27.532" x2="307.668" y2="14.739" stroke="#000" stroke-linecap="round" stroke-width="6"/>
      <path d="M496.4,62.9c0,30.375-27.161,55-61.971,55S371.4,93.279,371.4,62.9s28.219-55,63.029-55S496.4,32.528,496.4,62.9Z" fill="#fff" stroke="#000" stroke-linecap="round" stroke-width="6"/>
      <circle cx="404.593" cy="50.643" r="10.435" stroke="#000" stroke-linecap="round" stroke-width="6"/>
      <circle cx="461.028" cy="52.48" r="10.435" stroke="#000" stroke-linecap="round" stroke-width="6"/>
      <line x1="394.158" y1="33.947" x2="415.028" y2="33.947" stroke="#000" stroke-linecap="round" stroke-width="6"/>
      <line x1="452.68" y1="33.947" x2="467.81" y2="33.947" stroke="#000" stroke-linecap="round" stroke-width="6"/>
      <line x1="415.028" y1="89.251" x2="446.419" y2="89.251" stroke="#000" stroke-linecap="round" stroke-width="6"/>
      <line x1="465.723" y1="14.643" x2="476.158" y2="3.164" stroke="#000" stroke-linecap="round" stroke-width="6"/>
      <line x1="474.071" y1="20.904" x2="486.593" y2="8.904" stroke="#000" stroke-linecap="round" stroke-width="6"/>
      <line x1="482.226" y1="27.697" x2="493.897" y2="14.904" stroke="#000" stroke-linecap="round" stroke-width="6"/>
    </g>
  </g>
</svg>
