<svg xmlns="http://www.w3.org/2000/svg" viewBox="0 0 536.43 116">
  <g id="Capa_2" data-name="Capa 2">
    <g id="Capa_59" data-name="Capa 59">
      <path d="M141.828,58c0,30.376-27.161,55-61.971,55S16.828,88.376,16.828,58,45.047,3,79.857,3,141.828,27.624,141.828,58Z" fill="none" stroke="#000" stroke-linecap="round" stroke-width="6"/>
      <line x1="37.444" y1="32.468" x2="79.328" y2="32.468" fill="none" stroke="#000" stroke-linecap="round" stroke-width="6"/>
      <line x1="101.614" y1="32.468" x2="119.072" y2="32.468" fill="none" stroke="#000" stroke-linecap="round" stroke-width="6"/>
      <line x1="54.43" y1="82.955" x2="105.861" y2="92.392" stroke="#000" stroke-linecap="round" stroke-width="6"/>
      <circle cx="56.344" cy="49.009" r="8.991" stroke="#000" stroke-linecap="round" stroke-width="6"/>
      <circle cx="110.343" cy="49.009" r="8.991" stroke="#000" stroke-linecap="round" stroke-width="6"/>
      <path d="M112.732,11.229s28.516-17.936,45.974,0" fill="none" stroke="#000" stroke-linecap="round" stroke-width="6"/>
      <path d="M125.618,20.716s12.328-14.584,36.863,0" fill="none" stroke="#000" stroke-linecap="round" stroke-width="6"/>
      <path d="M3,23.5s11.981-10.294,30.526-2.787" fill="none" stroke="#000" stroke-linecap="round" stroke-width="6"/>
      <path d="M10.078,9.687s20.76-13.345,39.634,0" fill="none" stroke="#000" stroke-linecap="round" stroke-width="6"/>
      <path d="M324.416,58c0,30.376-27.161,55-61.971,55s-63.029-24.624-63.029-55S227.635,3,262.445,3,324.416,27.624,324.416,58Z" fill="none" stroke="#000" stroke-linecap="round" stroke-width="6"/>
      <line x1="220.032" y1="32.468" x2="261.916" y2="32.468" fill="none" stroke="#000" stroke-linecap="round" stroke-width="6"/>
      <line x1="284.202" y1="32.468" x2="301.66" y2="32.468" fill="none" stroke="#000" stroke-linecap="round" stroke-width="6"/>
      <line x1="237.018" y1="82.955" x2="288.448" y2="92.392" stroke="#000" stroke-linecap="round" stroke-width="6"/>
      <circle cx="238.932" cy="49.009" r="8.991" stroke="#000" stroke-linecap="round" stroke-width="6"/>
      <circle cx="292.931" cy="49.009" r="8.991" stroke="#000" stroke-linecap="round" stroke-width="6"/>
      <path d="M295.319,11.229s28.517-17.936,45.975,0" fill="none" stroke="#000" stroke-linecap="round" stroke-width="6"/>
      <path d="M308.205,20.716s12.328-14.584,36.864,0" fill="none" stroke="#000" stroke-linecap="round" stroke-width="6"/>
      <path d="M185.588,23.5s11.981-10.294,30.526-2.787" fill="none" stroke="#000" stroke-linecap="round" stroke-width="6"/>
      <path d="M192.665,9.687s20.761-13.345,39.635,0" fill="none" stroke="#000" stroke-linecap="round" stroke-width="6"/>
      <path d="M512.777,58c0,30.376-27.161,55-61.971,55s-63.029-24.624-63.029-55S416,3,450.806,3,512.777,27.624,512.777,58Z" fill="none" stroke="#000" stroke-linecap="round" stroke-width="6"/>
      <line x1="472.563" y1="32.468" x2="490.021" y2="32.468" fill="none" stroke="#000" stroke-linecap="round" stroke-width="6"/>
      <line x1="425.379" y1="82.955" x2="476.81" y2="92.392" stroke="#000" stroke-linecap="round" stroke-width="6"/>
      <circle cx="427.293" cy="49.009" r="8.991" stroke="#000" stroke-linecap="round" stroke-width="6"/>
      <circle cx="481.292" cy="49.009" r="8.991" stroke="#000" stroke-linecap="round" stroke-width="6"/>
      <path d="M483.681,11.229s28.517-17.936,45.975,0" fill="none" stroke="#000" stroke-linecap="round" stroke-width="6"/>
      <path d="M496.567,20.716s12.328-14.584,36.863,0" fill="none" stroke="#000" stroke-linecap="round" stroke-width="6"/>
      <path d="M373.949,23.5s11.981-10.294,30.526-2.787" fill="none" stroke="#000" stroke-linecap="round" stroke-width="6"/>
      <path d="M381.027,9.687s20.76-13.345,39.634,0" fill="none" stroke="#000" stroke-linecap="round" stroke-width="6"/>
      <path d="M455.021,40.018s-6.134-20.289-43.881-7.55" fill="none" stroke="#000" stroke-linecap="round" stroke-width="6"/>
    </g>
  </g>
</svg>
