<svg xmlns="http://www.w3.org/2000/svg" viewBox="0 0 499.631 130.813">
  <g id="Capa_2" data-name="Capa 2">
    <g id="Capa_2-2" data-name="Capa 2">
      <path d="M128,72.813c0,30.376-27.162,55-61.971,55S3,103.189,3,72.813s28.219-55,63.029-55S128,42.437,128,72.813Z" fill="#fff" stroke="#000" stroke-linecap="round" stroke-width="6"/>
      <circle cx="40.587" cy="62.052" r="12.5" fill="#1d1d1b" stroke="#000" stroke-miterlimit="10"/>
      <circle cx="101.761" cy="62.052" r="12.5" fill="#1d1d1b" stroke="#000" stroke-miterlimit="10"/>
      <path d="M60,16.65S64.782-1.48,81.81,4.049" fill="none" stroke="#000" stroke-linecap="round" stroke-width="6"/>
      <path d="M100.332,6.466a20.208,20.208,0,0,0-23,11.239" fill="none" stroke="#000" stroke-linecap="round" stroke-width="6"/>
      <path d="M119.9,17.056c-3.27-5.881-26.958-1.8-28.727,4.159" fill="none" stroke="#000" stroke-linecap="round" stroke-width="6"/>
      <path d="M371.631,72.813c0-30.376,28.219-55,63.029-55s61.971,24.624,61.971,55-27.161,55-61.971,55" fill="#fff" stroke="#000" stroke-linecap="round" stroke-width="6"/>
      <path d="M434.66,127.813c-34.81,0-63.029-24.624-63.029-55" fill="#fff" stroke="#000" stroke-linecap="round" stroke-width="6"/>
      <circle cx="409.218" cy="62.052" r="12.5" fill="#1d1d1b" stroke="#000" stroke-miterlimit="10"/>
      <circle cx="470.392" cy="62.052" r="12.5" fill="#1d1d1b" stroke="#000" stroke-miterlimit="10"/>
      <path d="M399.782,40.579c-5.031.144,25.012.637,20.1.311" fill="#1d1d1b" stroke="#000" stroke-linecap="round" stroke-width="6"/>
      <path d="M427.494,18.242S432.529-2,450.442,4.171" fill="none" stroke="#000" stroke-linecap="round" stroke-width="6"/>
      <path d="M488.529,17.813c-3.488-7.436-28.75-2.278-30.637,5.26" fill="none" stroke="#000" stroke-linecap="round" stroke-width="6"/>
      <path d="M450.483,44.41c-3.7.156,18.467.2,14.834.017" fill="#1d1d1b" stroke="#000" stroke-linecap="round" stroke-width="6"/>
      <path d="M81,44.478c-3.7.156,18.467.2,14.834.017" fill="#1d1d1b" stroke="#000" stroke-linecap="round" stroke-width="6"/>
      <path d="M95.76,87.984c0,12.784-13.548,23.146-30.26,23.146S35.24,100.768,35.24,87.984" fill="none" stroke="#000" stroke-linecap="round" stroke-width="6"/>
      <path d="M469.228,87.984c0,12.784-13.548,23.146-30.26,23.146s-30.26-10.362-30.26-23.146" fill="none" stroke="#000" stroke-linecap="round" stroke-width="6"/>
      <path d="M310.809,72.813c0,30.376-27.162,55-61.972,55s-63.028-24.624-63.028-55,28.219-55,63.028-55S310.809,42.437,310.809,72.813Z" fill="#fff" stroke="#000" stroke-linecap="round" stroke-width="6"/>
      <circle cx="223.396" cy="62.052" r="12.5" fill="#1d1d1b" stroke="#000" stroke-miterlimit="10"/>
      <circle cx="284.569" cy="62.052" r="12.5" fill="#1d1d1b" stroke="#000" stroke-miterlimit="10"/>
      <path d="M213.959,40.579c-5.031.144,25.013.637,20.1.311" fill="#1d1d1b" stroke="#000" stroke-linecap="round" stroke-width="6"/>
      <path d="M242.805,16.65s4.785-18.13,21.814-12.6" fill="none" stroke="#000" stroke-linecap="round" stroke-width="6"/>
      <path d="M283.141,6.466a20.207,20.207,0,0,0-23,11.239" fill="none" stroke="#000" stroke-linecap="round" stroke-width="6"/>
      <path d="M302.706,17.056c-3.27-5.881-26.959-1.8-28.727,4.159" fill="none" stroke="#000" stroke-linecap="round" stroke-width="6"/>
      <path d="M263.8,44.478c-3.7.156,18.467.2,14.834.017" fill="#1d1d1b" stroke="#000" stroke-linecap="round" stroke-width="6"/>
      <path d="M278.569,87.984c0,12.784-13.548,23.146-30.26,23.146s-30.261-10.362-30.261-23.146" fill="none" stroke="#000" stroke-linecap="round" stroke-width="6"/>
      <path d="M496.631,72.813c0,30.376-27.161,55-61.971,55s-63.029-24.624-63.029-55,28.219-55,63.029-55S496.631,42.437,496.631,72.813Z" fill="#fff" stroke="#000" stroke-linecap="round" stroke-width="6"/>
      <circle cx="409.218" cy="62.052" r="12.5" fill="#1d1d1b" stroke="#000" stroke-miterlimit="10"/>
      <circle cx="470.392" cy="62.052" r="12.5" fill="#1d1d1b" stroke="#000" stroke-miterlimit="10"/>
      <path d="M399.782,40.579c-5.031.144,25.012.637,20.1.311" fill="#1d1d1b" stroke="#000" stroke-linecap="round" stroke-width="6"/>
      <path d="M428.628,16.65s4.785-18.13,21.814-12.6" fill="none" stroke="#000" stroke-linecap="round" stroke-width="6"/>
      <path d="M488.529,17.056c-3.27-5.881-26.959-1.8-28.727,4.159" fill="none" stroke="#000" stroke-linecap="round" stroke-width="6"/>
      <path d="M449.627,44.478c-3.7.156,18.467.2,14.834.017" fill="#1d1d1b" stroke="#000" stroke-linecap="round" stroke-width="6"/>
      <path d="M464.392,87.984c0,12.784-13.548,23.146-30.261,23.146s-30.26-10.362-30.26-23.146" fill="none" stroke="#000" stroke-linecap="round" stroke-width="6"/>
      <line x1="30.09" y1="40.999" x2="53.087" y2="40.999" fill="#1d1d1b" stroke="#000" stroke-linecap="round" stroke-width="6"/>
      <line x1="80.576" y1="44.547" x2="95.279" y2="44.547" fill="#1d1d1b" stroke="#000" stroke-linecap="round" stroke-width="6"/>
      <path d="M310.809,72.813c0,30.376-27.162,55-61.972,55s-63.028-24.624-63.028-55,28.219-55,63.028-55S310.809,42.437,310.809,72.813Z" fill="#fff" stroke="#000" stroke-linecap="round" stroke-width="6"/>
      <circle cx="223.396" cy="62.052" r="12.5" fill="#1d1d1b" stroke="#000" stroke-miterlimit="10"/>
      <circle cx="284.569" cy="62.052" r="12.5" fill="#1d1d1b" stroke="#000" stroke-miterlimit="10"/>
      <path d="M242.805,16.65s4.785-18.13,21.814-12.6" fill="none" stroke="#000" stroke-linecap="round" stroke-width="6"/>
      <path d="M283.141,6.466a20.207,20.207,0,0,0-23,11.239" fill="none" stroke="#000" stroke-linecap="round" stroke-width="6"/>
      <path d="M302.706,17.056c-3.27-5.881-26.959-1.8-28.727,4.159" fill="none" stroke="#000" stroke-linecap="round" stroke-width="6"/>
      <path d="M263.8,44.478c-3.7.156,18.467.2,14.834.017" fill="#1d1d1b" stroke="#000" stroke-linecap="round" stroke-width="6"/>
      <path d="M278.569,87.984c0,12.784-13.548,23.146-30.26,23.146s-30.261-10.362-30.261-23.146" fill="none" stroke="#000" stroke-linecap="round" stroke-width="6"/>
      <line x1="212.899" y1="40.999" x2="235.896" y2="40.999" fill="#1d1d1b" stroke="#000" stroke-linecap="round" stroke-width="6"/>
      <line x1="263.385" y1="44.547" x2="278.087" y2="44.547" fill="#1d1d1b" stroke="#000" stroke-linecap="round" stroke-width="6"/>
      <path d="M496.631,72.813c0,30.376-27.161,55-61.971,55s-63.029-24.624-63.029-55,28.219-55,63.029-55S496.631,42.437,496.631,72.813Z" fill="#fff" stroke="#000" stroke-linecap="round" stroke-width="6"/>
      <circle cx="409.218" cy="62.052" r="12.5" fill="#1d1d1b" stroke="#000" stroke-miterlimit="10"/>
      <circle cx="470.392" cy="62.052" r="12.5" fill="#1d1d1b" stroke="#000" stroke-miterlimit="10"/>
      <path d="M428.628,16.65s4.785-18.13,21.814-12.6" fill="none" stroke="#000" stroke-linecap="round" stroke-width="6"/>
      <path d="M488.529,17.056c-3.27-5.881-26.959-1.8-28.727,4.159" fill="none" stroke="#000" stroke-linecap="round" stroke-width="6"/>
      <path d="M449.627,44.478c-3.7.156,18.467.2,14.834.017" fill="#1d1d1b" stroke="#000" stroke-linecap="round" stroke-width="6"/>
      <path d="M464.392,87.984c0,12.784-13.548,23.146-30.261,23.146s-30.26-10.362-30.26-23.146" fill="none" stroke="#000" stroke-linecap="round" stroke-width="6"/>
      <line x1="398.722" y1="40.999" x2="421.718" y2="40.999" fill="#1d1d1b" stroke="#000" stroke-linecap="round" stroke-width="6"/>
      <line x1="449.208" y1="44.547" x2="463.91" y2="44.547" fill="#1d1d1b" stroke="#000" stroke-linecap="round" stroke-width="6"/>
    </g>
  </g>
</svg>
