<svg xmlns="http://www.w3.org/2000/svg" viewBox="0 0 501.036 145.997">
  <g id="Capa_2" data-name="Capa 2">
    <g id="Capa_51" data-name="Capa 51">
      <path d="M311.036,88c0,30.375-27.162,55-61.972,55s-63.028-24.625-63.028-55,28.219-55,63.028-55S311.036,57.621,311.036,88Z" fill="none" stroke="#000" stroke-linecap="round" stroke-width="6"/>
      <line x1="215.757" y1="6.652" x2="231.497" y2="35.164" fill="none" stroke="#000" stroke-linecap="round" stroke-width="6"/>
      <line x1="236.105" y1="6.652" x2="241.333" y2="33.407" fill="none" stroke="#000" stroke-linecap="round" stroke-width="6"/>
      <line x1="262.192" y1="3" x2="256.753" y2="33.407" fill="none" stroke="#000" stroke-linecap="round" stroke-width="6"/>
      <line x1="284.627" y1="6.652" x2="270.018" y2="35.87" fill="none" stroke="#000" stroke-linecap="round" stroke-width="6"/>
      <line x1="215.757" y1="59.87" x2="253.322" y2="59.87" fill="none" stroke="#000" stroke-linecap="round" stroke-width="6"/>
      <line x1="273.148" y1="59.87" x2="284.627" y2="59.87" fill="none" stroke="#000" stroke-linecap="round" stroke-width="6"/>
      <circle cx="229.723" cy="81.146" r="10.836" stroke="#000" stroke-linecap="round" stroke-width="6"/>
      <circle cx="278.888" cy="81.146" r="10.836" stroke="#000" stroke-linecap="round" stroke-width="6"/>
      <line x1="240.559" y1="117.261" x2="262.192" y2="117.261" stroke="#000" stroke-linecap="round" stroke-width="6"/>
      <path d="M498.036,88c0,30.375-27.162,55-61.972,55s-63.028-24.625-63.028-55,28.219-55,63.028-55S498.036,57.621,498.036,88Z" fill="none" stroke="#000" stroke-linecap="round" stroke-width="6"/>
      <line x1="402.757" y1="6.652" x2="418.497" y2="35.164" fill="none" stroke="#000" stroke-linecap="round" stroke-width="6"/>
      <line x1="423.105" y1="6.652" x2="428.333" y2="33.407" fill="none" stroke="#000" stroke-linecap="round" stroke-width="6"/>
      <line x1="449.192" y1="3" x2="443.753" y2="33.407" fill="none" stroke="#000" stroke-linecap="round" stroke-width="6"/>
      <line x1="471.627" y1="6.652" x2="457.018" y2="35.87" fill="none" stroke="#000" stroke-linecap="round" stroke-width="6"/>
      <line x1="402.757" y1="59.87" x2="440.322" y2="59.87" fill="none" stroke="#000" stroke-linecap="round" stroke-width="6"/>
      <line x1="460.148" y1="59.87" x2="471.627" y2="59.87" fill="none" stroke="#000" stroke-linecap="round" stroke-width="6"/>
      <circle cx="416.723" cy="81.146" r="10.836" stroke="#000" stroke-linecap="round" stroke-width="6"/>
      <circle cx="465.888" cy="81.146" r="10.836" stroke="#000" stroke-linecap="round" stroke-width="6"/>
      <line x1="427.559" y1="117.261" x2="449.192" y2="117.261" stroke="#000" stroke-linecap="round" stroke-width="6"/>
      <path d="M128,88c0,30.375-27.162,55-61.971,55S3,118.372,3,88,31.219,33,66.029,33,128,57.621,128,88Z" fill="none" stroke="#000" stroke-linecap="round" stroke-width="6"/>
      <line x1="39.098" y1="18.203" x2="48.461" y2="35.164" fill="none" stroke="#000" stroke-linecap="round" stroke-width="6"/>
      <line x1="54.321" y1="13.058" x2="58.297" y2="33.407" fill="none" stroke="#000" stroke-linecap="round" stroke-width="6"/>
      <line x1="77.357" y1="13.058" x2="73.717" y2="33.407" fill="none" stroke="#000" stroke-linecap="round" stroke-width="6"/>
      <line x1="95.852" y1="18.13" x2="86.982" y2="35.87" fill="none" stroke="#000" stroke-linecap="round" stroke-width="6"/>
      <line x1="32.721" y1="59.87" x2="70.287" y2="59.87" fill="none" stroke="#000" stroke-linecap="round" stroke-width="6"/>
      <line x1="90.113" y1="59.87" x2="101.591" y2="59.87" fill="none" stroke="#000" stroke-linecap="round" stroke-width="6"/>
      <circle cx="46.687" cy="81.146" r="10.836" stroke="#000" stroke-linecap="round" stroke-width="6"/>
      <circle cx="95.852" cy="81.146" r="10.836" stroke="#000" stroke-linecap="round" stroke-width="6"/>
      <line x1="57.523" y1="117.261" x2="79.156" y2="117.261" stroke="#000" stroke-linecap="round" stroke-width="6"/>
    </g>
  </g>
</svg>
