<svg xmlns="http://www.w3.org/2000/svg" viewBox="0 0 523.964 120.511">
  <g id="Capa_2" data-name="Capa 2">
    <g id="Capa_45" data-name="Capa 45">
      <path d="M138.286,62.218c0,30.375-27.161,55-61.971,55s-63.029-24.625-63.029-55,28.219-55,63.029-55S138.286,31.842,138.286,62.218Z" fill="none" stroke="#000" stroke-linecap="round" stroke-width="6"/>
      <path d="M84.391,44.525s15.652-18.782,38.348,0" fill="none" stroke="#000" stroke-linecap="round" stroke-width="6"/>
      <line x1="37.826" y1="36.177" x2="61.304" y2="36.177" fill="none" stroke="#000" stroke-linecap="round" stroke-width="6"/>
      <circle cx="49.174" cy="54.699" r="7.435" stroke="#000" stroke-linecap="round" stroke-width="6"/>
      <circle cx="103.565" cy="54.699" r="7.435" stroke="#000" stroke-linecap="round" stroke-width="6"/>
      <line x1="44.478" y1="85.221" x2="103.565" y2="97.743" stroke="#000" stroke-linecap="round" stroke-width="6"/>
      <path d="M105.262,13.455s19.042-19.722,40.955,0" fill="none" stroke="#000" stroke-linecap="round" stroke-width="6"/>
      <path d="M117.265,20.754S131.739,7.743,151.3,24.569" fill="none" stroke="#000" stroke-linecap="round" stroke-width="6"/>
      <path d="M37.826,18.665S22.957,10.085,3,20.262" fill="none" stroke="#000" stroke-linecap="round" stroke-width="6"/>
      <path d="M49.565,12.407S34.3-3.684,9.652,9.073" fill="none" stroke="#000" stroke-linecap="round" stroke-width="6"/>
      <path d="M321.938,62.511c0,30.376-27.161,55-61.971,55s-63.029-24.624-63.029-55,28.219-55,63.029-55S321.938,32.135,321.938,62.511Z" fill="none" stroke="#000" stroke-linecap="round" stroke-width="6"/>
      <path d="M268.043,44.819s15.653-18.783,38.348,0" fill="none" stroke="#000" stroke-linecap="round" stroke-width="6"/>
      <line x1="221.478" y1="36.471" x2="244.956" y2="36.471" fill="none" stroke="#000" stroke-linecap="round" stroke-width="6"/>
      <circle cx="244.565" cy="54.992" r="7.435" stroke="#000" stroke-linecap="round" stroke-width="6"/>
      <circle cx="298.956" cy="54.992" r="7.435" stroke="#000" stroke-linecap="round" stroke-width="6"/>
      <line x1="228.13" y1="85.514" x2="287.217" y2="98.036" stroke="#000" stroke-linecap="round" stroke-width="6"/>
      <path d="M288.914,13.749s19.042-19.723,40.955,0" fill="none" stroke="#000" stroke-linecap="round" stroke-width="6"/>
      <path d="M300.917,21.047s14.474-13.011,34.039,3.815" fill="none" stroke="#000" stroke-linecap="round" stroke-width="6"/>
      <path d="M221.478,18.958s-14.869-8.579-34.826,1.6" fill="none" stroke="#000" stroke-linecap="round" stroke-width="6"/>
      <path d="M233.217,12.7S217.956-3.391,193.3,9.366" fill="none" stroke="#000" stroke-linecap="round" stroke-width="6"/>
      <path d="M507.946,61.063c0,30.376-27.162,55-61.971,55s-63.029-24.624-63.029-55,28.219-55,63.029-55S507.946,30.687,507.946,61.063Z" fill="none" stroke="#000" stroke-linecap="round" stroke-width="6"/>
      <path d="M454.051,43.371s15.652-18.783,38.348,0" fill="none" stroke="#000" stroke-linecap="round" stroke-width="6"/>
      <line x1="407.486" y1="35.023" x2="430.964" y2="35.023" fill="none" stroke="#000" stroke-linecap="round" stroke-width="6"/>
      <circle cx="418.833" cy="53.545" r="7.435" stroke="#000" stroke-linecap="round" stroke-width="6"/>
      <circle cx="473.225" cy="53.545" r="7.435" stroke="#000" stroke-linecap="round" stroke-width="6"/>
      <line x1="414.138" y1="84.066" x2="473.225" y2="96.588" stroke="#000" stroke-linecap="round" stroke-width="6"/>
      <path d="M474.921,12.3s19.043-19.722,40.956,0" fill="none" stroke="#000" stroke-linecap="round" stroke-width="6"/>
      <path d="M486.924,19.6s14.475-13.011,34.04,3.815" fill="none" stroke="#000" stroke-linecap="round" stroke-width="6"/>
      <path d="M407.486,17.51s-14.87-8.579-34.826,1.6" fill="none" stroke="#000" stroke-linecap="round" stroke-width="6"/>
      <path d="M419.225,11.252S403.964-4.839,379.312,7.918" fill="none" stroke="#000" stroke-linecap="round" stroke-width="6"/>
    </g>
  </g>
</svg>
