<svg xmlns="http://www.w3.org/2000/svg" viewBox="0 0 511.977 135.128">
  <g id="Capa_2" data-name="Capa 2">
    <g id="Capa_17" data-name="Capa 17">
      <path d="M136.32,76.779c0,30.376-27.161,55-61.971,55s-63.029-24.624-63.029-55,28.219-55,63.029-55S136.32,46.4,136.32,76.779Z" fill="#fff" stroke="#000" stroke-linecap="round" stroke-width="6"/>
      <circle cx="59.526" cy="57.858" r="8.627" fill="#1d1d1b" stroke="#000" stroke-miterlimit="10"/>
      <circle cx="109.649" cy="57.858" r="7.946" fill="#1d1d1b" stroke="#000" stroke-miterlimit="10"/>
      <path d="M59.08,115.59c29.734,3.769,29.48-38.811,29.48-38.811" fill="none" stroke="#000" stroke-linecap="round" stroke-width="6"/>
      <line x1="3" y1="21.779" x2="33.908" y2="33.471" fill="#1d1d1b" stroke="#000" stroke-linecap="round" stroke-width="6"/>
      <line x1="24.454" y1="3" x2="45.911" y2="25.813" fill="#1d1d1b" stroke="#000" stroke-linecap="round" stroke-width="6"/>
      <line x1="124.043" y1="8.514" x2="99.52" y2="24.202" fill="#1d1d1b" stroke="#000" stroke-linecap="round" stroke-width="6"/>
      <line x1="141.783" y1="30.391" x2="114.349" y2="33.193" fill="#1d1d1b" stroke="#000" stroke-linecap="round" stroke-width="6"/>
      <path d="M32.49,48.07c8.824-8.8,27.036-1.376,27.036-1.376" fill="none" stroke="#000" stroke-linecap="round" stroke-width="6"/>
      <path d="M79.165,49.231c8.823-8.8,27.036-1.377,27.036-1.377" fill="none" stroke="#000" stroke-linecap="round" stroke-width="6"/>
      <path d="M315.914,77.128c0,30.375-27.161,55-61.971,55s-63.029-24.625-63.029-55,28.219-55,63.029-55S315.914,46.752,315.914,77.128Z" fill="#fff" stroke="#000" stroke-linecap="round" stroke-width="6"/>
      <circle cx="239.12" cy="58.206" r="8.627" fill="#1d1d1b" stroke="#000" stroke-miterlimit="10"/>
      <circle cx="289.243" cy="58.206" r="7.946" fill="#1d1d1b" stroke="#000" stroke-miterlimit="10"/>
      <path d="M238.674,115.938c29.734,3.769,29.48-38.81,29.48-38.81" fill="none" stroke="#000" stroke-linecap="round" stroke-width="6"/>
      <line x1="182.594" y1="22.128" x2="213.502" y2="33.819" fill="#1d1d1b" stroke="#000" stroke-linecap="round" stroke-width="6"/>
      <line x1="204.048" y1="3.348" x2="225.505" y2="26.162" fill="#1d1d1b" stroke="#000" stroke-linecap="round" stroke-width="6"/>
      <line x1="303.637" y1="8.862" x2="279.114" y2="24.551" fill="#1d1d1b" stroke="#000" stroke-linecap="round" stroke-width="6"/>
      <line x1="321.377" y1="30.739" x2="293.943" y2="33.541" fill="#1d1d1b" stroke="#000" stroke-linecap="round" stroke-width="6"/>
      <path d="M212.084,48.418c8.824-8.8,27.036-1.376,27.036-1.376" fill="none" stroke="#000" stroke-linecap="round" stroke-width="6"/>
      <path d="M258.759,49.579c8.823-8.8,27.035-1.377,27.035-1.377" fill="none" stroke="#000" stroke-linecap="round" stroke-width="6"/>
      <path d="M503.515,77.128c0,30.375-27.162,55-61.972,55s-63.028-24.625-63.028-55,28.219-55,63.028-55S503.515,46.752,503.515,77.128Z" fill="#fff" stroke="#000" stroke-linecap="round" stroke-width="6"/>
      <circle cx="396.387" cy="59.917" r="8.627" fill="#1d1d1b" stroke="#000" stroke-miterlimit="10"/>
      <circle cx="446.359" cy="61.464" r="7.946" fill="#1d1d1b" stroke="#000" stroke-miterlimit="10"/>
      <path d="M426.275,115.938c29.734,3.769,29.48-38.81,29.48-38.81" fill="none" stroke="#000" stroke-linecap="round" stroke-width="6"/>
      <line x1="370.195" y1="22.128" x2="401.103" y2="33.819" fill="#1d1d1b" stroke="#000" stroke-linecap="round" stroke-width="6"/>
      <line x1="391.649" y1="3.348" x2="413.105" y2="26.162" fill="#1d1d1b" stroke="#000" stroke-linecap="round" stroke-width="6"/>
      <line x1="491.238" y1="8.862" x2="466.715" y2="24.551" fill="#1d1d1b" stroke="#000" stroke-linecap="round" stroke-width="6"/>
      <line x1="508.977" y1="30.739" x2="481.544" y2="33.541" fill="#1d1d1b" stroke="#000" stroke-linecap="round" stroke-width="6"/>
      <path d="M399.685,48.418c8.823-8.8,27.036-1.376,27.036-1.376" fill="none" stroke="#000" stroke-linecap="round" stroke-width="6"/>
      <path d="M446.359,49.579c8.824-8.8,27.036-1.377,27.036-1.377" fill="none" stroke="#000" stroke-linecap="round" stroke-width="6"/>
    </g>
  </g>
</svg>
