<svg xmlns="http://www.w3.org/2000/svg" viewBox="0 0 514.392 116.183">
  <g id="Capa_2" data-name="Capa 2">
    <g id="Capa_56" data-name="Capa 56">
      <path d="M141.357,58c0,30.376-27.162,55-61.972,55S16.357,88.376,16.357,58,44.575,3,79.385,3,141.357,27.624,141.357,58Z" fill="none" stroke="#000" stroke-linecap="round" stroke-width="6"/>
      <line x1="3" y1="3" x2="65.283" y2="3" fill="none" stroke="#000" stroke-linecap="round" stroke-width="6"/>
      <line x1="3" y1="14.066" x2="41.465" y2="14.066" fill="none" stroke="#000" stroke-linecap="round" stroke-width="6"/>
      <line x1="3" y1="25.391" x2="28.629" y2="25.391" fill="none" stroke="#000" stroke-linecap="round" stroke-width="6"/>
      <line x1="34.141" y1="34.827" x2="51.599" y2="34.827" fill="none" stroke="#000" stroke-linecap="round" stroke-width="6"/>
      <line x1="77.079" y1="34.827" x2="114.354" y2="34.827" fill="none" stroke="#000" stroke-linecap="round" stroke-width="6"/>
      <circle cx="42.87" cy="48.629" r="7.196" stroke="#000" stroke-linecap="round" stroke-width="6"/>
      <circle cx="95.716" cy="48.629" r="7.196" stroke="#000" stroke-linecap="round" stroke-width="6"/>
      <path d="M38.388,77.293s8.021,27.366,55.205,17.93" fill="none" stroke="#000" stroke-linecap="round" stroke-width="6"/>
      <path d="M324.392,58.183c0,30.376-27.161,55-61.971,55s-63.029-24.624-63.029-55,28.219-55,63.029-55S324.392,27.808,324.392,58.183Z" fill="none" stroke="#000" stroke-linecap="round" stroke-width="6"/>
      <line x1="186.036" y1="3.183" x2="248.318" y2="3.183" fill="none" stroke="#000" stroke-linecap="round" stroke-width="6"/>
      <line x1="186.036" y1="14.25" x2="224.501" y2="14.25" fill="none" stroke="#000" stroke-linecap="round" stroke-width="6"/>
      <line x1="186.036" y1="25.574" x2="211.665" y2="25.574" fill="none" stroke="#000" stroke-linecap="round" stroke-width="6"/>
      <line x1="217.177" y1="35.011" x2="234.635" y2="35.011" fill="none" stroke="#000" stroke-linecap="round" stroke-width="6"/>
      <line x1="260.114" y1="35.011" x2="297.389" y2="35.011" fill="none" stroke="#000" stroke-linecap="round" stroke-width="6"/>
      <circle cx="225.906" cy="48.812" r="7.196" stroke="#000" stroke-linecap="round" stroke-width="6"/>
      <circle cx="278.752" cy="48.812" r="7.196" stroke="#000" stroke-linecap="round" stroke-width="6"/>
      <path d="M221.424,77.476s8.021,27.367,55.205,17.93" fill="none" stroke="#000" stroke-linecap="round" stroke-width="6"/>
      <path d="M511.392,58.183c0,30.376-27.161,55-61.971,55s-63.029-24.624-63.029-55,28.219-55,63.029-55S511.392,27.808,511.392,58.183Z" fill="none" stroke="#000" stroke-linecap="round" stroke-width="6"/>
      <line x1="373.036" y1="3.183" x2="435.318" y2="3.183" fill="none" stroke="#000" stroke-linecap="round" stroke-width="6"/>
      <line x1="373.036" y1="25.574" x2="398.665" y2="25.574" fill="none" stroke="#000" stroke-linecap="round" stroke-width="6"/>
      <line x1="404.177" y1="35.011" x2="421.635" y2="35.011" fill="none" stroke="#000" stroke-linecap="round" stroke-width="6"/>
      <line x1="447.114" y1="35.011" x2="484.389" y2="35.011" fill="none" stroke="#000" stroke-linecap="round" stroke-width="6"/>
      <circle cx="412.906" cy="48.812" r="7.196" stroke="#000" stroke-linecap="round" stroke-width="6"/>
      <circle cx="465.752" cy="48.812" r="7.196" stroke="#000" stroke-linecap="round" stroke-width="6"/>
      <path d="M408.424,77.476s8.021,27.367,55.205,17.93" fill="none" stroke="#000" stroke-linecap="round" stroke-width="6"/>
    </g>
  </g>
</svg>
