<svg xmlns="http://www.w3.org/2000/svg" viewBox="0 0 525.859 130.241">
  <g id="Capa_2" data-name="Capa 2">
    <g id="Capa_32" data-name="Capa 32">
      <path d="M142.2,72.241c0,30.376-27.161,55-61.971,55S17.2,102.617,17.2,72.241s28.219-55,63.029-55S142.2,41.865,142.2,72.241Z" fill="none" stroke="#000" stroke-linecap="round" stroke-width="6"/>
      <path d="M325.235,72.241c0,30.376-27.161,55-61.971,55s-63.029-24.624-63.029-55,28.219-55,63.029-55S325.235,41.865,325.235,72.241Z" fill="none" stroke="#000" stroke-linecap="round" stroke-width="6"/>
      <path d="M512.235,72.241c0,30.376-27.161,55-61.971,55s-63.029-24.624-63.029-55,28.219-55,63.029-55S512.235,41.865,512.235,72.241Z" fill="none" stroke="#000" stroke-linecap="round" stroke-width="6"/>
      <path d="M50.883,23.558S42.13,7.005,3,19.527" fill="none" stroke="#000" stroke-linecap="round" stroke-width="6"/>
      <path d="M61.109,19.2S55.043-2.777,14.935,7.592" fill="none" stroke="#000" stroke-linecap="round" stroke-width="6"/>
      <path d="M106.363,21.088s23.224-18.583,43.963-2.931" fill="none" stroke="#000" stroke-linecap="round" stroke-width="6"/>
      <path d="M90.065,17.241s19.957-20.3,47.152-12.429" fill="none" stroke="#000" stroke-linecap="round" stroke-width="6"/>
      <ellipse cx="105.033" cy="55.038" rx="8.609" ry="7.924" stroke="#000" stroke-linecap="round" stroke-width="6"/>
      <ellipse cx="50.883" cy="55.038" rx="8.609" ry="7.924" stroke="#000" stroke-linecap="round" stroke-width="6"/>
      <path d="M325.371,72.241c0,30.376-27.161,55-61.971,55s-63.029-24.624-63.029-55,28.219-55,63.029-55S325.371,41.865,325.371,72.241Z" fill="none" stroke="#000" stroke-linecap="round" stroke-width="6"/>
      <path d="M234.055,23.558S225.3,7.005,186.172,19.527" fill="none" stroke="#000" stroke-linecap="round" stroke-width="6"/>
      <path d="M244.28,19.2S238.215-2.777,198.106,7.592" fill="none" stroke="#000" stroke-linecap="round" stroke-width="6"/>
      <path d="M289.534,21.088S312.759,2.505,333.5,18.157" fill="none" stroke="#000" stroke-linecap="round" stroke-width="6"/>
      <path d="M273.237,17.241s19.956-20.3,47.152-12.429" fill="none" stroke="#000" stroke-linecap="round" stroke-width="6"/>
      <ellipse cx="288.204" cy="55.038" rx="8.609" ry="7.924" stroke="#000" stroke-linecap="round" stroke-width="6"/>
      <ellipse cx="234.055" cy="55.038" rx="8.609" ry="7.924" stroke="#000" stroke-linecap="round" stroke-width="6"/>
      <path d="M514.732,72.241c0,30.376-27.161,55-61.971,55s-63.029-24.624-63.029-55,28.219-55,63.029-55S514.732,41.865,514.732,72.241Z" fill="none" stroke="#000" stroke-linecap="round" stroke-width="6"/>
      <path d="M423.416,23.558s-8.753-16.553-47.883-4.031" fill="none" stroke="#000" stroke-linecap="round" stroke-width="6"/>
      <path d="M433.641,19.2S427.576-2.777,387.467,7.592" fill="none" stroke="#000" stroke-linecap="round" stroke-width="6"/>
      <path d="M478.9,21.088s23.225-18.583,43.964-2.931" fill="none" stroke="#000" stroke-linecap="round" stroke-width="6"/>
      <path d="M462.6,17.241s19.956-20.3,47.152-12.429" fill="none" stroke="#000" stroke-linecap="round" stroke-width="6"/>
      <ellipse cx="477.565" cy="55.038" rx="8.609" ry="7.924" stroke="#000" stroke-linecap="round" stroke-width="6"/>
      <ellipse cx="423.416" cy="55.038" rx="8.609" ry="7.924" stroke="#000" stroke-linecap="round" stroke-width="6"/>
      <line x1="62.87" y1="99.549" x2="90.065" y2="99.549" stroke="#000" stroke-linecap="round" stroke-width="6"/>
      <line x1="258.13" y1="101.114" x2="281.217" y2="90.94" stroke="#000" stroke-linecap="round" stroke-width="6"/>
      <line x1="444.783" y1="101.114" x2="473.739" y2="101.114" stroke="#000" stroke-linecap="round" stroke-width="6"/>
    </g>
  </g>
</svg>
