<svg xmlns="http://www.w3.org/2000/svg" viewBox="0 0 510.364 138.955">
  <g id="Capa_2" data-name="Capa 2">
    <g id="Capa_58" data-name="Capa 58">
      <path d="M128,80.743c0,30.376-27.162,55-61.971,55S3,111.119,3,80.743s28.219-55,63.029-55S128,50.367,128,80.743Z" fill="none" stroke="#000" stroke-linecap="round" stroke-width="6"/>
      <path d="M76.462,25.743S88.729-3.3,115.624,4.253" fill="none" stroke="#000" stroke-linecap="round" stroke-width="6"/>
      <path d="M89.082,29.59S100.525,11.8,125.533,16.52" fill="none" stroke="#000" stroke-linecap="round" stroke-width="6"/>
      <path d="M101.015,35.186s12.722-16.118,36.314-5.6" fill="none" stroke="#000" stroke-linecap="round" stroke-width="6"/>
      <path d="M23.616,64.176s18.873-15.1,35.86,0" fill="none" stroke="#000" stroke-linecap="round" stroke-width="6"/>
      <line x1="81.652" y1="60.821" x2="101.015" y2="60.821" fill="none" stroke="#000" stroke-linecap="round" stroke-width="6"/>
      <circle cx="40.653" cy="74.91" r="7.431" stroke="#000" stroke-linecap="round" stroke-width="6"/>
      <circle cx="91.334" cy="74.91" r="7.431" stroke="#000" stroke-linecap="round" stroke-width="6"/>
      <line x1="41.546" y1="117.494" x2="89.082" y2="103.81" stroke="#000" stroke-linecap="round" stroke-width="6"/>
      <path d="M498.036,80.955c0,30.376-27.162,55-61.972,55s-63.028-24.624-63.028-55,28.219-55,63.028-55S498.036,50.58,498.036,80.955Z" fill="none" stroke="#000" stroke-linecap="round" stroke-width="6"/>
      <path d="M446.5,25.955S458.765-3.084,485.66,4.465" fill="none" stroke="#000" stroke-linecap="round" stroke-width="6"/>
      <path d="M459.118,29.8s11.443-17.789,36.45-13.07" fill="none" stroke="#000" stroke-linecap="round" stroke-width="6"/>
      <path d="M471.051,35.4s12.722-16.118,36.313-5.6" fill="none" stroke="#000" stroke-linecap="round" stroke-width="6"/>
      <path d="M393.652,64.388s18.873-15.1,35.859,0" fill="none" stroke="#000" stroke-linecap="round" stroke-width="6"/>
      <line x1="451.688" y1="61.033" x2="471.051" y2="61.033" fill="none" stroke="#000" stroke-linecap="round" stroke-width="6"/>
      <circle cx="410.689" cy="75.123" r="7.431" stroke="#000" stroke-linecap="round" stroke-width="6"/>
      <circle cx="461.369" cy="75.123" r="7.431" stroke="#000" stroke-linecap="round" stroke-width="6"/>
      <line x1="411.581" y1="117.706" x2="459.118" y2="104.023" stroke="#000" stroke-linecap="round" stroke-width="6"/>
      <path d="M312.018,80.955c0,30.376-27.162,55-61.971,55s-63.029-24.624-63.029-55,28.219-55,63.029-55S312.018,50.58,312.018,80.955Z" fill="none" stroke="#000" stroke-linecap="round" stroke-width="6"/>
      <path d="M260.48,25.955s12.267-29.039,39.162-21.49" fill="none" stroke="#000" stroke-linecap="round" stroke-width="6"/>
      <path d="M273.1,29.8s11.443-17.789,36.451-13.07" fill="none" stroke="#000" stroke-linecap="round" stroke-width="6"/>
      <path d="M285.033,35.4s12.722-16.118,36.314-5.6" fill="none" stroke="#000" stroke-linecap="round" stroke-width="6"/>
      <path d="M207.634,64.388s18.873-15.1,35.859,0" fill="none" stroke="#000" stroke-linecap="round" stroke-width="6"/>
      <line x1="265.67" y1="61.033" x2="285.033" y2="61.033" fill="none" stroke="#000" stroke-linecap="round" stroke-width="6"/>
      <circle cx="224.671" cy="75.123" r="7.431" stroke="#000" stroke-linecap="round" stroke-width="6"/>
      <circle cx="275.351" cy="75.123" r="7.431" stroke="#000" stroke-linecap="round" stroke-width="6"/>
      <line x1="222.731" y1="110.864" x2="273.1" y2="110.864" stroke="#000" stroke-linecap="round" stroke-width="6"/>
    </g>
  </g>
</svg>
