<svg xmlns="http://www.w3.org/2000/svg" viewBox="0 0 497.631 133.334">
  <g id="Capa_2" data-name="Capa 2">
    <g id="Capa_1-2" data-name="Capa 1">
      <path d="M124,73.826c0,30.376-26.292,55-59.988,55S3,104.2,3,73.826s27.316-55,61.012-55S124,43.45,124,73.826Z" fill="#fff" stroke="#000" stroke-linecap="round" stroke-width="6"/>
      <ellipse cx="39.384" cy="63.065" rx="12.1" ry="12.5" stroke="#000" stroke-miterlimit="10"/>
      <ellipse cx="98.601" cy="63.065" rx="12.1" ry="12.5" stroke="#000" stroke-miterlimit="10"/>
      <line x1="31.682" y1="3" x2="40.782" y2="19.93" fill="#1d1d1b" stroke="#000" stroke-linecap="round" stroke-width="6"/>
      <line x1="53.147" y1="3" x2="57.075" y2="17.264" fill="#1d1d1b" stroke="#000" stroke-linecap="round" stroke-width="6"/>
      <line x1="78.651" y1="3" x2="74.412" y2="18.826" fill="#1d1d1b" stroke="#000" stroke-linecap="round" stroke-width="6"/>
      <line x1="101.883" y1="3" x2="88.121" y2="21.865" fill="#1d1d1b" stroke="#000" stroke-linecap="round" stroke-width="6"/>
      <path d="M308.569,75.334c0,30.376-27.161,55-61.971,55s-63.029-24.624-63.029-55,28.219-55,63.029-55S308.569,44.959,308.569,75.334Z" fill="#fff" stroke="#000" stroke-linecap="round" stroke-width="6"/>
      <circle cx="221.156" cy="64.574" r="12.5" fill="#1d1d1b" stroke="#000" stroke-miterlimit="10"/>
      <circle cx="282.33" cy="64.574" r="12.5" fill="#1d1d1b" stroke="#000" stroke-miterlimit="10"/>
      <path d="M223.9,101.291c-10.7,2.609,54.839-11.794,43.826-9.652" fill="#1d1d1b" stroke="#000" stroke-linecap="round" stroke-width="6"/>
      <path d="M211.719,43.1c-5.03.144,25.013.636,20.1.311" fill="#1d1d1b" stroke="#000" stroke-linecap="round" stroke-width="6"/>
      <path d="M249.544,46.7c-8.223.346,41,.447,32.931.039" fill="#1d1d1b" stroke="#000" stroke-linecap="round" stroke-width="6"/>
      <line x1="213.2" y1="4.508" x2="224.492" y2="24.844" fill="#1d1d1b" stroke="#000" stroke-linecap="round" stroke-width="6"/>
      <line x1="235.374" y1="4.508" x2="239.432" y2="20.764" fill="#1d1d1b" stroke="#000" stroke-linecap="round" stroke-width="6"/>
      <line x1="261.721" y1="4.508" x2="257.342" y2="21.438" fill="#1d1d1b" stroke="#000" stroke-linecap="round" stroke-width="6"/>
      <line x1="285.721" y1="4.508" x2="269.83" y2="25.595" fill="#1d1d1b" stroke="#000" stroke-linecap="round" stroke-width="6"/>
      <path d="M494.631,74.456c0,30.376-27.161,55-61.971,55s-63.029-24.624-63.029-55,28.219-55,63.029-55S494.631,44.08,494.631,74.456Z" fill="#fff" stroke="#000" stroke-linecap="round" stroke-width="6"/>
      <circle cx="407.218" cy="63.695" r="12.5" fill="#1d1d1b" stroke="#000" stroke-miterlimit="10"/>
      <circle cx="468.392" cy="63.695" r="12.5" fill="#1d1d1b" stroke="#000" stroke-miterlimit="10"/>
      <path d="M399.489,94.618c-3.1-2.5,14.628,13.466,31.077,13.466,16.3,0,30.326-16.435,28.761-14.479" fill="none" stroke="#000" stroke-linecap="round" stroke-width="6"/>
      <path d="M397.782,42.222c-5.031.144,25.012.636,20.1.311" fill="#1d1d1b" stroke="#000" stroke-linecap="round" stroke-width="6"/>
      <path d="M435.607,45.817c-8.224.346,41,.446,32.931.038" fill="#1d1d1b" stroke="#000" stroke-linecap="round" stroke-width="6"/>
      <line x1="399.262" y1="3.63" x2="410.554" y2="23.965" fill="#1d1d1b" stroke="#000" stroke-linecap="round" stroke-width="6"/>
      <line x1="421.436" y1="3.63" x2="425.494" y2="19.885" fill="#1d1d1b" stroke="#000" stroke-linecap="round" stroke-width="6"/>
      <line x1="447.784" y1="3.63" x2="443.405" y2="20.559" fill="#1d1d1b" stroke="#000" stroke-linecap="round" stroke-width="6"/>
      <line x1="471.784" y1="3.63" x2="455.892" y2="24.716" fill="#1d1d1b" stroke="#000" stroke-linecap="round" stroke-width="6"/>
      <path d="M308.569,75.334c0,30.376-27.161,55-61.971,55s-63.029-24.624-63.029-55,28.219-55,63.029-55S308.569,44.959,308.569,75.334Z" fill="#fff" stroke="#000" stroke-linecap="round" stroke-width="6"/>
      <circle cx="221.156" cy="64.574" r="12.5" fill="#1d1d1b" stroke="#000" stroke-miterlimit="10"/>
      <circle cx="282.33" cy="64.574" r="12.5" fill="#1d1d1b" stroke="#000" stroke-miterlimit="10"/>
      <path d="M223.9,101.291c-10.7,2.609,54.839-11.794,43.826-9.652" fill="#1d1d1b" stroke="#000" stroke-linecap="round" stroke-width="6"/>
      <path d="M211.719,43.1c-5.03.144,25.013.636,20.1.311" fill="#1d1d1b" stroke="#000" stroke-linecap="round" stroke-width="6"/>
      <path d="M249.544,46.7c-8.223.346,41,.447,32.931.039" fill="#1d1d1b" stroke="#000" stroke-linecap="round" stroke-width="6"/>
      <line x1="213.2" y1="4.508" x2="222.6" y2="21.438" fill="#1d1d1b" stroke="#000" stroke-linecap="round" stroke-width="6"/>
      <line x1="235.374" y1="4.508" x2="239.432" y2="18.772" fill="#1d1d1b" stroke="#000" stroke-linecap="round" stroke-width="6"/>
      <line x1="261.721" y1="4.508" x2="257.342" y2="20.334" fill="#1d1d1b" stroke="#000" stroke-linecap="round" stroke-width="6"/>
      <line x1="285.721" y1="4.508" x2="271.504" y2="23.374" fill="#1d1d1b" stroke="#000" stroke-linecap="round" stroke-width="6"/>
      <path d="M494.631,74.456c0,30.376-27.161,55-61.971,55s-63.029-24.624-63.029-55,28.219-55,63.029-55S494.631,44.08,494.631,74.456Z" fill="#fff" stroke="#000" stroke-linecap="round" stroke-width="6"/>
      <circle cx="407.218" cy="63.695" r="12.5" fill="#1d1d1b" stroke="#000" stroke-miterlimit="10"/>
      <circle cx="468.392" cy="63.695" r="12.5" fill="#1d1d1b" stroke="#000" stroke-miterlimit="10"/>
      <line x1="399.262" y1="3.63" x2="408.663" y2="20.559" fill="#1d1d1b" stroke="#000" stroke-linecap="round" stroke-width="6"/>
      <line x1="421.436" y1="3.63" x2="425.494" y2="17.894" fill="#1d1d1b" stroke="#000" stroke-linecap="round" stroke-width="6"/>
      <line x1="447.784" y1="3.63" x2="443.405" y2="19.456" fill="#1d1d1b" stroke="#000" stroke-linecap="round" stroke-width="6"/>
      <line x1="471.784" y1="3.63" x2="457.566" y2="22.495" fill="#1d1d1b" stroke="#000" stroke-linecap="round" stroke-width="6"/>
      <line x1="40.356" y1="105.317" x2="86.644" y2="94.882" fill="#1d1d1b" stroke="#000" stroke-linecap="round" stroke-miterlimit="10" stroke-width="6"/>
      <line x1="27.284" y1="41.395" x2="50.281" y2="41.395" fill="#1d1d1b" stroke="#000" stroke-linecap="round" stroke-width="6"/>
      <line x1="74.412" y1="45.829" x2="107.603" y2="45.829" fill="#1d1d1b" stroke="#000" stroke-linecap="round" stroke-width="6"/>
      <path d="M308.342,75.334c0,30.376-27.161,55-61.971,55s-63.029-24.624-63.029-55,28.219-55,63.029-55S308.342,44.959,308.342,75.334Z" fill="#fff" stroke="#000" stroke-linecap="round" stroke-width="6"/>
      <circle cx="220.929" cy="64.574" r="12.5" fill="#1d1d1b" stroke="#000" stroke-miterlimit="10"/>
      <circle cx="282.103" cy="64.574" r="12.5" fill="#1d1d1b" stroke="#000" stroke-miterlimit="10"/>
      <path d="M223.668,101.291c-10.695,2.609,54.839-11.794,43.826-9.652" fill="#1d1d1b" stroke="#000" stroke-linecap="round" stroke-width="6"/>
      <path d="M211.492,43.1c-5.03.144,25.013.636,20.1.311" fill="#1d1d1b" stroke="#000" stroke-linecap="round" stroke-width="6"/>
      <path d="M249.317,46.7c-8.223.346,41,.447,32.931.039" fill="#1d1d1b" stroke="#000" stroke-linecap="round" stroke-width="6"/>
      <line x1="212.973" y1="4.508" x2="224.265" y2="24.844" fill="#1d1d1b" stroke="#000" stroke-linecap="round" stroke-width="6"/>
      <line x1="235.147" y1="4.508" x2="239.205" y2="20.764" fill="#1d1d1b" stroke="#000" stroke-linecap="round" stroke-width="6"/>
      <line x1="261.494" y1="4.508" x2="257.115" y2="21.438" fill="#1d1d1b" stroke="#000" stroke-linecap="round" stroke-width="6"/>
      <line x1="285.494" y1="4.508" x2="269.603" y2="25.595" fill="#1d1d1b" stroke="#000" stroke-linecap="round" stroke-width="6"/>
      <path d="M308.342,75.334c0,30.376-27.161,55-61.971,55s-63.029-24.624-63.029-55,28.219-55,63.029-55S308.342,44.959,308.342,75.334Z" fill="#fff" stroke="#000" stroke-linecap="round" stroke-width="6"/>
      <circle cx="220.929" cy="64.574" r="12.5" fill="#1d1d1b" stroke="#000" stroke-miterlimit="10"/>
      <circle cx="282.103" cy="64.574" r="12.5" fill="#1d1d1b" stroke="#000" stroke-miterlimit="10"/>
      <path d="M223.668,101.291c-10.695,2.609,54.839-11.794,43.826-9.652" fill="#1d1d1b" stroke="#000" stroke-linecap="round" stroke-width="6"/>
      <path d="M211.492,43.1c-5.03.144,25.013.636,20.1.311" fill="#1d1d1b" stroke="#000" stroke-linecap="round" stroke-width="6"/>
      <path d="M249.317,46.7c-8.223.346,41,.447,32.931.039" fill="#1d1d1b" stroke="#000" stroke-linecap="round" stroke-width="6"/>
      <line x1="212.973" y1="4.508" x2="222.373" y2="21.438" fill="#1d1d1b" stroke="#000" stroke-linecap="round" stroke-width="6"/>
      <line x1="235.147" y1="4.508" x2="239.205" y2="18.772" fill="#1d1d1b" stroke="#000" stroke-linecap="round" stroke-width="6"/>
      <line x1="261.494" y1="4.508" x2="257.115" y2="20.334" fill="#1d1d1b" stroke="#000" stroke-linecap="round" stroke-width="6"/>
      <line x1="285.494" y1="4.508" x2="271.277" y2="23.374" fill="#1d1d1b" stroke="#000" stroke-linecap="round" stroke-width="6"/>
      <path d="M308.342,75.334c0,30.376-27.161,55-61.971,55s-63.029-24.624-63.029-55,28.219-55,63.029-55S308.342,44.959,308.342,75.334Z" fill="#fff" stroke="#000" stroke-linecap="round" stroke-width="6"/>
      <circle cx="220.929" cy="64.574" r="12.5" stroke="#000" stroke-miterlimit="10"/>
      <circle cx="282.103" cy="64.574" r="12.5" stroke="#000" stroke-miterlimit="10"/>
      <line x1="212.973" y1="4.508" x2="222.373" y2="21.438" fill="#1d1d1b" stroke="#000" stroke-linecap="round" stroke-width="6"/>
      <line x1="235.147" y1="4.508" x2="239.205" y2="18.772" fill="#1d1d1b" stroke="#000" stroke-linecap="round" stroke-width="6"/>
      <line x1="261.494" y1="4.508" x2="257.115" y2="20.334" fill="#1d1d1b" stroke="#000" stroke-linecap="round" stroke-width="6"/>
      <line x1="285.494" y1="4.508" x2="271.277" y2="23.374" fill="#1d1d1b" stroke="#000" stroke-linecap="round" stroke-width="6"/>
      <line x1="221.933" y1="106.826" x2="269.751" y2="96.391" fill="#1d1d1b" stroke="#000" stroke-linecap="round" stroke-miterlimit="10" stroke-width="6"/>
      <line x1="208.429" y1="42.903" x2="232.186" y2="42.903" fill="#1d1d1b" stroke="#000" stroke-linecap="round" stroke-width="6"/>
      <line x1="257.115" y1="47.338" x2="291.404" y2="47.338" fill="#1d1d1b" stroke="#000" stroke-linecap="round" stroke-width="6"/>
      <path d="M494.631,74.456c0,30.376-27.161,55-61.971,55s-63.029-24.624-63.029-55,28.219-55,63.029-55S494.631,44.08,494.631,74.456Z" fill="#fff" stroke="#000" stroke-linecap="round" stroke-width="6"/>
      <circle cx="407.218" cy="63.695" r="12.5" fill="#1d1d1b" stroke="#000" stroke-miterlimit="10"/>
      <circle cx="468.392" cy="63.695" r="12.5" fill="#1d1d1b" stroke="#000" stroke-miterlimit="10"/>
      <path d="M409.958,100.412c-10.7,2.609,54.839-11.793,43.826-9.652" fill="#1d1d1b" stroke="#000" stroke-linecap="round" stroke-width="6"/>
      <path d="M397.782,42.222c-5.031.144,25.012.636,20.1.311" fill="#1d1d1b" stroke="#000" stroke-linecap="round" stroke-width="6"/>
      <path d="M435.607,45.817c-8.224.346,41,.446,32.931.038" fill="#1d1d1b" stroke="#000" stroke-linecap="round" stroke-width="6"/>
      <line x1="399.262" y1="3.63" x2="410.554" y2="23.965" fill="#1d1d1b" stroke="#000" stroke-linecap="round" stroke-width="6"/>
      <line x1="421.436" y1="3.63" x2="425.494" y2="19.885" fill="#1d1d1b" stroke="#000" stroke-linecap="round" stroke-width="6"/>
      <line x1="447.784" y1="3.63" x2="443.405" y2="20.559" fill="#1d1d1b" stroke="#000" stroke-linecap="round" stroke-width="6"/>
      <line x1="471.784" y1="3.63" x2="455.892" y2="24.716" fill="#1d1d1b" stroke="#000" stroke-linecap="round" stroke-width="6"/>
      <path d="M494.631,74.456c0,30.376-27.161,55-61.971,55s-63.029-24.624-63.029-55,28.219-55,63.029-55S494.631,44.08,494.631,74.456Z" fill="#fff" stroke="#000" stroke-linecap="round" stroke-width="6"/>
      <circle cx="407.218" cy="63.695" r="12.5" fill="#1d1d1b" stroke="#000" stroke-miterlimit="10"/>
      <circle cx="468.392" cy="63.695" r="12.5" fill="#1d1d1b" stroke="#000" stroke-miterlimit="10"/>
      <path d="M409.958,100.412c-10.7,2.609,54.839-11.793,43.826-9.652" fill="#1d1d1b" stroke="#000" stroke-linecap="round" stroke-width="6"/>
      <path d="M397.782,42.222c-5.031.144,25.012.636,20.1.311" fill="#1d1d1b" stroke="#000" stroke-linecap="round" stroke-width="6"/>
      <path d="M435.607,45.817c-8.224.346,41,.446,32.931.038" fill="#1d1d1b" stroke="#000" stroke-linecap="round" stroke-width="6"/>
      <line x1="399.262" y1="3.63" x2="408.663" y2="20.559" fill="#1d1d1b" stroke="#000" stroke-linecap="round" stroke-width="6"/>
      <line x1="421.436" y1="3.63" x2="425.494" y2="17.894" fill="#1d1d1b" stroke="#000" stroke-linecap="round" stroke-width="6"/>
      <line x1="447.784" y1="3.63" x2="443.405" y2="19.456" fill="#1d1d1b" stroke="#000" stroke-linecap="round" stroke-width="6"/>
      <line x1="471.784" y1="3.63" x2="457.566" y2="22.495" fill="#1d1d1b" stroke="#000" stroke-linecap="round" stroke-width="6"/>
      <path d="M494.631,74.456c0,30.376-27.161,55-61.971,55s-63.029-24.624-63.029-55,28.219-55,63.029-55S494.631,44.08,494.631,74.456Z" fill="#fff" stroke="#000" stroke-linecap="round" stroke-width="6"/>
      <circle cx="407.218" cy="63.695" r="12.5" stroke="#000" stroke-miterlimit="10"/>
      <circle cx="468.392" cy="63.695" r="12.5" stroke="#000" stroke-miterlimit="10"/>
      <line x1="399.262" y1="3.63" x2="408.663" y2="20.559" fill="#1d1d1b" stroke="#000" stroke-linecap="round" stroke-width="6"/>
      <line x1="421.436" y1="3.63" x2="425.494" y2="17.894" fill="#1d1d1b" stroke="#000" stroke-linecap="round" stroke-width="6"/>
      <line x1="447.784" y1="3.63" x2="443.405" y2="19.456" fill="#1d1d1b" stroke="#000" stroke-linecap="round" stroke-width="6"/>
      <line x1="471.784" y1="3.63" x2="457.566" y2="22.495" fill="#1d1d1b" stroke="#000" stroke-linecap="round" stroke-width="6"/>
      <line x1="394.718" y1="42.024" x2="418.476" y2="42.024" fill="#1d1d1b" stroke="#000" stroke-linecap="round" stroke-width="6"/>
      <line x1="443.405" y1="46.459" x2="477.693" y2="46.459" fill="#1d1d1b" stroke="#000" stroke-linecap="round" stroke-width="6"/>
      <path d="M464.937,89.157c0,12.783-13.548,23.146-30.261,23.146s-30.26-10.363-30.26-23.146" fill="none" stroke="#000" stroke-linecap="round" stroke-width="6"/>
    </g>
  </g>
</svg>
