<svg xmlns="http://www.w3.org/2000/svg" viewBox="0 0 499.631 149.947">
  <g id="Capa_2" data-name="Capa 2">
    <g id="Capa_14" data-name="Capa 14">
      <path d="M128,90.736c0,30.376-27.162,55-61.971,55S3,121.112,3,90.736s28.219-55,63.029-55S128,60.36,128,90.736Z" fill="#fff" stroke="#000" stroke-linecap="round" stroke-width="6"/>
      <circle cx="38.276" cy="79.975" r="12.5" fill="#1d1d1b" stroke="#000" stroke-miterlimit="10"/>
      <circle cx="93.226" cy="79.577" r="12.5" fill="#1d1d1b" stroke="#000" stroke-miterlimit="10"/>
      <line x1="55.204" y1="106.755" x2="75.178" y2="106.755" fill="#1d1d1b" stroke="#000" stroke-linecap="round" stroke-width="6"/>
      <line x1="24.979" y1="6.13" x2="42.141" y2="37.038" fill="#1d1d1b" stroke="#000" stroke-linecap="round" stroke-width="6"/>
      <line x1="50.582" y1="3" x2="58.121" y2="33.192" fill="#1d1d1b" stroke="#000" stroke-linecap="round" stroke-width="6"/>
      <line x1="85.424" y1="3" x2="77.706" y2="33.192" fill="#1d1d1b" stroke="#000" stroke-linecap="round" stroke-width="6"/>
      <line x1="114.261" y1="7.696" x2="91.166" y2="38.459" fill="#1d1d1b" stroke="#000" stroke-linecap="round" stroke-width="6"/>
      <path d="M17.609,75.579c0-9.391,8.672-17,19.371-17s19.371,7.613,19.371,17" fill="none" stroke="#000" stroke-linecap="round" stroke-width="3"/>
      <path d="M73.855,75.579c0-9.391,8.672-17,19.371-17s19.371,7.613,19.371,17" fill="none" stroke="#000" stroke-linecap="round" stroke-width="3"/>
      <path d="M311.036,91.947c0,30.375-27.162,55-61.972,55s-63.028-24.625-63.028-55,28.219-55,63.028-55S311.036,61.571,311.036,91.947Z" fill="#fff" stroke="#000" stroke-linecap="round" stroke-width="6"/>
      <circle cx="221.312" cy="81.186" r="12.5" fill="#1d1d1b" stroke="#000" stroke-miterlimit="10"/>
      <circle cx="276.262" cy="80.788" r="12.5" fill="#1d1d1b" stroke="#000" stroke-miterlimit="10"/>
      <line x1="238.24" y1="107.966" x2="258.214" y2="107.966" fill="#1d1d1b" stroke="#000" stroke-linecap="round" stroke-width="6"/>
      <line x1="213.605" y1="22.558" x2="225.177" y2="38.476" fill="#1d1d1b" stroke="#000" stroke-linecap="round" stroke-width="6"/>
      <line x1="236.421" y1="19.307" x2="241.156" y2="35.243" fill="#1d1d1b" stroke="#000" stroke-linecap="round" stroke-width="6"/>
      <line x1="265.589" y1="19.307" x2="260.741" y2="35.243" fill="#1d1d1b" stroke="#000" stroke-linecap="round" stroke-width="6"/>
      <line x1="289.489" y1="22.558" x2="274.201" y2="39.67" fill="#1d1d1b" stroke="#000" stroke-linecap="round" stroke-width="6"/>
      <path d="M200.644,76.79c0-9.391,8.673-17,19.372-17s19.371,7.613,19.371,17" fill="none" stroke="#000" stroke-linecap="round" stroke-width="3"/>
      <path d="M256.89,76.79c0-9.391,8.673-17,19.372-17s19.371,7.613,19.371,17" fill="none" stroke="#000" stroke-linecap="round" stroke-width="3"/>
      <path d="M496.631,91.947c0,30.375-27.161,55-61.971,55s-63.029-24.625-63.029-55,28.219-55,63.029-55S496.631,61.571,496.631,91.947Z" fill="#fff" stroke="#000" stroke-linecap="round" stroke-width="6"/>
      <circle cx="406.908" cy="81.186" r="12.5" fill="#1d1d1b" stroke="#000" stroke-miterlimit="10"/>
      <circle cx="461.857" cy="80.788" r="12.5" fill="#1d1d1b" stroke="#000" stroke-miterlimit="10"/>
      <line x1="423.835" y1="107.966" x2="443.81" y2="107.966" fill="#1d1d1b" stroke="#000" stroke-linecap="round" stroke-width="6"/>
      <line x1="393.61" y1="7.341" x2="410.773" y2="38.249" fill="#1d1d1b" stroke="#000" stroke-linecap="round" stroke-width="6"/>
      <line x1="419.214" y1="4.211" x2="426.752" y2="34.403" fill="#1d1d1b" stroke="#000" stroke-linecap="round" stroke-width="6"/>
      <line x1="454.055" y1="4.211" x2="446.337" y2="34.403" fill="#1d1d1b" stroke="#000" stroke-linecap="round" stroke-width="6"/>
      <line x1="482.892" y1="8.907" x2="459.797" y2="39.67" fill="#1d1d1b" stroke="#000" stroke-linecap="round" stroke-width="6"/>
      <path d="M386.24,76.79c0-9.391,8.673-17,19.372-17s19.371,7.613,19.371,17" fill="none" stroke="#000" stroke-linecap="round" stroke-width="3"/>
      <path d="M442.486,76.79c0-9.391,8.673-17,19.371-17s19.372,7.613,19.372,17" fill="none" stroke="#000" stroke-linecap="round" stroke-width="3"/>
    </g>
  </g>
</svg>
