<svg xmlns="http://www.w3.org/2000/svg" viewBox="0 0 499.631 146.229">
  <g id="Capa_2" data-name="Capa 2">
    <g id="Capa_19" data-name="Capa 19">
      <path d="M310.168,88.229c0,30.375-27.161,55-61.971,55s-63.029-24.625-63.029-55,28.219-55,63.029-55S310.168,57.853,310.168,88.229Z" fill="#fff" stroke="#000" stroke-linecap="round" stroke-width="6"/>
      <circle cx="216.861" cy="75.974" r="9.107" fill="#1d1d1b" stroke="#000" stroke-miterlimit="10"/>
      <line x1="234.29" y1="120.286" x2="261.395" y2="120.286" fill="#1d1d1b" stroke="#000" stroke-linecap="round" stroke-width="6"/>
      <line x1="225.968" y1="56.877" x2="237.198" y2="66.867" fill="#1d1d1b" stroke="#000" stroke-linecap="round" stroke-width="6"/>
      <line x1="253.422" y1="71.862" x2="276.448" y2="47.686" fill="#1d1d1b" stroke="#000" stroke-linecap="round" stroke-width="6"/>
      <circle cx="278.475" cy="75.974" r="9.107" fill="#1d1d1b" stroke="#000" stroke-miterlimit="10"/>
      <path d="M297.5,19.516c-13.932,3.385-17.292,12.069-21.819,17.737" fill="none" stroke="#000" stroke-linecap="round" stroke-width="6"/>
      <path d="M287.718,11.8c-7.9,2.358-20.6,21.23-20.6,21.23" fill="none" stroke="#000" stroke-linecap="round" stroke-width="6"/>
      <path d="M277.419,3.584c-7.391,0-17.5,19.216-17.5,26.607" fill="none" stroke="#000" stroke-linecap="round" stroke-width="6"/>
      <path d="M185.905,29.355c14.381-6.253,28.761,8.868,28.761,8.868" fill="none" stroke="#000" stroke-linecap="round" stroke-width="6"/>
      <path d="M496.631,87.645c0,30.375-27.161,55-61.971,55s-63.029-24.625-63.029-55,28.219-55,63.029-55S496.631,57.269,496.631,87.645Z" fill="#fff" stroke="#000" stroke-linecap="round" stroke-width="6"/>
      <circle cx="403.325" cy="75.39" r="9.107" fill="#1d1d1b" stroke="#000" stroke-miterlimit="10"/>
      <line x1="420.753" y1="119.702" x2="447.858" y2="119.702" fill="#1d1d1b" stroke="#000" stroke-linecap="round" stroke-width="6"/>
      <line x1="412.432" y1="56.293" x2="423.661" y2="66.283" fill="#1d1d1b" stroke="#000" stroke-linecap="round" stroke-width="6"/>
      <line x1="439.885" y1="71.278" x2="462.912" y2="47.102" fill="#1d1d1b" stroke="#000" stroke-linecap="round" stroke-width="6"/>
      <circle cx="464.938" cy="75.39" r="9.107" fill="#1d1d1b" stroke="#000" stroke-miterlimit="10"/>
      <path d="M483.964,18.932C470.033,22.317,466.673,31,462.145,36.669" fill="none" stroke="#000" stroke-linecap="round" stroke-width="6"/>
      <path d="M474.182,11.217c-7.905,2.358-20.6,21.231-20.6,21.231" fill="none" stroke="#000" stroke-linecap="round" stroke-width="6"/>
      <path d="M463.883,3c-7.392,0-17.5,19.216-17.5,26.607" fill="none" stroke="#000" stroke-linecap="round" stroke-width="6"/>
      <path d="M372.369,28.771c14.38-6.253,28.761,8.868,28.761,8.868" fill="none" stroke="#000" stroke-linecap="round" stroke-width="6"/>
      <path d="M128,87.645c0,30.375-27.162,55-61.971,55S3,118.02,3,87.645s28.219-55,63.029-55S128,57.269,128,87.645Z" fill="#fff" stroke="#000" stroke-linecap="round" stroke-width="6"/>
      <circle cx="34.693" cy="75.39" r="9.107" fill="#1d1d1b" stroke="#000" stroke-miterlimit="10"/>
      <line x1="52.121" y1="119.702" x2="79.227" y2="119.702" fill="#1d1d1b" stroke="#000" stroke-linecap="round" stroke-width="6"/>
      <line x1="27.606" y1="64.128" x2="41.373" y2="64.128" fill="#1d1d1b" stroke="#000" stroke-linecap="round" stroke-width="6"/>
      <line x1="75.131" y1="63.715" x2="109.322" y2="63.715" fill="#1d1d1b" stroke="#000" stroke-linecap="round" stroke-width="6"/>
      <circle cx="96.307" cy="75.39" r="9.107" fill="#1d1d1b" stroke="#000" stroke-miterlimit="10"/>
      <path d="M115.333,18.932C101.4,22.317,98.041,31,93.513,36.669" fill="none" stroke="#000" stroke-linecap="round" stroke-width="6"/>
      <path d="M105.55,11.217c-7.9,2.358-20.6,21.231-20.6,21.231" fill="none" stroke="#000" stroke-linecap="round" stroke-width="6"/>
      <path d="M95.251,3c-7.392,0-17.5,19.216-17.5,26.607" fill="none" stroke="#000" stroke-linecap="round" stroke-width="6"/>
      <path d="M3.737,28.771C18.118,22.518,32.5,37.639,32.5,37.639" fill="none" stroke="#000" stroke-linecap="round" stroke-width="6"/>
    </g>
  </g>
</svg>
