<svg xmlns="http://www.w3.org/2000/svg" viewBox="0 0 523.844 116">
  <g id="Capa_2" data-name="Capa 2">
    <g id="Capa_29" data-name="Capa 29">
      <path d="M150.808,58c0,30.376-27.161,55-61.971,55S25.808,88.376,25.808,58,54.027,3,88.837,3,150.808,27.624,150.808,58Z" fill="none" stroke="#000" stroke-linecap="round" stroke-width="6"/>
      <line x1="19.435" y1="3" x2="73.826" y2="3" fill="none" stroke="#000" stroke-linecap="round" stroke-width="6"/>
      <line x1="9.261" y1="12.134" x2="54.049" y2="12.134" fill="none" stroke="#000" stroke-linecap="round" stroke-width="6"/>
      <line x1="3" y1="23.873" x2="39.409" y2="23.873" fill="none" stroke="#000" stroke-linecap="round" stroke-width="6"/>
      <line x1="57" y1="21.134" x2="79.696" y2="42.889" fill="none" stroke="#000" stroke-linecap="round" stroke-width="6"/>
      <line x1="94.174" y1="42.889" x2="105.913" y2="32.012" fill="none" stroke="#000" stroke-linecap="round" stroke-width="6"/>
      <circle cx="115.891" cy="44.416" r="4.5" stroke="#000" stroke-linecap="round" stroke-width="6"/>
      <circle cx="59.971" cy="45.839" r="5.923" stroke="#000" stroke-linecap="round" stroke-width="6"/>
      <line x1="59.971" y1="73.96" x2="111.391" y2="93.525" stroke="#000" stroke-linecap="round" stroke-width="6"/>
      <path d="M333.208,58c0,30.376-27.161,55-61.971,55s-63.029-24.624-63.029-55S236.427,3,271.237,3,333.208,27.624,333.208,58Z" fill="none" stroke="#000" stroke-linecap="round" stroke-width="6"/>
      <line x1="201.835" y1="3" x2="256.226" y2="3" fill="none" stroke="#000" stroke-linecap="round" stroke-width="6"/>
      <line x1="191.661" y1="12.134" x2="236.449" y2="12.134" fill="none" stroke="#000" stroke-linecap="round" stroke-width="6"/>
      <line x1="185.4" y1="23.873" x2="221.809" y2="23.873" fill="none" stroke="#000" stroke-linecap="round" stroke-width="6"/>
      <line x1="239.4" y1="21.134" x2="262.096" y2="42.889" fill="none" stroke="#000" stroke-linecap="round" stroke-width="6"/>
      <line x1="276.574" y1="42.889" x2="288.313" y2="32.012" fill="none" stroke="#000" stroke-linecap="round" stroke-width="6"/>
      <circle cx="298.292" cy="44.416" r="4.5" stroke="#000" stroke-linecap="round" stroke-width="6"/>
      <circle cx="242.372" cy="45.839" r="5.923" stroke="#000" stroke-linecap="round" stroke-width="6"/>
      <line x1="242.372" y1="73.96" x2="293.792" y2="93.525" stroke="#000" stroke-linecap="round" stroke-width="6"/>
      <path d="M520.844,58c0,30.376-27.162,55-61.971,55s-63.029-24.624-63.029-55S424.063,3,458.873,3,520.844,27.624,520.844,58Z" fill="none" stroke="#000" stroke-linecap="round" stroke-width="6"/>
      <line x1="389.47" y1="3" x2="443.862" y2="3" fill="none" stroke="#000" stroke-linecap="round" stroke-width="6"/>
      <line x1="373.036" y1="23.873" x2="409.445" y2="23.873" fill="none" stroke="#000" stroke-linecap="round" stroke-width="6"/>
      <line x1="427.036" y1="21.134" x2="449.731" y2="42.889" fill="none" stroke="#000" stroke-linecap="round" stroke-width="6"/>
      <line x1="464.21" y1="42.889" x2="475.949" y2="32.012" fill="none" stroke="#000" stroke-linecap="round" stroke-width="6"/>
      <circle cx="485.927" cy="44.416" r="4.5" stroke="#000" stroke-linecap="round" stroke-width="6"/>
      <circle cx="430.007" cy="45.839" r="5.923" stroke="#000" stroke-linecap="round" stroke-width="6"/>
      <line x1="430.007" y1="73.96" x2="481.427" y2="93.525" stroke="#000" stroke-linecap="round" stroke-width="6"/>
    </g>
  </g>
</svg>
