<svg xmlns="http://www.w3.org/2000/svg" viewBox="0 0 530.088 137.088">
  <g id="Capa_2" data-name="Capa 2">
    <g id="Capa_44" data-name="Capa 44">
      <path d="M135.656,78.876c0,30.375-27.162,55-61.971,55s-63.029-24.625-63.029-55,28.219-55,63.029-55S135.656,48.5,135.656,78.876Z" fill="none" stroke="#000" stroke-linecap="round" stroke-width="6"/>
      <line x1="112.935" y1="33.735" x2="139.283" y2="17.357" fill="none" stroke="#000" stroke-linecap="round" stroke-width="6"/>
      <line x1="117.613" y1="39.888" x2="157.283" y2="39.888" fill="none" stroke="#000" stroke-linecap="round" stroke-width="6"/>
      <path d="M17.117,3.27,30.843,37.253a.391.391,0,0,1-.54.495L3,23.876" fill="none" stroke="#000" stroke-linecap="round" stroke-width="6"/>
      <line x1="41.065" y1="39.888" x2="62.978" y2="58.444" fill="none" stroke="#000" stroke-linecap="round" stroke-width="6"/>
      <line x1="79.804" y1="58.444" x2="101.717" y2="37.792" fill="none" stroke="#000" stroke-linecap="round" stroke-width="6"/>
      <line x1="46.543" y1="116.357" x2="98.196" y2="99.922" fill="none" stroke="#000" stroke-linecap="round" stroke-width="6"/>
      <circle cx="99.314" cy="68.785" r="6.596" stroke="#000" stroke-linecap="round" stroke-width="6"/>
      <circle cx="41.065" cy="68.785" r="6.596" stroke="#000" stroke-linecap="round" stroke-width="6"/>
      <path d="M318.953,78.605c0,30.376-27.162,55-61.971,55s-63.029-24.624-63.029-55,28.219-55,63.029-55S318.953,48.23,318.953,78.605Z" fill="none" stroke="#000" stroke-linecap="round" stroke-width="6"/>
      <line x1="300.91" y1="39.618" x2="340.58" y2="39.618" fill="none" stroke="#000" stroke-linecap="round" stroke-width="6"/>
      <path d="M200.414,3,214.14,36.983a.391.391,0,0,1-.54.5L186.3,23.605" fill="none" stroke="#000" stroke-linecap="round" stroke-width="6"/>
      <line x1="224.362" y1="39.618" x2="246.275" y2="58.174" fill="none" stroke="#000" stroke-linecap="round" stroke-width="6"/>
      <line x1="263.101" y1="58.174" x2="285.014" y2="37.522" fill="none" stroke="#000" stroke-linecap="round" stroke-width="6"/>
      <line x1="229.84" y1="116.087" x2="281.493" y2="99.652" fill="none" stroke="#000" stroke-linecap="round" stroke-width="6"/>
      <circle cx="282.611" cy="68.515" r="6.596" stroke="#000" stroke-linecap="round" stroke-width="6"/>
      <circle cx="224.362" cy="68.515" r="6.596" stroke="#000" stroke-linecap="round" stroke-width="6"/>
      <path d="M505.461,79.088c0,30.376-27.162,55-61.971,55s-63.029-24.624-63.029-55,28.219-55,63.029-55S505.461,48.712,505.461,79.088Z" fill="none" stroke="#000" stroke-linecap="round" stroke-width="6"/>
      <line x1="482.74" y1="33.948" x2="509.088" y2="17.569" fill="none" stroke="#000" stroke-linecap="round" stroke-width="6"/>
      <line x1="487.418" y1="40.101" x2="527.088" y2="40.101" fill="none" stroke="#000" stroke-linecap="round" stroke-width="6"/>
      <path d="M386.922,3.482l13.726,33.983a.392.392,0,0,1-.54.5l-27.3-13.873" fill="none" stroke="#000" stroke-linecap="round" stroke-width="6"/>
      <line x1="410.87" y1="40.101" x2="432.783" y2="58.656" fill="none" stroke="#000" stroke-linecap="round" stroke-width="6"/>
      <line x1="449.609" y1="58.656" x2="471.522" y2="38.005" fill="none" stroke="#000" stroke-linecap="round" stroke-width="6"/>
      <line x1="416.348" y1="116.569" x2="468.001" y2="100.135" fill="none" stroke="#000" stroke-linecap="round" stroke-width="6"/>
      <circle cx="469.119" cy="68.998" r="6.596" stroke="#000" stroke-linecap="round" stroke-width="6"/>
      <circle cx="410.87" cy="68.998" r="6.596" stroke="#000" stroke-linecap="round" stroke-width="6"/>
    </g>
  </g>
</svg>
