<svg xmlns="http://www.w3.org/2000/svg" viewBox="0 0 152 152">
  <g id="Capa_2" data-name="Capa 2">
    <rect x="1" y="1" width="150" height="150" fill="#fff" stroke="#fff" stroke-miterlimit="10" stroke-width="2"/>
  </g>
  <g id="Capa_3" data-name="Capa 3">
    <path id="Floor" d="M36.65,92.374c-21.456,12.282-21.457,32.194,0,44.476s56.244,12.282,77.7,0,21.458-32.194,0-44.476S58.107,80.092,36.65,92.374Z" transform="translate(1.494 1)" fill="#fbfbfb"/>
    <g id="Window">
      <path d="M131.437,47.7c0-6.951-4.617-15.228-10.312-18.488-3.015-1.726-5.727-1.7-7.613-.261-2.344.965-3.845,3.637-3.845,7.6V71.281l20.625,11.8,1.145-.655Z" transform="translate(1.494 1)" fill="#e6e6e6"/>
      <path d="M130.292,83.086V48.352c0-6.951-4.617-15.228-10.313-18.488s-10.312-.269-10.312,6.682V71.281Z" transform="translate(1.494 1)" fill="#f5f4f5"/>
      <path d="M129.164,48.352v32.8L110.8,70.633V36.547c0-3.473,1.233-5.87,3.306-6.625a4.3,4.3,0,0,1,1.5-.257,7.762,7.762,0,0,1,3.811,1.169C124.792,33.91,129.164,41.768,129.164,48.352Z" transform="translate(1.494 1)" fill="#e0e0e0"/>
      <polygon points="112.289 71.633 113.454 70.968 130.658 80.818 130.658 82.149 112.289 71.633" fill="#ebebeb"/>
      <path d="M129.164,48.352V79.818l-17.2-9.85,0-34.089c0-2.761.781-4.841,2.144-5.957a4.3,4.3,0,0,1,1.5-.257,7.762,7.762,0,0,1,3.811,1.169C124.792,33.91,129.164,41.768,129.164,48.352Z" transform="translate(1.494 1)" fill="#fff"/>
      <polygon points="122.037 77.214 120.909 76.568 120.909 31.43 122.037 31.43 122.037 77.214" fill="#f5f4f5"/>
      <path d="M121.672,32.45V75.57l-1.128.643V31.558C120.927,31.832,121.3,32.128,121.672,32.45Z" transform="translate(1.494 1)" fill="#e0e0e0"/>
      <g>
        <polygon points="112.289 59.193 120.909 64.127 120.909 65.439 112.289 60.506 112.289 59.193" fill="#f5f4f5"/>
        <polygon points="113.454 58.527 112.289 59.193 120.909 64.127 120.909 62.815 113.454 58.527" fill="#ebebeb"/>
      </g>
      <g>
        <polygon points="122.037 64.772 130.658 69.706 130.657 71.018 122.037 66.085 122.037 64.772" fill="#f5f4f5"/>
        <polygon points="123.202 64.106 122.037 64.772 130.658 69.706 130.658 68.395 123.202 64.106" fill="#ebebeb"/>
      </g>
      <g>
        <polygon points="112.289 40.037 120.909 44.972 120.909 46.284 112.289 41.35 112.289 40.037" fill="#f5f4f5"/>
        <polygon points="113.454 39.372 112.289 40.037 120.909 44.972 120.909 43.66 113.454 39.372" fill="#ebebeb"/>
      </g>
      <g>
        <polygon points="122.037 45.616 130.658 50.551 130.657 51.863 122.037 46.93 122.037 45.616" fill="#f5f4f5"/>
        <polygon points="123.202 44.951 122.037 45.616 130.658 50.551 130.658 49.239 123.202 44.951" fill="#ebebeb"/>
      </g>
    </g>
    <g id="Picture">
      <g id="Frame">
        <polygon points="105.27 49.363 104.818 49.63 95.551 44.325 96.003 44.058 105.27 49.363" fill="#fbfbfb"/>
        <polygon points="96.003 44.058 104.818 49.103 104.818 39.951 96.002 34.909 96.003 44.058" fill="#fff"/>
        <path d="M93.205,43.813l10.971,6.28V38.463l-10.971-6.28Zm.852-10.166,9.267,5.3V48.63l-9.267-5.3Z" transform="translate(1.494 1)" fill="#f0f0f0"/>
        <polygon points="95.551 44.325 96.003 44.058 96.002 34.909 95.551 34.647 95.551 44.325" fill="#e0e0e0"/>
        <polygon points="94.699 33.183 95.157 32.923 106.129 39.203 105.67 39.463 94.699 33.183" fill="#fbfbfb"/>
        <polygon points="106.129 39.203 105.67 39.463 105.67 51.093 106.129 50.833 106.129 39.203" fill="#e0e0e0"/>
      </g>
      <g id="Land">
        <polygon points="96.347 43.785 104.474 48.437 104.474 46.111 102.442 41.459 101.176 42.622 101.631 44.572 98.825 38.622 96.347 41.459 96.347 43.785" fill="#f0f0f0"/>
        <path d="M99.759,38.213a1.315,1.315,0,0,1,.6,1.032c0,.38-.27.534-.6.344a1.315,1.315,0,0,1-.6-1.032C99.158,38.177,99.427,38.023,99.759,38.213Z" transform="translate(1.494 1)" fill="#f0f0f0"/>
      </g>
    </g>
    <g id="Picture-2" data-name="Picture">
      <g id="Frame-2" data-name="Frame">
        <polygon points="105.27 65.232 104.818 65.499 95.551 60.195 96.003 59.928 105.27 65.232" fill="#fbfbfb"/>
        <polygon points="96.003 59.928 104.818 64.972 104.818 55.82 96.002 50.778 96.003 59.928" fill="#fff"/>
        <path d="M93.205,59.682l10.971,6.28V54.332l-10.971-6.28Zm.852-10.166,9.267,5.3V64.5l-9.267-5.3Z" transform="translate(1.494 1)" fill="#f0f0f0"/>
        <polygon points="95.551 60.195 96.003 59.928 96.002 50.778 95.551 50.516 95.551 60.195" fill="#e0e0e0"/>
        <polygon points="94.699 49.052 95.157 48.792 106.129 55.072 105.67 55.332 94.699 49.052" fill="#fbfbfb"/>
        <polygon points="106.129 55.072 105.67 55.332 105.67 66.962 106.129 66.702 106.129 55.072" fill="#e0e0e0"/>
      </g>
      <g id="Land-2" data-name="Land">
        <polygon points="96.347 59.654 104.474 64.306 104.474 61.98 102.442 57.328 101.176 58.491 101.631 60.441 98.825 54.491 96.347 57.328 96.347 59.654" fill="#f0f0f0"/>
        <path d="M99.759,54.082a1.315,1.315,0,0,1,.6,1.032c0,.38-.27.534-.6.344a1.315,1.315,0,0,1-.6-1.032C99.158,54.046,99.427,53.892,99.759,54.082Z" transform="translate(1.494 1)" fill="#f0f0f0"/>
      </g>
    </g>
    <g id="Shelf">
      <g>
        <polygon points="48.623 57.239 41.241 53.014 21.801 64.129 21.801 64.932 29.183 69.158 48.623 58.042 48.623 57.239" fill="#ebebeb"/>
        <polygon points="29.183 68.355 48.623 57.239 41.241 53.014 21.801 64.129 29.183 68.355" fill="#fbfbfb"/>
        <polygon points="29.183 68.355 29.183 69.158 21.801 64.932 21.801 64.129 29.183 68.355" fill="#e6e6e6"/>
      </g>
      <g>
        <polygon points="43.461 46.048 47.792 48.528 47.792 56.697 43.461 54.217 43.461 46.048" fill="#ebebeb"/>
        <path d="M46.159,47.664l-4.192-2.385a1.767,1.767,0,0,1-.958.519l4.156,2.375A4.21,4.21,0,0,0,46.159,47.664Z" transform="translate(1.494 1)" fill="#fff"/>
        <path d="M44.762,48.159a.9.9,0,0,0,.8,0l.706-.4a.241.241,0,0,0,0-.458l-4.131-2.351-.175.1,4.063,2.326a.145.145,0,0,1,0,.275l-.656.369a.545.545,0,0,1-.484,0L40.829,45.7l-.2.112Z" transform="translate(1.494 1)" fill="#fbfbfb"/>
        <path d="M40.631,45.808v8.169l4.131,2.35a.9.9,0,0,0,.8,0l.706-.4a.28.28,0,0,0,.167-.229V47.528a.279.279,0,0,1-.167.229l-.706.4a.9.9,0,0,1-.8,0Z" transform="translate(1.494 1)" fill="#e0e0e0"/>
        <path d="M45.165,48.254a.824.824,0,0,0,.4-.095l.706-.4a.279.279,0,0,0,.167-.229V55.7a.28.28,0,0,1-.167.229l-.706.4a.835.835,0,0,1-.4.095Z" transform="translate(1.494 1)" fill="#f0f0f0"/>
      </g>
      <g>
        <polygon points="41.645 47.285 45.976 49.765 44.63 58.181 40.3 55.701 41.645 47.285" fill="#ebebeb"/>
        <path d="M44.311,48.883,40.117,46.5a2.306,2.306,0,0,1-1.116.43L43.158,49.3A5.6,5.6,0,0,0,44.311,48.883Z" transform="translate(1.494 1)" fill="#fff"/>
        <path d="M42.723,49.269a1.136,1.136,0,0,0,.874.038l.824-.333c.26-.1.29-.293.067-.42L40.355,46.2l-.2.083,4.063,2.326c.133.076.115.189-.041.252l-.765.306a.681.681,0,0,1-.524-.024l-4.062-2.322-.232.094Z" transform="translate(1.494 1)" fill="#fbfbfb"/>
        <path d="M38.591,46.917l-1.345,8.416,4.132,2.351a1.136,1.136,0,0,0,.874.039l.824-.334c.129-.052.2-.125.214-.2l1.345-8.416c-.012.077-.084.15-.214.2l-.824.335a1.136,1.136,0,0,1-.874-.039Z" transform="translate(1.494 1)" fill="#e0e0e0"/>
        <path d="M43.146,49.375a1.12,1.12,0,0,0,.451-.067l.824-.335c.13-.052.2-.125.214-.2L43.29,57.187c-.012.077-.085.15-.214.2l-.824.334a1.12,1.12,0,0,1-.451.067Z" transform="translate(1.494 1)" fill="#f0f0f0"/>
      </g>
      <g id="Pot">
        <path id="Shadow" d="M38.57,57.043a1.112,1.112,0,0,1,0,2.112,4.1,4.1,0,0,1-3.69,0,1.112,1.112,0,0,1,0-2.112A4.111,4.111,0,0,1,38.57,57.043Z" transform="translate(1.494 1)" opacity="0.05"/>
        <g>
          <path d="M35.066,58.515c-.887-.9-1.408-3.14-.543-3.852h4.4c.866.712.345,2.952-.542,3.851l-.024.024-.031.03c-.025.024-.051.048-.08.071l-.021.016c-.022.017-.043.034-.067.05a1.1,1.1,0,0,1-.115.073,2.942,2.942,0,0,1-2.643,0h0a1.1,1.1,0,0,1-.115-.073c-.022-.015-.042-.031-.062-.047l-.027-.02c-.027-.023-.053-.045-.077-.069l-.035-.034Z" transform="translate(1.494 1)" fill="#f5f4f5"/>
          <path d="M38.545,54.321a1.1,1.1,0,0,1,0,2.083,4.048,4.048,0,0,1-3.639,0,1.1,1.1,0,0,1,0-2.083A4.054,4.054,0,0,1,38.545,54.321Z" transform="translate(1.494 1)" fill="#fff"/>
          <path d="M37.832,54.729a.667.667,0,0,1,0,1.268,2.465,2.465,0,0,1-2.214,0,.668.668,0,0,1,0-1.268A2.465,2.465,0,0,1,37.832,54.729Z" transform="translate(1.494 1)" fill="#ebebeb"/>
          <path d="M35.618,55.331a2.465,2.465,0,0,1,2.214,0,1.011,1.011,0,0,1,.367.333,1.029,1.029,0,0,1-.367.333,2.465,2.465,0,0,1-2.214,0,1.034,1.034,0,0,1-.366-.333A1.016,1.016,0,0,1,35.618,55.331Z" transform="translate(1.494 1)" fill="#e0e0e0"/>
        </g>
        <path d="M37.7,55.664a4.959,4.959,0,0,0,.8-1.056c.37-.648.438-1.517.247-1.624s-.969.759-.969.759a4.691,4.691,0,0,0,.082-1.106,1.968,1.968,0,0,0-.342-1.208c-.166-.106-.54.622-.7,1.15s-.255.962-.255.962a8.2,8.2,0,0,0-.287-1.215c-.194-.548-.37-.672-.507-.618s-.227.31-.266,1.04a7.245,7.245,0,0,0,.032,1.045s-.274-.3-.579-.589c-.334-.319-.477-.363-.573-.3s-.122.556.4,1.485a5.2,5.2,0,0,0,.978,1.277A2.265,2.265,0,0,0,37.7,55.664Z" transform="translate(1.494 1)" fill="#ebebeb"/>
      </g>
      <g>
        <g>
          <polygon points="31.348 52.244 35.679 54.725 35.679 62.894 31.348 60.414 31.348 52.244" fill="#e0e0e0"/>
          <path d="M34.045,53.861l-4.191-2.385A1.766,1.766,0,0,1,28.9,52l4.156,2.375A4.186,4.186,0,0,0,34.045,53.861Z" transform="translate(1.494 1)" fill="#fff"/>
          <path d="M32.649,54.356a.9.9,0,0,0,.8,0l.706-.4a.241.241,0,0,0,0-.458l-4.131-2.351-.175.1,4.063,2.327c.133.076.133.2,0,.275l-.655.368a.542.542,0,0,1-.484,0l-4.061-2.322-.2.113Z" transform="translate(1.494 1)" fill="#fbfbfb"/>
          <path d="M28.518,52.005v8.169l4.131,2.35a.9.9,0,0,0,.8,0l.706-.4a.279.279,0,0,0,.166-.23V53.725a.279.279,0,0,1-.166.229l-.706.4a.9.9,0,0,1-.8,0Z" transform="translate(1.494 1)" fill="#e0e0e0"/>
          <path d="M33.051,54.451a.836.836,0,0,0,.4-.095l.706-.4a.279.279,0,0,0,.166-.229v8.168a.279.279,0,0,1-.166.23l-.706.4a.836.836,0,0,1-.4.095Z" transform="translate(1.494 1)" fill="#f0f0f0"/>
        </g>
        <g>
          <polygon points="29.576 53.252 33.907 55.733 33.907 63.902 29.576 61.422 29.576 53.252" fill="#ebebeb"/>
          <path d="M32.274,54.869l-4.191-2.385a1.766,1.766,0,0,1-.959.519l4.156,2.375A4.186,4.186,0,0,0,32.274,54.869Z" transform="translate(1.494 1)" fill="#fff"/>
          <path d="M30.877,55.364a.907.907,0,0,0,.806,0l.706-.4a.241.241,0,0,0,0-.458l-4.131-2.351-.175.1,4.062,2.327c.134.076.134.2,0,.275l-.656.369a.543.543,0,0,1-.483,0L26.944,52.9l-.2.112Z" transform="translate(1.494 1)" fill="#fbfbfb"/>
          <path d="M26.747,53.013v8.169l4.13,2.35a.9.9,0,0,0,.806,0l.706-.4a.281.281,0,0,0,.166-.23V54.733a.28.28,0,0,1-.166.229l-.706.4a.9.9,0,0,1-.806,0Z" transform="translate(1.494 1)" fill="#e0e0e0"/>
          <path d="M31.28,55.459a.836.836,0,0,0,.4-.1l.706-.4a.28.28,0,0,0,.166-.229V62.9a.281.281,0,0,1-.166.23l-.706.4a.836.836,0,0,1-.4.1Z" transform="translate(1.494 1)" fill="#f0f0f0"/>
        </g>
      </g>
      <g>
        <polygon points="27.828 54.985 32.158 57.466 30.813 65.881 26.482 63.401 27.828 54.985" fill="#ebebeb"/>
        <path d="M30.493,56.583,26.3,54.2a2.308,2.308,0,0,1-1.115.43L29.341,57A5.564,5.564,0,0,0,30.493,56.583Z" transform="translate(1.494 1)" fill="#fff"/>
        <path d="M28.906,56.969a1.134,1.134,0,0,0,.873.039l.825-.334c.259-.1.29-.293.067-.419L26.538,53.9l-.2.082L30.4,56.312c.134.076.116.188-.04.251l-.766.306a.682.682,0,0,1-.524-.023L25,54.524l-.231.094Z" transform="translate(1.494 1)" fill="#fbfbfb"/>
        <path d="M24.773,54.617l-1.345,8.416,4.133,2.352a1.134,1.134,0,0,0,.873.038l.825-.333c.129-.053.2-.126.214-.2l1.345-8.416c-.012.077-.085.149-.214.2l-.825.334a1.134,1.134,0,0,1-.873-.038Z" transform="translate(1.494 1)" fill="#e0e0e0"/>
        <path d="M29.329,57.076a1.1,1.1,0,0,0,.45-.068l.825-.334c.129-.053.2-.125.214-.2l-1.345,8.416c-.012.076-.085.149-.214.2l-.825.333a1.1,1.1,0,0,1-.45.068Z" transform="translate(1.494 1)" fill="#f0f0f0"/>
      </g>
    </g>
    <g id="Shelf-2" data-name="Shelf">
      <g>
        <polygon points="48.623 41.385 41.241 37.16 21.801 48.275 21.801 49.078 29.183 53.304 48.623 42.189 48.623 41.385" fill="#ebebeb"/>
        <polygon points="29.183 52.501 48.623 41.385 41.241 37.16 21.801 48.275 29.183 52.501" fill="#fbfbfb"/>
        <polygon points="29.183 52.501 29.183 53.304 21.801 49.078 21.801 48.275 29.183 52.501" fill="#e6e6e6"/>
      </g>
      <g>
        <polygon points="42.375 29.418 47.161 32.16 47.161 41.188 42.375 38.447 42.375 29.418" fill="#ebebeb"/>
        <path d="M45.513,31.309l-4.632-2.636a1.954,1.954,0,0,1-1.06.575l4.594,2.624A4.592,4.592,0,0,0,45.513,31.309Z" transform="translate(1.494 1)" fill="#fff"/>
        <path d="M43.97,31.857a1,1,0,0,0,.89,0l.78-.444a.266.266,0,0,0,0-.507l-4.566-2.6-.193.11,4.49,2.571c.148.084.148.22,0,.3l-.725.408a.6.6,0,0,1-.534,0l-4.489-2.566-.219.125Z" transform="translate(1.494 1)" fill="#fbfbfb"/>
        <path d="M39.4,29.258v9.029l4.566,2.6a1,1,0,0,0,.89,0l.78-.444a.307.307,0,0,0,.184-.253V31.159a.307.307,0,0,1-.184.253l-.78.445a1,1,0,0,1-.89,0Z" transform="translate(1.494 1)" fill="#e0e0e0"/>
        <path d="M44.415,31.962a.92.92,0,0,0,.445-.105l.78-.445a.307.307,0,0,0,.184-.253v9.029a.307.307,0,0,1-.184.253l-.78.444a.92.92,0,0,1-.445.105Z" transform="translate(1.494 1)" fill="#f0f0f0"/>
      </g>
      <g>
        <polygon points="40.515 30.986 45.302 33.728 43.815 43.029 39.029 40.288 40.515 30.986" fill="#ebebeb"/>
        <path d="M43.619,32.857,38.984,30.22a2.551,2.551,0,0,1-1.233.475l4.594,2.625A6.184,6.184,0,0,0,43.619,32.857Z" transform="translate(1.494 1)" fill="#fff"/>
        <path d="M41.865,33.284a1.255,1.255,0,0,0,.965.043l.911-.369c.287-.116.321-.324.075-.464l-4.569-2.6-.225.091,4.49,2.571c.148.084.128.209-.045.278l-.846.339a.751.751,0,0,1-.579-.026l-4.49-2.567-.255.1Z" transform="translate(1.494 1)" fill="#fbfbfb"/>
        <path d="M37.3,30.685l-1.487,9.3,4.568,2.6a1.255,1.255,0,0,0,.965.043l.912-.369c.143-.058.223-.139.236-.223l1.487-9.3c-.013.084-.094.165-.237.223l-.911.37a1.255,1.255,0,0,1-.965-.043Z" transform="translate(1.494 1)" fill="#e0e0e0"/>
        <path d="M42.332,33.4a1.219,1.219,0,0,0,.5-.074l.911-.37c.143-.058.224-.139.237-.223l-1.487,9.3c-.013.084-.093.165-.236.223l-.912.369a1.219,1.219,0,0,1-.5.074Z" transform="translate(1.494 1)" fill="#f0f0f0"/>
      </g>
      <g id="Picture-3" data-name="Picture">
        <g id="Frame-3" data-name="Frame">
          <polygon points="32.561 47.883 32.9 48.045 39.181 44.45 38.842 44.288 32.561 47.883" fill="#fbfbfb"/>
          <polygon points="38.842 44.288 32.867 47.707 31.998 38.847 37.973 35.43 38.842 44.288" fill="#fff"/>
          <path d="M37.3,33.3l-7.436,4.257L30.89,48l7.436-4.257Zm.386,10.155-6.281,3.595-.9-9.2,6.281-3.595Z" transform="translate(1.494 1)" fill="#f0f0f0"/>
          <polygon points="39.181 44.45 38.842 44.288 37.973 35.43 38.279 35.252 39.181 44.45" fill="#e0e0e0"/>
          <polygon points="38.795 34.295 38.451 34.138 31.015 38.394 31.359 38.552 38.795 34.295" fill="#fbfbfb"/>
          <polygon points="31.015 38.394 31.359 38.552 32.384 49.002 32.041 48.844 31.015 38.394" fill="#e0e0e0"/>
        </g>
        <g id="Land-3" data-name="Land">
          <polygon points="38.579 44.12 33.071 47.272 32.925 45.78 33.949 41.395 34.926 42.891 34.723 44.152 36.352 39.5 38.433 42.627 38.579 44.12" fill="#f0f0f0"/>
          <path d="M32.37,38.549a.767.767,0,0,0-.364.675c.024.243.226.337.451.208a.767.767,0,0,0,.364-.675C32.8,38.513,32.6,38.42,32.37,38.549Z" transform="translate(1.494 1)" fill="#f0f0f0"/>
        </g>
      </g>
      <g id="Pot-2" data-name="Pot">
        <path id="Shadow-2" data-name="Shadow" d="M27.973,46.268a1.112,1.112,0,0,1,0,2.112,4.1,4.1,0,0,1-3.69,0,1.112,1.112,0,0,1,0-2.112A4.111,4.111,0,0,1,27.973,46.268Z" transform="translate(1.494 1)" opacity="0.05"/>
        <g>
          <path d="M24.469,47.739c-.887-.9-1.409-3.139-.543-3.851h4.4c.866.712.345,2.952-.542,3.851l-.024.024-.031.03c-.025.024-.052.048-.08.071l-.021.016c-.022.017-.044.034-.067.05A1.1,1.1,0,0,1,27.45,48a2.944,2.944,0,0,1-2.644,0h0a1.1,1.1,0,0,1-.115-.073c-.022-.015-.042-.031-.063-.047l-.026-.02c-.027-.023-.053-.045-.077-.069l-.035-.034Z" transform="translate(1.494 1)" fill="#f5f4f5"/>
          <path d="M27.948,43.546a1.1,1.1,0,0,1,0,2.083,4.048,4.048,0,0,1-3.639,0,1.1,1.1,0,0,1,0-2.083A4.054,4.054,0,0,1,27.948,43.546Z" transform="translate(1.494 1)" fill="#fff"/>
          <path d="M27.235,43.954a.667.667,0,0,1,0,1.268,2.472,2.472,0,0,1-2.214,0,.668.668,0,0,1,0-1.268A2.465,2.465,0,0,1,27.235,43.954Z" transform="translate(1.494 1)" fill="#ebebeb"/>
          <path d="M25.021,44.556a2.465,2.465,0,0,1,2.214,0,1,1,0,0,1,.366.333,1.017,1.017,0,0,1-.366.333,2.472,2.472,0,0,1-2.214,0,1.017,1.017,0,0,1-.366-.333A1,1,0,0,1,25.021,44.556Z" transform="translate(1.494 1)" fill="#e0e0e0"/>
        </g>
        <path d="M27.1,44.889a5.014,5.014,0,0,0,.8-1.056c.37-.648.438-1.517.247-1.624s-.969.759-.969.759a4.691,4.691,0,0,0,.082-1.106,1.968,1.968,0,0,0-.342-1.208c-.167-.106-.54.622-.7,1.15s-.255.962-.255.962a8.2,8.2,0,0,0-.287-1.215c-.194-.548-.371-.672-.507-.618s-.227.31-.267,1.04a7.166,7.166,0,0,0,.033,1.045s-.274-.3-.579-.589c-.334-.319-.477-.363-.573-.3s-.122.556.4,1.485a5.2,5.2,0,0,0,.978,1.277A2.263,2.263,0,0,0,27.1,44.889Z" transform="translate(1.494 1)" fill="#ebebeb"/>
      </g>
    </g>
    <path id="Shadow-3" data-name="Shadow" d="M127.7,123.089c3.662,2.1,3.662,5.5,0,7.592a14.774,14.774,0,0,1-13.263,0c-3.662-2.1-3.662-5.5,0-7.592A14.771,14.771,0,0,1,127.7,123.089Z" transform="translate(1.494 1)" fill="#e0e0e0" opacity="0.99"/>
    <path id="Shadow-4" data-name="Shadow" d="M30.293,119.12,17.658,111.9a.322.322,0,0,1,0-.611l27.169-15.6a1.183,1.183,0,0,1,1.064,0l12.635,7.22a.321.321,0,0,1,0,.61l-27.169,15.6A1.186,1.186,0,0,1,30.293,119.12Z" transform="translate(1.494 1)" fill="#e0e0e0" opacity="0.99"/>
    <ellipse id="Shadow-5" data-name="Shadow" cx="57.999" cy="127.093" rx="20.297" ry="11.618" fill="#e0e0e0" stroke="#e0e0e0" stroke-miterlimit="10" stroke-width="1.386"/>
    <g id="Plant">
      <g id="Pot-3" data-name="Pot">
        <path d="M126.4,128.16c2.785-2.849,4.421-10.05,1.705-12.31H114.28c-2.716,2.26-1.082,9.456,1.7,12.308.024.026.051.052.076.078l.1.094c.079.076.162.151.252.224.022.019.044.035.066.053.069.053.136.107.21.159a4.059,4.059,0,0,0,.361.231,9.148,9.148,0,0,0,8.3,0h0a3.883,3.883,0,0,0,.362-.233c.07-.048.132-.1.2-.148.027-.022.055-.042.082-.065.087-.071.167-.143.243-.216.037-.035.074-.072.111-.109C126.355,128.2,126.378,128.183,126.4,128.16Z" transform="translate(1.494 1)" fill="#ebebeb"/>
        <path d="M115.48,114.94c-3.154,1.826-3.154,4.786,0,6.612a12.6,12.6,0,0,0,11.422,0c3.153-1.826,3.153-4.786,0-6.612A12.6,12.6,0,0,0,115.48,114.94Z" transform="translate(1.494 1)" fill="#fbfbfb"/>
        <path d="M117,115.818c-2.316,1.341-2.316,3.515,0,4.855a9.247,9.247,0,0,0,8.388,0c2.316-1.34,2.316-3.514,0-4.855A9.254,9.254,0,0,0,117,115.818Z" transform="translate(1.494 1)" fill="#ebebeb"/>
        <path d="M125.385,118.123a9.247,9.247,0,0,0-8.388,0,3.85,3.85,0,0,0-1.387,1.275A3.85,3.85,0,0,0,117,120.673a9.247,9.247,0,0,0,8.388,0,3.85,3.85,0,0,0,1.387-1.275A3.85,3.85,0,0,0,125.385,118.123Z" transform="translate(1.494 1)" fill="#fff"/>
      </g>
      <g>
        <path d="M123.083,101.1c.933,1.169,3.736,1.683,5.133-1.18,1.31-2.686,2.7-5.22,3.113-6.21a1.047,1.047,0,0,0-.572-1.4s.036-1.526-2.643-.693a9.589,9.589,0,0,0-5.961,4.7C120.844,98.728,121.369,100.629,123.083,101.1Z" transform="translate(1.494 1)" fill="#f0f0f0"/>
        <g>
          <path d="M121.658,104.918A13.679,13.679,0,0,1,122,103.4a21.242,21.242,0,0,1,1.091-2.9,21.9,21.9,0,0,1,3.437-5.286,19.114,19.114,0,0,1,2.572-2.484c.029-.022.045.039.026.056a22.864,22.864,0,0,0-6.688,10.4c-.17.551-.335,1.105-.483,1.663s-.255,1.143-.4,1.711c-.014.057-.107.085-.105.006A10.771,10.771,0,0,1,121.658,104.918Z" transform="translate(1.494 1)" fill="#e0e0e0"/>
          <path d="M121.658,104.918A13.679,13.679,0,0,1,122,103.4a21.242,21.242,0,0,1,1.091-2.9,21.9,21.9,0,0,1,3.437-5.286,19.114,19.114,0,0,1,2.572-2.484c.029-.022.045.039.026.056a22.864,22.864,0,0,0-6.688,10.4c-.17.551-.335,1.105-.483,1.663s-.255,1.143-.4,1.711c-.014.057-.107.085-.105.006A10.771,10.771,0,0,1,121.658,104.918Z" transform="translate(1.494 1)" opacity="0.1"/>
        </g>
        <path d="M120.044,99.049c2.432.746,4.239-1.136,3.614-4.088s-3.754-6.229-4.935-5.349c-.738-.731-2.363-.468-3.127,1.929S115.526,100.1,120.044,99.049Z" transform="translate(1.494 1)" fill="#e0e0e0"/>
        <g>
          <path d="M118.617,91.408a32.24,32.24,0,0,1,1.617,5.3,51.4,51.4,0,0,1,.939,5.553,86,86,0,0,1,.487,10.884q-.009,1.506-.04,3.012c-.02,1.033,0,2.079-.093,3.108-.034.395-.6.29-.607-.072-.036-1.807.064-3.623.082-5.432.019-1.787.013-3.575-.033-5.363a74.831,74.831,0,0,0-.985-10.869c-.174-1-.366-2-.6-2.988-.248-1.04-.551-2.065-.827-3.1C118.545,91.407,118.593,91.353,118.617,91.408Z" transform="translate(1.494 1)" fill="#e0e0e0"/>
          <path d="M118.617,91.408a32.24,32.24,0,0,1,1.617,5.3,51.4,51.4,0,0,1,.939,5.553,86,86,0,0,1,.487,10.884q-.009,1.506-.04,3.012c-.02,1.033,0,2.079-.093,3.108-.034.395-.6.29-.607-.072-.036-1.807.064-3.623.082-5.432.019-1.787.013-3.575-.033-5.363a74.831,74.831,0,0,0-.985-10.869c-.174-1-.366-2-.6-2.988-.248-1.04-.551-2.065-.827-3.1C118.545,91.407,118.593,91.353,118.617,91.408Z" transform="translate(1.494 1)" opacity="0.1"/>
        </g>
        <path d="M124.568,107.128c.7,1.431,3.077,1.976,5.225.359s5.254-9.068,2.9-9.187c-.181-1.158-6.993-.372-9.188,4.444C121.911,106.244,124.568,107.128,124.568,107.128Z" transform="translate(1.494 1)" fill="#e0e0e0"/>
        <g>
          <path d="M121.716,110.268a11.494,11.494,0,0,1,.7-1.323,29.308,29.308,0,0,1,5.918-7.106,27.139,27.139,0,0,1,2.7-2.185c.026-.018.029.041.013.054-.768.64-1.541,1.268-2.264,1.958-.749.715-1.455,1.478-2.129,2.263a38.092,38.092,0,0,0-3.522,4.812c-.3.481-.568.977-.87,1.455-.312.5-.665.97-.955,1.479-.042.074-.153.075-.113-.027C121.372,111.19,121.522,110.721,121.716,110.268Z" transform="translate(1.494 1)" fill="#e0e0e0"/>
          <path d="M121.716,110.268a11.494,11.494,0,0,1,.7-1.323,29.308,29.308,0,0,1,5.918-7.106,27.139,27.139,0,0,1,2.7-2.185c.026-.018.029.041.013.054-.768.64-1.541,1.268-2.264,1.958-.749.715-1.455,1.478-2.129,2.263a38.092,38.092,0,0,0-3.522,4.812c-.3.481-.568.977-.87,1.455-.312.5-.665.97-.955,1.479-.042.074-.153.075-.113-.027C121.372,111.19,121.522,110.721,121.716,110.268Z" transform="translate(1.494 1)" opacity="0.1"/>
        </g>
        <path d="M120.113,106.523c1.39-.314,1.46-1.97-.278-4s-6.116-2.918-6.324-2.061c-.973,0-.973,3.021,1.181,5.8S119.983,108.389,120.113,106.523Z" transform="translate(1.494 1)" fill="#e0e0e0"/>
        <g>
          <path d="M117.389,103.569a10.889,10.889,0,0,1,4.024,5.149c.046.118-.16.291-.209.162a12.693,12.693,0,0,0-3.822-5.284C117.371,103.588,117.372,103.556,117.389,103.569Z" transform="translate(1.494 1)" fill="#e0e0e0"/>
          <path d="M117.389,103.569a10.889,10.889,0,0,1,4.024,5.149c.046.118-.16.291-.209.162a12.693,12.693,0,0,0-3.822-5.284C117.371,103.588,117.372,103.556,117.389,103.569Z" transform="translate(1.494 1)" opacity="0.1"/>
        </g>
        <path d="M118.525,116.607c1.926.773,1.1,3.046-.78,4.774a8.645,8.645,0,0,1-5.86,2.091,4.969,4.969,0,0,1-1.624-.267,14.47,14.47,0,0,1,.01-3.16,6.128,6.128,0,0,1,4.539-4.847C117.805,114.393,118.525,115.471,118.525,116.607Z" transform="translate(1.494 1)" fill="#f0f0f0"/>
        <g>
          <path d="M113.194,119.964a15.537,15.537,0,0,1,2.948-2.7,4.674,4.674,0,0,1,3.874-.88c.509.172,1.3.676,1.206,1.3-.01.062-.121.217-.2.131a5.2,5.2,0,0,0-.693-.8,2.068,2.068,0,0,0-1.034-.389,4.818,4.818,0,0,0-2.7.609,15.044,15.044,0,0,0-3.39,2.764C113.2,120.006,113.185,119.974,113.194,119.964Z" transform="translate(1.494 1)" fill="#e0e0e0"/>
          <path d="M113.194,119.964a15.537,15.537,0,0,1,2.948-2.7,4.674,4.674,0,0,1,3.874-.88c.509.172,1.3.676,1.206,1.3-.01.062-.121.217-.2.131a5.2,5.2,0,0,0-.693-.8,2.068,2.068,0,0,0-1.034-.389,4.818,4.818,0,0,0-2.7.609,15.044,15.044,0,0,0-3.39,2.764C113.2,120.006,113.185,119.974,113.194,119.964Z" transform="translate(1.494 1)" opacity="0.1"/>
        </g>
        <path d="M125.845,109.143c-.02-.81,1.46-2.472,5.07-2.188a6.816,6.816,0,0,1,4.368,1.725,2.48,2.48,0,0,1,.8,1.438,1.075,1.075,0,0,1-.087.634,1.133,1.133,0,0,1-.313.352c-.863.689-1.986.507-3,.764-1.576.4-4.892,1.823-6.8.875A1.984,1.984,0,0,1,125.845,109.143Z" transform="translate(1.494 1)" fill="#f0f0f0"/>
        <g>
          <path d="M122.649,111.373c2.06-2.789,6.083-3.023,9.228-2.435a12.654,12.654,0,0,1,3,.953c.013.006.009.041-.008.035a16.7,16.7,0,0,0-5.119-.983,10.9,10.9,0,0,0-5.017.941,6.467,6.467,0,0,0-2.02,1.56C122.652,111.51,122.607,111.43,122.649,111.373Z" transform="translate(1.494 1)" fill="#e0e0e0"/>
          <path d="M122.649,111.373c2.06-2.789,6.083-3.023,9.228-2.435a12.654,12.654,0,0,1,3,.953c.013.006.009.041-.008.035a16.7,16.7,0,0,0-5.119-.983,10.9,10.9,0,0,0-5.017.941,6.467,6.467,0,0,0-2.02,1.56C122.652,111.51,122.607,111.43,122.649,111.373Z" transform="translate(1.494 1)" opacity="0.1"/>
        </g>
        <path d="M116.659,102.263c.051,1.369-1.893,2.164-3.773.98a21.811,21.811,0,0,0-5.595-2.782c-1.742-.447-2.568-1.856-2.018-2.538s1.426-2.4,6.007-1.841,6.2,2.608,6.832,4.054S117.348,102.657,116.659,102.263Z" transform="translate(1.494 1)" fill="#f0f0f0"/>
        <g>
          <path d="M109.2,97.917a5.023,5.023,0,0,1,1.965.2,9.927,9.927,0,0,1,1.682.6,9.273,9.273,0,0,1,2.864,2.057,7.823,7.823,0,0,1,.647.772,3.275,3.275,0,0,1,.489.794c.031.09-.1.237-.182.145-.227-.259-.4-.576-.61-.849a9.02,9.02,0,0,0-.737-.837,9.362,9.362,0,0,0-1.765-1.379,10.907,10.907,0,0,0-1.956-.943,11.376,11.376,0,0,0-1.14-.339,3.934,3.934,0,0,0-1.246-.172C109.192,97.969,109.181,97.921,109.2,97.917Z" transform="translate(1.494 1)" fill="#e0e0e0"/>
          <path d="M109.2,97.917a5.023,5.023,0,0,1,1.965.2,9.927,9.927,0,0,1,1.682.6,9.273,9.273,0,0,1,2.864,2.057,7.823,7.823,0,0,1,.647.772,3.275,3.275,0,0,1,.489.794c.031.09-.1.237-.182.145-.227-.259-.4-.576-.61-.849a9.02,9.02,0,0,0-.737-.837,9.362,9.362,0,0,0-1.765-1.379,10.907,10.907,0,0,0-1.956-.943,11.376,11.376,0,0,0-1.14-.339,3.934,3.934,0,0,0-1.246-.172C109.192,97.969,109.181,97.921,109.2,97.917Z" transform="translate(1.494 1)" opacity="0.1"/>
        </g>
        <path d="M119.946,109.652c.642-.637,2.385-.489,3.21,1.392s-.907,3.939-1.1,4.518c-.8-.456-1.415-.185-2.816-.456a3.474,3.474,0,0,1-2.686-3.459C116.645,109.925,117.378,108.788,119.946,109.652Z" transform="translate(1.494 1)" fill="#f0f0f0"/>
        <g>
          <path d="M119.97,109.462a2.622,2.622,0,0,1,.851.873,4.732,4.732,0,0,1,.551,1.055,4.444,4.444,0,0,1,.242,2.395c-.006.03-.031,0-.029-.017a4.9,4.9,0,0,0-.406-2.368,4.734,4.734,0,0,0-.579-.95,4.941,4.941,0,0,0-.387-.444,2.437,2.437,0,0,1-.368-.364C119.8,109.57,119.872,109.415,119.97,109.462Z" transform="translate(1.494 1)" fill="#e0e0e0"/>
          <path d="M119.97,109.462a2.622,2.622,0,0,1,.851.873,4.732,4.732,0,0,1,.551,1.055,4.444,4.444,0,0,1,.242,2.395c-.006.03-.031,0-.029-.017a4.9,4.9,0,0,0-.406-2.368,4.734,4.734,0,0,0-.579-.95,4.941,4.941,0,0,0-.387-.444,2.437,2.437,0,0,1-.368-.364C119.8,109.57,119.872,109.415,119.97,109.462Z" transform="translate(1.494 1)" opacity="0.1"/>
        </g>
        <path d="M122.594,114.705c.358-1.355,2.091-2.116,4.357-2.284a5.939,5.939,0,0,1,5.634,2.867c1.185,2.009,1.677,3.608.957,3.87a40.086,40.086,0,0,1-5.729.854,8.006,8.006,0,0,1-6.02-1.658C120.191,116.874,120.719,115.017,122.594,114.705Z" transform="translate(1.494 1)" fill="#e0e0e0"/>
        <g>
          <path d="M122.51,114.526a6.033,6.033,0,0,1,2.446-.113,10.937,10.937,0,0,1,2.309.528,14.9,14.9,0,0,1,2.287,1.019q.576.314,1.13.663a8.359,8.359,0,0,1,1.013.694c.012.01.01.057-.013.047-.372-.165-.72-.4-1.075-.6-.383-.214-.769-.423-1.162-.62a16.43,16.43,0,0,0-2.266-.953,10.785,10.785,0,0,0-2.4-.51,14.745,14.745,0,0,0-2.292.057C122.326,114.753,122.415,114.556,122.51,114.526Z" transform="translate(1.494 1)" fill="#e0e0e0"/>
          <path d="M122.51,114.526a6.033,6.033,0,0,1,2.446-.113,10.937,10.937,0,0,1,2.309.528,14.9,14.9,0,0,1,2.287,1.019q.576.314,1.13.663a8.359,8.359,0,0,1,1.013.694c.012.01.01.057-.013.047-.372-.165-.72-.4-1.075-.6-.383-.214-.769-.423-1.162-.62a16.43,16.43,0,0,0-2.266-.953,10.785,10.785,0,0,0-2.4-.51,14.745,14.745,0,0,0-2.292.057C122.326,114.753,122.415,114.556,122.51,114.526Z" transform="translate(1.494 1)" opacity="0.1"/>
        </g>
        <path d="M118.475,111.378c1.556-1.225,1.037-4.165-4.41-4.324s-9.337,1.251-9.164,2.989c-.877.869-.433,3.3,3.977,4.064S119.6,114.489,118.475,111.378Z" transform="translate(1.494 1)" fill="#e0e0e0"/>
        <g>
          <path d="M107.463,110.062a23.578,23.578,0,0,1,4.866-.281,18.946,18.946,0,0,1,4.492.512,6.7,6.7,0,0,1,1.1.4c.163.077.323.16.478.253.123.075.261.139.306.283a.148.148,0,0,1-.162.172,5.927,5.927,0,0,1-.953-.469,7.68,7.68,0,0,0-.943-.34,11.914,11.914,0,0,0-1.892-.369,33.8,33.8,0,0,0-4.6-.252c-.9.012-1.787.079-2.679.15C107.446,110.127,107.436,110.067,107.463,110.062Z" transform="translate(1.494 1)" fill="#e0e0e0"/>
          <path d="M107.463,110.062a23.578,23.578,0,0,1,4.866-.281,18.946,18.946,0,0,1,4.492.512,6.7,6.7,0,0,1,1.1.4c.163.077.323.16.478.253.123.075.261.139.306.283a.148.148,0,0,1-.162.172,5.927,5.927,0,0,1-.953-.469,7.68,7.68,0,0,0-.943-.34,11.914,11.914,0,0,0-1.892-.369,33.8,33.8,0,0,0-4.6-.252c-.9.012-1.787.079-2.679.15C107.446,110.127,107.436,110.067,107.463,110.062Z" transform="translate(1.494 1)" opacity="0.1"/>
        </g>
      </g>
    </g>
    <g id="Drawer">
      <g>
        <g>
          <g>
            <polygon points="34.883 112.978 33.797 118.316 32.742 118.92 31.697 118.321 30.603 112.979 32.743 111.753 34.883 112.978" fill="#e0e0e0"/>
            <polygon points="34.883 112.978 33.797 118.316 32.742 118.92 31.697 118.321 30.603 112.979 32.743 111.753 34.883 112.978" opacity="0.05"/>
            <polygon points="32.742 118.92 32.743 114.203 34.883 112.978 33.797 118.316 32.742 118.92" fill="#ebebeb"/>
          </g>
          <polygon points="34.883 112.978 34.182 116.425 32.742 117.249 31.309 116.429 30.603 112.979 32.743 111.753 34.883 112.978" opacity="0.05"/>
        </g>
        <g>
          <g>
            <polygon points="25.472 107.592 24.387 112.929 23.332 113.533 22.287 112.935 21.192 107.592 23.333 106.367 25.472 107.592" fill="#e0e0e0"/>
            <polygon points="25.472 107.592 24.387 112.929 23.332 113.533 22.287 112.935 21.192 107.592 23.333 106.367 25.472 107.592" opacity="0.05"/>
            <polygon points="23.332 113.533 23.333 108.817 25.472 107.592 24.387 112.929 23.332 113.533" fill="#ebebeb"/>
          </g>
          <polygon points="25.472 107.592 24.772 111.039 23.332 111.863 21.899 111.042 21.192 107.592 23.333 106.367 25.472 107.592" opacity="0.05"/>
        </g>
        <g>
          <g>
            <polygon points="57.907 99.805 56.822 105.142 55.767 105.746 54.721 105.147 53.627 99.805 55.767 98.58 57.907 99.805" fill="#ebebeb"/>
            <polygon points="57.907 99.805 56.822 105.142 55.767 105.746 54.721 105.147 53.627 99.805 55.767 98.58 57.907 99.805" opacity="0.05"/>
            <polygon points="55.767 105.746 55.767 101.03 57.907 99.805 56.822 105.142 55.767 105.746" fill="#ebebeb"/>
          </g>
          <polygon points="57.907 99.805 57.206 103.252 55.767 104.075 54.334 103.255 53.627 99.805 55.767 98.58 57.907 99.805" opacity="0.05"/>
        </g>
        <g id="Cabinet">
          <g id="Cabinet-2" data-name="Cabinet">
            <g>
              <polygon points="32.742 116.388 21.081 109.713 21.08 84.688 32.742 91.364 32.742 116.388" fill="#e0e0e0"/>
              <polygon points="32.742 91.364 58.513 76.618 58.514 101.642 32.742 116.388 32.742 91.364" fill="#ebebeb"/>
              <polygon points="58.513 76.618 32.742 91.364 21.08 84.688 46.852 69.943 58.513 76.618" fill="#f5f4f5"/>
            </g>
            <g>
              <polygon points="34.408 103.76 56.847 90.922 56.847 100.105 57.154 100.281 34.714 113.119 34.408 112.944 34.408 103.76" fill="#e0e0e0"/>
              <polygon points="34.715 103.936 57.154 91.097 57.154 100.281 34.714 113.119 34.715 103.936" fill="#f5f4f5"/>
              <path d="M43.5,99.415l2.266-1.3c.294-.169.533-.092.533.172a1.057,1.057,0,0,1-.533.781l-2.267,1.3c-.294.168-.533.091-.532-.172A1.057,1.057,0,0,1,43.5,99.415Z" transform="translate(1.494 1)" fill="#e0e0e0"/>
            </g>
            <g>
              <polygon points="34.408 92.671 56.847 79.833 56.847 89.017 57.153 89.192 34.714 102.03 34.407 101.855 34.408 92.671" fill="#e0e0e0"/>
              <polygon points="34.714 92.847 57.154 80.008 57.153 89.192 34.714 102.03 34.714 92.847" fill="#f5f4f5"/>
              <path d="M43.5,88.326l2.266-1.3c.3-.169.533-.092.533.172a1.057,1.057,0,0,1-.533.782L43.5,89.28c-.294.168-.533.091-.533-.172A1.06,1.06,0,0,1,43.5,88.326Z" transform="translate(1.494 1)" fill="#e0e0e0"/>
            </g>
          </g>
        </g>
      </g>
      <g id="Pot-4" data-name="Pot">
        <path d="M34.308,80.4c1.29.739,1.29,1.936,0,2.675a5.2,5.2,0,0,1-4.673,0c-1.291-.739-1.291-1.936,0-2.675A5.2,5.2,0,0,1,34.308,80.4Z" transform="translate(1.494 1)" fill="#e0e0e0"/>
        <g>
          <path d="M29.916,81.9c-1.124-1.137-1.784-3.975-.688-4.877h5.578c1.1.9.436,3.739-.687,4.876l-.031.032-.039.037c-.031.031-.065.06-.1.09l-.027.021c-.028.021-.055.043-.085.063a1.526,1.526,0,0,1-.145.092,3.73,3.73,0,0,1-3.348,0h0c-.049-.027-.1-.059-.146-.092-.028-.02-.054-.04-.079-.06l-.034-.026c-.034-.028-.067-.057-.1-.086l-.044-.043Z" transform="translate(1.494 1)" fill="#ebebeb"/>
          <path d="M34.321,76.662c1.273.728,1.273,1.909,0,2.638a5.134,5.134,0,0,1-4.608,0c-1.273-.729-1.273-1.91,0-2.638A5.128,5.128,0,0,1,34.321,76.662Z" transform="translate(1.494 1)" fill="#fbfbfb"/>
          <path d="M33.419,77.178a.845.845,0,0,1,0,1.605,3.124,3.124,0,0,1-2.8,0,.845.845,0,0,1,0-1.605A3.124,3.124,0,0,1,33.419,77.178Z" transform="translate(1.494 1)" fill="#f5f4f5"/>
          <path d="M30.615,77.94a3.124,3.124,0,0,1,2.8,0,1.291,1.291,0,0,1,.464.421,1.284,1.284,0,0,1-.464.422,3.124,3.124,0,0,1-2.8,0,1.284,1.284,0,0,1-.464-.422A1.291,1.291,0,0,1,30.615,77.94Z" transform="translate(1.494 1)" fill="#ebebeb"/>
        </g>
        <path d="M33.248,78.361a6.29,6.29,0,0,0,1.014-1.336c.469-.821.555-1.921.313-2.057s-1.228.961-1.228.961a5.909,5.909,0,0,0,.1-1.4A2.494,2.494,0,0,0,33.019,73c-.211-.134-.684.789-.887,1.457s-.324,1.218-.324,1.218a10.251,10.251,0,0,0-.363-1.538c-.246-.694-.469-.851-.642-.783s-.287.393-.337,1.317a8.966,8.966,0,0,0,.042,1.323s-.348-.379-.734-.746c-.423-.4-.605-.459-.726-.382s-.154.7.5,1.881a6.585,6.585,0,0,0,1.238,1.616A2.863,2.863,0,0,0,33.248,78.361Z" transform="translate(1.494 1)" fill="#e0e0e0"/>
      </g>
      <g id="Picture-4" data-name="Picture">
        <g id="Frame-4" data-name="Frame">
          <polygon points="41.068 80.667 41.481 80.868 49.189 76.527 48.776 76.326 41.068 80.667" fill="#fbfbfb"/>
          <polygon points="48.776 76.326 41.443 80.455 40.457 69.616 47.791 65.49 48.776 76.326" fill="#fff"/>
          <path d="M47.311,63.11l-9.126,5.14,1.163,12.783,9.126-5.14ZM47.7,75.527l-7.708,4.341L38.963,68.616l7.709-4.341Z" transform="translate(1.494 1)" fill="#f0f0f0"/>
          <polygon points="49.189 76.527 48.776 76.326 47.791 65.49 48.166 65.275 49.189 76.527" fill="#e0e0e0"/>
          <polygon points="48.805 64.11 48.386 63.914 39.26 69.054 39.679 69.25 48.805 64.11" fill="#fbfbfb"/>
          <polygon points="39.26 69.054 39.679 69.25 40.842 82.033 40.423 81.838 39.26 69.054" fill="#e0e0e0"/>
        </g>
        <g id="Land-4" data-name="Land">
          <polygon points="48.457 76.117 41.696 79.925 41.53 78.099 42.82 72.748 44.001 74.585 43.743 76.124 45.774 70.451 48.29 74.292 48.457 76.117" fill="#f0f0f0"/>
          <path d="M41.239,69.49a.938.938,0,0,0-.451.822c.027.3.273.414.549.258a.937.937,0,0,0,.451-.821C41.761,69.45,41.515,69.334,41.239,69.49Z" transform="translate(1.494 1)" fill="#f0f0f0"/>
        </g>
      </g>
    </g>
    <g id="Character">
      <g id="Bottom">
        <g>
          <path d="M59.268,116l-.092-4.824,6.031.422s-.517,2.621-.65,4.151a6.931,6.931,0,0,0,.921,2.671s-2.775,1.349-4.219.8a3.8,3.8,0,0,1-2.124-2.752C59.169,116.072,59.268,116,59.268,116Z" transform="translate(1.494 1)" fill="#c9866a"/>
          <path d="M72.988,124.241a1.235,1.235,0,0,1-.291,1.32,6.556,6.556,0,0,1-4.507.868,8.159,8.159,0,0,1-4.3-1.655,9.485,9.485,0,0,0-3.118-1.909,6.391,6.391,0,0,1-2.239-.882c-.3-.271-.233-1.455-.233-1.455Z" transform="translate(1.494 1)" fill="#263239"/>
          <path d="M59.267,115.986a.356.356,0,0,0-.342.272c-.074.325-.164,1.272-.321,1.806a8.82,8.82,0,0,0-.269,2.873c.113.608,1.632,1.054,2.6,1.411a12.632,12.632,0,0,1,3.129,1.886,9.4,9.4,0,0,0,4.675,1.686c1.719.015,3.663-.466,4.119-1.192.565-.9.983-1.946-1.547-3.073-.479-.213-2.158-1.162-2.729-1.506a7.1,7.1,0,0,1-3.324-3.389.891.891,0,0,0-.358-.5.878.878,0,0,0-.494-.049,17.976,17.976,0,0,0-2.513.4c-.344.145-.833.311-.832.715a1.258,1.258,0,0,0,.089.411c.029.082.051.192-.028.24s-.172-.01-.238-.065a6.321,6.321,0,0,1-.674-.77,2.363,2.363,0,0,0-.4-.384,4.3,4.3,0,0,1-.432-.267C59.231,116.351,59.271,116.175,59.267,115.986Z" transform="translate(1.494 1)" fill="#455a64"/>
          <path d="M64.066,124.234c-.439-.344-.905-.677-1.374-.976v0s2.969,1.723,4.193.981a.95.95,0,0,0,.412-1.269,11.555,11.555,0,0,1,3.521-1.562h0c.209.111.385.2.5.249,2.53,1.127,2.112,2.174,1.547,3.073-.456.726-1.867,1.276-4.089,1.241A9.642,9.642,0,0,1,64.066,124.234Z" transform="translate(1.494 1)" fill="#37474f"/>
          <path d="M67.1,122.41c1.575.608.894.869.449.92s-3.087-1.423-4.694-2.633c-1.675-1.262-2.722-2.629-3.345-3.092-.232-.173-.481-.385-.7-.582.047-.321.086-.612.121-.765a.356.356,0,0,1,.342-.272c0,.189-.036.365.117.509a4.3,4.3,0,0,0,.432.267,2.363,2.363,0,0,1,.4.384,6.321,6.321,0,0,0,.674.77A20.522,20.522,0,0,0,67.1,122.41Z" transform="translate(1.494 1)" fill="#37474f"/>
          <g>
            <path d="M67.437,123.114a.159.159,0,0,1-.1-.034.136.136,0,0,1-.018-.2,6.558,6.558,0,0,1,3.76-1.523.147.147,0,0,1,.136.161.15.15,0,0,1-.174.125,6.356,6.356,0,0,0-3.483,1.423A.157.157,0,0,1,67.437,123.114Z" transform="translate(1.494 1)" fill="#263239"/>
            <path d="M66.068,122.31a.166.166,0,0,1-.1-.034.137.137,0,0,1-.019-.2,6.568,6.568,0,0,1,3.76-1.522.148.148,0,0,1,.137.161.153.153,0,0,1-.175.125,6.346,6.346,0,0,0-3.482,1.423A.164.164,0,0,1,66.068,122.31Z" transform="translate(1.494 1)" fill="#263239"/>
            <path d="M64.7,121.547a.166.166,0,0,1-.1-.034.137.137,0,0,1-.019-.2,6.558,6.558,0,0,1,3.76-1.522.148.148,0,0,1,.137.161.154.154,0,0,1-.175.126,6.331,6.331,0,0,0-3.482,1.422A.164.164,0,0,1,64.7,121.547Z" transform="translate(1.494 1)" fill="#263239"/>
            <path d="M63.432,120.68a.159.159,0,0,1-.1-.034.136.136,0,0,1-.018-.2,6.567,6.567,0,0,1,3.76-1.523.147.147,0,0,1,.136.161.154.154,0,0,1-.175.126,6.344,6.344,0,0,0-3.482,1.422A.162.162,0,0,1,63.432,120.68Z" transform="translate(1.494 1)" fill="#263239"/>
            <path d="M62.191,119.814a.174.174,0,0,1-.1-.033.137.137,0,0,1-.022-.2,6.521,6.521,0,0,1,4.028-1.533.147.147,0,0,1,.136.161.155.155,0,0,1-.174.126,6.3,6.3,0,0,0-3.747,1.429A.163.163,0,0,1,62.191,119.814Z" transform="translate(1.494 1)" fill="#263239"/>
          </g>
        </g>
        <g>
          <path d="M49.664,118.13l1.378-4.712-5.9-.962-.315,4.572s-.646,1.626-.292,2.231,4.277,1.328,4.648.94A5.426,5.426,0,0,0,49.664,118.13Z" transform="translate(1.494 1)" fill="#c9866a"/>
          <path d="M48.946,128.432a5.839,5.839,0,0,1-1.21,3.182,2.584,2.584,0,0,1-2.944.467c-1.128-.419-2.545-1.31-2.779-2.631a7.106,7.106,0,0,1,.261-3.517Z" transform="translate(1.494 1)" fill="#263239"/>
          <path d="M44.824,117.028c-.475-.036-.4,1.976-.824,3.922-.45,2.086-1.244,2.86-1.635,4.567-.447,1.95-.394,2.858.316,4.179s3.453,2.914,4.977,1.39c1.243-1.242,1.407-2.8,1.452-4.8a44.056,44.056,0,0,1,.273-5.081c.2-1.479.676-2.788.278-3.014-.048.215-.1.488-.149.7-.038.161-.146.963-.411.932a2.725,2.725,0,0,1,.037-.563.628.628,0,0,0-.094-.5,2.218,2.218,0,0,0-.754-.4c-.459-.148-1.281-.337-1.75-.443-.234-.053-.469-.1-.706-.128a2.113,2.113,0,0,0-.6-.013.37.37,0,0,0-.271.166.541.541,0,0,0-.041.224,1.426,1.426,0,0,1-.09.4c-.022.057-.074.122-.14.1a.125.125,0,0,1-.068-.132c.016-.241.064-.411.1-.688.015-.129.053-.3.064-.431S44.805,117.154,44.824,117.028Z" transform="translate(1.494 1)" fill="#455a64"/>
          <path d="M42.515,124.966c-.068.281-.489,2.144.079,2.573.615.464,1.079-.981,1.079-.981a6.737,6.737,0,0,1,3.669.971c-.136.293.127,1.36.745,1.233s1.013-2.277,1.018-2.305c-.051,1.922-.24,3.423-1.447,4.629-1.524,1.524-4.268-.069-4.977-1.39s-.763-2.229-.316-4.179C42.41,125.322,42.46,125.14,42.515,124.966Z" transform="translate(1.494 1)" fill="#37474f"/>
          <path d="M43.836,126.711c-.063.719-.86.357-.819-.665s.859-3.345.983-5.1c.2-2.4.349-3.958.824-3.922,0,.024,0,.049-.008.073l-.137,1a3.837,3.837,0,0,0-.059.428c-.122,1.468-.212,4.324-.458,5.646A20.361,20.361,0,0,0,43.836,126.711Z" transform="translate(1.494 1)" fill="#37474f"/>
          <path d="M47.089,127.473a20.156,20.156,0,0,0,.639-2.463c.263-1.309,1.127-3.92,1.558-5.325a3.137,3.137,0,0,0,.226-.8c.046-.2.094-.446.139-.653,0-.015.009-.029.013-.044.286.168.158,1.3-.011,1.891s-.372,1.213-.585,2.055c-.534,1.656-.643,4.158-.983,5.11S46.881,128.158,47.089,127.473Z" transform="translate(1.494 1)" fill="#37474f"/>
          <g>
            <path d="M47.384,127.594a.2.2,0,0,1-.062-.025,6.58,6.58,0,0,0-3.615-.857.2.2,0,0,1-.206-.139.142.142,0,0,1,.139-.169,6.886,6.886,0,0,1,3.864.917.152.152,0,0,1,.059.217A.173.173,0,0,1,47.384,127.594Z" transform="translate(1.494 1)" fill="#263239"/>
            <path d="M47.9,126.088a.227.227,0,0,1-.057-.023,8.155,8.155,0,0,0-4.046-.957.2.2,0,0,1-.2-.146.143.143,0,0,1,.145-.164,8.446,8.446,0,0,1,4.275,1.013.154.154,0,0,1,.068.216A.174.174,0,0,1,47.9,126.088Z" transform="translate(1.494 1)" fill="#263239"/>
            <path d="M44.017,123.639a.194.194,0,0,1-.141-.125.141.141,0,0,1,.125-.178,7.072,7.072,0,0,1,4.271.977.151.151,0,0,1,.059.217.185.185,0,0,1-.241.03,6.781,6.781,0,0,0-4-.918A.211.211,0,0,1,44.017,123.639Z" transform="translate(1.494 1)" fill="#263239"/>
            <path d="M44.243,122.255a.19.19,0,0,1-.139-.121.139.139,0,0,1,.12-.181,6.385,6.385,0,0,1,4.359.978.149.149,0,0,1,.043.219.186.186,0,0,1-.244.016,6.086,6.086,0,0,0-4.061-.908A.186.186,0,0,1,44.243,122.255Z" transform="translate(1.494 1)" fill="#263239"/>
            <path d="M44.505,120.7a.187.187,0,0,1-.139-.119.139.139,0,0,1,.117-.182,6.667,6.667,0,0,1,4.387,1.025.149.149,0,0,1,.049.218.184.184,0,0,1-.244.021,6.373,6.373,0,0,0-4.091-.96A.191.191,0,0,1,44.505,120.7Z" transform="translate(1.494 1)" fill="#263239"/>
          </g>
        </g>
        <g>
          <path d="M43.558,71.7c-.066,7.694.852,12.382,2.266,24.572a26.343,26.343,0,0,0-1.221,9.2c.144,5.5.116,5.874.122,9.425,0,0,2.9,2.17,5.906.933,0,0,2.846-9.915,4.528-15.875A50.393,50.393,0,0,0,56.42,88.74l2.4,8.663s-.31,2.483-.494,4.793c-.214,2.687.743,11.464.743,11.464a7.685,7.685,0,0,0,5.833.326s1.681-10.475,2.608-15.286a32.97,32.97,0,0,0,.258-8.021c-.349-4.281-.712-8.639-1.978-18.978Z" transform="translate(1.494 1)" fill="#37474f"/>
          <path d="M59.689,93.557,59,90.3q-.339-1.611-.683-3.222c-.231-1.079-.432-2.172-.714-3.239-.071-.266-.137-.534-.2-.8-.023-.094-.233-.128-.212-.005.755,4.389,1.835,8.717,2.683,13.088a12.105,12.105,0,0,1,.264,3.2c-.078,1.059-.287,2.1-.364,3.163-.08,1.092-.091,2.188-.115,3.283s-.044,2.2-.048,3.3c0,1.624.011,3.259.133,4.883.111.04.235.081.37.122-.089-1.409-.151-2.818-.157-4.232-.009-2.194.017-4.4.117-6.589.05-1.1.211-2.175.342-3.265a11.349,11.349,0,0,0-.076-3.219C60.164,95.692,59.914,94.625,59.689,93.557Z" transform="translate(1.494 1)" fill="#263239"/>
          <path d="M48.152,71.776c0,.213.009.426.016.638l.043,1.2q.045,1.226.088,2.453c.029.807.076,1.616.072,2.424a4.458,4.458,0,0,1-.334,2.016,1.486,1.486,0,0,1-.779.7c-.272.113-.569.172-.841.287-.029-.413-.061-.827-.086-1.241q-.132-2.217-.184-4.437c-.032-1.371-.023-2.743-.041-4.115h-.282c-.027.922-.025,1.846-.019,2.768.011,1.5.058,3,.129,4.5q.212,4.467.753,8.909c.178,1.462.405,2.922.45,4.4A15.246,15.246,0,0,1,46.6,96.6c-.357,1.372-.813,2.716-1.142,4.095a31.375,31.375,0,0,0-.69,4.22c-.057.58-.1,1.161-.133,1.743.106,4.239.087,4.918.092,7.926,0,.035.006.071.01.107.007.064.149.151.154.053.07-1.444,0-2.895-.006-4.339s.019-2.9.12-4.342a34.049,34.049,0,0,1,.554-4.291c.279-1.4.7-2.752,1.093-4.119a18.671,18.671,0,0,0,.807-4.118,24.372,24.372,0,0,0-.283-4.441q-.467-3.661-.739-7.34a3.075,3.075,0,0,0,1.714-.853,3.291,3.291,0,0,0,.526-1.84c.048-.843-.009-1.692-.04-2.535s-.059-1.678-.089-2.517q-.027-.723-.052-1.447c-.008-.241-.017-.481-.031-.721,0-.047-.005-.095-.007-.143h-.3Z" transform="translate(1.494 1)" fill="#263239"/>
          <path d="M56.42,88.74l.046-8.07a11.262,11.262,0,0,0,5.344-3.285s-.292,2.635-4.125,4.173l-.325,7.424L58.816,97.4Z" transform="translate(1.494 1)" fill="#263239"/>
        </g>
      </g>
      <g id="Top">
        <g id="Arm">
          <path d="M65.631,64.292l6.776,4.021c1.218-1.37.8-5.123.16-7.356-.686-2.4-1.834-6.836-2.438-8.91-.7-2.422-1.248-3.594-2.542-4.427a9.406,9.406,0,0,0-3.136-.872l.094,3.458Z" transform="translate(1.494 1)" fill="#c9866a"/>
          <path d="M63.494,46.187c2.787.1,4.783,1.04,5.7,2.987a73.836,73.836,0,0,1,2.46,8.032A7.716,7.716,0,0,1,68.544,59a5.973,5.973,0,0,1-3.561,0Z" transform="translate(1.494 1)" fill="#a56baa"/>
          <path d="M63.494,46.187c2.787.1,4.783,1.04,5.7,2.987a73.836,73.836,0,0,1,2.46,8.032A7.716,7.716,0,0,1,68.544,59a5.973,5.973,0,0,1-3.561,0Z" transform="translate(1.494 1)" opacity="0.3"/>
          <path d="M66.607,62s3.788.729,5.323,1.822c-.467-2.048-2.045-2.631-3.458-3.784a19.2,19.2,0,0,1-1.865-1.8Z" transform="translate(1.494 1)" fill="#b06152"/>
        </g>
        <g id="Chest">
          <g>
            <path d="M53.422,75.387c-4.218,0-7.667-.842-9.529-2.32a47.877,47.877,0,0,1,2.129-15.28,24.162,24.162,0,0,1,3.27-7.393,6.978,6.978,0,0,0,.675-1.64c.028-.092.059-.2.085-.276,2.562-.826,8.708-2.33,11.071-2.366l.41,0c2.106,0,3.648.317,4.825,1.9,1.336,1.792,1.366,3.386.928,6.284-.362,2.388-1.322,5.92-1.9,8.03-.317,1.167-.471,1.738-.507,1.977a14.547,14.547,0,0,0,.019,3.8c.12.985.368,3.374.386,3.544l0,0a3.559,3.559,0,0,1-1.192,1.135c-1.682,1.146-3.576,2-7.347,2.434A29.489,29.489,0,0,1,53.422,75.387Z" transform="translate(1.494 1)" fill="#fbfbfb"/>
            <path d="M61.535,46.676c1.979,0,3.328.273,4.369,1.669,1.223,1.639,1.243,3.07.821,5.859-.357,2.358-1.313,5.871-1.884,7.971-.332,1.217-.48,1.767-.52,2.038a15.126,15.126,0,0,0,.017,3.948c.1.829.293,2.658.361,3.309a3.373,3.373,0,0,1-.925.832,14.334,14.334,0,0,1-7.093,2.339,28.78,28.78,0,0,1-3.257.18c-3.935,0-7.156-.737-8.963-2.035A47.2,47.2,0,0,1,46.579,57.9a23.35,23.35,0,0,1,3.2-7.22,7.368,7.368,0,0,0,.726-1.753c2.722-.844,8.4-2.218,10.624-2.252l.4,0m0-1.134-.422,0C58.559,45.584,52.122,47.2,49.694,48c-.239.1-.271,1.064-.89,2.1a24.523,24.523,0,0,0-3.325,7.522,48.54,48.54,0,0,0-2.154,15.7c2.3,2.007,6.507,2.623,10.1,2.623a30.022,30.022,0,0,0,3.387-.187c3.86-.447,5.829-1.322,7.6-2.529,1.462-1,1.44-1.651,1.44-1.651s-.264-2.539-.388-3.563a14.267,14.267,0,0,1-.02-3.648c.1-.689,1.87-6.486,2.4-10,.425-2.806.484-4.673-1.033-6.707-1.375-1.843-3.193-2.124-5.278-2.124Z" transform="translate(1.494 1)" fill="#e0e0e0"/>
          </g>
        </g>
        <g id="Head">
          <g>
            <g>
              <path d="M55.927,33.142c-1.6,1.964-1.152,4.887-.648,6.85a25.438,25.438,0,0,1,.818,4.3s1.635-1.828,1.851-2.171c.319-.5.828-.276,1.262-.054,1.91.975,4.775,2.4,6.3-.04a5,5,0,0,0,.464-.921,4.61,4.61,0,0,0,.159-1.007.71.71,0,0,1,.056-.232.688.688,0,0,1,.139-.175A4.193,4.193,0,0,0,67,38.874a1.556,1.556,0,0,0,.22-1.014.25.25,0,0,1,0-.146c.038-.083.152-.09.245-.092a1.51,1.51,0,0,0,1.246-.744,1.483,1.483,0,0,0,0-1.441.137.137,0,0,1-.028-.1.14.14,0,0,1,.064-.072,1.259,1.259,0,0,0,.61-.8.848.848,0,0,0-.263-.713,1.153,1.153,0,0,0-.717-.3,2.027,2.027,0,0,0,.741-.727.692.692,0,0,0-.235-.914,1.017,1.017,0,0,0-.388-.072,20.275,20.275,0,0,1-3.314-.322,16.83,16.83,0,0,0-3.119-.577C60.231,30.788,57.6,31.089,55.927,33.142Z" transform="translate(1.494 1)" fill="#37474f"/>
              <path d="M54.529,42.056a1.666,1.666,0,0,0,2.092-.176l-1.24,5.076a5.179,5.179,0,0,0,.98,1.978,4.932,4.932,0,0,0,4.32,1.971c1.082-.1,1.928-.548,1.16-1.953l.439-1.6a5.677,5.677,0,0,0,2.237-.006,4,4,0,0,0,2.856-2.608,14.543,14.543,0,0,0,.585-4.854c.007-.661.083-1.319.08-1.98a5.418,5.418,0,0,0-1.15-3.28,9.617,9.617,0,0,1-6.434.172,8.967,8.967,0,0,0-.945-.292,10.479,10.479,0,0,1-.212,2.2,3.783,3.783,0,0,1-.929,1.462,3.232,3.232,0,0,0-.513.5,5.228,5.228,0,0,0-.276.556.7.7,0,0,1-.453.4.608.608,0,0,1-.592-.306c-.208-.33-.2-.685-.462-1a1.582,1.582,0,0,0-.8-.493,1.522,1.522,0,0,0-1.637.575A3.022,3.022,0,0,0,54.529,42.056Z" transform="translate(1.494 1)" fill="#c9866a"/>
              <path d="M57.328,42.71a4.84,4.84,0,0,0,.72,3.009c.706,1.114,3.016,2.146,3.981,2.55l.251-.916a8.158,8.158,0,0,1-3.842-2.128A7.108,7.108,0,0,1,57.328,42.71Z" transform="translate(1.494 1)" fill="#b06152"/>
            </g>
            <g>
              <polygon points="65.524 40.09 65.56 43.926 67.78 43.264 65.524 40.09" fill="#b06152"/>
              <g>
                <path d="M62.272,43.294a.714.714,0,0,0-.258.2c-.213.267.018.444.281.5a2.386,2.386,0,0,1,.811.348.69.69,0,0,0,.374.172.346.346,0,0,0,.24-.1.4.4,0,0,0,.072-.241.994.994,0,0,0-.519-.851A1.139,1.139,0,0,0,62.272,43.294Z" transform="translate(1.494 1)" fill="#b06152"/>
                <path d="M63.106,44.344a2.148,2.148,0,0,0,.181.118,1.268,1.268,0,0,0-1.1-1.119.668.668,0,0,0-.176.15c-.213.267.018.444.28.5A2.382,2.382,0,0,1,63.106,44.344Z" transform="translate(1.494 1)" fill="#f4a6a7"/>
              </g>
            </g>
            <path d="M62.264,40.6a1.235,1.235,0,0,1-.328.117,1.313,1.313,0,0,1-.385.028,1.571,1.571,0,0,1-.362-.089,1.25,1.25,0,0,1-.19-.079.657.657,0,0,1-.145-.123c-.025-.026-.034.033-.027.047a.913.913,0,0,0,.7.413.881.881,0,0,0,.453-.026.617.617,0,0,0,.294-.272S62.273,40.6,62.264,40.6Z" transform="translate(1.494 1)" fill="#b06152"/>
            <path d="M67.363,41.035a.346.346,0,0,1-.089.03c-.03.01-.059.025-.087.037a1.243,1.243,0,0,1-.152.062,1.036,1.036,0,0,1-.35.039,1.478,1.478,0,0,1-.405-.075,2.981,2.981,0,0,1-.324-.164c-.019-.009-.022.025-.016.035a.987.987,0,0,0,.8.372,1.1,1.1,0,0,0,.391-.052.446.446,0,0,0,.159-.086.473.473,0,0,0,.091-.168C67.38,41.057,67.38,41.023,67.363,41.035Z" transform="translate(1.494 1)" fill="#b06152"/>
            <path d="M63.6,37.124a.47.47,0,0,0-.248-.2.509.509,0,0,0-.164-.033.451.451,0,0,0-.082,0c-.028,0-.044.008-.055.036a.053.053,0,0,0,.014.055c.049.045.152.043.214.079a.345.345,0,0,1,.178.23.554.554,0,0,1-.048.317.155.155,0,0,0-.015.056.044.044,0,0,0,.028.045.05.05,0,0,0,.036,0c.078-.03.119-.134.155-.2a.4.4,0,0,0,.026-.065A.415.415,0,0,0,63.6,37.124Z" transform="translate(1.494 1)" fill="#b06152"/>
            <path d="M64.871,37.388a.464.464,0,0,1,.247-.2.515.515,0,0,1,.164-.033.451.451,0,0,1,.082,0c.028,0,.044.008.055.036a.051.051,0,0,1-.013.055c-.05.045-.153.043-.215.079a.348.348,0,0,0-.178.23.554.554,0,0,0,.048.317.157.157,0,0,1,.016.056.046.046,0,0,1-.029.045.051.051,0,0,1-.036,0c-.078-.03-.119-.134-.154-.2a.331.331,0,0,1-.027-.065A.411.411,0,0,1,64.871,37.388Z" transform="translate(1.494 1)" fill="#b06152"/>
            <g>
              <path d="M62.479,40.034a.677.677,0,0,0,.166-.462.313.313,0,0,0-.031-.107.445.445,0,0,0-.26-.217.429.429,0,0,0-.37.039,1.14,1.14,0,0,0-.166.16,2.016,2.016,0,0,1-.353.284.26.26,0,0,0-.156.283.313.313,0,0,0,.151.187A.76.76,0,0,0,62.479,40.034Z" transform="translate(1.494 1)" fill="#263239"/>
              <path d="M65.747,40.316a.676.676,0,0,1-.083-.484.335.335,0,0,1,.05-.1.445.445,0,0,1,.294-.168.426.426,0,0,1,.357.1,1.138,1.138,0,0,1,.136.186,2,2,0,0,0,.3.34.26.26,0,0,1,.1.306.314.314,0,0,1-.182.158A.758.758,0,0,1,65.747,40.316Z" transform="translate(1.494 1)" fill="#263239"/>
              <path d="M65.612,37.625l1.432.751a.782.782,0,0,1-1.072.348A.834.834,0,0,1,65.612,37.625Z" transform="translate(1.494 1)" fill="#263239"/>
              <path d="M62.716,37.3l-1.55.53a.791.791,0,0,0,1.018.514A.845.845,0,0,0,62.716,37.3Z" transform="translate(1.494 1)" fill="#263239"/>
            </g>
          </g>
        </g>
        <g>
          <ellipse cx="64.69" cy="58.082" rx="5.362" ry="5.316" fill="#a56baa" opacity="0.2"/>
          <ellipse cx="64.69" cy="58.082" rx="3.765" ry="3.732" fill="#a56baa" opacity="0.2"/>
        </g>
        <g id="Arms">
          <g>
            <path d="M69.076,61.246l.311.234a9.142,9.142,0,0,1,2.432,2.157,5.237,5.237,0,0,1,.616,1.3,7.4,7.4,0,0,1,.338,2.306,1.416,1.416,0,0,1-1.13,1.5,3.03,3.03,0,0,1-1.367-.065,5.947,5.947,0,0,1-3.685-2.255c-.449-.645-.828-1.127-1.124-1.638a11.379,11.379,0,0,0-1.415-1.9c-.547-.605-1.167-1.223-1.622-1.646a25.4,25.4,0,0,0-1.948-1.665,5.266,5.266,0,0,1-1-.873,1.3,1.3,0,0,1-.293-.625.838.838,0,0,1,.17-.581,1.379,1.379,0,0,1-.478-.577.937.937,0,0,1,.024-.683.557.557,0,0,1,.337-.288c-.092-.237-.375-.921.118-1.311.161-.083.369,0,.546.042.2.045.573.178.658.209a.516.516,0,0,1,.187-.113,2.143,2.143,0,0,1,1.322.031,7.364,7.364,0,0,1,1.329.672,6.5,6.5,0,0,0,1.055.52c.292.1.6.085.9.158.774.189,1.1,1.023,1.351,1.689a10.8,10.8,0,0,0,.463,1.358A6.529,6.529,0,0,0,69.076,61.246Z" transform="translate(1.494 1)" fill="#c9866a"/>
            <path d="M60.632,54.9a20.561,20.561,0,0,1,4.215,2.167A9.98,9.98,0,0,0,60.632,54.9Zm1.283,1.83A6.505,6.505,0,0,0,59.3,56a14.644,14.644,0,0,1,4.935,2.168A10.8,10.8,0,0,0,61.915,56.732Zm-2.168.557a.492.492,0,0,0-.487.439c.137-.555.766-.343,1.14-.184a19.505,19.505,0,0,1,3.652,1.939,11.365,11.365,0,0,0-3.614-2.047A2.4,2.4,0,0,0,59.747,57.289Z" transform="translate(1.494 1)" fill="#b06152"/>
          </g>
          <g>
            <path d="M49.784,48.664c-2.27.648-5.061,3.361-4.943,5.941A82.1,82.1,0,0,0,47.169,67.88c.869,3.3,1.513,4.213,2.578,4.65a3.983,3.983,0,0,0,3.021,0c3.332-1.017,6.354-4.252,9.588-7.614a26.714,26.714,0,0,0,3.911-5.261,6.569,6.569,0,0,0,.538-1.406,4.187,4.187,0,0,0,.089-1.415,1.344,1.344,0,0,1-.02-.209,1.3,1.3,0,0,1,.08-.333,1.152,1.152,0,0,0-.023-.822,2.169,2.169,0,0,0-.2-.307.387.387,0,0,1-.06-.109c-.036-.122.044-.244.072-.367a.567.567,0,0,0-.427-.623,1.026,1.026,0,0,0-.866.237.139.139,0,0,1-.067.032.159.159,0,0,1-.076-.022.88.88,0,0,0-.363-.087.731.731,0,0,0-.35.077,1.468,1.468,0,0,0-.538.609c-.232.391-.437.794-.671,1.186a8.139,8.139,0,0,1-1.511,2.2c-.064.054-.155.109-.226.065s-.066-.134-.053-.21c.133-.793.84-1.438.467-2.289-.325-.741-.778.357-.958.623l-.723,1.072a7.5,7.5,0,0,0-1.019,1.871c-.2.64-.235,1.328-.471,1.957a2.61,2.61,0,0,1-1.262,1.475c-2.338,1.189-3.472,1.626-3.472,1.626L52.93,57.155s-.437-1.877-1.349-5.235C50.836,49.181,49.784,48.664,49.784,48.664Z" transform="translate(1.494 1)" fill="#c9866a"/>
            <path d="M65.448,54.44a2.189,2.189,0,0,1-.236,1.106,14.371,14.371,0,0,1-1.607,3.01c.3-.582.721-1.435,1.022-2.029.25-.5.482-1.025.7-1.545a1.166,1.166,0,0,0,.12-.542Z" transform="translate(1.494 1)" fill="#b06152"/>
            <path d="M66.607,55.082a13.664,13.664,0,0,1-2,4.145c.771-1.3,1.336-2.781,2-4.145Z" transform="translate(1.494 1)" fill="#b06152"/>
            <path d="M66.858,56.671A9.179,9.179,0,0,1,65.427,59.8c.427-.923,1.032-2.208,1.431-3.129Z" transform="translate(1.494 1)" fill="#b06152"/>
            <path d="M52.768,72.53c3.791-1.306,6.456-4.5,9.192-7.251a28.608,28.608,0,0,0,3.663-4.608,7.637,7.637,0,0,0,1.182-2.66,5.606,5.606,0,0,0,.026-1.464,1.254,1.254,0,0,0-.137-1.349.367.367,0,0,1-.041-.392.517.517,0,0,0-.474-.716,1.17,1.17,0,0,0-.739.276.146.146,0,0,1-.131,0,.82.82,0,0,0-.512-.081c-.492.1-.679.656-.921,1.04a27.1,27.1,0,0,1-1.52,2.532,2.911,2.911,0,0,1-.536.527c-.4.164-.247-.384-.17-.582.248-.661.745-1.375.31-2.052-.325-.417-.7.635-.88.834l-.413.611A7.924,7.924,0,0,0,59.3,59.771a4.636,4.636,0,0,1-1.08,2.7,5.176,5.176,0,0,1-1.274.752c-.885.437-1.879.87-2.785,1.266.9-.4,1.892-.844,2.774-1.288a5.217,5.217,0,0,0,1.259-.757,2.874,2.874,0,0,0,.739-1.245c.144-.467.2-.956.312-1.436a7.986,7.986,0,0,1,1.37-2.6l.411-.612a3.924,3.924,0,0,1,.63-.917c.418-.249.569.523.551.8a5.438,5.438,0,0,1-.481,1.394c-.318.937.273.349.568-.021A27.634,27.634,0,0,0,63.8,55.278c.279-.513.645-1.286,1.371-1.07.071.008.174.086.227.072a1.234,1.234,0,0,1,.792-.289.621.621,0,0,1,.562.849.267.267,0,0,0,.029.3,1.163,1.163,0,0,1,.289.694,2.446,2.446,0,0,1-.138.729,5.375,5.375,0,0,1-.032,1.465,7.693,7.693,0,0,1-1.2,2.69,28.851,28.851,0,0,1-3.687,4.609c-2.739,2.75-5.435,5.934-9.242,7.2Z" transform="translate(1.494 1)" fill="#b06152"/>
            <path d="M54.159,64.484c-2.287.69-3.175,1.241-3.615,1.861,0,0-.132-1.471,3.5-2.522Z" transform="translate(1.494 1)" fill="#b06152"/>
            <path d="M49.694,48c-3.741.664-5.224,3.579-5.06,6.6.111,2.066.841,6.441,1.26,8.654,5.24.564,7.9-1.754,7.9-1.754l-.5-3.269S52.207,50.738,49.694,48Z" transform="translate(1.494 1)" fill="#a56baa"/>
            <path d="M49.694,48c-3.741.664-5.224,3.579-5.06,6.6.111,2.066.841,6.441,1.26,8.654,5.24.564,7.9-1.754,7.9-1.754l-.5-3.269S52.207,50.738,49.694,48Z" transform="translate(1.494 1)" opacity="0.3"/>
          </g>
        </g>
      </g>
    </g>
    <g id="Bolts">
      <path d="M76.5,51.026l-2.934,1.545L78.68,51.6l-1.757-1.752,7.148-3.05-3.159-1.581,3.907-3.394-6.563,3.438,2.651,1.528-6.091,2.805ZM74,46.937,72.96,46.17l1.678-1.96-1.605-.549.564-2.494-1.136,2.691,1.127.487-1.813,1.964,1.216.869-.91,1.561Zm7.771,7.222-1.619,2.2-2.608-1.4-1.1,1.85-3.267-1.383,3.583,2.791,1.335-1.933,3.138,1.7,1.3-2.391,4.863,1.246Z" transform="translate(1.494 1)" fill="#a56baa"/>
      <path d="M76.5,51.026l-2.934,1.545L78.68,51.6l-1.757-1.752,7.148-3.05-3.159-1.581,3.907-3.394-6.563,3.438,2.651,1.528-6.091,2.805ZM74,46.937,72.96,46.17l1.678-1.96-1.605-.549.564-2.494-1.136,2.691,1.127.487-1.813,1.964,1.216.869-.91,1.561Zm7.771,7.222-1.619,2.2-2.608-1.4-1.1,1.85-3.267-1.383,3.583,2.791,1.335-1.933,3.138,1.7,1.3-2.391,4.863,1.246Z" transform="translate(1.494 1)" fill="#fff" opacity="0.45"/>
    </g>
    <g id="Speech_Bubble" data-name="Speech Bubble">
      <g id="Speech_Bubble-2" data-name="Speech Bubble">
        <path d="M83.571,101.936a23.358,23.358,0,0,1-1.3-33.171,23.846,23.846,0,0,1,33.458-1.288,23.359,23.359,0,0,1,1.3,33.172A23.848,23.848,0,0,1,83.571,101.936Z" transform="translate(1.494 1)" fill="#fff"/>
        <path d="M116.633,66.509A25.208,25.208,0,0,0,85.348,64.37l-.009,0a25,25,0,0,0-7.228,7.734l-.048-.045.031.074a24.681,24.681,0,0,0,4.571,30.767,25.189,25.189,0,0,0,35.34-1.36A24.67,24.67,0,0,0,116.633,66.509Zm.4,34.14a23.849,23.849,0,0,1-33.46,1.287,23.361,23.361,0,0,1-1.3-33.172,23.848,23.848,0,0,1,33.458-1.288A23.361,23.361,0,0,1,117.03,100.649Z" transform="translate(1.494 1)" fill="#37474f"/>
        <path d="M85.037,66.1a19.09,19.09,0,0,0-5.509,5.894l-.036-.034-3.113-7.253a.856.856,0,0,1,1.066-1.142Z" transform="translate(1.494 1)" fill="#37474f"/>
      </g>
      <g>
        <path d="M79.929,75.8C79.594,75.8,80,86,78.822,86h1.4C80.161,81.359,80.123,75.8,79.929,75.8Zm1.436,4.334A44.817,44.817,0,0,0,80.909,86H81.7C81.606,83.4,81.545,80.132,81.365,80.132Zm-.93,12.017A48.262,48.262,0,0,0,80.909,86h-.691A52.808,52.808,0,0,0,80.435,92.149Zm1.521-3.029c.322,0,.017-3.125.829-3.125H81.7A13.164,13.164,0,0,0,81.956,89.12Zm2.215-12.329c-.319,0-.14,9.2-.656,9.2h.943C84.4,81.608,84.345,76.791,84.171,76.791ZM87.019,86c.015,5.1.041,9.767.165,9.767.274,0,.415-9.767.747-9.767Zm-.856,0h.856C87,79.862,87,73.107,86.86,73.107,86.606,73.107,86.378,86,86.163,86Zm-1.485,7.032c.268,0,.127-7.032.865-7.032H84.458C84.506,89.661,84.556,93.027,84.678,93.027Z" transform="translate(1.494 1)" fill="#a56baa" opacity="0.3"/>
        <path d="M77.779,86h1.043c1.18,0,.772-10.2,1.107-10.2s.2,16.351.506,16.351.632-12.017.93-12.017.27,8.988.591,8.988S81.974,86,82.785,86h.73c.516,0,.337-9.2.656-9.2s.238,16.236.507,16.236S84.805,86,85.543,86h.62c.215,0,.443-12.888.7-12.888s.05,22.655.324,22.655S87.6,86,87.931,86h1.445" transform="translate(1.494 1)" fill="none" stroke="#a56baa" stroke-linecap="round" stroke-miterlimit="10" stroke-width="0.886"/>
      </g>
      <g>
        <path d="M118.866,86h1.4c-1.181,0-.773-10.2-1.107-10.2C118.96,75.8,118.923,81.359,118.866,86Zm-1.479,0h.788a44.817,44.817,0,0,0-.456-5.863C117.539,80.132,117.478,83.4,117.387,86Zm1.479,0h-.691a48.364,48.364,0,0,0,.473,6.154A52.408,52.408,0,0,0,118.866,86Zm-1.479,0H116.3c.811,0,.507,3.125.829,3.125A13.164,13.164,0,0,0,117.387,86Zm-2.761,0h.943c-.516,0-.337-9.2-.656-9.2C114.739,76.791,114.684,81.608,114.626,86Zm-3.473,0c.332,0,.473,9.767.747,9.767.124,0,.15-4.669.165-9.767Zm1.071-12.888c-.139,0-.141,6.755-.159,12.888h.856C112.706,86,112.478,73.107,112.224,73.107ZM114.626,86h-1.085c.738,0,.6,7.032.865,7.032C114.528,93.027,114.578,89.661,114.626,86Z" transform="translate(1.494 1)" fill="#a56baa" opacity="0.3"/>
        <path d="M121.305,86h-1.043c-1.181,0-.773-10.2-1.107-10.2s-.2,16.351-.507,16.351-.631-12.017-.929-12.017-.27,8.988-.591,8.988S117.11,86,116.3,86h-.73c-.516,0-.337-9.2-.656-9.2s-.239,16.236-.507,16.236S114.279,86,113.541,86h-.62c-.215,0-.443-12.888-.7-12.888s-.051,22.655-.324,22.655S111.485,86,111.153,86h-1.445" transform="translate(1.494 1)" fill="none" stroke="#a56baa" stroke-linecap="round" stroke-miterlimit="10" stroke-width="0.886"/>
      </g>
      <g id="Heart">
        <g>
          <path d="M99.92,73.106A1.55,1.55,0,0,0,98.8,71.465a1.4,1.4,0,0,0-.5-.057l.148-1.369s-.271-.434-1.393-.488-1.34.273-1.34.273l-.738,5.922-2.15-.434c-.836.326-.8,1.79-.555,2l2.543.574-.189,1.894,2.722.216.773-4.926a8.33,8.33,0,0,0,1.489-1.32A1.119,1.119,0,0,0,99.92,73.106Z" transform="translate(1.494 1)" fill="#a56baa"/>
          <path d="M99.92,73.106A1.55,1.55,0,0,0,98.8,71.465a1.4,1.4,0,0,0-.5-.057l.148-1.369s-.271-.434-1.393-.488-1.34.273-1.34.273l-.738,5.922-2.15-.434c-.836.326-.8,1.79-.555,2l2.543.574-.189,1.894,2.722.216.773-4.926a8.33,8.33,0,0,0,1.489-1.32A1.119,1.119,0,0,0,99.92,73.106Z" transform="translate(1.494 1)" opacity="0.15"/>
          <path d="M99.559,73.81c-.095.108-.366.314-1.03.238a1.63,1.63,0,0,1-1.232-.973,3.675,3.675,0,0,1-.714.7c-.565.461-.756.334-.778.117s.073-.819.24-2.292.374-1.865,1.078-2.041l-.075-.006c-1.121-.054-1.34.273-1.34.273l-.738,5.922a3.86,3.86,0,0,1,.665.235,1.678,1.678,0,0,1,.559.451.722.722,0,0,1,.22.65c-.173.509-1.318.4-2.451.163s-1.7-.342-1.847-.648a1.067,1.067,0,0,0,.149.712l2.543.574-.189,1.894,2.722.216.773-4.926a11.642,11.642,0,0,0,1.4-1.189Z" transform="translate(1.494 1)" opacity="0.1"/>
          <path d="M98.336,74.023a1.552,1.552,0,0,1-1.125-1.641,1.115,1.115,0,0,1,.511-.8,1.3,1.3,0,0,1,1.073-.122,1.55,1.55,0,0,1,1.125,1.641,1.113,1.113,0,0,1-.51.8A1.307,1.307,0,0,1,98.336,74.023Z" transform="translate(1.494 1)" fill="#a56baa"/>
          <path d="M99.64,73.066a.9.9,0,0,1-1.222.689,1.284,1.284,0,0,1-.927-1.333.9.9,0,0,1,1.223-.689A1.282,1.282,0,0,1,99.64,73.066Z" transform="translate(1.494 1)" fill="#a56baa"/>
          <path d="M99.64,73.066a.9.9,0,0,1-1.222.689,1.284,1.284,0,0,1-.927-1.333.9.9,0,0,1,1.223-.689A1.282,1.282,0,0,1,99.64,73.066Z" transform="translate(1.494 1)" opacity="0.3"/>
          <path d="M98.989,73.776l0-.014a1.282,1.282,0,0,0-.927-1.332,1.086,1.086,0,0,0-.571-.022l0,.014a1.284,1.284,0,0,0,.927,1.333A1.1,1.1,0,0,0,98.989,73.776Z" transform="translate(1.494 1)" opacity="0.3"/>
          <path d="M96.031,73.3a6.565,6.565,0,0,0,.763-.689,6.7,6.7,0,0,0,.659-.787c-.257.229-.5.473-.732.718S96.251,73.036,96.031,73.3Zm1.225,2.279c-.28.181-.557.364-.824.566a6.287,6.287,0,0,0,.879-.481,6.765,6.765,0,0,0,.8-.6C97.818,75.224,97.536,75.4,97.256,75.579Z" transform="translate(1.494 1)" fill="#a56baa"/>
          <path d="M96.031,73.3a6.565,6.565,0,0,0,.763-.689,6.7,6.7,0,0,0,.659-.787c-.257.229-.5.473-.732.718S96.251,73.036,96.031,73.3Zm1.225,2.279c-.28.181-.557.364-.824.566a6.287,6.287,0,0,0,.879-.481,6.765,6.765,0,0,0,.8-.6C97.818,75.224,97.536,75.4,97.256,75.579Z" transform="translate(1.494 1)" opacity="0.5"/>
          <g opacity="0.1">
            <path d="M99.559,73.81a.3.3,0,0,0,.044-.063Z" transform="translate(1.494 1)"/>
          </g>
        </g>
        <g>
          <path d="M97.988,76.513a8.527,8.527,0,0,1,2.913-2.929c1.065-.629,1.405-.611,1.452-.851s.4-2.46.4-2.46a1.205,1.205,0,0,1,.823-.083c.585.086.7.3.7.3l-.412,2.64a.084.084,0,0,0,.026.077h0a.088.088,0,0,0,.146-.04l.19-.681s.146-.131.621-.031a.664.664,0,0,1,.548.47l-.323,1.494a4.233,4.233,0,0,1,.446,2.2l-2.228,7.31-7.414-2.221A19.728,19.728,0,0,1,97.988,76.513Z" transform="translate(1.494 1)" fill="#a56baa"/>
          <path d="M97.988,76.513a8.527,8.527,0,0,1,2.913-2.929c1.065-.629,1.405-.611,1.452-.851s.4-2.46.4-2.46a1.205,1.205,0,0,1,.823-.083c.585.086.7.3.7.3l-.412,2.64a.084.084,0,0,0,.026.077h0a.088.088,0,0,0,.146-.04l.19-.681s.146-.131.621-.031a.664.664,0,0,1,.548.47l-.323,1.494a4.233,4.233,0,0,1,.446,2.2l-2.228,7.31-7.414-2.221A19.728,19.728,0,0,1,97.988,76.513Z" transform="translate(1.494 1)" fill="#fff" opacity="0.1"/>
          <path d="M100.043,78.429c-.911,1-1.458.412-1.7-.115-.433-.963,1.444-3.855,2.781-4.782l.036-.1c-.083.046-.169.095-.263.15a8.527,8.527,0,0,0-2.913,2.929,19.728,19.728,0,0,0-2.1,5.195l7.414,2.221,2.228-7.31C103.128,75.163,100.954,77.423,100.043,78.429Z" transform="translate(1.494 1)" opacity="0.1"/>
          <path d="M99.993,79.243s-1.318,1.465-2.057.419-.322-2.292.338-3.59q-.153.22-.286.441a19.728,19.728,0,0,0-2.1,5.195l3.076.922Z" transform="translate(1.494 1)" opacity="0.1"/>
          <path d="M103.58,70.19a1.205,1.205,0,0,0-.823.083s-.358,2.219-.4,2.46c-.023.116-.115.172-.324.27.486-.215.727-.165.774-.456.05-.312.125-.852.217-1.448S103.192,70.168,103.58,70.19Z" transform="translate(1.494 1)" opacity="0.1"/>
          <path d="M104.044,73.351c.139.118.219.193.307.275s-.027-.232.068-.561c.056-.194.134-.459.188-.644a.54.54,0,0,0-.372.066l-.19.681a.088.088,0,0,1-.146.04.084.084,0,0,1-.026-.077C103.854,73.251,103.905,73.233,104.044,73.351Z" transform="translate(1.494 1)" opacity="0.1"/>
        </g>
        <g>
          <path d="M109.87,78.255a9.168,9.168,0,0,1-3.148-1.131,3.983,3.983,0,0,0-4.761.306,31.381,31.381,0,0,0-4.173,4.3c-1.156,1.325-4.083,3.022-5.518,4.47a5.283,5.283,0,0,0-.463,7.053,21.112,21.112,0,0,0,5.075,4.984c.83.637,3.369,2.681,5.338,2.047s4.536-2.432,5.57-7.109-.41-6.789-.774-7.536c-.7-1.445-2.849-3.1-2.515-4.2a1.538,1.538,0,0,1,2.092-1.134,7.167,7.167,0,0,0,2.139.479,1.724,1.724,0,0,0,1.043-.818C110.181,79.327,110.327,78.332,109.87,78.255Z" transform="translate(1.494 1)" fill="#a56baa"/>
          <path d="M109.87,78.255a9.168,9.168,0,0,1-3.148-1.131,3.983,3.983,0,0,0-4.761.306,31.381,31.381,0,0,0-4.173,4.3c-1.156,1.325-4.083,3.022-5.518,4.47a5.283,5.283,0,0,0-.463,7.053,21.112,21.112,0,0,0,5.075,4.984c.83.637,3.369,2.681,5.338,2.047s4.536-2.432,5.57-7.109-.41-6.789-.774-7.536c-.7-1.445-2.849-3.1-2.515-4.2a1.538,1.538,0,0,1,2.092-1.134,7.167,7.167,0,0,0,2.139.479,1.724,1.724,0,0,0,1.043-.818C110.181,79.327,110.327,78.332,109.87,78.255Z" transform="translate(1.494 1)" fill="#fff" opacity="0.25"/>
          <path d="M107.1,93.445c-.114-.269-.095-.571-.184-.848-.1-.326-.4-.448-.642-.659a4.9,4.9,0,0,1-.55-.706,1.422,1.422,0,0,0-.76-.513,1.235,1.235,0,0,1-.554-.223,1.313,1.313,0,0,1-.28-.521,2.053,2.053,0,0,1-.136-.923q.1-.549.228-1.093c.039-.16.117-.682.375-.6.215.069.219.4.242.577a1.12,1.12,0,0,0,.211.6c.149.176.4.328.361.592,0,.013.013,0,.014,0a.606.606,0,0,0-.209-.5,1.1,1.1,0,0,1-.213-.3,1.152,1.152,0,0,1-.066-.338,2.2,2.2,0,0,0-.1-.6.971.971,0,0,1-.016-.748,2.131,2.131,0,0,0,.362-.7c.039-.175-.26-.284-.385-.222a2.072,2.072,0,0,0-.542.539c-.284.313-.627.566-.974.2a3.838,3.838,0,0,0-.48-.515,1.225,1.225,0,0,0-.628-.2.913.913,0,0,1-.763-.33c-.006-.009-.016.01-.014.016.213.561,1.019.358,1.381.746a1.128,1.128,0,0,1,.28.57c.053.344-.306.487-.551.649a.623.623,0,0,1-.38.106c-.259-.011-.5-.126-.761-.143a.727.727,0,0,0-.339.053.853.853,0,0,0-.275.221.826.826,0,0,1-.8.238c-.012,0-.024.024-.012.028a.8.8,0,0,0,.723-.114,1.711,1.711,0,0,1,.339-.247.755.755,0,0,1,.429-.016,1.01,1.01,0,0,1,.608.312c.166.2.029.494-.1.674a2.676,2.676,0,0,0-.286.411c-.1.206-.084.442-.17.649-.068.163-.158.319-.227.486a.892.892,0,0,1-.452.505c-.158.066-.386.066-.461.247,0,.01,0,.015.009,0,.086-.184.375-.16.537-.246a1.264,1.264,0,0,0,.49-.585,2.346,2.346,0,0,0,.307-.546,1.368,1.368,0,0,1,.274-.59c.127-.143.3-.238.419-.39a3.136,3.136,0,0,0,.264-.566,1.838,1.838,0,0,1,.3-.414c.174-.184.581-.516.853-.349.168.1.094.331.057.479-.069.276-.124.552-.207.824a2.5,2.5,0,0,1-.57.981,1.728,1.728,0,0,0-.379.674,1.36,1.36,0,0,1-.325.653,3.154,3.154,0,0,1-.477.357,1.535,1.535,0,0,0-.771.916c-.058.252-.075.516-.3.681-.178.129-.392.2-.567.331a3.172,3.172,0,0,0-.748,1.036,4.065,4.065,0,0,1-.315.526,1.92,1.92,0,0,1-.528.463,2.5,2.5,0,0,0-.572.422.878.878,0,0,0-.171.3,1.776,1.776,0,0,1-.147.426c-.225.34-.774.436-.854.875,0,.012.011,0,.013,0,.086-.4.59-.485.832-.762.167-.19.157-.455.3-.655a1.483,1.483,0,0,1,.537-.394,2.51,2.51,0,0,0,.541-.357,2.67,2.67,0,0,0,.38-.462,6.86,6.86,0,0,1,.769-1.1,2.469,2.469,0,0,1,.567-.361.825.825,0,0,0,.42-.5,2.277,2.277,0,0,1,.221-.692,1.627,1.627,0,0,1,.428-.386,2.27,2.27,0,0,0,.888-.819c.109-.23.286-1.111.719-.935.165.068.2.252.243.4.056.207.131.409.17.621a3.718,3.718,0,0,1,0,.81,2.267,2.267,0,0,0,.07.591l0,.035a1.709,1.709,0,0,1-.1.385,5.455,5.455,0,0,1-.355.632,3.114,3.114,0,0,0-.213.618,1.5,1.5,0,0,1-.36.645s-.006.02,0,.014a1.1,1.1,0,0,0,.342-.5,3.033,3.033,0,0,1,.311-.618,3.716,3.716,0,0,1,.276-.3c.089-.1.1-.187.244-.108a.316.316,0,0,1,.128.162,1.11,1.11,0,0,1,.026.558,8.345,8.345,0,0,1-.26,1.056,1.631,1.631,0,0,0,.095,1.347c.006.009.018-.012.013-.019a1.581,1.581,0,0,1-.008-1.387c.07-.191.11-.595.373-.5a1.326,1.326,0,0,1,.38.277,1.236,1.236,0,0,1,.126.135.581.581,0,0,1,.117.189s.009,0,.006-.007c-.036-.052-.055-.118-.088-.173-.023-.038-.048-.076-.074-.113-.075-.106-.148-.215-.222-.323a1.327,1.327,0,0,1-.193-.347,2.652,2.652,0,0,1-.066-.4,1.817,1.817,0,0,0-.019-.293c-.047-.317-.155-.625-.22-.939l0-.033a.226.226,0,0,0-.034-.147,1.789,1.789,0,0,1-.021-.293,6.826,6.826,0,0,0,.027-.821c0-.035-.01-.07-.015-.106a.846.846,0,0,0,.167.11c.317.161.715.123,1,.359a1.956,1.956,0,0,1,.5.781,3.3,3.3,0,0,1,.109.707c.031.174.091.341.113.516a1.166,1.166,0,0,1-.054.571c-.006.018.011.035.023.014a.945.945,0,0,0,.09-.483,4.7,4.7,0,0,0-.059-.529.588.588,0,0,1,.082-.516c.149-.143.406.136.515.229a.787.787,0,0,1,.259.565,1.642,1.642,0,0,0,.111.453C107.088,93.477,107.105,93.455,107.1,93.445Z" transform="translate(1.494 1)" fill="#a56baa"/>
          <path d="M98.325,90.854c-.191-.237-.493-.416-.608-.707a1.844,1.844,0,0,0-.146-.415c-.088-.128-.219-.216-.3-.35a1.013,1.013,0,0,1-.144-.44,1.234,1.234,0,0,1,.2-.8.17.17,0,0,1,.08-.068c.108-.035.3.272.373.338a1.715,1.715,0,0,0,.562.293,1.177,1.177,0,0,1,.387.191.73.73,0,0,1,.159.23c.011.021.032-.012.031-.025a.721.721,0,0,0-.346-.44c-.206-.14-.459-.2-.657-.351a2.3,2.3,0,0,1-.634-.872.218.218,0,0,1-.014-.16c.037-.093.144-.078.223-.073a1.876,1.876,0,0,0,.318,0,1.136,1.136,0,0,1,.62.064s.011-.009.007-.012a1.439,1.439,0,0,0-.586-.163,3.829,3.829,0,0,1-1.453-.433,2.18,2.18,0,0,1-.519-.376,1.157,1.157,0,0,1-.288-.532,2.143,2.143,0,0,1,.032-.676,1.528,1.528,0,0,0-.014-.364.428.428,0,0,0-.225-.349.044.044,0,0,0-.056.014c-.079.12-.008.216.01.342a1.443,1.443,0,0,1,0,.335,2.715,2.715,0,0,1-.175.867,1.6,1.6,0,0,1-.281.376c-.084.091-.164.173-.257.257-.067.06-.132.123-.194.189a.613.613,0,0,0-.2.131A1.835,1.835,0,0,0,94,87.1a1.483,1.483,0,0,0-.18.264.976.976,0,0,1-.289.4,2.582,2.582,0,0,0-.5.377,1.193,1.193,0,0,0-.285.546c0,.019.016.02.022,0a1.149,1.149,0,0,1,.386-.565,2.045,2.045,0,0,1,.326-.176,1.019,1.019,0,0,0,.154-.08c.076-.058.148-.186.219-.023a.4.4,0,0,1-.051.288c-.079.178-.206.331-.287.509-.179.393-.044.838-.187,1.236-.133.371-.614.7-.456,1.137.007.018.027-.012.023-.026-.143-.435.365-.706.516-1.053.168-.387.094-.836.3-1.209a5.629,5.629,0,0,0,.308-.511c.085-.2.093-.416.159-.62.049-.153.6-1.123.818-.839.06.078.019.215.025.306a2.92,2.92,0,0,0,.409,1.038c0,.009.014,0,.012-.011-.068-.18-.128-.364-.194-.545a1.207,1.207,0,0,1-.094-.516c.014-.16.028-.494.163-.606a.2.2,0,0,1,.156-.041.369.369,0,0,1,.1.038,1.188,1.188,0,0,1,.178.147,2.116,2.116,0,0,0,.254.164c.362.2.888.353,1.014.8a2.423,2.423,0,0,1-.163,1.3c-.086.3-.209.593-.275.9a1.955,1.955,0,0,0,.031.864,3,3,0,0,1,.129.9c0,.023.025.01.026-.006a3.581,3.581,0,0,0-.128-1.027,1.4,1.4,0,0,1,.193-1.051.392.392,0,0,1,.08-.1.032.032,0,0,1,.05,0,.467.467,0,0,1,.119.146,1.061,1.061,0,0,0,.162.188c.054.063.126.114.176.181a.738.738,0,0,1,.094.26,1.329,1.329,0,0,0,.541.683,1.733,1.733,0,0,1,.38.328.674.674,0,0,1,.15.49c-.005.035.031.024.035,0A.942.942,0,0,0,98.325,90.854Z" transform="translate(1.494 1)" fill="#a56baa"/>
          <path d="M101.961,77.43a31.381,31.381,0,0,0-4.173,4.3c-1.156,1.325-4.083,3.022-5.518,4.47a5.283,5.283,0,0,0-.463,7.053,21.112,21.112,0,0,0,5.075,4.984c.83.637,3.369,2.681,5.338,2.047a7.352,7.352,0,0,0,3.673-2.692,4.87,4.87,0,0,1-4.929,1.61c-1.719-.456-4.945-2.637-6.835-7.966-1.435-4.044.883-4.428,3.664-8.314A33.894,33.894,0,0,1,101.961,77.43Z" transform="translate(1.494 1)" fill="#a56baa" opacity="0.4"/>
          <path d="M101.961,77.43a31.381,31.381,0,0,0-4.173,4.3c-1.156,1.325-4.083,3.022-5.518,4.47a5.283,5.283,0,0,0-.463,7.053,21.112,21.112,0,0,0,5.075,4.984c.83.637,3.369,2.681,5.338,2.047a7.352,7.352,0,0,0,3.673-2.692,4.87,4.87,0,0,1-4.929,1.61c-1.719-.456-4.945-2.637-6.835-7.966-1.435-4.044.883-4.428,3.664-8.314A33.894,33.894,0,0,1,101.961,77.43Z" transform="translate(1.494 1)" opacity="0.05"/>
          <path d="M107.283,86.158c-.109-.216-.2-.387-.267-.516-.7-1.445-2.849-3.1-2.515-4.2a2.314,2.314,0,0,1,.16-.394l-.023-.013a3.7,3.7,0,0,0-.559,2.379c.018,1.031-.453,2.7.49,3.425A1.979,1.979,0,0,0,107.283,86.158Z" transform="translate(1.494 1)" opacity="0.1"/>
        </g>
        <g>
          <path d="M97.722,81.794c.309-1.014-.332-1.991-1.338-2.759s-1.576-1.152-1.576-1.152L93.6,77.609s-.672.458-1.465,1.106a9.661,9.661,0,0,0-2.944,4.163c-.743,2.113-.627,4.975,1.685,5.693a6.574,6.574,0,0,1,2.8-2.6C95.107,85.1,97.207,83.482,97.722,81.794Z" transform="translate(1.494 1)" fill="#a56baa"/>
          <path d="M94.657,84.741a2.035,2.035,0,0,1-2.983-.919,4.367,4.367,0,0,1,1.134-4.645c1.316-1.411,1.953-1.3,2-1.3l-1.21-.273s-.672.458-1.465,1.106a9.661,9.661,0,0,0-2.944,4.163c-.743,2.113-.627,4.975,1.685,5.693a6.574,6.574,0,0,1,2.8-2.6,11.717,11.717,0,0,0,3.585-3.207A7.833,7.833,0,0,1,94.657,84.741Z" transform="translate(1.494 1)" opacity="0.1"/>
        </g>
        <g>
          <path d="M105.015,80.579s-.564.284-.693,1.385c-.1.868,0,1.887-.04,2.776-.073,1.516.233,2.074,1.192,2.089a2.337,2.337,0,0,0,2.117-1.078c.5-.791.51-1.156,1.212-1.138.722.018,1.777.04,1.777.04s.483-.864.006-1.436l-2.024-.2,1.924-.425a1.124,1.124,0,0,0,.123-1.125c-.274-.648-.538-.629-.538-.629s-2.485.542-2.876.6a1.28,1.28,0,0,1-1.254-.337A5.025,5.025,0,0,0,105.015,80.579Z" transform="translate(1.494 1)" fill="#a56baa"/>
          <path d="M105.015,80.579s-.564.284-.693,1.385c-.1.868,0,1.887-.04,2.776-.073,1.516.233,2.074,1.192,2.089a2.337,2.337,0,0,0,2.117-1.078c.5-.791.51-1.156,1.212-1.138.722.018,1.777.04,1.777.04s.483-.864.006-1.436l-2.024-.2,1.924-.425a1.124,1.124,0,0,0,.123-1.125c-.274-.648-.538-.629-.538-.629s-2.485.542-2.876.6a1.28,1.28,0,0,1-1.254-.337A5.025,5.025,0,0,0,105.015,80.579Z" transform="translate(1.494 1)" fill="#fff" opacity="0.1"/>
          <path d="M107.591,85.751c.5-.791.51-1.156,1.212-1.138.722.018,1.777.04,1.777.04a1.7,1.7,0,0,0,.089-.2,15.868,15.868,0,0,0-2.2-.068c-.511.055-.618.648-1.115,1.344a2.12,2.12,0,0,1-2.122.761c-.641-.168-.689-1.187-.65-1.8a12.059,12.059,0,0,0-.1-2.223,2.515,2.515,0,0,1,.206-1.574,2.285,2.285,0,0,0-.367,1.067c-.1.868,0,1.887-.04,2.776-.073,1.516.233,2.074,1.192,2.089A2.337,2.337,0,0,0,107.591,85.751Z" transform="translate(1.494 1)" opacity="0.1"/>
          <path d="M108.943,83.057l-.381-.037,1.924-.425a1.124,1.124,0,0,0,.123-1.125c-.007-.017-.014-.032-.021-.048.087.332-.056.635-.649.8-.574.161-.971.252-1.512.395-.468.124-.3.868-.071.956S108.717,83.035,108.943,83.057Z" transform="translate(1.494 1)" opacity="0.1"/>
          <path d="M110.486,82.6a1.107,1.107,0,0,0,.216-.579.49.49,0,0,1-.378.4c-.167.038-1.511.334-1.822.406s-.147.484-.057.478.045-.217.117-.283Z" transform="translate(1.494 1)" opacity="0.1"/>
        </g>
      </g>
    </g>
  </g>
</svg>
