<svg xmlns="http://www.w3.org/2000/svg" viewBox="0 0 152 152">
  <g id="Capa_2" data-name="Capa 2">
    <rect x="1" y="1" width="150" height="150" fill="#fff" stroke="#fff" stroke-miterlimit="10" stroke-width="2"/>
  </g>
  <g id="Capa_1" data-name="Capa 1">
    <g id="Thoughts" opacity="0.25">
      <path d="M58.336,116.422A37.021,37.021,0,0,1,21.945,85.528h0a36.931,36.931,0,1,1,42.509,30.387A37.347,37.347,0,0,1,58.336,116.422Zm.114-73.659a36.934,36.934,0,0,0-6.075.5,36.5,36.5,0,1,0,6.075-.5Z" transform="translate(1.494 1)" fill="#a56baa"/>
      <path d="M72.512,116.418a37.162,37.162,0,1,1,6.147-.51A37.481,37.481,0,0,1,72.512,116.418ZM72.625,42.4a37.208,37.208,0,0,0-6.105.507,36.664,36.664,0,1,0,6.105-.507Z" transform="translate(1.494 1)" fill="#a56baa"/>
      <path d="M88.311,114.726a37.15,37.15,0,1,1,6.109-.507A37.185,37.185,0,0,1,88.311,114.726ZM51.954,83.645A36.859,36.859,0,1,0,82.282,41.219,36.918,36.918,0,0,0,51.954,83.645Z" transform="translate(1.494 1)" fill="#a56baa"/>
      <path d="M59.533,104.406a37.144,37.144,0,1,1,6.11-.506A37.186,37.186,0,0,1,59.533,104.406ZM23.176,73.324A36.859,36.859,0,1,0,53.5,30.9,36.919,36.919,0,0,0,23.176,73.324Z" transform="translate(1.494 1)" fill="#a56baa"/>
      <path d="M65.8,105.787a37.116,37.116,0,1,1,6.109-.506A37.187,37.187,0,0,1,65.8,105.787ZM29.443,74.706A36.859,36.859,0,1,0,59.771,32.281,36.918,36.918,0,0,0,29.443,74.706Z" transform="translate(1.494 1)" fill="#a56baa"/>
      <path d="M67.839,102.762a21.784,21.784,0,1,1,3.6-.3A22.059,22.059,0,0,1,67.839,102.762Zm.045-43.275a21.639,21.639,0,0,0-3.54.293,21.5,21.5,0,1,0,3.54-.293Z" transform="translate(1.494 1)" fill="#a56baa"/>
      <path d="M78.021,87.128a21.755,21.755,0,1,1,3.581-.3A21.795,21.795,0,0,1,78.021,87.128Zm.024-43.273a21.648,21.648,0,0,0-3.54.293,21.511,21.511,0,0,0,3.517,42.73,21.657,21.657,0,0,0,3.54-.293,21.511,21.511,0,0,0-3.517-42.73Z" transform="translate(1.494 1)" fill="#a56baa"/>
      <path d="M73.3,90.765a21.771,21.771,0,1,1,3.581-.3A21.794,21.794,0,0,1,73.3,90.765ZM52.088,72.533a21.509,21.509,0,1,0,17.69-24.747,21.536,21.536,0,0,0-17.69,24.747Z" transform="translate(1.494 1)" fill="#a56baa"/>
      <path d="M83.441,78.371a21.757,21.757,0,1,1,3.581-.3A21.795,21.795,0,0,1,83.441,78.371ZM62.235,60.138a21.535,21.535,0,1,0,3.728-16.031A21.536,21.536,0,0,0,62.235,60.138Z" transform="translate(1.494 1)" fill="#a56baa"/>
      <path d="M75.891,79.887A20.631,20.631,0,0,1,55.583,62.665h0a20.6,20.6,0,1,1,23.7,16.941A20.7,20.7,0,0,1,75.891,79.887ZM55.829,62.624a20.374,20.374,0,1,0,3.527-15.166A20.372,20.372,0,0,0,55.829,62.624Z" transform="translate(1.494 1)" fill="#a56baa"/>
      <path d="M56.6,83.767a21.757,21.757,0,1,1,3.582-.3A21.794,21.794,0,0,1,56.6,83.767Zm.025-43.272a21.639,21.639,0,0,0-3.54.293,21.5,21.5,0,1,0,3.54-.293Z" transform="translate(1.494 1)" fill="#a56baa"/>
      <path d="M71.746,97.1a37.164,37.164,0,1,1,6.148-.51A37.5,37.5,0,0,1,71.746,97.1Zm.114-74.018a37.2,37.2,0,0,0-6.105.507,36.664,36.664,0,1,0,6.105-.507Z" transform="translate(1.494 1)" fill="#a56baa"/>
      <path d="M85.83,100.031a37.167,37.167,0,1,1,6.146-.51A37.478,37.478,0,0,1,85.83,100.031Zm.113-74.018a37.19,37.19,0,0,0-6.105.507,36.664,36.664,0,1,0,6.105-.507Z" transform="translate(1.494 1)" fill="#a56baa"/>
    </g>
    <path id="Shadow" d="M129.558,131.455l-3.826-2.956a18.907,18.907,0,0,1-3.308-3,7.046,7.046,0,0,1-1.441-3.817,2.855,2.855,0,0,1,.28-1.441,4.823,4.823,0,0,1,2.12-1.7A23.817,23.817,0,0,0,125.8,116.9a26.407,26.407,0,0,0,4.189-4.05c2.945-3.541,5.411-7.816,4.546-12.541-.232-1.266-.846-2.832-2.226-3.261a7.022,7.022,0,0,1-.1,3.536c-.468-.067-.662-.612-.793-1.058a10,10,0,0,0-1.843-3.489,2.746,2.746,0,0,0-2.109-1.237,2.356,2.356,0,0,0,.451,1.2,8.489,8.489,0,0,1,1.12,3.982,1.051,1.051,0,0,1-.09.544.408.408,0,0,1-.473.21.6.6,0,0,1-.265-.279,10.292,10.292,0,0,0-3.127-3.475A1.66,1.66,0,0,0,124,96.643a1.247,1.247,0,0,0,.338.832,8.685,8.685,0,0,1,1.57,5.411c-.027.521-.193,1.149-.706,1.283-1.535.4-1.532-2.3-2.1-3.033a.194.194,0,0,0-.362,0,3.578,3.578,0,0,0-.584,1.814,8.393,8.393,0,0,0,.188,2.69c.355,1.5,1.162,3.238-.007,4.569-3.139,3.572-9.569,3.541-13.228.8-1.851-1.39-2.522-3.8-2.917-6.057a5.351,5.351,0,0,0-.609-1.987,4.279,4.279,0,0,0-1.5-1.308c-2.937-1.735-6.469-2.167-9.892-2.356a81.969,81.969,0,0,0-22.269,1.717c-3.293.734-6.792.907-10.146,1.542-2.742.52-5.414,1.192-8.169,1.542a24.835,24.835,0,0,0-8.39,2.4,13.054,13.054,0,0,0-6.62,7.37,4,4,0,0,0-.013,2.881,4.515,4.515,0,0,0,1.926,1.793,20.038,20.038,0,0,0,5.474,2.195c.655.156,1.646.412,1.825,1.176.419,1.782-3.884,2.533-4.882,2.751a17.2,17.2,0,0,1-7.7.1,6.013,6.013,0,0,1-2.741-1.323,2.833,2.833,0,0,1-.9-2.747,14.5,14.5,0,0,1,1.378-2.272c.245-.484.765-2.733-.137-2.883-.5-.083-.779,1.055-1.092,1.313a1.412,1.412,0,0,1-1.9,0,1.606,1.606,0,0,1-.309-.807,4.37,4.37,0,0,1,.708-3.078,4.476,4.476,0,0,1,1.491-1.365c.262-.148,1.445-.39,1.463-.646a.357.357,0,0,0-.061-.2,1.524,1.524,0,0,0-1.238-.612,4.2,4.2,0,0,0-4.071,2.179,1.48,1.48,0,0,1-.231.366.431.431,0,0,1-.395.139.408.408,0,0,1-.274-.3,1.09,1.09,0,0,1,0-.422,17.285,17.285,0,0,1,.713-2.873,10.829,10.829,0,0,0,.849-2.3.337.337,0,0,0-.055-.257.329.329,0,0,0-.225-.086,2.533,2.533,0,0,0-2.059,1.284,11.243,11.243,0,0,0-1.844,3.914c-.068.272-.329.62-.673.474a.509.509,0,0,1-.248-.35,3.09,3.09,0,0,1,.193-1.983c.251-.63.618-1.208.921-1.814.036-.072.069-.166.014-.225a.182.182,0,0,0-.12-.046,1.307,1.307,0,0,0-.889.372,8.157,8.157,0,0,0-2.553,4.507,13.226,13.226,0,0,0,.769,9.588c2.432,4.959,8,7.711,13.181,9.138a41.372,41.372,0,0,0,11.58,1.347c.253,0,.5-.009.758-.017a38.613,38.613,0,0,0,8.316-.939c2.505-.636,5.243-.477,7.838-.572a12.315,12.315,0,0,1,3.694.238,19.706,19.706,0,0,1,3.679,1.761c3.868,1.983,8.234,2.069,12.406,2.963a20.379,20.379,0,0,1,5.287,1.49c1.452.792,2.872,1.8,4.326,2.632a40.26,40.26,0,0,0,5.016,2.572,14.747,14.747,0,0,0,9.158.453,6.754,6.754,0,0,0,3.456-2.163c.443-.522.829-1.091,1.278-1.609a2.434,2.434,0,0,1,1.124-.828,2.562,2.562,0,0,1,1-.02,14.312,14.312,0,0,1,2.2.453c1.383.4,2.693.954,4.119,1.225a13.639,13.639,0,0,0,4.351.16,10.665,10.665,0,0,0,6.585-3.434,3.537,3.537,0,0,0,.818-2.845A5.424,5.424,0,0,0,129.558,131.455Z" transform="translate(1.494 1)" fill="#e0e0e0"/>
    <g id="Character">
      <path d="M66.561,122.743c-5.959-2.186-8.521-5.3-10.2-9.214a17.713,17.713,0,0,1-1.556-6.342,46.314,46.314,0,0,0,11.085.358c5.6-.582,7.563-.945,7.563-.945Z" transform="translate(1.494 1)" fill="#455a64"/>
      <g id="Top">
        <path d="M79.547,66.772c5.006,1.414,7.786,4.231,12.031,9.051,4.614,5.24,6.3,7.494,6.3,7.494L96.69,95.343c-3.7.67-7.562-2.981-13.819-10.346Z" transform="translate(1.494 1)" fill="#37474f"/>
        <g id="Chest">
          <path d="M83.21,79.7c-.042-8.839-2.065-12.386-3.878-13.016A28.451,28.451,0,0,0,65.62,65.317,58.762,58.762,0,0,0,57.628,67.8c-1.61.581-3.865,4.974-4.418,10.222a97.513,97.513,0,0,0-.16,14.937,134.211,134.211,0,0,0,1.255,15.088c11.6,2.839,24.532-.907,30.873-11.815a36.354,36.354,0,0,1-1.4-7.8C83.413,84.593,83.223,82.387,83.21,79.7Z" transform="translate(1.494 1)" fill="#a56baa"/>
          <g id="Head">
            <path d="M65.706,63.385c-.2-2.406-1.667-5.081-2.555-7.239A10.088,10.088,0,0,1,62.092,50.6c.163-1.105.99-2.55,1.84-2.8A5.174,5.174,0,0,1,68.266,41.7a17.542,17.542,0,0,0,2.329-.441c.926-.3,1.189-1,1.962-1.551,1.33-.949,3.422-.8,4.083.867.916-1,2.034-.875,3.3-.436a2.215,2.215,0,0,1,1.481,2.641,2.33,2.33,0,0,1,3.37,1.566c.053.761-.16,1.38.274,2.094a1.16,1.16,0,0,0,1.905.3c.088,1.081-.4,1.859-1.548,1.7a2.433,2.433,0,0,1,.128,2.061,2.219,2.219,0,0,1-2.127,1.355,3.389,3.389,0,0,1-2.118,2.694,24.069,24.069,0,0,1-5.7,1.023l-2.277.274c-.133.015-.812,0-.9.108Z" transform="translate(1.494 1)" fill="#263239"/>
            <g>
              <path d="M63.306,60.171c1.868,1.467,2.941.312,2.941.312L65.182,66.19c3.394,6.6,11.737,5.7,10.2,2.875l.329-2.571a22.849,22.849,0,0,0,2.832.113,4.938,4.938,0,0,0,4.279-3.4,21.443,21.443,0,0,0,.934-8.045,7.007,7.007,0,0,1,.065-1.962,9.185,9.185,0,0,0-.223-4.238c-1.906-1.822-6.789-2.752-11.429-.444a5.016,5.016,0,0,1-2.906,5.5c.029.717-.035,2.516-1.2,2.384-.838-.1-.652-1.154-1.435-2.155a2.69,2.69,0,0,0-3.971-.033C61.19,55.866,61.873,59.045,63.306,60.171Z" transform="translate(1.494 1)" fill="#f8bba7"/>
              <path d="M76.17,61.867c.383.005.76.009,1.145-.014a1.46,1.46,0,0,0,.753-.216.132.132,0,0,0,.056-.181.9.9,0,0,0-.808-.545,1.664,1.664,0,0,0-1.137.333c-.105.089-.544.449-.329.582a.367.367,0,0,0,.18.038Z" transform="translate(1.494 1)" fill="#b26668"/>
              <path d="M75.708,66.494c-2.92-.6-5.134-1.11-6.488-3.378a18.52,18.52,0,0,1-1.481-3.647,14.45,14.45,0,0,0,.892,4.489c.627,1.427,2.353,2.719,6.944,3.51Z" transform="translate(1.494 1)" fill="#f1997a"/>
            </g>
            <g>
              <path d="M75.862,55.044a.833.833,0,1,1-.786-.911A.847.847,0,0,1,75.862,55.044Z" transform="translate(1.494 1)" fill="#263239"/>
              <path d="M73.536,52.537l1.827-.9a1.068,1.068,0,0,1-.484,1.4A.993.993,0,0,1,73.536,52.537Z" transform="translate(1.494 1)" fill="#263239"/>
              <path d="M80.023,51.641l1.955.619a.985.985,0,0,1-1.253.688A1.078,1.078,0,0,1,80.023,51.641Z" transform="translate(1.494 1)" fill="#263239"/>
              <path d="M83.1,55.28a.834.834,0,1,1-.787-.91A.847.847,0,0,1,83.1,55.28Z" transform="translate(1.494 1)" fill="#263239"/>
            </g>
          </g>
        </g>
        <path d="M57.446,67.882c-3.089,1.188-5.736,2.8-6.695,6.905-.993,4.253,1.1,9.579,3.877,15.5,2.173,4.642,5.032,8.053,7.877,8.9S65.594,88.16,65.594,88.16,61.157,73.347,57.446,67.882Z" transform="translate(1.494 1)" fill="#37474f"/>
        <g>
          <path d="M68.041,71.6c-.017,2.208-3.694,8.667-5.542,11.485s-2.4,4.194-2.71,6.6a15.562,15.562,0,0,0,1.918,8.748c.824,1.33,4.35.834,7.216-3.123s3.008-7.58,3.562-12.258c.432-3.646.966-5.805,1.289-7.724.129-.761,1.167-2.758,1.922-5.227s.128-4.251.166-5.272a10.71,10.71,0,0,1,.491-3.075,17.836,17.836,0,0,0,.613-1.863c.329-1.559-.11-2.167-.513-2.308.2-1.1.023-1.8-.606-2.067.156-.98-.451-1.749-.929-1.518s-1.072,1.324-1.072,1.324a1.853,1.853,0,0,0-1.166.15,28.91,28.91,0,0,0-2.621,2.879c-.844.9-.8,2.08-1.34,3.617a5.138,5.138,0,0,0-.9-1.3c-.586-.6-1.759-.507-1.417.691a23.6,23.6,0,0,1,.689,5.049,29.61,29.61,0,0,0,.951,5.184" transform="translate(1.494 1)" fill="#f8bba7"/>
          <path d="M77.141,58.5a1.691,1.691,0,0,0-.186-.58.948.948,0,0,0-.4-.384,3.509,3.509,0,0,0,.039-1.126,1.435,1.435,0,0,0-.216-.583,1.116,1.116,0,0,0-.425-.364,1.933,1.933,0,0,0-.1-.919,1.365,1.365,0,0,0-.265-.44.716.716,0,0,0-.487-.247.761.761,0,0,0-.489.236,3.016,3.016,0,0,0-.332.368,6.435,6.435,0,0,0-.49.75,1.885,1.885,0,0,0-1.09.14,3.547,3.547,0,0,0-.857.777c-.5.565-.966,1.152-1.454,1.718-.122.142-.245.282-.371.418a2.992,2.992,0,0,0-.353.459,4,4,0,0,0-.441,1.056c-.184.67-.315,1.343-.526,1.992a5.407,5.407,0,0,0-.379-.611c-.089-.122-.183-.241-.284-.355a1.968,1.968,0,0,0-.334-.322,1.158,1.158,0,0,0-.9-.215.651.651,0,0,0-.407.269.793.793,0,0,0-.117.468,5.748,5.748,0,0,0,.195.887c.07.289.128.581.181.874.1.586.181,1.178.243,1.771.131,1.184.136,2.387.354,3.568a34.457,34.457,0,0,0,.794,3.5,34.684,34.684,0,0,1-.731-3.506c-.2-1.178-.172-2.377-.3-3.569-.059-.6-.131-1.191-.234-1.782-.051-.295-.108-.59-.177-.882a5.962,5.962,0,0,1-.186-.86.658.658,0,0,1,.1-.387.516.516,0,0,1,.322-.209,1.024,1.024,0,0,1,.787.2,1.853,1.853,0,0,1,.307.3q.144.166.273.346a5.174,5.174,0,0,1,.451.755l.082.174.065-.18c.256-.713.4-1.458.6-2.172a3.84,3.84,0,0,1,.427-1.009,2.753,2.753,0,0,1,.335-.429c.129-.138.254-.279.378-.42.494-.567.964-1.152,1.462-1.707a3.449,3.449,0,0,1,.8-.725,1.722,1.722,0,0,1,1.031-.106l.079.015.038-.068a7.184,7.184,0,0,1,.511-.785,2.8,2.8,0,0,1,.305-.343.564.564,0,0,1,.343-.183c.249.011.464.281.565.55a1.77,1.77,0,0,1,.086.888l-.011.077.07.03a.929.929,0,0,1,.407.325,1.244,1.244,0,0,1,.189.5,3.452,3.452,0,0,1-.043,1.131l-.013.077.074.026a1,1,0,0,1,.543.851,3.673,3.673,0,0,1-.04,1.125,15.677,15.677,0,0,1-.683,2.2,9.824,9.824,0,0,0-.416,2.291,7.326,7.326,0,0,0-.015,1.167c.036.388.093.769.131,1.152a9.541,9.541,0,0,1-.008,2.3,12.073,12.073,0,0,1-.569,2.231c-.246.731-.519,1.453-.8,2.17l-.428,1.076a6.863,6.863,0,0,0-.359,1.1,6.958,6.958,0,0,1,.378-1.093l.447-1.068c.3-.712.585-1.43.844-2.159a11.216,11.216,0,0,0,.6-2.242,9.672,9.672,0,0,0,.023-2.325c-.036-.385-.09-.769-.124-1.15a7.205,7.205,0,0,1,.022-1.146,9.731,9.731,0,0,1,.423-2.254,15.663,15.663,0,0,0,.7-2.216A3.82,3.82,0,0,0,77.141,58.5Z" transform="translate(1.494 1)" fill="#b26668"/>
          <path d="M61.707,98.433a1.387,1.387,0,0,0,.743.491,2.776,2.776,0,0,0,.89.071,5.151,5.151,0,0,0,1.721-.5,8.054,8.054,0,0,0,1.532-.961,10.683,10.683,0,0,0,1.342-1.229,13.62,13.62,0,0,0,2.112-2.985A15.254,15.254,0,0,0,71.372,89.9a58.163,58.163,0,0,0,1.129-7.29q.236-1.835.572-3.653c.222-1.213.486-2.417.7-3.63-.2,1.216-.452,2.423-.659,3.637s-.394,2.432-.539,3.655a58.666,58.666,0,0,1-1.045,7.322,15.467,15.467,0,0,1-1.315,3.467c-.144.274-.29.548-.456.81l-.241.4-.26.384A13.242,13.242,0,0,1,68.145,96.5a11.041,11.041,0,0,1-1.353,1.294,7.981,7.981,0,0,1-1.612.968,4.649,4.649,0,0,1-1.832.43,2.439,2.439,0,0,1-.934-.157A1.346,1.346,0,0,1,61.707,98.433Z" transform="translate(1.494 1)" fill="#f28f8f"/>
          <path d="M70.648,61.748a15.33,15.33,0,0,1,.218-1.823,4.474,4.474,0,0,1,.773-1.7A33.122,33.122,0,0,1,73.9,55.441a32.854,32.854,0,0,1-2,2.975,5.1,5.1,0,0,0-.8,1.573C70.935,60.557,70.831,61.165,70.648,61.748Z" transform="translate(1.494 1)" fill="#f1997a"/>
          <path d="M75.744,55.569a.554.554,0,0,0-.453.074,1.1,1.1,0,0,0-.277.375c-.151.281-.252.595-.39.9-.266.608-.531,1.059-.827,1.645a8.442,8.442,0,0,0-.412.872c-.106.3-.193.623-.293.935q-.282.947-.612,1.884c.1-.655.218-1.3.366-1.949.072-.324.15-.641.245-.968a7.923,7.923,0,0,1,.415-.922c.3-.588.58-1.03.889-1.608a8.9,8.9,0,0,1,.483-.873,1.2,1.2,0,0,1,.367-.364A.552.552,0,0,1,75.744,55.569Z" transform="translate(1.494 1)" fill="#f1997a"/>
          <path d="M76.346,57.631a.525.525,0,0,0-.341.141,1.148,1.148,0,0,0-.21.306,5.837,5.837,0,0,0-.291.71,11.547,11.547,0,0,1-.463,1.421c-.113.238-.231.473-.351.7a6.315,6.315,0,0,0-.327.693c-.183.478-.336.978-.5,1.479a7.243,7.243,0,0,1,.253-1.561,11.324,11.324,0,0,1,.624-1.453c.225-.469.31-.893.524-1.378a4.089,4.089,0,0,1,.391-.7,1.238,1.238,0,0,1,.293-.289A.5.5,0,0,1,76.346,57.631Z" transform="translate(1.494 1)" fill="#f1997a"/>
          <path d="M68.719,61.968c-.016.633-.069,1.252-.129,1.875a16.976,16.976,0,0,1-.275,1.861,10.15,10.15,0,0,1,.031-1.886A8.565,8.565,0,0,1,68.719,61.968Z" transform="translate(1.494 1)" fill="#f1997a"/>
        </g>
        <g>
          <path d="M90.122,69.653c.187,2.084,4.159,7.9,6.122,10.415s2.592,3.774,3.07,6.027A14.731,14.731,0,0,1,98.18,94.5c-.675,1.32-4.043,1.124-7.055-2.39s-3.427-6.924-4.312-11.3c-.69-3.41-1.362-5.407-1.816-7.194-.18-.709-1.316-2.514-2.219-4.787s-.45-4-.565-4.965a10.116,10.116,0,0,0-.7-2.865,17.118,17.118,0,0,1-.723-1.712c-.432-1.446-.064-2.055.306-2.219-.271-1.022-.162-1.7.411-2-.223-.913.291-1.686.761-1.5s1.114,1.167,1.114,1.167a1.75,1.75,0,0,1,1.113.052,27.09,27.09,0,0,1,2.7,2.515c.867.784.921,1.9,1.546,3.311a4.888,4.888,0,0,1,.75-1.293c.507-.613,1.622-.615,1.392.543a22.28,22.28,0,0,0-.26,4.821,28.027,28.027,0,0,1-.5,4.968" transform="translate(1.494 1)" fill="#f8bba7"/>
          <path d="M80.514,57.987a1.6,1.6,0,0,1,.132-.562.9.9,0,0,1,.348-.394,3.354,3.354,0,0,1-.124-1.06,1.377,1.377,0,0,1,.159-.567,1.058,1.058,0,0,1,.373-.376,1.842,1.842,0,0,1,.021-.876,1.3,1.3,0,0,1,.217-.435.676.676,0,0,1,.441-.272.715.715,0,0,1,.479.186,2.754,2.754,0,0,1,.342.321,6.1,6.1,0,0,1,.521.67,1.792,1.792,0,0,1,1.04.048,3.381,3.381,0,0,1,.87.668c.516.494,1,1.013,1.506,1.509.125.125.253.247.382.366a2.8,2.8,0,0,1,.369.406,3.783,3.783,0,0,1,.5.963c.226.619.4,1.244.651,1.84a5.244,5.244,0,0,1,.311-.606,4.28,4.28,0,0,1,.24-.357,1.832,1.832,0,0,1,.291-.33,1.1,1.1,0,0,1,.837-.274.626.626,0,0,1,.4.223.755.755,0,0,1,.147.433,5.6,5.6,0,0,1-.116.853c-.044.278-.076.558-.1.839-.054.562-.08,1.126-.093,1.691-.031,1.128.057,2.265-.058,3.4a32.749,32.749,0,0,1-.478,3.363,32.9,32.9,0,0,0,.418-3.367c.1-1.128-.021-2.258.009-3.394.01-.567.032-1.134.083-1.7.026-.283.056-.565.1-.847a5.643,5.643,0,0,0,.109-.827.618.618,0,0,0-.121-.357.487.487,0,0,0-.32-.172.961.961,0,0,0-.727.247,1.664,1.664,0,0,0-.267.307c-.083.112-.16.229-.231.348a4.72,4.72,0,0,0-.367.749l-.065.169-.075-.164c-.3-.653-.487-1.346-.732-2.005a3.656,3.656,0,0,0-.481-.919,2.607,2.607,0,0,0-.349-.379q-.2-.181-.39-.368c-.51-.5-1-1.013-1.512-1.5a3.29,3.29,0,0,0-.811-.622,1.628,1.628,0,0,0-.982-.02l-.074.02-.041-.061a6.735,6.735,0,0,0-.543-.7,2.6,2.6,0,0,0-.314-.3.541.541,0,0,0-.339-.147c-.234.03-.415.3-.49.564a1.668,1.668,0,0,0-.013.845l.017.072-.065.033a.873.873,0,0,0-.358.339,1.174,1.174,0,0,0-.14.49,3.289,3.289,0,0,0,.128,1.064l.018.072-.067.03a.955.955,0,0,0-.447.846,3.475,3.475,0,0,0,.125,1.059,14.851,14.851,0,0,0,.815,2.023,9.27,9.27,0,0,1,.57,2.131,6.831,6.831,0,0,1,.1,1.1c0,.369-.028.733-.034,1.1a9.061,9.061,0,0,0,.186,2.168,11.473,11.473,0,0,0,.709,2.062c.289.671.6,1.332.928,1.987l.488.983A6.53,6.53,0,0,1,85,73.621a6.43,6.43,0,0,0-.441-1l-.5-.975c-.337-.649-.663-1.305-.964-1.973a10.623,10.623,0,0,1-.744-2.07,9.139,9.139,0,0,1-.2-2.193c0-.367.026-.734.028-1.1a6.713,6.713,0,0,0-.109-1.08,9.182,9.182,0,0,0-.575-2.1,14.866,14.866,0,0,1-.834-2.039A3.652,3.652,0,0,1,80.514,57.987Z" transform="translate(1.494 1)" fill="#b26668"/>
          <path d="M98.18,94.5a1.318,1.318,0,0,1-.663.521,2.632,2.632,0,0,1-.835.136,4.876,4.876,0,0,1-1.664-.339,7.642,7.642,0,0,1-1.52-.789,10.2,10.2,0,0,1-1.363-1.056,12.919,12.919,0,0,1-2.225-2.655A14.474,14.474,0,0,1,88.393,87.2a55.284,55.284,0,0,1-1.63-6.8q-.363-1.715-.823-3.405c-.3-1.128-.646-2.244-.943-3.373.285,1.132.614,2.253.905,3.383s.559,2.266.791,3.409a55.52,55.52,0,0,0,1.554,6.833,14.673,14.673,0,0,0,1.51,3.172c.158.248.316.495.493.729l.258.357.276.343a12.627,12.627,0,0,0,1.167,1.325,10.437,10.437,0,0,0,1.378,1.118,7.656,7.656,0,0,0,1.6.789,4.425,4.425,0,0,0,1.764.264,2.31,2.31,0,0,0,.87-.221A1.274,1.274,0,0,0,98.18,94.5Z" transform="translate(1.494 1)" fill="#f28f8f"/>
          <path d="M86.9,60.556a14.811,14.811,0,0,0-.348-1.7,4.248,4.248,0,0,0-.861-1.541,30.953,30.953,0,0,0-2.353-2.457,31.058,31.058,0,0,0,2.117,2.655,4.821,4.821,0,0,1,.874,1.423C86.534,59.454,86.679,60.019,86.9,60.556Z" transform="translate(1.494 1)" fill="#f1997a"/>
          <path d="M81.616,55.116a.524.524,0,0,1,.434.035,1.026,1.026,0,0,1,.29.332c.164.254.284.543.438.82.3.553.574.959.9,1.49a8.049,8.049,0,0,1,.457.792c.124.275.23.573.349.86q.34.87.724,1.73c-.143-.611-.307-1.215-.5-1.811-.092-.3-.191-.593-.306-.895a7.383,7.383,0,0,0-.464-.839c-.332-.531-.617-.927-.954-1.449a8.4,8.4,0,0,0-.524-.787,1.147,1.147,0,0,0-.374-.316A.525.525,0,0,0,81.616,55.116Z" transform="translate(1.494 1)" fill="#f1997a"/>
          <path d="M81.2,57.119a.5.5,0,0,1,.333.107,1.094,1.094,0,0,1,.222.273,5.32,5.32,0,0,1,.329.648c.189.451,1.191,2.345,1.3,2.562.209.438.393.9.582,1.359a6.853,6.853,0,0,0-.361-1.455,10.672,10.672,0,0,0-.631-1.331c-.249-.426-.434-.8-.673-1.243a3.863,3.863,0,0,0-.423-.631,1.185,1.185,0,0,0-.3-.25A.482.482,0,0,0,81.2,57.119Z" transform="translate(1.494 1)" fill="#f1997a"/>
          <path d="M88.736,60.614c.064.6.162,1.178.267,1.761a16.089,16.089,0,0,0,.4,1.736,9.623,9.623,0,0,0-.176-1.779A8.089,8.089,0,0,0,88.736,60.614Z" transform="translate(1.494 1)" fill="#f1997a"/>
        </g>
        <path d="M81.433,58.421,78.488,59.6l-.675-5.713C78.9,53.539,80.188,56.2,81.433,58.421Z" transform="translate(1.494 1)" fill="#f1997a"/>
        <path d="M76.287,50.931a.657.657,0,0,0-.227-.081c-.062-.007-.15.009-.17.079a.109.109,0,0,0,.016.089c.009.012.077.073.085.059-.033.011-.027.022.019.034l.037.019.072.038a.784.784,0,0,1,.116.082.519.519,0,0,1,.153.23.8.8,0,0,1,.035.269c0,.048,0,.095,0,.143,0,.022,0,.043,0,.065a.142.142,0,0,0,.021.072.635.635,0,0,0,.023.178c.015.049.077.107.122.056a.352.352,0,0,0,.057-.09,1.229,1.229,0,0,0,.1-.231,1.016,1.016,0,0,0,.027-.275.859.859,0,0,0-.132-.443A.886.886,0,0,0,76.287,50.931Zm3.076.693c0-.019.007-.039.012-.059a.969.969,0,0,1,.038-.119l0,0,.012-.024c.009-.017.018-.032.028-.048a1.248,1.248,0,0,0,.108-.173c.052-.123-.1-.208-.207-.171l-.165.115-.016.019-.021.025a.461.461,0,0,0-.036.054,1.012,1.012,0,0,0-.071.144.988.988,0,0,0-.066.289.869.869,0,0,0,.026.3.592.592,0,0,0,.094.194c.013.019.025.038.04.056a.273.273,0,0,0,.122.089c.079.033.227,0,.206-.115a.258.258,0,0,0-.021-.087s-.018-.032-.014-.026a.322.322,0,0,1-.03-.071c-.008-.038-.021-.089-.03-.133l-.008-.036v0c0-.02,0-.04-.006-.06a.9.9,0,0,1,0-.127Z" transform="translate(1.494 1)" fill="#f1997a"/>
      </g>
      <g>
        <path d="M98.848,128.875a8.385,8.385,0,0,1-1.586-3.983c-.265-2.129-.728-6.985-1.249-11.665s-1.464-15.257-2.6-21.187c-.579-3.016-1.878-6.265-4-6.308-1.615-.033-6.118,1.06-7.776,6.986a22.22,22.22,0,0,0,0,13.988c.837,2.959,5.941,13.8,6.629,15.814a11.692,11.692,0,0,1,.693,2.448V129Z" transform="translate(1.494 1)" fill="#f4a6a7"/>
        <g>
          <path d="M88.269,131.726c-.062,2.039,2.469,2.513,3.653,3.115a4.551,4.551,0,0,1,2.371,2.382c2.43,3.879,6.4,4.92,11.5,4.066,3.582-.747,3.939-3.3,2.6-4.427C107.62,136.614,88.269,131.726,88.269,131.726Z" transform="translate(1.494 1)" fill="#263239"/>
          <path d="M88.961,124.968c-.342.031-.535.223-.5.825.079,1.473-.748,4.159-.19,5.933,1.081,2.261,4.7,2.214,5.987,3.9s2.493,3.8,6.552,4.484,7.086-.681,7.8-1.85,0-2.233-2.624-3.557c-2.787-1.406-6.525-5.721-6.527-5.723a19.333,19.333,0,0,1-1.323-1.782,2.233,2.233,0,0,1-.268-.955q-.1-.587-.2-1.172a1.147,1.147,0,0,0-.172-.508.936.936,0,0,0-.594-.306,4.487,4.487,0,0,0-1.686.093q-.548.11-1.09.247a3.677,3.677,0,0,0-1.444.623,1.217,1.217,0,0,0-.4.534,1.532,1.532,0,0,0-.063.482,8.867,8.867,0,0,0,.138,1.559c.021.121.016.287-.1.316a.224.224,0,0,1-.2-.081,10.324,10.324,0,0,1-.594-.9,3.591,3.591,0,0,0-1.582-.8,1.9,1.9,0,0,1-.823-.55Z" transform="translate(1.494 1)" fill="#37474f"/>
          <path d="M98.167,139.218c-.351-3.44,5.5-7.08,8.693-4.511,1.131.767,2.764,2.388,1.834,3.625C107.241,141.02,99.57,140.867,98.167,139.218Z" transform="translate(1.494 1)" fill="#fbfbfb"/>
          <g>
            <path d="M93.733,129.9c.729-.475,2.433-2.536,4.924-1.971C98.231,125.466,91.817,129.584,93.733,129.9Z" transform="translate(1.494 1)" fill="#fbfbfb"/>
            <path d="M99.928,129.5c-.9-2.2-5.093,1.257-5.054,1.491-.252.371.353.726.587.362C95.784,130.88,97.838,129.116,99.928,129.5Z" transform="translate(1.494 1)" fill="#fbfbfb"/>
            <path d="M103.383,132.874c-.99-2.531-7,1.351-5.283,1.856C98.842,134.237,100.781,131.963,103.383,132.874Z" transform="translate(1.494 1)" fill="#fbfbfb"/>
            <path d="M96.644,133.12c.726-.472,2.386-2.486,4.852-1.985C100.7,128.81,94.878,132.8,96.644,133.12Z" transform="translate(1.494 1)" fill="#fbfbfb"/>
          </g>
        </g>
        <path d="M105.777,123.428c-.374-1.473-3.458-7.625-4.83-10.411-1.685-3.421-5.035-10.371-5.189-16.676s1.417-8.867,3.09-10.777c1.928-2.2,5.5-2.372,7.092.879,4.041,8.226,5.6,21.121,6.308,25.8s1.7,11.752,1.7,11.752a11.427,11.427,0,0,0,1.714,3.522h-9.88Z" transform="translate(1.494 1)" fill="#f4a6a7"/>
        <g>
          <path d="M75.934,121.451c5.464.675,11.375-2.749,14.6-5.077,3.7-2.669,8.469-6.386,8.469-6.386l5.668,11.3a9.868,9.868,0,0,0,5.463.365c3.177-.636,3.809-2.251,3.809-2.251s-1.92-13.1-2.918-18.076a95.746,95.746,0,0,0-3.2-12.972c-.713-1.961-2.609-4.8-5.77-4.916s-4.919,1.1-10.645,4.916c-3.88,2.581-18.19,16.163-19.665,17.989S66.817,120.326,75.934,121.451Z" transform="translate(1.494 1)" fill="#37474f"/>
          <path d="M107.251,121.8c-.179-.539-1.239-3.341-1.422-3.877-.354-1.055-2.7-8.926-3.034-10.118q-.519-1.856-.907-3.743-.348-1.677-.589-3.378-.123-.864-.219-1.731c-.061-.565-.088-1.142-.193-1.7a2.292,2.292,0,0,0-.724-1.366,1.37,1.37,0,0,0-1.309-.3,2.105,2.105,0,0,0-1.033.948c-.317.5-.606,1.026-.886,1.547-1.157,2.138-2.138,4.363-3.3,6.5a23.573,23.573,0,0,1-3.692,5.252,11.783,11.783,0,0,1-5.064,3.227,8.767,8.767,0,0,1-5.567-.179,6.453,6.453,0,0,1-2.347-1.573,7.982,7.982,0,0,1-1.041-1.4,13.579,13.579,0,0,1-.7-1.33c-.219-.475-.436-.954-.658-1.429-.05-.111-.275-.117-.222.037a16.267,16.267,0,0,0,1.364,3.034,7.16,7.16,0,0,0,2.03,2.233,8.169,8.169,0,0,0,5.339,1.3,10.54,10.54,0,0,0,5.4-2.14A17.84,17.84,0,0,0,92.646,107a57.741,57.741,0,0,0,3.343-6.246c.534-1.084,1.081-2.165,1.678-3.214a5.794,5.794,0,0,1,.891-1.351.931.931,0,0,1,1.279-.076,2.087,2.087,0,0,1,.7,1.422c.087.573.121,1.157.187,1.733q.195,1.7.5,3.381c.338,1.906.787,3.8,1.281,5.667.918,3.47,1.93,6.883,3.058,10.284a24.968,24.968,0,0,0,1.227,3.181c.153.018.313.033.481.045Z" transform="translate(1.494 1)" fill="#263239"/>
          <path d="M97.322,95.184c-1.762,4.281-1.534,10.091.336,15.846l1.347-1.042C96.738,104.593,97.1,98.573,97.322,95.184Z" transform="translate(1.494 1)" fill="#263239"/>
        </g>
        <g>
          <path d="M68.12,123.14a11.963,11.963,0,0,0,10.751-3.02c2.95-2.67,4.777-7.657,4.777-7.657l4.214,10.456a9.868,9.868,0,0,0,5.463.365c3.177-.635,3.81-2.251,3.81-2.251s-.967-13.793-1.62-18.826c-.92-7.1-1.78-11.251-2.492-13.212A7.141,7.141,0,0,0,86.9,84.4c-3.162-.116-5.773,1.379-9.021,4.72S64.471,104.666,63,106.492s-5.549,8.008-5.549,8.008S59.132,121.244,68.12,123.14Z" transform="translate(1.494 1)" fill="#455a64"/>
          <path d="M68.12,123.14a11.963,11.963,0,0,0,10.751-3.02c2.95-2.67,4.777-7.657,4.777-7.657l4.214,10.456a9.868,9.868,0,0,0,5.463.365c3.177-.635,3.81-2.251,3.81-2.251s-.967-13.793-1.62-18.826c-.92-7.1-1.78-11.251-2.492-13.212A7.141,7.141,0,0,0,86.9,84.4c-3.162-.116-5.773,1.379-9.021,4.72S64.471,104.666,63,106.492s-5.549,8.008-5.549,8.008S59.132,121.244,68.12,123.14Z" transform="translate(1.494 1)" fill="#455a64"/>
          <path d="M90.347,123.462a24.149,24.149,0,0,1-1.266-3.267c-1.128-3.4-2.141-6.814-3.058-10.284-.494-1.866-.943-3.761-1.282-5.667q-.3-1.685-.494-3.381c-.066-.576-.1-1.16-.188-1.733a2.092,2.092,0,0,0-.695-1.422.931.931,0,0,0-1.279.076,5.794,5.794,0,0,0-.891,1.351c-.6,1.049-1.144,2.13-1.678,3.214a57.924,57.924,0,0,1-3.344,6.246,17.854,17.854,0,0,1-4.16,4.607,10.544,10.544,0,0,1-5.4,2.14,8.172,8.172,0,0,1-5.339-1.3,7.185,7.185,0,0,1-2.03-2.233,16.329,16.329,0,0,1-1.363-3.034c-.053-.154.171-.148.222-.037.222.475.438.954.658,1.43a13.452,13.452,0,0,0,.7,1.329,8.037,8.037,0,0,0,1.042,1.4,6.445,6.445,0,0,0,2.347,1.573,8.764,8.764,0,0,0,5.566.179,11.78,11.78,0,0,0,5.065-3.227,23.573,23.573,0,0,0,3.692-5.252c1.158-2.136,2.138-4.361,3.3-6.5.28-.521.568-1.044.885-1.547a2.108,2.108,0,0,1,1.034-.948,1.368,1.368,0,0,1,1.308.3,2.282,2.282,0,0,1,.724,1.366c.106.56.133,1.137.193,1.7s.138,1.155.22,1.732c.161,1.131.357,2.259.589,3.377q.389,1.888.907,3.743c.33,1.192,2.68,9.063,3.034,10.118.182.537,1.242,3.338,1.422,3.877.008.024.021.059.037.1Z" transform="translate(1.494 1)" fill="#37474f"/>
          <path d="M80.511,96.82c-1.762,4.281-1.114,10.9,2.177,17.833.62-1.265.96-2.19.96-2.19C81.381,107.068,80.287,100.209,80.511,96.82Z" transform="translate(1.494 1)" fill="#37474f"/>
        </g>
        <g>
          <path d="M105.781,130.288c.1,2.037,2.666,2.3,3.895,2.806a4.55,4.55,0,0,1,2.558,2.179c2.738,3.668,6.78,4.381,11.791,3.113,3.508-1.037,3.656-3.616,2.234-4.625C125.467,133.577,105.781,130.288,105.781,130.288Z" transform="translate(1.494 1)" fill="#263239"/>
          <path d="M105.777,123.428c-.291.142-.374.333-.292.931.2,1.461-.405,4.206.3,5.929,1.262,2.165,4.865,1.822,6.285,3.395s2.8,3.579,6.9,3.933,7.006-1.257,7.622-2.481-.181-2.226-2.906-3.331c-2.893-1.172-6.97-5.168-6.972-5.17a19.185,19.185,0,0,1-1.465-1.668,2.239,2.239,0,0,1-.345-.929l-.294-1.153a1.147,1.147,0,0,0-.213-.492.935.935,0,0,0-.617-.256,4.494,4.494,0,0,0-1.673.231q-.537.153-1.066.335a3.676,3.676,0,0,0-1.388.738,1.22,1.22,0,0,0-.357.565,1.553,1.553,0,0,0-.024.486,8.9,8.9,0,0,0,.266,1.543c.03.119.038.284-.078.324a.224.224,0,0,1-.2-.066,10.1,10.1,0,0,1-.666-.85,3.6,3.6,0,0,0-1.642-.667,1.9,1.9,0,0,1-.865-.481Z" transform="translate(1.494 1)" fill="#37474f"/>
          <path d="M116.258,136.945c-.631-3.4,4.9-7.506,8.3-5.206,1.19.672,2.95,2.154,2.125,3.463C125.448,138,117.791,138.475,116.258,136.945Z" transform="translate(1.494 1)" fill="#fbfbfb"/>
          <g>
            <path d="M111.077,128.021c.688-.533,2.217-2.727,4.747-2.367C115.2,123.234,109.142,127.862,111.077,128.021Z" transform="translate(1.494 1)" fill="#fbfbfb"/>
            <path d="M117.219,127.119c-1.081-2.12-4.973,1.67-4.916,1.9-.22.39.412.694.616.313C113.2,128.83,115.1,126.9,117.219,127.119Z" transform="translate(1.494 1)" fill="#fbfbfb"/>
            <path d="M120.937,130.2c-1.193-2.443-6.864,1.918-5.113,2.281C116.523,131.926,118.27,129.5,120.937,130.2Z" transform="translate(1.494 1)" fill="#fbfbfb"/>
            <path d="M114.242,130.992c.685-.529,2.174-2.672,4.673-2.375C117.927,126.366,112.455,130.817,114.242,130.992Z" transform="translate(1.494 1)" fill="#fbfbfb"/>
          </g>
        </g>
      </g>
    </g>
    <path d="M48.078,49.849a9.648,9.648,0,0,0-2.931,1.356,17.488,17.488,0,0,0-2.383,1.9,7.863,7.863,0,0,0-2.7,4.942,1.653,1.653,0,0,0,.4,1.343,1.961,1.961,0,0,0,1.14.492,5.355,5.355,0,0,0,2.844-.554,10.286,10.286,0,0,0,2.5-1.706,10.533,10.533,0,0,0,2.008-2.279,5.083,5.083,0,0,0,.607-1.333A.544.544,0,0,0,49.4,53.4a.986.986,0,0,0-.663-.129,4.462,4.462,0,0,0-2.6,1.523,14.613,14.613,0,0,0-2.009,2.4,13.9,13.9,0,0,0-.811,1.358,3.864,3.864,0,0,0-.489,1.539A2.146,2.146,0,0,0,44.365,62.2a4.816,4.816,0,0,0,3.167-.252,7.519,7.519,0,0,0,2.533-1.572A4.224,4.224,0,0,0,51.5,57.888c.047-.412-.035-.932-.5-1.06s-.889.265-1.2.564a4.038,4.038,0,0,0-1.492,2.35,1.854,1.854,0,0,0,1.023,1.9c.921.36,1.762-.371,2.239-1.089a1.6,1.6,0,0,0,.337-1.329.183.183,0,0,0-.268-.088,2,2,0,0,0-.839,1.493,1.055,1.055,0,0,0,.2.789,1.219,1.219,0,0,0,.883.286,2.534,2.534,0,0,0,1.71-.744,4.5,4.5,0,0,0,.649-.782,5.628,5.628,0,0,0,.5-.847,1.159,1.159,0,0,0,.074-.884.773.773,0,0,0-.575-.506c-.616-.105-1.088.531-1.268,1.039a4.1,4.1,0,0,0-.164,1.834,1.577,1.577,0,0,0,.966,1.274,1.935,1.935,0,0,0,1.741-.119A2.632,2.632,0,0,0,56.647,60.4c.037-.119-.181-.248-.222-.117a2.242,2.242,0,0,1-2,1.694,1.405,1.405,0,0,1-1.108-.568,2.451,2.451,0,0,1-.207-1.579,2.277,2.277,0,0,1,.487-1.319c.163-.182.466-.418.723-.281a.61.61,0,0,1,.24.616,2.1,2.1,0,0,1-.341.787,6.659,6.659,0,0,1-.46.681,2.929,2.929,0,0,1-1.275,1,1.786,1.786,0,0,1-.892.1.559.559,0,0,1-.4-.2A.789.789,0,0,1,51.1,60.8a1.749,1.749,0,0,1,.761-1.449l-.269-.088a1.625,1.625,0,0,1-.472,1.327,2.155,2.155,0,0,1-1,.793c-.747.234-1.3-.407-1.436-1.085a2.587,2.587,0,0,1,.854-2.166,5.425,5.425,0,0,1,.941-.883c.154-.1.377-.209.527-.043a.79.79,0,0,1,.115.586,3.776,3.776,0,0,1-1.269,2.273,7.049,7.049,0,0,1-2.2,1.454,5.053,5.053,0,0,1-2.781.439,1.9,1.9,0,0,1-1.634-1.622,2.878,2.878,0,0,1,.339-1.419,11.086,11.086,0,0,1,.671-1.2,14.294,14.294,0,0,1,1.7-2.2,13.506,13.506,0,0,1,1.022-.98,4.44,4.44,0,0,1,1.1-.735c.192-.083,1.116-.394,1.091.025a1.943,1.943,0,0,1-.2.6,5.394,5.394,0,0,1-.29.579,9.118,9.118,0,0,1-1.71,2.051,11.329,11.329,0,0,1-2.16,1.64,5.89,5.89,0,0,1-2.509.8c-.72.044-1.647-.113-1.8-.957a3.37,3.37,0,0,1,.1-1.271,5.956,5.956,0,0,1,.412-1.2A8.461,8.461,0,0,1,42.433,54a14.766,14.766,0,0,1,1.936-1.771A14.416,14.416,0,0,1,46.7,50.707,8.372,8.372,0,0,1,48.24,50.1a.119.119,0,0,0,.058-.179.194.194,0,0,0-.22-.072Z" transform="translate(1.494 1)" fill="#455a64"/>
    <g>
      <g>
        <path d="M110.631,61.788a3.709,3.709,0,0,1-1.378,2.224c-1.6,1.268-3.721,1.24-5.66,1.146a3.318,3.318,0,0,0-1.223.112,1.482,1.482,0,0,0-.844.777c-.194.381-.344.8-.758,1a2.232,2.232,0,0,1-1.265.077c-.723-.11-1.658-.341-2.262.223-.325.306-.379.75-.6,1.115a1.351,1.351,0,0,1-.905.592,1.575,1.575,0,0,1-.405.03,1.356,1.356,0,0,0,.823-.715c.4-.77.283-1.834.95-2.458a2.365,2.365,0,0,1,1.106-.487,3.827,3.827,0,0,0,1.158-.414c.9-.566-.176-1.723-.65-2.2A8.481,8.481,0,0,1,97,60.605a4.413,4.413,0,0,1-.423-2.636c.318-1.883,2.343-2.879,4.034-3.256a8.884,8.884,0,0,1,5.587.6,9.742,9.742,0,0,1,2.344,1.515,6.7,6.7,0,0,1,1.7,2.175A4.625,4.625,0,0,1,110.631,61.788Z" transform="translate(1.494 1)" fill="#fff"/>
        <path d="M110.946,60.661a6.472,6.472,0,0,0-2.86-4.54,9.414,9.414,0,0,0-5.384-1.885,7.79,7.79,0,0,0-5.3,1.733,3.486,3.486,0,0,0-.83,1.043,3.405,3.405,0,0,0-.339,1.247,4.794,4.794,0,0,0,.578,2.631,6.761,6.761,0,0,0,.785,1.151c.3.364.65.687.98,1.026a3.24,3.24,0,0,1,.8,1.142.627.627,0,0,1,.04.341.492.492,0,0,1-.269.283,2.624,2.624,0,0,1-.575.229,8.4,8.4,0,0,0-1.186.36,1.726,1.726,0,0,0-.865.882,7.345,7.345,0,0,0-.342,1.27,1.961,1.961,0,0,1-.61,1.155,1.009,1.009,0,0,1-.858.183.141.141,0,0,1-.031-.014.084.084,0,0,0-.037-.012.518.518,0,0,1-.18-.131c-.068-.075-.2-.019-.124.07a.855.855,0,0,0,.3.22l.014.007a1.75,1.75,0,0,0,1.981-.217,4.372,4.372,0,0,0,.6-1.1,1.217,1.217,0,0,1,1.069-.547c.826-.021,1.668.379,2.482.089a1.506,1.506,0,0,0,.832-.842,1.646,1.646,0,0,1,.814-.954,3.051,3.051,0,0,1,1.286-.112c.541.028,1.083.053,1.624.042a7.877,7.877,0,0,0,2.928-.555,4.657,4.657,0,0,0,2.02-1.581A4.05,4.05,0,0,0,110.946,60.661Zm-.315,1.127a3.709,3.709,0,0,1-1.378,2.224c-1.6,1.268-3.721,1.24-5.66,1.146a3.318,3.318,0,0,0-1.223.112,1.482,1.482,0,0,0-.844.777c-.194.381-.344.8-.758,1a2.232,2.232,0,0,1-1.265.077c-.723-.11-1.658-.341-2.262.223-.325.306-.379.75-.6,1.115a1.351,1.351,0,0,1-.905.592,1.575,1.575,0,0,1-.405.03,1.356,1.356,0,0,0,.823-.715c.4-.77.283-1.834.95-2.458a2.365,2.365,0,0,1,1.106-.487,3.827,3.827,0,0,0,1.158-.414c.9-.566-.176-1.723-.65-2.2A8.481,8.481,0,0,1,97,60.605a4.413,4.413,0,0,1-.423-2.636c.318-1.883,2.343-2.879,4.034-3.256a8.884,8.884,0,0,1,5.587.6,9.742,9.742,0,0,1,2.344,1.515,6.7,6.7,0,0,1,1.7,2.175A4.625,4.625,0,0,1,110.631,61.788Z" transform="translate(1.494 1)" fill="#455a64"/>
      </g>
      <path d="M101.839,57.149a11.27,11.27,0,0,0,.93,1.332c.3.409.6.815.89,1.225s.568.8.847,1.2.555.84.855,1.242a.16.16,0,0,0,.153.05c.3-.057.05-.361-.044-.5-.15-.221-.3-.441-.452-.66q-.476-.685-.962-1.363c-.31-.431-.62-.862-.94-1.286a10.955,10.955,0,0,0-1.092-1.344c-.082-.079-.248-.019-.185.1Z" transform="translate(1.494 1)" fill="#455a64"/>
      <path d="M106.566,58.073q-1.644.517-3.271,1.079c-.538.185-1.075.375-1.612.563l-.806.282c-.244.085-.636.151-.8.363a.086.086,0,0,0,.021.105c.167.141.477-.026.65-.087l.806-.281,1.642-.574,1.7-.6c.6-.212,1.182-.454,1.773-.678.11-.042-.016-.2-.106-.17Z" transform="translate(1.494 1)" fill="#455a64"/>
    </g>
    <g>
      <g>
        <path d="M48.93,86.113a1.51,1.51,0,0,1-.452.7,2.824,2.824,0,0,1-1.94.518h-.011a2.461,2.461,0,0,1-2.32-1.993c-.024-.241.026-.481-.006-.722a1.085,1.085,0,0,0-.222-.539,2.021,2.021,0,0,0-1.3-.632,13.7,13.7,0,0,0-1.855-.124c-.663-.013-1.327,0-1.988-.01a15.594,15.594,0,0,1-3.541-.331,6.91,6.91,0,0,1-2.7-1.25,5.814,5.814,0,0,1-1.739-2.58,8.345,8.345,0,0,1,.27-6.224,10.638,10.638,0,0,1,3.98-4.544c1.861-1.2,4.29-1.966,6.442-1.1a7.837,7.837,0,0,1,4.073,4.562,7.5,7.5,0,0,1,.515,3.378,6.069,6.069,0,0,1-.407,1.655c-.217.55-.486,1.081-.685,1.639a3.215,3.215,0,0,0,.088,2.759,1.853,1.853,0,0,0,.457.505,4.219,4.219,0,0,0,.642.354.973.973,0,0,1,.51.494,1.122,1.122,0,0,1-.018.717c-.145.5-.471.909-.648,1.393a1.539,1.539,0,0,0,0,1.3,1.486,1.486,0,0,0,1.226.592,2.36,2.36,0,0,0,1.322-.285A1.571,1.571,0,0,0,48.93,86.113Z" transform="translate(1.494 1)" fill="#fff"/>
        <path d="M49.022,85.4a1.67,1.67,0,0,1-2.246.775c-1.129-.494.034-1.946.269-2.633a1.341,1.341,0,0,0-.153-1.39c-.338-.367-.872-.441-1.218-.8a2.652,2.652,0,0,1-.275-2.725c.2-.561.467-1.089.687-1.642a6.3,6.3,0,0,0,.42-1.657,7.725,7.725,0,0,0-.455-3.4A8.381,8.381,0,0,0,42.1,67.161a7.1,7.1,0,0,0-6.494.566,11.207,11.207,0,0,0-4.332,4.216,8.8,8.8,0,0,0-1.05,6,7.558,7.558,0,0,0,1.248,2.979,5.613,5.613,0,0,0,2.376,1.827c2.194.948,4.61.763,6.944.806a11.544,11.544,0,0,1,1.956.137c.452.085,1,.288,1.141.78a2.692,2.692,0,0,1,.024.706,2.083,2.083,0,0,0,.161.75,2.448,2.448,0,0,0,1,1.118,3.271,3.271,0,0,0,1.512.489h.01a3.546,3.546,0,0,0,1.29-.105,2.231,2.231,0,0,0,.841-.452,1.959,1.959,0,0,0,.618-1.555C49.337,85.259,49.067,85.248,49.022,85.4Zm-.544,1.412a2.824,2.824,0,0,1-1.94.518h-.011a2.461,2.461,0,0,1-2.32-1.993c-.024-.241.026-.481-.006-.722a1.085,1.085,0,0,0-.222-.539,2.021,2.021,0,0,0-1.3-.632,13.7,13.7,0,0,0-1.855-.124c-.663-.013-1.327,0-1.988-.01a15.594,15.594,0,0,1-3.541-.331,6.91,6.91,0,0,1-2.7-1.25,5.814,5.814,0,0,1-1.739-2.58,8.345,8.345,0,0,1,.27-6.224,10.638,10.638,0,0,1,3.98-4.544c1.861-1.2,4.29-1.966,6.442-1.1a7.837,7.837,0,0,1,4.073,4.562,7.5,7.5,0,0,1,.515,3.378,6.069,6.069,0,0,1-.407,1.655c-.217.55-.486,1.081-.685,1.639a3.215,3.215,0,0,0,.088,2.759,1.853,1.853,0,0,0,.457.505,4.219,4.219,0,0,0,.642.354.973.973,0,0,1,.51.494,1.122,1.122,0,0,1-.018.717c-.145.5-.471.909-.648,1.393a1.539,1.539,0,0,0,0,1.3,1.486,1.486,0,0,0,1.226.592,2.36,2.36,0,0,0,1.322-.285,1.571,1.571,0,0,0,.309-.23A1.51,1.51,0,0,1,48.478,86.808Z" transform="translate(1.494 1)" fill="#455a64"/>
      </g>
      <path d="M33.436,75.162c1.263.154,2.541.2,3.81.293s2.536.167,3.8.246l2.177.135a.186.186,0,1,0,.031-.37c-2.533-.151-5.065-.307-7.6-.433-.749-.038-1.5-.084-2.249-.087-.153,0-.1.2.026.216Z" transform="translate(1.494 1)" fill="#455a64"/>
      <path d="M39.478,70.48a6.464,6.464,0,0,0-.284.97c-.08.311-.16.621-.241.932q-.245.948-.49,1.9c-.322,1.247-.639,2.5-.959,3.744l-.549,2.143c-.04.159.258.2.3.035q.96-3.753,1.917-7.507.133-.525.266-1.051a6.332,6.332,0,0,0,.243-1.1c.007-.1-.159-.162-.2-.063Z" transform="translate(1.494 1)" fill="#455a64"/>
    </g>
    <g>
      <path d="M106.978,68.5a2.468,2.468,0,0,0-.66.556q-.321.32-.632.648-.632.668-1.222,1.371a30.931,30.931,0,0,0-2.141,2.888q-.279.426-.544.862a4.323,4.323,0,0,0-.518.953c-.062.208.212.287.339.16a4.028,4.028,0,0,0,.5-.788q.238-.4.49-.784.472-.729.985-1.432a31.6,31.6,0,0,1,2.2-2.684q.33-.362.672-.712a5.093,5.093,0,0,0,.75-.812c.083-.134-.084-.288-.218-.226Z" transform="translate(1.494 1)" fill="#455a64"/>
      <path d="M100.815,77.368a.34.34,0,0,0-.511.189.484.484,0,0,0,.2.5.509.509,0,0,0,.565.041.419.419,0,0,0,.205-.462.4.4,0,0,0-.182-.225.393.393,0,0,0-.161-.049.267.267,0,0,0-.148.014c-.04.021-.075.039-.085.086a.107.107,0,0,0,.1.12l.036,0-.053-.01a.626.626,0,0,0,.061.021l.038,0c-.022,0-.028,0-.016,0l.017,0c.021,0-.037-.011-.008,0s-.009,0-.008,0l.017.009.038.023.014.009s-.029-.023-.011-.007l.024.022s.021.023,0,0,0,0,0,0,.014.023.021.034-.008-.026,0-.01l0,.016.005.019c0,.02,0-.01,0-.009s0,.032,0,.037l0,.018c0,.03.009-.028,0,0l-.012.035s-.009.03,0,.009,0,0,0,0a.262.262,0,0,1-.024.034.086.086,0,0,0-.013.014c0-.011.02-.019,0,0a.375.375,0,0,1-.033.026c-.01.007-.018,0,.009,0l-.017.009c-.007,0-.029.008-.034.014.01-.012.031-.008.007,0l-.023,0c-.031.007.031,0,.009,0H100.8c-.022,0-.012-.011.009,0a.146.146,0,0,0-.036-.009l-.018-.006c-.031-.01.031.016,0,0l-.033-.018-.016-.01s.025.02.008,0a.3.3,0,0,1-.033-.028l-.013-.013-.01-.01c.012.014.015.018.008.009a.476.476,0,0,1-.043-.067c-.01-.018.005,0,0,.006l-.008-.019c0-.017-.009-.034-.013-.05s0,0,0,0l0-.031v-.02s0-.032,0-.014l.006-.019s.013-.027,0-.013l.01-.014c.013-.018-.015.009,0,0l.013-.01c-.014.011-.008.006,0,0s.012.005-.014,0a.064.064,0,0,0,.02,0c.018,0-.041,0-.012,0,.006,0,.031,0,0,0s0,0,0,0-.031-.018-.007,0a.167.167,0,0,0,.211-.024.12.12,0,0,0-.036-.179Z" transform="translate(1.494 1)" fill="#455a64"/>
    </g>
    <g>
      <path d="M25.073,55.554a3.078,3.078,0,0,0,.41.87q.22.4.453.791.456.769.957,1.51a31.043,31.043,0,0,0,2.144,2.806q.324.377.659.742.189.205.379.407a1.656,1.656,0,0,0,.413.376.21.21,0,0,0,.27-.287,1.685,1.685,0,0,0-.292-.34q-.16-.168-.319-.339-.3-.321-.584-.651-.586-.671-1.131-1.373a31.468,31.468,0,0,1-2.014-2.925q-.263-.434-.512-.875-.121-.215-.239-.431a1.444,1.444,0,0,0-.285-.431c-.1-.087-.336,0-.309.15Z" transform="translate(1.494 1)" fill="#455a64"/>
      <path d="M31.878,63.938a.284.284,0,0,0-.111.271.331.331,0,0,0,.159.232.53.53,0,0,0,.559-.03A.464.464,0,0,0,32.706,64a.457.457,0,0,0-.316-.4.408.408,0,0,0-.31.029.342.342,0,0,0-.2.286.128.128,0,0,0,.076.1l.017.007-.077-.09a.294.294,0,0,0,.086.13c.02.018.069.034.092.009a.546.546,0,0,0,.091-.138.248.248,0,0,1,.035-.045s.014-.012,0,0l.015-.013.014-.011.011-.007c.01-.006,0,0-.013.007l.033-.015c.023-.009-.009,0-.012,0a.1.1,0,0,0,.017,0c.005,0,.035,0,.006,0s-.005,0,0,0h.018c.016,0-.04-.01-.007,0l.017.005c.018,0-.029-.015-.013-.006a.372.372,0,0,0,.034.019c.015.008,0,.007-.01-.007l.013.011c.008.006.023.028.031.03-.011,0-.017-.022-.007-.007l.01.014.02.034c.009.016-.01-.025,0-.008l.008.02a.279.279,0,0,1,.01.039c.005.024-.006,0,0-.006v.018c0,.011,0,.023,0,.035v.017c0,.026,0-.009,0-.008l-.013.044-.009.021c-.005.008-.014.014,0,0s0,0,0,0l-.013.019c-.007.01-.015.019-.023.029s-.012,0,.006-.007a.19.19,0,0,0-.021.019c-.009.008-.02.015-.029.022s0,0,.008,0l-.016.009-.038.018-.017.006c-.014.006.036-.01,0,0l-.041.008c-.018,0-.006-.008.013,0h-.019c-.009,0-.031-.006-.039,0,.012-.007.034.006.013,0l-.028-.007-.018-.006c.021.008.026.01.015,0l-.012-.006-.017-.009c-.025-.013.022.022,0,0l-.014-.013c-.021-.02.014.025,0,0l-.008-.015c-.013-.022.006.027,0,0l0-.016,0-.008c0-.014,0-.011,0,.011a.217.217,0,0,0,0-.037c0-.016-.012.03,0,.007l.007-.018c0-.015-.021.023,0,.006s.027-.023,0,0a.124.124,0,0,0,.053-.085.12.12,0,0,0-.034-.1.174.174,0,0,0-.213-.022Z" transform="translate(1.494 1)" fill="#455a64"/>
    </g>
    <g>
      <path d="M56.71,39.833a3.147,3.147,0,0,0-3.628-.293,2.842,2.842,0,0,0-1.326,1.593,1.3,1.3,0,0,0,.606,1.643c.148.058.295-.114.127-.2-.559-.275-.5-1.143-.282-1.62a2.639,2.639,0,0,1,1.38-1.272,2.75,2.75,0,0,1,1.93-.089,2.969,2.969,0,0,1,1.522,1.233,2.939,2.939,0,0,1,.443,2A2.365,2.365,0,0,1,56.27,44.57a20.043,20.043,0,0,0-2.138,1.1,2.013,2.013,0,0,0-.911,1.858,1.173,1.173,0,0,0,1.72.912.82.82,0,0,0,.387-.91.7.7,0,0,0-.92-.451.106.106,0,0,0-.043.151.163.163,0,0,0,.175.067.439.439,0,0,1,.386.23.422.422,0,0,1-.084.539.648.648,0,0,1-.877-.034,1.219,1.219,0,0,1,.095-1.761,6.38,6.38,0,0,1,2.048-1.159A3.075,3.075,0,0,0,57.691,43.6,3.342,3.342,0,0,0,56.71,39.833Z" transform="translate(1.494 1)" fill="#455a64"/>
      <g>
        <path d="M54.752,50.807a.351.351,0,0,0-.066-.134.388.388,0,0,0-.026-.031.194.194,0,0,0-.1-.054.331.331,0,0,0-.131-.024.053.053,0,0,0-.044.031c-.031.1.007.129.036.191l0,.011c0,.023.014.046.019.07l0,.015v.026l0,.033,0,.016c0,.02-.011.018,0,0a.621.621,0,0,0-.023.065l0,.007-.022.03,0,0-.022.017.007,0-.007,0,0,0h0l-.015.007-.029.005h0l-.035,0-.01,0-.036-.012-.014-.007a.379.379,0,0,1-.034-.02l0,0-.015-.013-.025-.025L54.137,51l-.018-.029-.008-.015,0,0v0c0-.012-.007-.023-.009-.035l0-.02c0-.013,0-.025,0-.037l0-.025v-.006l0-.012.01-.028a.3.3,0,0,1,.019-.041l.009-.017,0,0c.01-.013.02-.026.032-.039a.324.324,0,0,1,.08-.067.2.2,0,0,1,.036-.019.5.5,0,0,0,.056-.031l.016,0a.08.08,0,0,0,.065-.111.133.133,0,0,0-.113-.081.258.258,0,0,0-.135,0,.649.649,0,0,0-.074.026.478.478,0,0,0-.112.064.544.544,0,0,0-.171.215.467.467,0,0,0,.075.5.554.554,0,0,0,.472.187.432.432,0,0,0,.365-.288A.492.492,0,0,0,54.752,50.807Z" transform="translate(1.494 1)" fill="#455a64"/>
        <path d="M54.373,51.077l-.007,0,.007,0Z" transform="translate(1.494 1)" fill="#455a64"/>
        <path d="M54.449,50.882c0,.01,0,.013,0,.008v-.008Z" transform="translate(1.494 1)" fill="#455a64"/>
      </g>
    </g>
    <path d="M121.241,76a4.6,4.6,0,0,0-2.172-4.236A5.863,5.863,0,0,0,114,71.331a4.846,4.846,0,0,0-3.219,3.574,3.8,3.8,0,0,0,.363,2.464,4.62,4.62,0,0,0,1.746,1.7,5.328,5.328,0,0,0,2.257.82,1.654,1.654,0,0,0,1.774-1.037,2.375,2.375,0,0,0-.44-2.021,3.219,3.219,0,0,0-1.961-1.254,3.408,3.408,0,0,0-2.357.269,3.451,3.451,0,0,0-1.409,1.64,3.736,3.736,0,0,0-.253,2.653,2.586,2.586,0,0,0,1.515,1.67,1.224,1.224,0,0,0,1.1-.083.78.78,0,0,0,.254-.935,1.784,1.784,0,0,0-1.819-.984,1.978,1.978,0,0,0-1.707,1.047,1.718,1.718,0,0,0,.267,1.789,1.433,1.433,0,0,0,.83.483.121.121,0,1,0,.045-.235,1.345,1.345,0,0,1-.96-1.274,1.409,1.409,0,0,1,.884-1.383,1.788,1.788,0,0,1,1.824.2.871.871,0,0,1,.352.823c-.111.358-.528.359-.825.274a2.245,2.245,0,0,1-1.373-1.439,3.681,3.681,0,0,1,1.308-3.859,2.883,2.883,0,0,1,2-.354,2.974,2.974,0,0,1,1.825.973,2.28,2.28,0,0,1,.58,1.742,1.223,1.223,0,0,1-1.426.926,4.939,4.939,0,0,1-2.054-.77,4.38,4.38,0,0,1-1.553-1.462,3.368,3.368,0,0,1-.424-2.148,4.3,4.3,0,0,1,2.576-3.287,5.677,5.677,0,0,1,4.438-.132,4.5,4.5,0,0,1,2.75,3.244,3.9,3.9,0,0,1,.059,1.028c-.011.144.258.167.273.011Z" transform="translate(1.494 1)" fill="#455a64"/>
    <path d="M39.51,101.438a3.961,3.961,0,0,1-6.321-4.2,5.476,5.476,0,0,1,3.4-3.48,4.963,4.963,0,0,1,4.747.6,2.821,2.821,0,0,1,1.086,2.208,1.922,1.922,0,0,1-1.184,1.832,1.59,1.59,0,0,1-1.933-.526,2.154,2.154,0,0,1,.142-2.348,4.607,4.607,0,0,1,2.158-1.627,3.782,3.782,0,0,1,2.672-.1,2.917,2.917,0,0,1,1.694,1.6,1.778,1.778,0,0,1,.1,1.084.956.956,0,0,1-.591.743c-.412.1-.749-.265-.924-.593a2.176,2.176,0,0,1-.233-1.084,2.511,2.511,0,0,1,1-1.946,2.361,2.361,0,0,1,2.134-.249,2.059,2.059,0,0,1,1.472,1.779.884.884,0,0,1-.762.913c-.191.006-.136.25.038.245a1.113,1.113,0,0,0,1.012-.794,1.715,1.715,0,0,0-.3-1.444,2.8,2.8,0,0,0-2.2-1.158,2.6,2.6,0,0,0-2.212,1.064,2.824,2.824,0,0,0-.437,2.447,1.714,1.714,0,0,0,.8,1.057A.994.994,0,0,0,46,97.291a1.94,1.94,0,0,0,.17-2.334,3.323,3.323,0,0,0-2.11-1.589,4.494,4.494,0,0,0-3.076.448,4.395,4.395,0,0,0-2.126,2.074,2.235,2.235,0,0,0,.474,2.546,2.088,2.088,0,0,0,2.3.135A2.329,2.329,0,0,0,42.776,96.3c-.163-2.086-2.311-3.183-4.2-3.2a6.117,6.117,0,0,0-4.807,2.309,4.949,4.949,0,0,0-1.089,2.817,4.351,4.351,0,0,0,.785,2.607,4.115,4.115,0,0,0,2.193,1.615,4.461,4.461,0,0,0,2.846-.118,3.862,3.862,0,0,0,1.185-.714c.117-.1-.069-.264-.177-.179Z" transform="translate(1.494 1)" fill="#455a64"/>
    <path d="M73.59,28.264c-1.241-1.044-2.944-.232-3.8.9a2.686,2.686,0,0,0-.617,1.895,1.97,1.97,0,0,0,1.408,1.525,4.484,4.484,0,0,0,.774.2,4.368,4.368,0,0,0,.919.1,3.007,3.007,0,0,0,1.658-.607A3.143,3.143,0,0,0,75.141,29.1a2.644,2.644,0,0,0-1.073-1.367A4.857,4.857,0,0,0,72.428,27a4.735,4.735,0,0,0-3.61.389,4.5,4.5,0,0,0-1.382,1.271,6.773,6.773,0,0,0-.822,1.691,5.487,5.487,0,0,0-.166,3.205A4.048,4.048,0,0,0,68.1,35.917a4.324,4.324,0,0,0,3.158.539,4.279,4.279,0,0,0,1.9-.764,3.015,3.015,0,0,0,1.14-1.615,2.61,2.61,0,0,0-.352-1.981,4.26,4.26,0,0,0-1.656-1.4,7.452,7.452,0,0,0-4.607-.833,5.829,5.829,0,0,0-2.069.654,5.3,5.3,0,0,0-1.54,1.332,5.054,5.054,0,0,0-1.081,4.174A3.862,3.862,0,0,0,65.531,38.7a6.408,6.408,0,0,0,2.742.257,7.3,7.3,0,0,0,2.793-.791,2.979,2.979,0,0,0,1.6-1.917,1.812,1.812,0,0,0-.152-1.292,3.3,3.3,0,0,0-1.037-1.064,5.5,5.5,0,0,0-3.093-.977,2.938,2.938,0,0,0-.711.093,1.383,1.383,0,0,0-.651.383,1.729,1.729,0,0,0-.484,1.386,2.893,2.893,0,0,0,.607,1.463,3.536,3.536,0,0,0,.591.613,4.521,4.521,0,0,0,.723.449,7.177,7.177,0,0,0,4.1.91,4.557,4.557,0,0,0,3.559-1.959,2.157,2.157,0,0,0,.244-1.8,2.194,2.194,0,0,0-.673-.954,2.843,2.843,0,0,0-2.1-.634,1.424,1.424,0,0,0-1.361,1.207A2.841,2.841,0,0,0,73.4,36.441a4.255,4.255,0,0,0,5.126-.1,3.071,3.071,0,0,0,1.074-2.6c-.192-2.109-2.522-4.144-4.675-3.595a1.778,1.778,0,0,0-.749.38,2.764,2.764,0,0,0-.555.627,2.2,2.2,0,0,0-.351,1.328A2.465,2.465,0,0,0,74.93,34.57a3.744,3.744,0,0,0,1.685.156,3.131,3.131,0,0,0,1.467-.516A2.539,2.539,0,0,0,79.1,31.805a5.123,5.123,0,0,0-1.763-2.928,7.273,7.273,0,0,0-3.654-2.064,5.661,5.661,0,0,0-3.673.648,4.131,4.131,0,0,0-2.145,2.787,3.232,3.232,0,0,0,.768,3.083,3.54,3.54,0,0,0,1.676.663,5.148,5.148,0,0,0,1.566.085,2.735,2.735,0,0,0,2.1-1.248,3.957,3.957,0,0,0,.268-2.876,4.06,4.06,0,0,0-.274-.907A4.82,4.82,0,0,0,73.5,28.3a5.392,5.392,0,0,0-1.234-1.178,7.753,7.753,0,0,0-3.32-1.252,9.2,9.2,0,0,0-1.755-.088,8.145,8.145,0,0,0-.868.084,3.072,3.072,0,0,0-.8.246,6.114,6.114,0,0,0-2.558,2.169,4.788,4.788,0,0,0-.89,3.092,3.506,3.506,0,0,0,.507,1.508,6,6,0,0,0,1.3,1.361,9.6,9.6,0,0,0,7.647,2.177,6.063,6.063,0,0,0,1.82-.583,3.946,3.946,0,0,0,1.246-1.067,4.837,4.837,0,0,0,.589-4.686,4.087,4.087,0,0,0-1.057-1.459,5.988,5.988,0,0,0-3.6-1.5,4.668,4.668,0,0,0-3.292.953,4.27,4.27,0,0,0-1.5,2.7,4.071,4.071,0,0,0,.881,3.12,6.779,6.779,0,0,0,2.978,2.025,8.482,8.482,0,0,0,3.61.441,7.98,7.98,0,0,0,1.807-.382,7.11,7.11,0,0,0,.794-.325,4.377,4.377,0,0,0,.783-.519c1.87-1.465,3.176-4.019,2.487-6.409a4.841,4.841,0,0,0-.856-1.652,5.221,5.221,0,0,0-1.466-1.174,8.33,8.33,0,0,0-3.73-1.135,6.225,6.225,0,0,0-3.632.811,4.444,4.444,0,0,0-1.912,2.559,4.955,4.955,0,0,0,1,4.516,7.415,7.415,0,0,0,1.408,1.2,6.722,6.722,0,0,0,4.1,1.34,4.5,4.5,0,0,0,3.094-1.491,3,3,0,0,0,.727-1.44,2.41,2.41,0,0,0,0-.83,1.766,1.766,0,0,0-.321-.837,8.359,8.359,0,0,0-1.608-1.352,5.727,5.727,0,0,0-1.944-.841,3.034,3.034,0,0,0-1.98.182A2.955,2.955,0,0,0,70.8,29.718a3.348,3.348,0,0,0-.2,3.194,1.85,1.85,0,0,0,2.478.688,2.019,2.019,0,0,0,1.006-2.432c-.043-.127-.306-.142-.256.007a1.845,1.845,0,0,1-1.071,2.3,1.556,1.556,0,0,1-1.291-.035,1.69,1.69,0,0,1-.844-1.207,3.383,3.383,0,0,1,.828-2.922,2.23,2.23,0,0,1,1.453-.733,3.885,3.885,0,0,1,1.949.369,7.123,7.123,0,0,1,1.719,1.115,4.686,4.686,0,0,1,.71.676,1.786,1.786,0,0,1,.268.818,2.933,2.933,0,0,1-1.419,2.631,4.217,4.217,0,0,1-3.251.714,6.314,6.314,0,0,1-2.046-.715,9.8,9.8,0,0,1-1.645-1.142,4.723,4.723,0,0,1-1.214-5.454,4.253,4.253,0,0,1,2.255-2.149,6.644,6.644,0,0,1,3.542-.362,7.942,7.942,0,0,1,3.343,1.328,6.444,6.444,0,0,1,.683.55,3.355,3.355,0,0,1,.553.732,4.516,4.516,0,0,1,.587,1.612,6.22,6.22,0,0,1-6.019,6.855,8.089,8.089,0,0,1-3.394-.494,6.418,6.418,0,0,1-2.738-1.932,3.848,3.848,0,0,1-.775-2.917,4.054,4.054,0,0,1,1.424-2.545,4.377,4.377,0,0,1,3.1-.9,5.652,5.652,0,0,1,3.357,1.377,3.813,3.813,0,0,1,1.023,1.377,4.651,4.651,0,0,1-.483,4.409,3.786,3.786,0,0,1-1.11,1.029,5.3,5.3,0,0,1-1.643.593,9.213,9.213,0,0,1-7.282-1.779,4.635,4.635,0,0,1-2-2.629,4.283,4.283,0,0,1,.553-2.91,6.012,6.012,0,0,1,2.239-2.263,4.96,4.96,0,0,1,.71-.338,3.034,3.034,0,0,1,.758-.168,8.63,8.63,0,0,1,1.639-.035c2.1.154,4.482,1.078,5.436,3.1a4.18,4.18,0,0,1,.261.893,5.57,5.57,0,0,1,.117.8,3.633,3.633,0,0,1-.137,1.352,2.35,2.35,0,0,1-1.541,1.548,4.838,4.838,0,0,1-2.9-.153,1.949,1.949,0,0,1-1.207-1.02,3.184,3.184,0,0,1-.278-1.532A3.7,3.7,0,0,1,69.506,28.1a5.586,5.586,0,0,1,3.225-1.136,5.748,5.748,0,0,1,3.66,1.382,9.645,9.645,0,0,1,1.428,1.393,4.468,4.468,0,0,1,.843,1.34,2.606,2.606,0,0,1-.269,2.474,3,3,0,0,1-2.68.968,2.354,2.354,0,0,1-2.092-1.541,2.2,2.2,0,0,1,.923-2.415,1.717,1.717,0,0,1,.733-.25,2.69,2.69,0,0,1,.739-.007,3.515,3.515,0,0,1,1.418.527,4.137,4.137,0,0,1,1.835,2.472,2.886,2.886,0,0,1-.679,2.607,3.611,3.611,0,0,1-2.23,1.08,3.937,3.937,0,0,1-2.473-.482,2.812,2.812,0,0,1-1.394-2.09,1.182,1.182,0,0,1,.967-1.3,2.479,2.479,0,0,1,1.909.406,2,2,0,0,1,.681.791,1.89,1.89,0,0,1-.07,1.634,4.16,4.16,0,0,1-3.313,2.019,6.764,6.764,0,0,1-3.907-.75,4.05,4.05,0,0,1-1.286-.937,2.791,2.791,0,0,1-.662-1.383,1.571,1.571,0,0,1,.428-1.353,1.2,1.2,0,0,1,.612-.338,2.8,2.8,0,0,1,.658-.068,5.191,5.191,0,0,1,2.869.948,2.9,2.9,0,0,1,.934.99,1.7,1.7,0,0,1,.073,1.211,2.9,2.9,0,0,1-1.579,1.731,7.116,7.116,0,0,1-2.6.713,6.183,6.183,0,0,1-2.5-.2,3.606,3.606,0,0,1-2.46-2.49,4.847,4.847,0,0,1,1-4,5.207,5.207,0,0,1,1.438-1.285A5.464,5.464,0,0,1,67.64,30.1a7.145,7.145,0,0,1,4.37.7,4.161,4.161,0,0,1,1.68,1.345,2.413,2.413,0,0,1,.334,1.909,2.906,2.906,0,0,1-1.167,1.543,4.259,4.259,0,0,1-1.808.666,3.926,3.926,0,0,1-2.892-.56,3.827,3.827,0,0,1-1.481-2.26,5.317,5.317,0,0,1,.191-3,6.75,6.75,0,0,1,.756-1.585,4.376,4.376,0,0,1,1.285-1.225,4.426,4.426,0,0,1,3.393-.437,4.58,4.58,0,0,1,1.583.685A2.38,2.38,0,0,1,74.9,29.178a2.968,2.968,0,0,1-1.243,2.983,2.739,2.739,0,0,1-1.591.5,4.689,4.689,0,0,1-.856-.125,3.724,3.724,0,0,1-.684-.2,1.616,1.616,0,0,1-1.111-1.429,2.692,2.692,0,0,1,.7-1.726c.8-.96,2.271-1.679,3.374-.768.113.093.215-.055.105-.148Z" transform="translate(1.494 1)" fill="#37474f"/>
    <g>
      <path d="M17.393,82.078c0,.056,3.919,3.847,3.919,3.847l3.243-1.733,4.776,6.8a83.91,83.91,0,0,1-2.979-9.2l-2.683.643L21.593,77.7Z" transform="translate(1.494 1)" fill="#a56baa"/>
      <path d="M17.393,82.078c0,.056,3.919,3.847,3.919,3.847l3.243-1.733,4.776,6.8a83.91,83.91,0,0,1-2.979-9.2l-2.683.643L21.593,77.7Z" transform="translate(1.494 1)" fill="#fff" opacity="0.5"/>
      <path d="M18,82.708c.754.853,1.563,1.66,2.358,2.474.208.213.415.427.623.639a.581.581,0,0,0,.51.233,1.071,1.071,0,0,0,.329-.148l.4-.228.745-.424,1.688-.962-.233-.05q1.693,2.808,3.642,5.446.556.751,1.133,1.487c.091.117.361.045.293-.124a63.768,63.768,0,0,1-2.458-7.26q-.287-1.051-.536-2.11c-.02-.083-.142-.107-.209-.086l-1.914.6c-.143.045-.286.095-.432.135-.092.025-.132.037-.191-.048a1.312,1.312,0,0,1-.093-.2c-.136-.286-.267-.575-.4-.865-.526-1.182-1-2.388-1.508-3.578a.182.182,0,0,0-.29-.029q-.981.975-1.935,1.976a25.736,25.736,0,0,0-1.812,2c-.087.113.108.239.2.149.653-.641,1.261-1.328,1.893-1.989s1.271-1.312,1.92-1.956l-.29-.028c.431,1.009.844,2.026,1.281,3.033.219.5.448,1,.68,1.5.087.186.2.347.428.343a2.846,2.846,0,0,0,.745-.2l1.821-.569-.209-.086a62.933,62.933,0,0,0,2.207,7.338q.376,1.02.787,2.027l.294-.124c-1.342-1.71-2.6-3.484-3.787-5.306q-.507-.779-.99-1.571a.171.171,0,0,0-.234-.05L22.7,85.1q-.426.243-.85.488c-.119.068-.354.266-.5.226-.119-.032-.243-.213-.325-.3-.963-.976-1.908-1.984-2.924-2.905-.086-.078-.183.008-.1.1Z" transform="translate(1.494 1)" fill="#455a64"/>
    </g>
    <g>
      <path d="M104.356,46.762a1.069,1.069,0,0,1,1.709-1.244,3.471,3.471,0,0,1,1.147-1.86,1.268,1.268,0,0,1,1.876.423,9.854,9.854,0,0,1,.926-3.755,2.972,2.972,0,0,1,5.662.385,9.834,9.834,0,0,1,.407,3.5,3.383,3.383,0,0,1,3.716-1.056,4.181,4.181,0,0,1,2.6,2.979,5.5,5.5,0,0,1-.658,3.977A151.278,151.278,0,0,0,104.986,47.5Z" transform="translate(1.494 1)" fill="#a56baa"/>
      <g opacity="0.5">
        <path d="M104.356,46.762a1.069,1.069,0,0,1,1.709-1.244,3.471,3.471,0,0,1,1.147-1.86,1.268,1.268,0,0,1,1.876.423,9.854,9.854,0,0,1,.926-3.755,2.972,2.972,0,0,1,5.662.385,9.834,9.834,0,0,1,.407,3.5,3.383,3.383,0,0,1,3.716-1.056,4.181,4.181,0,0,1,2.6,2.979,5.5,5.5,0,0,1-.658,3.977A151.278,151.278,0,0,0,104.986,47.5Z" transform="translate(1.494 1)" fill="#fff"/>
      </g>
      <path d="M104.983,47.606c2.2.267,4.407.537,6.6.857q3.242.471,6.463,1.082,1.83.347,3.653.736a.2.2,0,0,0,.2-.1,5.4,5.4,0,0,0,.25-5.192,3.951,3.951,0,0,0-3.968-2.145,3.439,3.439,0,0,0-2.248,1.264l.327.082a10.355,10.355,0,0,0-.368-3.4,3.943,3.943,0,0,0-1.632-2.129,2.761,2.761,0,0,0-2.584-.136,4.123,4.123,0,0,0-1.978,2.007,10.911,10.911,0,0,0-.8,3.556l.358-.072a1.4,1.4,0,0,0-1.853-.649,3.135,3.135,0,0,0-1.513,2.1l.3-.072a1.3,1.3,0,0,0-1.647-.1,1.248,1.248,0,0,0-.349,1.511c.081.166.4.071.313-.106a.973.973,0,0,1,.235-1.163.916.916,0,0,1,1.186.085.19.19,0,0,0,.3-.072,2.968,2.968,0,0,1,1.222-1.852,1.061,1.061,0,0,1,1.457.432c.07.2.339.1.359-.072.2-1.845.487-4.016,2.232-5.068a2.443,2.443,0,0,1,2.4-.134,3.492,3.492,0,0,1,1.585,1.878,9.618,9.618,0,0,1,.405,3.492c0,.163.241.193.326.082a3.207,3.207,0,0,1,3.874-.846,4.2,4.2,0,0,1,2.252,3.773,5.625,5.625,0,0,1-.767,2.8l.205-.1q-3.228-.69-6.483-1.237-3.285-.55-6.592-.949c-1.238-.148-2.481-.278-3.724-.372-.17-.013-.16.2,0,.217Z" transform="translate(1.494 1)" fill="#455a64"/>
      <path d="M108.378,49.354l-.266.445c-.07.119-.141.236-.215.352a5.054,5.054,0,0,0-.42.674.132.132,0,0,0,.011.144l.016.021a.11.11,0,0,0,.124.046c.2-.061.341-.3.451-.468.073-.111.144-.224.213-.338.081-.135.157-.271.231-.41a2.193,2.193,0,0,0,.181-.4c.022-.077-.057-.147-.124-.16a.192.192,0,0,0-.111.009c-.016.006-.107.071-.091.083Z" transform="translate(1.494 1)" fill="#455a64"/>
      <path d="M110.282,52.048s-.249.416-.266.446c-.07.118-.141.236-.215.351a5.119,5.119,0,0,0-.42.674.132.132,0,0,0,.011.144l.016.021a.111.111,0,0,0,.123.047c.2-.062.342-.3.452-.468.073-.112.144-.224.213-.338.081-.135.157-.272.231-.411a2.153,2.153,0,0,0,.181-.4c.022-.078-.057-.147-.124-.161a.2.2,0,0,0-.111.009c-.016.006-.107.071-.091.083Z" transform="translate(1.494 1)" fill="#455a64"/>
      <path d="M113.706,50.451l-.266.446c-.07.118-.14.235-.214.351a5.023,5.023,0,0,0-.421.674.132.132,0,0,0,.011.144l.017.021a.108.108,0,0,0,.123.046c.2-.061.341-.3.452-.467.073-.112.144-.224.212-.338q.121-.2.232-.411a2.211,2.211,0,0,0,.18-.4c.023-.078-.057-.147-.123-.161a.2.2,0,0,0-.112.009c-.015.006-.107.071-.091.083Z" transform="translate(1.494 1)" fill="#455a64"/>
      <path d="M119.1,50.85s-.248.417-.266.446c-.07.118-.14.236-.214.352a4.95,4.95,0,0,0-.421.673.134.134,0,0,0,.011.144l.017.021a.11.11,0,0,0,.123.047c.2-.062.341-.3.452-.468.073-.111.144-.224.212-.338q.122-.2.232-.411a2.149,2.149,0,0,0,.18-.4c.023-.077-.057-.147-.123-.16a.194.194,0,0,0-.112.008c-.015.006-.107.071-.091.083Z" transform="translate(1.494 1)" fill="#455a64"/>
      <path d="M115.754,52.766l-.266.446c-.07.118-.141.236-.215.352a5.054,5.054,0,0,0-.42.674.132.132,0,0,0,.011.144l.016.02a.111.111,0,0,0,.123.047c.2-.061.342-.3.452-.468.073-.111.144-.224.213-.338.081-.135.157-.272.231-.411a2.153,2.153,0,0,0,.181-.4c.022-.077-.058-.147-.124-.16a.184.184,0,0,0-.111.009c-.016.006-.107.071-.091.082Z" transform="translate(1.494 1)" fill="#455a64"/>
    </g>
    <g>
      <path d="M47.887,39.059a151.127,151.127,0,0,0-14.739,8.394,6,6,0,0,1-2.061-3.375,2.8,2.8,0,0,1,.27-2.032A2.341,2.341,0,0,1,32.991,41a2.212,2.212,0,0,1,1,.036c.16.052.865.312.9.456a10.763,10.763,0,0,1-.347-2.979,3.434,3.434,0,0,1,.238-1.327,2.688,2.688,0,0,1,2.985-1.3A5.881,5.881,0,0,1,40.7,37.743a2.19,2.19,0,0,1,.438-1.005,1.493,1.493,0,0,1,1.643-.233,4.392,4.392,0,0,1,1.376,1.089A1.54,1.54,0,0,1,45.241,36.1a1.963,1.963,0,0,1,1.847.453,2.733,2.733,0,0,1,.841,1.754Z" transform="translate(1.494 1)" fill="#a56baa"/>
      <g opacity="0.8">
        <path d="M47.887,39.059a151.127,151.127,0,0,0-14.739,8.394,6,6,0,0,1-2.061-3.375,2.8,2.8,0,0,1,.27-2.032A2.341,2.341,0,0,1,32.991,41a2.212,2.212,0,0,1,1,.036c.16.052.865.312.9.456a10.763,10.763,0,0,1-.347-2.979,3.434,3.434,0,0,1,.238-1.327,2.688,2.688,0,0,1,2.985-1.3A5.881,5.881,0,0,1,40.7,37.743a2.19,2.19,0,0,1,.438-1.005,1.493,1.493,0,0,1,1.643-.233,4.392,4.392,0,0,1,1.376,1.089A1.54,1.54,0,0,1,45.241,36.1a1.963,1.963,0,0,1,1.847.453,2.733,2.733,0,0,1,.841,1.754Z" transform="translate(1.494 1)" fill="#fff"/>
      </g>
      <path d="M47.826,38.956c-2,.94-3.956,1.978-5.889,3.045s-3.85,2.18-5.737,3.334q-1.589.972-3.152,1.982l.224,0a5.832,5.832,0,0,1-2.022-3.37,2.516,2.516,0,0,1,.374-1.986,2.268,2.268,0,0,1,1.651-.823,1.96,1.96,0,0,1,.877.144c.126.049.251.1.372.161a1.234,1.234,0,0,1,.133.073.394.394,0,0,1,.053.038c.008.007.02.034.008,0,.081.21.407.078.353-.132a10.777,10.777,0,0,1-.341-2.488,3.11,3.11,0,0,1,.49-2.124,2.432,2.432,0,0,1,1.522-.792,3.283,3.283,0,0,1,1.9.346,7.111,7.111,0,0,1,1.928,1.5.2.2,0,0,0,.3-.1,1.844,1.844,0,0,1,.461-.993,1.163,1.163,0,0,1,.877-.241,3.158,3.158,0,0,1,1.815,1.18.192.192,0,0,0,.308-.135,1.34,1.34,0,0,1,.531-1.106,1.484,1.484,0,0,1,1.271-.242,2.322,2.322,0,0,1,1.626,2.088c.022.188.353.158.332-.031a2.745,2.745,0,0,0-1.306-2.154,1.952,1.952,0,0,0-2.315.246,1.642,1.642,0,0,0-.5,1.219l.309-.135A3.214,3.214,0,0,0,42.11,36.2a1.512,1.512,0,0,0-1.042.369,2.181,2.181,0,0,0-.549,1.147l.3-.1c-1.028-1.063-2.384-2.086-3.948-1.936a2.962,2.962,0,0,0-1.768.768,2.821,2.821,0,0,0-.739,2.053,10.98,10.98,0,0,0,.351,3.063l.353-.132c-.077-.2-.372-.3-.551-.378a2.972,2.972,0,0,0-.732-.238,2.764,2.764,0,0,0-2.113.6c-1.259,1.068-.9,2.907-.234,4.2a6.278,6.278,0,0,0,1.582,1.965.2.2,0,0,0,.224,0q2.754-1.779,5.58-3.44t5.7-3.2c1.142-.612,2.292-1.21,3.444-1.8.126-.065-.043-.242-.15-.192Z" transform="translate(1.494 1)" fill="#455a64"/>
      <path d="M36.657,46.529a3.4,3.4,0,0,0,.053.53c.02.165.042.329.056.5.016.19.015.384.04.574a.638.638,0,0,0,.052.221.221.221,0,0,0,.182.1c.077-.013.115-.112.132-.177a1.274,1.274,0,0,0,.019-.349c-.006-.168-.025-.336-.042-.5-.015-.151-.032-.3-.057-.45a1.655,1.655,0,0,0-.136-.524c-.069-.131-.294-.056-.3.079Z" transform="translate(1.494 1)" fill="#455a64"/>
      <path d="M39.808,47.506a3.387,3.387,0,0,0,.053.53c.021.165.042.329.056.495.016.191.015.385.04.574a.638.638,0,0,0,.052.221.223.223,0,0,0,.182.1c.077-.013.116-.112.132-.177a1.274,1.274,0,0,0,.019-.349c-.006-.168-.025-.336-.042-.5-.015-.15-.032-.3-.057-.45a1.655,1.655,0,0,0-.136-.524c-.069-.131-.294-.056-.3.079Z" transform="translate(1.494 1)" fill="#455a64"/>
      <path d="M41.551,44.154a3.284,3.284,0,0,0,.054.53c.02.164.041.329.055.5.016.19.015.384.04.574a.643.643,0,0,0,.052.221.223.223,0,0,0,.182.1c.078-.014.116-.112.132-.178a1.265,1.265,0,0,0,.019-.348c-.006-.168-.025-.337-.042-.5-.015-.15-.032-.3-.057-.449a1.679,1.679,0,0,0-.135-.525c-.07-.13-.3-.055-.3.08Z" transform="translate(1.494 1)" fill="#455a64"/>
      <path d="M46.072,41.185a3.4,3.4,0,0,0,.054.53c.02.165.041.329.055.495.016.19.015.384.041.574a.615.615,0,0,0,.051.221.223.223,0,0,0,.182.1c.078-.013.116-.112.133-.177a1.314,1.314,0,0,0,.019-.349c-.006-.168-.026-.336-.042-.5-.016-.151-.033-.3-.058-.45a1.68,1.68,0,0,0-.135-.524c-.07-.131-.294-.056-.3.079Z" transform="translate(1.494 1)" fill="#455a64"/>
      <path d="M44.585,44.743a3.389,3.389,0,0,0,.054.53c.02.165.041.329.055.495.017.191.016.385.041.574a.6.6,0,0,0,.052.221.22.22,0,0,0,.182.1c.077-.013.115-.112.132-.177a1.274,1.274,0,0,0,.019-.349c-.006-.168-.025-.336-.042-.5-.016-.15-.033-.3-.057-.45a1.71,1.71,0,0,0-.136-.524c-.07-.131-.294-.056-.3.079Z" transform="translate(1.494 1)" fill="#455a64"/>
    </g>
    <g>
      <path d="M113.344,65.666c.226-.2.409-.439.633-.638a4.479,4.479,0,0,1,.773-.553,4.231,4.231,0,0,1,1.712-.54,4.157,4.157,0,0,1,3.207,1.036,2.657,2.657,0,0,1,.456.588,3.458,3.458,0,0,1,.254.549,1.308,1.308,0,0,0,.27.517.115.115,0,0,0,.193-.028,1.651,1.651,0,0,0-.212-1.115,3,3,0,0,0-.461-.7,3.93,3.93,0,0,0-1.437-.982,4.624,4.624,0,0,0-4.94.865,2.4,2.4,0,0,0-.685.87c-.045.134.147.2.237.128Z" transform="translate(1.494 1)" fill="#455a64"/>
      <path d="M115.58,60.307a1.9,1.9,0,0,0-.014.511l.016.369c.011.248.014.5.037.745a.193.193,0,0,0,.382-.017c0-.267-.022-.535-.035-.8-.006-.127-.011-.255-.018-.382a1.326,1.326,0,0,0-.068-.452.165.165,0,0,0-.3.028Z" transform="translate(1.494 1)" fill="#455a64"/>
      <path d="M119.038,60.7a2.556,2.556,0,0,0-.078.426c-.018.129-.036.258-.053.388a6.891,6.891,0,0,0-.065.745c0,.235.379.2.387-.027.008-.252.034-.5.065-.753.015-.13.033-.259.05-.389a1.325,1.325,0,0,0,.021-.392c-.012-.068-.1-.106-.164-.105a.17.17,0,0,0-.163.107Z" transform="translate(1.494 1)" fill="#455a64"/>
    </g>
    <g>
      <polygon points="124.428 85.08 121.364 90.251 118.139 88.681 115.764 92.758 114.413 92.019 115.079 95.421 118.335 94.4 117.186 93.661 118.828 91.308 122.239 92.987 126.754 87.187 124.428 85.08" fill="#a56baa"/>
      <polygon points="124.428 85.08 121.364 90.251 118.139 88.681 115.764 92.758 114.413 92.019 115.079 95.421 118.335 94.4 117.186 93.661 118.828 91.308 122.239 92.987 126.754 87.187 124.428 85.08" fill="#fff" opacity="0.8"/>
      <path d="M113.585,94.553a.13.13,0,0,1-.13-.106l-.666-3.4a.131.131,0,0,1,.052-.132.129.129,0,0,1,.141-.009l1.322.722a.133.133,0,0,1,.052.18.131.131,0,0,1-.179.052l-1.074-.587.583,2.98,2.847-.893-.912-.586a.131.131,0,0,1-.058-.085.129.129,0,0,1,.021-.1l1.642-2.353a.131.131,0,0,1,.166-.043l3.315,1.631L125.08,86.2l-2.115-1.916-2.982,5.032a.132.132,0,0,1-.171.052L116.7,87.854l-1.927,3.305a.132.132,0,1,1-.228-.133l1.988-3.411a.132.132,0,0,1,.172-.052l3.115,1.516,3-5.067a.133.133,0,0,1,.2-.03l2.326,2.107a.132.132,0,0,1,.015.179l-4.515,5.8a.131.131,0,0,1-.162.037l-3.31-1.628-1.5,2.147,1.034.665a.132.132,0,0,1-.032.237l-3.257,1.021A.132.132,0,0,1,113.585,94.553Z" transform="translate(1.494 1)" fill="#455a64"/>
    </g>
    <path d="M99.939,38.147a2.552,2.552,0,0,0-1.351-1.269,6.36,6.36,0,0,0-2.013-.527,5.391,5.391,0,0,0-3.86,1,3.994,3.994,0,0,0-1.623,3.025A3.388,3.388,0,0,0,92.6,43.3a6.926,6.926,0,0,0,2.057.715,11.493,11.493,0,0,0,2.38.383c1.092.033,2.806-.256,2.949-1.619a2.229,2.229,0,0,0-.762-1.7,5.383,5.383,0,0,0-1.655-1.123,5.664,5.664,0,0,0-3.913-.253,5.484,5.484,0,0,0-3.111,2.341,3.457,3.457,0,0,0-.517,1.874,3.847,3.847,0,0,0,.515,1.763,5.452,5.452,0,0,0,3.1,2.375,10.517,10.517,0,0,0,2.035.452,7.022,7.022,0,0,0,2.127.005,2.408,2.408,0,0,0,1.685-.868c.327-.576-.1-1.193-.539-1.561a4.359,4.359,0,0,0-1.784-.814,5.38,5.38,0,0,0-2.073-.08,4.424,4.424,0,0,0-3.014,1.84,2.861,2.861,0,0,0,3.354,4.306,2.194,2.194,0,0,0,.78-.451.828.828,0,0,0,.291-.716c-.063-.293-.352-.392-.608-.462a7.019,7.019,0,0,0-1.076-.205,6.81,6.81,0,0,0-2.233.111,2.844,2.844,0,0,0-1.477.755,1.5,1.5,0,0,0,.877,2.5,1.55,1.55,0,0,0,1.415-.558.1.1,0,0,0-.011-.132,2,2,0,0,0-1.288-.571,4.162,4.162,0,0,0-1.364.005.916.916,0,0,0-.8.8c-.017.547.445.957.805,1.3.041.038.063-.043.034-.071a1.532,1.532,0,0,1-.6-1.262.856.856,0,0,1,.815-.6,4.434,4.434,0,0,1,1.139.028A1.659,1.659,0,0,1,93.2,52.3l-.011-.132a1.312,1.312,0,0,1-1.363.453,1.264,1.264,0,0,1-.865-1.146c-.073-1.222,1.386-1.644,2.341-1.759A6.6,6.6,0,0,1,95.4,49.8c.15.03.3.065.446.105s.381.082.422.269c.056.251-.2.517-.38.648a2.591,2.591,0,0,1-3.163-.2,2.642,2.642,0,0,1-.651-2.971A3.84,3.84,0,0,1,94.4,45.617a5.031,5.031,0,0,1,3.626.2,2.064,2.064,0,0,1,1.252,1.17c.178.672-.559,1-1.079,1.155a5.261,5.261,0,0,1-1.9.16,10.947,10.947,0,0,1-1.852-.3,5.929,5.929,0,0,1-3.127-1.748,3.6,3.6,0,0,1-.877-3.176,4.526,4.526,0,0,1,2.259-2.67,5.3,5.3,0,0,1,3.454-.592,5.038,5.038,0,0,1,3.082,1.735,1.523,1.523,0,0,1,.3,1.63,1.883,1.883,0,0,1-1.235.826,8.44,8.44,0,0,1-4.078-.388,4.337,4.337,0,0,1-1.713-.735,2.952,2.952,0,0,1-.875-1.235,3.383,3.383,0,0,1,.3-3.005c1.359-2.187,4.372-2.5,6.57-1.5A2.354,2.354,0,0,1,99.719,38.2c.056.115.281.093.22-.053Z" transform="translate(1.494 1)" fill="#455a64"/>
  </g>
</svg>
