<svg xmlns="http://www.w3.org/2000/svg" viewBox="0 0 499.859 130.358">
  <g id="Capa_2" data-name="Capa 2">
    <g id="Capa_11" data-name="Capa 11">
      <path d="M128,71.411c0,30.375-27.162,55-61.971,55S3,101.786,3,71.411s28.219-55,63.029-55S128,41.035,128,71.411Z" fill="#fff" stroke="#000" stroke-linecap="round" stroke-width="6"/>
      <circle cx="36.225" cy="60.251" r="12.5" fill="#1d1d1b" stroke="#000" stroke-miterlimit="10"/>
      <circle cx="94.152" cy="60.251" r="12.5" fill="#1d1d1b" stroke="#000" stroke-miterlimit="10"/>
      <line x1="42.582" y1="92.893" x2="92.76" y2="106.413" fill="#1d1d1b" stroke="#000" stroke-linecap="round" stroke-width="6"/>
      <line x1="36.646" y1="32.286" x2="55.462" y2="51.762" fill="#1d1d1b" stroke="#000" stroke-linecap="round" stroke-width="6"/>
      <line x1="72.68" y1="52.385" x2="90.685" y2="29.853" fill="#1d1d1b" stroke="#000" stroke-linecap="round" stroke-width="6"/>
      <line x1="28.087" y1="8.685" x2="35.298" y2="21.671" fill="#1d1d1b" stroke="#000" stroke-linecap="round" stroke-width="6"/>
      <line x1="44.269" y1="3" x2="47.893" y2="17.514" fill="#1d1d1b" stroke="#000" stroke-linecap="round" stroke-width="6"/>
      <line x1="81.152" y1="3" x2="77.106" y2="16.411" fill="#1d1d1b" stroke="#000" stroke-linecap="round" stroke-width="6"/>
      <line x1="99.047" y1="8.685" x2="90.924" y2="19.464" fill="#1d1d1b" stroke="#000" stroke-linecap="round" stroke-width="6"/>
      <path d="M496.859,72.358c0,30.376-27.162,55-61.972,55s-63.028-24.624-63.028-55,28.218-55,63.028-55S496.859,41.982,496.859,72.358Z" fill="#fff" stroke="#000" stroke-linecap="round" stroke-width="6"/>
      <circle cx="405.084" cy="61.199" r="12.5" fill="#1d1d1b" stroke="#000" stroke-miterlimit="10"/>
      <circle cx="463.011" cy="61.199" r="12.5" fill="#1d1d1b" stroke="#000" stroke-miterlimit="10"/>
      <path d="M411.441,93.84c-12.42-3,62.591,17.258,50.178,13.52" fill="#1d1d1b" stroke="#000" stroke-linecap="round" stroke-width="6"/>
      <path d="M405.5,33.234c-3.891-5.406,23.056,24.755,18.817,19.475" fill="#1d1d1b" stroke="#000" stroke-linecap="round" stroke-width="6"/>
      <path d="M441.538,53.332c-5.009,6.029,20.99-26.275,18-22.532" fill="#1d1d1b" stroke="#000" stroke-linecap="round" stroke-width="6"/>
      <path d="M310.569,71.483c0,30.376-27.161,55-61.971,55s-63.029-24.624-63.029-55,28.219-55,63.029-55S310.569,41.107,310.569,71.483Z" fill="#fff" stroke="#000" stroke-linecap="round" stroke-width="6"/>
      <circle cx="218.795" cy="60.324" r="12.5" fill="#1d1d1b" stroke="#000" stroke-miterlimit="10"/>
      <circle cx="276.722" cy="60.324" r="12.5" fill="#1d1d1b" stroke="#000" stroke-miterlimit="10"/>
      <line x1="225.152" y1="92.965" x2="275.329" y2="106.485" fill="#1d1d1b" stroke="#000" stroke-linecap="round" stroke-width="6"/>
      <line x1="210.656" y1="8.758" x2="217.867" y2="21.743" fill="#1d1d1b" stroke="#000" stroke-linecap="round" stroke-width="6"/>
      <line x1="226.838" y1="3.073" x2="230.462" y2="17.587" fill="#1d1d1b" stroke="#000" stroke-linecap="round" stroke-width="6"/>
      <line x1="263.721" y1="3.073" x2="259.675" y2="16.483" fill="#1d1d1b" stroke="#000" stroke-linecap="round" stroke-width="6"/>
      <line x1="281.616" y1="8.758" x2="273.493" y2="19.536" fill="#1d1d1b" stroke="#000" stroke-linecap="round" stroke-width="6"/>
      <path d="M496.859,72.194c0,30.376-27.162,55-61.972,55s-63.028-24.624-63.028-55,28.218-55,63.028-55S496.859,41.819,496.859,72.194Z" fill="#fff" stroke="#000" stroke-linecap="round" stroke-width="6"/>
      <circle cx="405.084" cy="61.035" r="12.5" fill="#1d1d1b" stroke="#000" stroke-miterlimit="10"/>
      <circle cx="463.011" cy="61.035" r="12.5" fill="#1d1d1b" stroke="#000" stroke-miterlimit="10"/>
      <line x1="411.441" y1="93.676" x2="461.619" y2="107.197" fill="#1d1d1b" stroke="#000" stroke-linecap="round" stroke-width="6"/>
      <line x1="405.504" y1="33.07" x2="424.321" y2="52.545" fill="#1d1d1b" stroke="#000" stroke-linecap="round" stroke-width="6"/>
      <line x1="441.538" y1="53.169" x2="459.543" y2="30.636" fill="#1d1d1b" stroke="#000" stroke-linecap="round" stroke-width="6"/>
      <line x1="396.946" y1="9.469" x2="404.156" y2="22.455" fill="#1d1d1b" stroke="#000" stroke-linecap="round" stroke-width="6"/>
      <line x1="413.127" y1="3.784" x2="416.751" y2="18.298" fill="#1d1d1b" stroke="#000" stroke-linecap="round" stroke-width="6"/>
      <line x1="450.011" y1="3.784" x2="445.965" y2="17.194" fill="#1d1d1b" stroke="#000" stroke-linecap="round" stroke-width="6"/>
      <line x1="467.906" y1="9.469" x2="459.783" y2="20.247" fill="#1d1d1b" stroke="#000" stroke-linecap="round" stroke-width="6"/>
      <line x1="203.845" y1="42.566" x2="235.541" y2="42.566" fill="#1d1d1b" stroke="#000" stroke-linecap="round" stroke-width="6"/>
      <line x1="260.874" y1="42.246" x2="292.569" y2="42.246" fill="#1d1d1b" stroke="#000" stroke-linecap="round" stroke-width="6"/>
    </g>
  </g>
</svg>
