<svg xmlns="http://www.w3.org/2000/svg" viewBox="0 0 499.869 150.738">
  <g id="Capa_2" data-name="Capa 2">
    <g id="Capa_43" data-name="Capa 43">
      <path d="M496.869,91.127c0,30.376-27.161,55-61.971,55s-63.029-24.624-63.029-55,28.219-55,63.029-55S496.869,60.752,496.869,91.127Z" fill="none" stroke="#000" stroke-linecap="round" stroke-width="6"/>
      <path d="M389.757,69.717s15.652-13.891,29.739,0" fill="none" stroke="#000" stroke-linecap="round" stroke-width="6"/>
      <path d="M453.825,72.8s15.653-13.891,29.739,0" fill="none" stroke="#000" stroke-linecap="round" stroke-width="6"/>
      <circle cx="411.376" cy="82.924" r="6.75" stroke="#000" stroke-linecap="round" stroke-width="6"/>
      <circle cx="463.713" cy="82.924" r="6.75" stroke="#000" stroke-linecap="round" stroke-width="6"/>
      <path d="M456.963,111s-.684,15.652-38.837,21.913" fill="none" stroke="#000" stroke-linecap="round" stroke-width="6"/>
      <path d="M382.713,22.565S403.329,17.522,412.2,39.8" fill="none" stroke="#000" stroke-linecap="round" stroke-width="6"/>
      <path d="M397.454,13.565s21.651,7.044,25.172,23.87" fill="none" stroke="#000" stroke-linecap="round" stroke-width="6"/>
      <path d="M404.626,6.913s23.761,9.515,30.272,29.214" fill="none" stroke="#000" stroke-linecap="round" stroke-width="6"/>
      <path d="M418.126,3s22.5,7.559,24.457,33.127" fill="none" stroke="#000" stroke-linecap="round" stroke-width="6"/>
      <path d="M309.869,92.738c0,30.375-27.161,55-61.971,55s-63.029-24.625-63.029-55,28.219-55,63.029-55S309.869,62.362,309.869,92.738Z" fill="none" stroke="#000" stroke-linecap="round" stroke-width="6"/>
      <path d="M202.757,71.328s15.652-13.892,29.739,0" fill="none" stroke="#000" stroke-linecap="round" stroke-width="6"/>
      <path d="M266.825,74.415s15.653-13.892,29.739,0" fill="none" stroke="#000" stroke-linecap="round" stroke-width="6"/>
      <circle cx="224.376" cy="84.534" r="6.75" stroke="#000" stroke-linecap="round" stroke-width="6"/>
      <circle cx="276.713" cy="84.534" r="6.75" stroke="#000" stroke-linecap="round" stroke-width="6"/>
      <path d="M269.963,112.61s-.684,15.652-38.837,21.913" fill="none" stroke="#000" stroke-linecap="round" stroke-width="6"/>
      <path d="M195.713,24.176s20.616-5.044,29.482,17.239" fill="none" stroke="#000" stroke-linecap="round" stroke-width="6"/>
      <path d="M210.454,15.176s21.651,7.043,25.172,23.869" fill="none" stroke="#000" stroke-linecap="round" stroke-width="6"/>
      <path d="M217.626,8.523s23.761,9.516,30.272,29.215" fill="none" stroke="#000" stroke-linecap="round" stroke-width="6"/>
      <path d="M231.126,4.61s22.5,7.559,24.457,33.128" fill="none" stroke="#000" stroke-linecap="round" stroke-width="6"/>
      <path d="M128,91.5c0,30.376-27.162,55-61.971,55S3,121.874,3,91.5s28.219-55,63.029-55S128,61.123,128,91.5Z" fill="none" stroke="#000" stroke-linecap="round" stroke-width="6"/>
      <circle cx="42.507" cy="83.295" r="6.75" stroke="#000" stroke-linecap="round" stroke-width="6"/>
      <circle cx="94.844" cy="83.295" r="6.75" stroke="#000" stroke-linecap="round" stroke-width="6"/>
      <path d="M88.094,111.371s-.685,15.652-38.837,21.913" fill="none" stroke="#000" stroke-linecap="round" stroke-width="6"/>
      <path d="M13.844,22.936s20.615-5.043,29.482,17.24" fill="none" stroke="#000" stroke-linecap="round" stroke-width="6"/>
      <path d="M28.585,13.936s21.65,7.044,25.172,23.87" fill="none" stroke="#000" stroke-linecap="round" stroke-width="6"/>
      <path d="M35.757,7.284S59.518,16.8,66.029,36.5" fill="none" stroke="#000" stroke-linecap="round" stroke-width="6"/>
      <path d="M49.257,3.371S71.757,10.93,73.714,36.5" fill="none" stroke="#000" stroke-linecap="round" stroke-width="6"/>
      <path d="M41.73,55.5S61.3,61.4,55.817,83.3" fill="none" stroke="#000" stroke-linecap="round" stroke-width="6"/>
      <path d="M80.949,82.642s-5.087-25.316,14.87-26.49" fill="none" stroke="#000" stroke-linecap="round" stroke-width="6"/>
    </g>
  </g>
</svg>
