<svg xmlns="http://www.w3.org/2000/svg" viewBox="0 0 543.945 124.034">
  <g id="Capa_2" data-name="Capa 2">
    <g id="Capa_23" data-name="Capa 23">
      <path d="M148.457,64c0,30.376-27.162,55-61.972,55S23.457,94.378,23.457,64,51.675,9,86.485,9,148.457,33.626,148.457,64Z" fill="#fff" stroke="#000" stroke-linecap="round" stroke-width="6"/>
      <line x1="56.739" y1="22.058" x2="80.217" y2="45.015" fill="#1d1d1b" stroke="#000" stroke-linecap="round" stroke-width="6"/>
      <line x1="92.739" y1="45.015" x2="105.783" y2="33.536" fill="none" stroke="#000" stroke-linecap="round" stroke-miterlimit="10" stroke-width="6"/>
      <path d="M111.522,12.145s19.3-12,30.782,0" fill="none" stroke="#000" stroke-linecap="round" stroke-miterlimit="10" stroke-width="6"/>
      <path d="M135,25.71s17.217-14.608,35.478,0" fill="none" stroke="#000" stroke-linecap="round" stroke-miterlimit="10" stroke-width="6"/>
      <line x1="59.87" y1="96.145" x2="118.826" y2="96.145" fill="none" stroke="#000" stroke-linecap="round" stroke-miterlimit="10" stroke-width="6"/>
      <circle cx="53.957" cy="49.667" r="9.783" stroke="#000" stroke-linecap="round" stroke-miterlimit="10" stroke-width="6"/>
      <circle cx="116.217" cy="52.058" r="9.783" stroke="#000" stroke-linecap="round" stroke-miterlimit="10" stroke-width="6"/>
      <path d="M29.087,12.145S45.174-6.141,63.739,9" fill="none" stroke="#000" stroke-linecap="round" stroke-width="6"/>
      <path d="M3,22.464S21.059,13.71,41.247,25.71" fill="#fff" stroke="#000" stroke-linecap="round" stroke-width="6"/>
      <path d="M330.963,65.444c0,30.376-27.161,55-61.971,55s-63.029-24.624-63.029-55,28.219-55,63.029-55S330.963,35.069,330.963,65.444Z" fill="#fff" stroke="#000" stroke-linecap="round" stroke-width="6"/>
      <line x1="239.246" y1="23.501" x2="262.724" y2="46.457" fill="#1d1d1b" stroke="#000" stroke-linecap="round" stroke-width="6"/>
      <line x1="275.246" y1="46.457" x2="288.289" y2="34.979" fill="none" stroke="#000" stroke-linecap="round" stroke-miterlimit="10" stroke-width="6"/>
      <path d="M294.029,13.588s19.3-12,30.782,0" fill="none" stroke="#000" stroke-linecap="round" stroke-miterlimit="10" stroke-width="6"/>
      <path d="M317.507,27.153s17.217-14.609,35.478,0" fill="none" stroke="#000" stroke-linecap="round" stroke-miterlimit="10" stroke-width="6"/>
      <line x1="242.376" y1="97.588" x2="301.333" y2="97.588" fill="none" stroke="#000" stroke-linecap="round" stroke-miterlimit="10" stroke-width="6"/>
      <circle cx="236.463" cy="51.109" r="9.783" stroke="#000" stroke-linecap="round" stroke-miterlimit="10" stroke-width="6"/>
      <circle cx="298.724" cy="53.501" r="9.783" stroke="#000" stroke-linecap="round" stroke-miterlimit="10" stroke-width="6"/>
      <path d="M211.594,13.588S227.681-4.7,246.246,10.444" fill="none" stroke="#000" stroke-linecap="round" stroke-width="6"/>
      <path d="M185.507,23.906s18.058-8.753,38.246,3.247" fill="#fff" stroke="#000" stroke-linecap="round" stroke-width="6"/>
      <path d="M518.923,66.034c0,30.376-27.161,55-61.971,55s-63.029-24.624-63.029-55,28.219-55,63.029-55S518.923,35.658,518.923,66.034Z" fill="#fff" stroke="#000" stroke-linecap="round" stroke-width="6"/>
      <line x1="427.206" y1="24.09" x2="450.684" y2="47.047" fill="#1d1d1b" stroke="#000" stroke-linecap="round" stroke-width="6"/>
      <line x1="463.206" y1="47.047" x2="476.249" y2="35.568" fill="none" stroke="#000" stroke-linecap="round" stroke-miterlimit="10" stroke-width="6"/>
      <path d="M481.989,14.177s19.3-12,30.782,0" fill="none" stroke="#000" stroke-linecap="round" stroke-miterlimit="10" stroke-width="6"/>
      <path d="M505.467,27.742s17.217-14.608,35.478,0" fill="none" stroke="#000" stroke-linecap="round" stroke-miterlimit="10" stroke-width="6"/>
      <circle cx="424.423" cy="51.699" r="9.783" stroke="#000" stroke-linecap="round" stroke-miterlimit="10" stroke-width="6"/>
      <circle cx="486.684" cy="54.09" r="9.783" stroke="#000" stroke-linecap="round" stroke-miterlimit="10" stroke-width="6"/>
      <path d="M399.554,14.177s16.087-18.286,34.652-3.143" fill="none" stroke="#000" stroke-linecap="round" stroke-width="6"/>
      <path d="M373.467,24.5s18.058-8.754,38.246,3.246" fill="#fff" stroke="#000" stroke-linecap="round" stroke-width="6"/>
      <path d="M432.224,85.421s17.671,28.092,49.964,0" fill="none" stroke="#000" stroke-linecap="round" stroke-miterlimit="10" stroke-width="6"/>
    </g>
  </g>
</svg>
