<svg xmlns="http://www.w3.org/2000/svg" viewBox="0 0 518.061 118.553">
  <g id="Capa_2" data-name="Capa 2">
    <g id="Capa_36" data-name="Capa 36">
      <path d="M311.036,60.553c0,30.376-27.162,55-61.972,55s-63.028-24.624-63.028-55,28.219-55,63.028-55S311.036,30.178,311.036,60.553Z" fill="none" stroke="#000" stroke-linecap="round" stroke-width="6"/>
      <path d="M498.036,60.553c0,30.376-27.162,55-61.972,55s-63.028-24.624-63.028-55,28.219-55,63.028-55S498.036,30.178,498.036,60.553Z" fill="none" stroke="#000" stroke-linecap="round" stroke-width="6"/>
      <path d="M128,60.553c0,30.376-27.162,55-61.971,55S3,90.929,3,60.553s28.219-55,63.029-55S128,30.178,128,60.553Z" fill="none" stroke="#000" stroke-linecap="round" stroke-width="6"/>
      <line x1="218.105" y1="24.861" x2="243.148" y2="51.861" fill="none" stroke="#000" stroke-linecap="round" stroke-width="6"/>
      <line x1="261.931" y1="36.209" x2="251.5" y2="46.97" fill="none" stroke="#000" stroke-linecap="round" stroke-width="6"/>
      <line x1="281.004" y1="13.277" x2="321.018" y2="13.277" fill="none" stroke="#000" stroke-linecap="round" stroke-width="6"/>
      <line x1="295.416" y1="23.85" x2="324.931" y2="23.85" fill="none" stroke="#000" stroke-linecap="round" stroke-width="6"/>
      <line x1="302.804" y1="32.951" x2="328.061" y2="32.951" stroke="#000" stroke-linecap="round" stroke-width="6"/>
      <circle cx="274.402" cy="51.419" r="6.602" stroke="#000" stroke-linecap="round" stroke-width="6"/>
      <circle cx="222.018" cy="51.861" r="6.602" stroke="#000" stroke-linecap="round" stroke-width="6"/>
      <line x1="222.018" y1="87.078" x2="269.757" y2="96.47" stroke="#000" stroke-linecap="round" stroke-width="6"/>
      <path d="M498.036,60.553c0,30.376-27.162,55-61.972,55s-63.028-24.624-63.028-55,28.219-55,63.028-55S498.036,30.178,498.036,60.553Z" fill="none" stroke="#000" stroke-linecap="round" stroke-width="6"/>
      <line x1="405.105" y1="24.861" x2="430.148" y2="51.861" fill="none" stroke="#000" stroke-linecap="round" stroke-width="6"/>
      <line x1="448.931" y1="36.209" x2="438.5" y2="46.97" fill="none" stroke="#000" stroke-linecap="round" stroke-width="6"/>
      <line x1="468.004" y1="13.277" x2="508.018" y2="13.277" fill="none" stroke="#000" stroke-linecap="round" stroke-width="6"/>
      <line x1="482.416" y1="23.85" x2="511.931" y2="23.85" fill="none" stroke="#000" stroke-linecap="round" stroke-width="6"/>
      <line x1="489.804" y1="32.951" x2="515.061" y2="32.951" stroke="#000" stroke-linecap="round" stroke-width="6"/>
      <circle cx="461.402" cy="51.419" r="6.602" stroke="#000" stroke-linecap="round" stroke-width="6"/>
      <circle cx="409.018" cy="51.861" r="6.602" stroke="#000" stroke-linecap="round" stroke-width="6"/>
      <line x1="409.018" y1="87.078" x2="456.757" y2="96.47" stroke="#000" stroke-linecap="round" stroke-width="6"/>
      <path d="M128,60.553c0,30.376-27.162,55-61.971,55S3,90.929,3,60.553s28.219-55,63.029-55S128,30.178,128,60.553Z" fill="none" stroke="#000" stroke-linecap="round" stroke-width="6"/>
      <line x1="35.069" y1="24.861" x2="60.113" y2="51.861" fill="none" stroke="#000" stroke-linecap="round" stroke-width="6"/>
      <line x1="78.895" y1="36.209" x2="68.464" y2="46.97" fill="none" stroke="#000" stroke-linecap="round" stroke-width="6"/>
      <circle cx="91.367" cy="51.419" r="6.602" stroke="#000" stroke-linecap="round" stroke-width="6"/>
      <circle cx="38.982" cy="51.861" r="6.602" stroke="#000" stroke-linecap="round" stroke-width="6"/>
      <line x1="38.982" y1="87.078" x2="86.721" y2="96.47" stroke="#000" stroke-linecap="round" stroke-width="6"/>
      <path d="M97.968,13.277S119.5-6.655,139.453,9" fill="none" stroke="#000" stroke-linecap="round" stroke-width="6"/>
      <path d="M107.5,19.5s6.909-12.289,31.953-2.235" fill="none" stroke="#000" stroke-linecap="round" stroke-width="6"/>
      <path d="M115.955,27.762s3.576-8.3,23.5-1.215" fill="none" stroke="#000" stroke-linecap="round" stroke-width="6"/>
    </g>
  </g>
</svg>
