<svg xmlns="http://www.w3.org/2000/svg" viewBox="0 0 499.631 146.067">
  <g id="Capa_2" data-name="Capa 2">
    <g id="Capa_20" data-name="Capa 20">
      <path d="M310.342,88.067c0,30.376-27.161,55-61.971,55s-63.029-24.624-63.029-55,28.219-55,63.029-55S310.342,57.691,310.342,88.067Z" fill="#fff" stroke="#000" stroke-linecap="round" stroke-width="6"/>
      <circle cx="217.035" cy="75.812" r="9.107" stroke="#000" stroke-miterlimit="10"/>
      <line x1="234.464" y1="120.124" x2="261.569" y2="120.124" fill="#1d1d1b" stroke="#000" stroke-linecap="round" stroke-width="6"/>
      <line x1="226.142" y1="56.716" x2="237.372" y2="66.705" fill="#1d1d1b" stroke="#000" stroke-linecap="round" stroke-width="6"/>
      <path d="M256.692,69.17s4.9-19.493,25.7-19.109" fill="none" stroke="#000" stroke-linecap="round" stroke-width="6"/>
      <circle cx="278.649" cy="75.812" r="9.107" stroke="#000" stroke-miterlimit="10"/>
      <path d="M297.675,19.354c-13.932,3.386-17.292,12.069-21.819,17.738" fill="none" stroke="#000" stroke-linecap="round" stroke-width="6"/>
      <path d="M287.892,11.64c-7.9,2.357-20.6,21.23-20.6,21.23" fill="none" stroke="#000" stroke-linecap="round" stroke-width="6"/>
      <path d="M277.593,3.422c-7.391,0-17.5,19.216-17.5,26.608" fill="none" stroke="#000" stroke-linecap="round" stroke-width="6"/>
      <path d="M186.079,29.193c14.381-6.252,28.761,8.869,28.761,8.869" fill="none" stroke="#000" stroke-linecap="round" stroke-width="6"/>
      <path d="M496.631,87.645c0,30.375-27.161,55-61.971,55s-63.029-24.625-63.029-55,28.219-55,63.029-55S496.631,57.269,496.631,87.645Z" fill="#fff" stroke="#000" stroke-linecap="round" stroke-width="6"/>
      <circle cx="403.325" cy="75.39" r="9.107" stroke="#000" stroke-miterlimit="10"/>
      <line x1="420.753" y1="119.702" x2="447.858" y2="119.702" fill="#1d1d1b" stroke="#000" stroke-linecap="round" stroke-width="6"/>
      <line x1="412.432" y1="56.293" x2="423.661" y2="66.283" fill="#1d1d1b" stroke="#000" stroke-linecap="round" stroke-width="6"/>
      <line x1="439.885" y1="71.278" x2="462.912" y2="47.102" fill="#1d1d1b" stroke="#000" stroke-linecap="round" stroke-width="6"/>
      <circle cx="464.938" cy="75.39" r="9.107" stroke="#000" stroke-miterlimit="10"/>
      <path d="M483.964,18.932C470.033,22.317,466.673,31,462.145,36.669" fill="none" stroke="#000" stroke-linecap="round" stroke-width="6"/>
      <path d="M474.182,11.217c-7.905,2.358-20.6,21.231-20.6,21.231" fill="none" stroke="#000" stroke-linecap="round" stroke-width="6"/>
      <path d="M463.883,3c-7.392,0-17.5,19.216-17.5,26.607" fill="none" stroke="#000" stroke-linecap="round" stroke-width="6"/>
      <path d="M372.369,28.771c14.38-6.253,28.761,8.868,28.761,8.868" fill="none" stroke="#000" stroke-linecap="round" stroke-width="6"/>
      <path d="M128,87.7c0,30.376-27.162,55-61.971,55S3,118.079,3,87.7s28.219-55,63.029-55S128,57.328,128,87.7Z" fill="#fff" stroke="#000" stroke-linecap="round" stroke-width="6"/>
      <circle cx="34.693" cy="75.449" r="9.107" stroke="#000" stroke-miterlimit="10"/>
      <line x1="52.121" y1="119.761" x2="79.227" y2="119.761" fill="#1d1d1b" stroke="#000" stroke-linecap="round" stroke-width="6"/>
      <line x1="43.8" y1="56.352" x2="55.029" y2="66.342" fill="#1d1d1b" stroke="#000" stroke-linecap="round" stroke-width="6"/>
      <line x1="71.253" y1="71.336" x2="94.28" y2="47.161" fill="#1d1d1b" stroke="#000" stroke-linecap="round" stroke-width="6"/>
      <circle cx="96.307" cy="75.449" r="9.107" stroke="#000" stroke-miterlimit="10"/>
      <path d="M115.333,18.991C101.4,22.376,98.041,31.06,93.513,36.728" fill="none" stroke="#000" stroke-linecap="round" stroke-width="6"/>
      <path d="M105.55,11.276c-7.9,2.358-20.6,21.23-20.6,21.23" fill="none" stroke="#000" stroke-linecap="round" stroke-width="6"/>
      <path d="M95.251,3.059c-7.392,0-17.5,19.216-17.5,26.607" fill="none" stroke="#000" stroke-linecap="round" stroke-width="6"/>
      <path d="M3.737,28.829C18.118,22.577,32.5,37.7,32.5,37.7" fill="none" stroke="#000" stroke-linecap="round" stroke-width="6"/>
    </g>
  </g>
</svg>
