<svg xmlns="http://www.w3.org/2000/svg" viewBox="0 0 513.279 127.166">
  <g id="Capa_2" data-name="Capa 2">
    <g id="Capa_40" data-name="Capa 40">
      <path d="M510.279,68.42c0,30.376-27.162,55-61.972,55s-63.028-24.624-63.028-55,28.219-55,63.028-55S510.279,38.045,510.279,68.42Z" fill="none" stroke="#000" stroke-linecap="round" stroke-width="6"/>
      <path d="M140.243,68.42c0,30.376-27.162,55-61.971,55S15.243,98.8,15.243,68.42s28.219-55,63.029-55S140.243,38.045,140.243,68.42Z" fill="none" stroke="#000" stroke-linecap="round" stroke-width="6"/>
      <line x1="56.609" y1="40.945" x2="68.348" y2="51.511" fill="none" stroke="#000" stroke-linecap="round" stroke-width="6"/>
      <line x1="82.826" y1="51.511" x2="104.348" y2="33.119" fill="none" stroke="#000" stroke-linecap="round" stroke-width="6"/>
      <line x1="49.565" y1="89.858" x2="99.261" y2="100.424" stroke="#000" stroke-linecap="round" stroke-width="6"/>
      <circle cx="105.033" cy="57.282" r="5.772" stroke="#000" stroke-linecap="round" stroke-width="6"/>
      <circle cx="49.565" cy="57.282" r="5.772" stroke="#000" stroke-linecap="round" stroke-width="6"/>
      <path d="M3,28.815s26.1-5.087,26.942,4.3" fill="none" stroke="#000" stroke-linecap="round" stroke-width="6"/>
      <path d="M36.24,27.44s-8.2-11.147-31.283-8.016" fill="none" stroke="#000" stroke-linecap="round" stroke-width="6"/>
      <path d="M43.793,22.376s-5.184-13.909-33.75-11.17" fill="none" stroke="#000" stroke-linecap="round" stroke-width="6"/>
      <path d="M49.565,16.613A43.933,43.933,0,0,0,15.243,3.38" fill="none" stroke="#000" stroke-linecap="round" stroke-width="6"/>
      <path d="M322.957,68.108c0,30.376-27.162,55-61.972,55s-63.028-24.624-63.028-55,28.218-55,63.028-55S322.957,37.733,322.957,68.108Z" fill="none" stroke="#000" stroke-linecap="round" stroke-width="6"/>
      <line x1="239.322" y1="40.633" x2="251.061" y2="51.198" fill="none" stroke="#000" stroke-linecap="round" stroke-width="6"/>
      <line x1="232.279" y1="89.546" x2="281.974" y2="100.112" stroke="#000" stroke-linecap="round" stroke-width="6"/>
      <circle cx="287.746" cy="56.97" r="5.772" stroke="#000" stroke-linecap="round" stroke-width="6"/>
      <circle cx="232.279" cy="56.97" r="5.772" stroke="#000" stroke-linecap="round" stroke-width="6"/>
      <path d="M185.714,28.5s26.1-5.087,26.941,4.3" fill="none" stroke="#000" stroke-linecap="round" stroke-width="6"/>
      <path d="M218.954,27.127s-8.2-11.146-31.284-8.015" fill="none" stroke="#000" stroke-linecap="round" stroke-width="6"/>
      <path d="M226.507,22.064s-5.185-13.909-33.75-11.17" fill="none" stroke="#000" stroke-linecap="round" stroke-width="6"/>
      <path d="M232.279,16.3A43.934,43.934,0,0,0,197.957,3.068" fill="none" stroke="#000" stroke-linecap="round" stroke-width="6"/>
      <path d="M510.279,69.166c0,30.375-27.162,55-61.972,55s-63.028-24.625-63.028-55,28.219-55,63.028-55S510.279,38.79,510.279,69.166Z" fill="none" stroke="#000" stroke-linecap="round" stroke-width="6"/>
      <line x1="426.644" y1="41.691" x2="438.384" y2="52.256" fill="none" stroke="#000" stroke-linecap="round" stroke-width="6"/>
      <line x1="452.862" y1="52.256" x2="474.384" y2="33.865" fill="none" stroke="#000" stroke-linecap="round" stroke-width="6"/>
      <line x1="419.601" y1="90.604" x2="469.297" y2="101.169" stroke="#000" stroke-linecap="round" stroke-width="6"/>
      <circle cx="475.068" cy="58.028" r="5.772" stroke="#000" stroke-linecap="round" stroke-width="6"/>
      <circle cx="419.601" cy="58.028" r="5.772" stroke="#000" stroke-linecap="round" stroke-width="6"/>
      <path d="M373.036,29.56s26.1-5.087,26.942,4.305" fill="none" stroke="#000" stroke-linecap="round" stroke-width="6"/>
      <path d="M406.276,28.185s-8.2-11.147-31.284-8.016" fill="none" stroke="#000" stroke-linecap="round" stroke-width="6"/>
      <path d="M413.829,23.121s-5.185-13.909-33.75-11.17" fill="none" stroke="#000" stroke-linecap="round" stroke-width="6"/>
      <path d="M419.6,17.358A43.933,43.933,0,0,0,385.279,4.125" fill="none" stroke="#000" stroke-linecap="round" stroke-width="6"/>
      <path d="M297.652,40.633S276.8,34.023,269.62,58.028" fill="none" stroke="#000" stroke-linecap="round" stroke-width="6"/>
    </g>
  </g>
</svg>
