<svg xmlns="http://www.w3.org/2000/svg" viewBox="0 0 517.604 116.146">
  <g id="Capa_2" data-name="Capa 2">
    <g id="Capa_9" data-name="Capa 9">
      <path d="M327.659,58c0,30.376-27.162,55-61.971,55s-63.029-24.624-63.029-55S230.878,3,265.688,3,327.659,27.624,327.659,58Z" fill="#fff" stroke="#000" stroke-linecap="round" stroke-width="6"/>
      <circle cx="247.468" cy="46.778" r="9.107" fill="#1d1d1b" stroke="#000" stroke-miterlimit="10"/>
      <path d="M252.941,85.618c-5.989,3.6,30.511-15.99,24.412-13.131" fill="#1d1d1b" stroke="#000" stroke-linecap="round" stroke-width="6"/>
      <path d="M240.08,31.551c-4.3-2.621,18.8,12.939,14.857,9.99" fill="#1d1d1b" stroke="#000" stroke-linecap="round" stroke-width="6"/>
      <path d="M279.119,40.45c-5.657,4.665,29.835-22.67,23.836-18.383" fill="#1d1d1b" stroke="#000" stroke-linecap="round" stroke-width="6"/>
      <circle cx="287.613" cy="46.924" r="9.107" fill="#1d1d1b" stroke="#000" stroke-miterlimit="10"/>
      <path d="M514.6,58.146c0,30.376-27.161,55-61.971,55s-63.029-24.624-63.029-55,28.219-55,63.029-55S514.6,27.77,514.6,58.146Z" fill="#fff" stroke="#000" stroke-linecap="round" stroke-width="6"/>
      <circle cx="434.414" cy="46.924" r="9.107" fill="#1d1d1b" stroke="#000" stroke-miterlimit="10"/>
      <line x1="439.887" y1="85.764" x2="464.299" y2="72.632" fill="#1d1d1b" stroke="#000" stroke-linecap="round" stroke-width="6"/>
      <line x1="427.026" y1="31.697" x2="441.883" y2="41.687" fill="#1d1d1b" stroke="#000" stroke-linecap="round" stroke-width="6"/>
      <line x1="466.064" y1="40.596" x2="489.901" y2="22.213" fill="#1d1d1b" stroke="#000" stroke-linecap="round" stroke-width="6"/>
      <path d="M421.455,8.219c12.334-.143-49.336.133-49.336.133" fill="#1d1d1b" stroke="#000" stroke-linecap="round" stroke-width="6"/>
      <line x1="400.695" y1="24.481" x2="388.814" y2="24.481" fill="#1d1d1b" stroke="#000" stroke-linecap="round" stroke-width="6"/>
      <circle cx="474.559" cy="47.07" r="9.107" fill="#1d1d1b" stroke="#000" stroke-miterlimit="10"/>
      <path d="M409.182,16.129h-27.02" fill="#1d1d1b" stroke="#000" stroke-linecap="round" stroke-width="6"/>
      <path d="M145.327,58c0,30.376-27.162,55-61.972,55S20.327,88.376,20.327,58,48.545,3,83.355,3,145.327,27.624,145.327,58Z" fill="#fff" stroke="#000" stroke-linecap="round" stroke-width="6"/>
      <circle cx="65.136" cy="46.778" r="9.107" fill="#1d1d1b" stroke="#000" stroke-miterlimit="10"/>
      <path d="M70.609,85.618c-5.99,3.6,30.511-15.99,24.412-13.131" fill="#1d1d1b" stroke="#000" stroke-linecap="round" stroke-width="6"/>
      <path d="M57.748,31.551c-4.3-2.621,18.8,12.939,14.857,9.99" fill="#1d1d1b" stroke="#000" stroke-linecap="round" stroke-width="6"/>
      <path d="M96.786,40.45c-5.656,4.665,29.835-22.67,23.837-18.383" fill="#1d1d1b" stroke="#000" stroke-linecap="round" stroke-width="6"/>
      <circle cx="105.281" cy="46.924" r="9.107" fill="#1d1d1b" stroke="#000" stroke-miterlimit="10"/>
      <path d="M327.818,58c0,30.376-27.161,55-61.971,55s-63.029-24.624-63.029-55S231.037,3,265.847,3,327.818,27.624,327.818,58Z" fill="#fff" stroke="#000" stroke-linecap="round" stroke-width="6"/>
      <circle cx="247.627" cy="46.778" r="9.107" fill="#1d1d1b" stroke="#000" stroke-miterlimit="10"/>
      <line x1="253.1" y1="85.618" x2="277.512" y2="72.487" fill="#1d1d1b" stroke="#000" stroke-linecap="round" stroke-width="6"/>
      <line x1="240.239" y1="31.551" x2="255.096" y2="41.541" fill="#1d1d1b" stroke="#000" stroke-linecap="round" stroke-width="6"/>
      <line x1="279.278" y1="40.45" x2="303.114" y2="22.067" fill="#1d1d1b" stroke="#000" stroke-linecap="round" stroke-width="6"/>
      <path d="M234.669,8.074c12.334-.144-49.337.132-49.337.132" fill="#1d1d1b" stroke="#000" stroke-linecap="round" stroke-width="6"/>
      <line x1="213.908" y1="24.335" x2="202.028" y2="24.335" fill="#1d1d1b" stroke="#000" stroke-linecap="round" stroke-width="6"/>
      <circle cx="287.772" cy="46.924" r="9.107" fill="#1d1d1b" stroke="#000" stroke-miterlimit="10"/>
      <path d="M222.4,15.983h-27.02" fill="#1d1d1b" stroke="#000" stroke-linecap="round" stroke-width="6"/>
      <path d="M145.486,58.146c0,30.376-27.162,55-61.972,55s-63.028-24.624-63.028-55,28.219-55,63.028-55S145.486,27.77,145.486,58.146Z" fill="#fff" stroke="#000" stroke-linecap="round" stroke-width="6"/>
      <circle cx="65.295" cy="46.924" r="9.107" fill="#1d1d1b" stroke="#000" stroke-miterlimit="10"/>
      <line x1="70.768" y1="85.764" x2="95.18" y2="72.632" fill="#1d1d1b" stroke="#000" stroke-linecap="round" stroke-width="6"/>
      <line x1="57.907" y1="31.697" x2="72.764" y2="41.687" fill="#1d1d1b" stroke="#000" stroke-linecap="round" stroke-width="6"/>
      <line x1="96.945" y1="40.596" x2="120.782" y2="22.213" fill="#1d1d1b" stroke="#000" stroke-linecap="round" stroke-width="6"/>
      <path d="M52.336,8.219C64.67,8.076,3,8.352,3,8.352" fill="#1d1d1b" stroke="#000" stroke-linecap="round" stroke-width="6"/>
      <line x1="31.576" y1="24.481" x2="19.696" y2="24.481" fill="#1d1d1b" stroke="#000" stroke-linecap="round" stroke-width="6"/>
      <circle cx="105.44" cy="47.07" r="9.107" fill="#1d1d1b" stroke="#000" stroke-miterlimit="10"/>
    </g>
  </g>
</svg>
