<svg xmlns="http://www.w3.org/2000/svg" viewBox="0 0 508.967 116.559">
  <g id="Capa_2" data-name="Capa 2">
    <g id="Capa_48" data-name="Capa 48">
      <path d="M128,58.559c0,30.375-27.162,55-61.971,55S3,88.934,3,58.559s28.219-55,63.029-55S128,28.183,128,58.559Z" fill="none" stroke="#000" stroke-linecap="round" stroke-width="6"/>
      <line x1="42.54" y1="17.91" x2="57.148" y2="32.519" fill="none" stroke="#000" stroke-linecap="round" stroke-width="6"/>
      <line x1="71.235" y1="38.779" x2="88.974" y2="17.91" fill="none" stroke="#000" stroke-linecap="round" stroke-width="6"/>
      <line x1="42.54" y1="90.432" x2="85.322" y2="79.475" fill="none" stroke="#000" stroke-linecap="round" stroke-width="6"/>
      <circle cx="92.235" cy="45.692" r="6.913" stroke="#000" stroke-linecap="round" stroke-width="6"/>
      <circle cx="40.453" cy="45.692" r="6.913" stroke="#000" stroke-linecap="round" stroke-width="6"/>
      <line x1="92.235" y1="8.602" x2="132.279" y2="8.602" stroke="#000" stroke-linecap="round" stroke-width="6"/>
      <line x1="108.004" y1="17.91" x2="135.931" y2="17.91" stroke="#000" stroke-linecap="round" stroke-width="6"/>
      <line x1="117.964" y1="28.345" x2="135.931" y2="28.345" stroke="#000" stroke-linecap="round" stroke-width="6"/>
      <path d="M310.035,58c0,30.376-27.162,55-61.972,55s-63.028-24.624-63.028-55S213.253,3,248.063,3,310.035,27.624,310.035,58Z" fill="none" stroke="#000" stroke-linecap="round" stroke-width="6"/>
      <line x1="224.574" y1="17.351" x2="239.183" y2="31.96" fill="none" stroke="#000" stroke-linecap="round" stroke-width="6"/>
      <line x1="253.27" y1="38.221" x2="271.009" y2="17.351" fill="none" stroke="#000" stroke-linecap="round" stroke-width="6"/>
      <line x1="224.574" y1="89.873" x2="267.357" y2="78.916" fill="none" stroke="#000" stroke-linecap="round" stroke-width="6"/>
      <circle cx="274.27" cy="45.134" r="6.913" stroke="#000" stroke-linecap="round" stroke-width="6"/>
      <circle cx="222.487" cy="45.134" r="6.913" stroke="#000" stroke-linecap="round" stroke-width="6"/>
      <line x1="274.27" y1="8.043" x2="314.313" y2="8.043" stroke="#000" stroke-linecap="round" stroke-width="6"/>
      <line x1="290.039" y1="17.351" x2="317.966" y2="17.351" stroke="#000" stroke-linecap="round" stroke-width="6"/>
      <line x1="299.999" y1="27.786" x2="317.966" y2="27.786" stroke="#000" stroke-linecap="round" stroke-width="6"/>
      <path d="M498.036,58.559c0,30.375-27.162,55-61.972,55s-63.028-24.625-63.028-55,28.219-55,63.028-55S498.036,28.183,498.036,58.559Z" fill="none" stroke="#000" stroke-linecap="round" stroke-width="6"/>
      <line x1="412.575" y1="17.91" x2="427.184" y2="32.519" fill="none" stroke="#000" stroke-linecap="round" stroke-width="6"/>
      <line x1="441.271" y1="38.779" x2="459.01" y2="17.91" fill="none" stroke="#000" stroke-linecap="round" stroke-width="6"/>
      <line x1="412.575" y1="90.432" x2="455.358" y2="79.475" fill="none" stroke="#000" stroke-linecap="round" stroke-width="6"/>
      <circle cx="462.271" cy="45.692" r="6.913" stroke="#000" stroke-linecap="round" stroke-width="6"/>
      <circle cx="410.488" cy="45.692" r="6.913" stroke="#000" stroke-linecap="round" stroke-width="6"/>
      <line x1="462.271" y1="8.602" x2="502.315" y2="8.602" stroke="#000" stroke-linecap="round" stroke-width="6"/>
      <line x1="488" y1="28.345" x2="505.967" y2="28.345" stroke="#000" stroke-linecap="round" stroke-width="6"/>
    </g>
  </g>
</svg>
