<svg xmlns="http://www.w3.org/2000/svg" viewBox="0 0 524.314 129.838">
  <g id="Capa_2" data-name="Capa 2">
    <g id="Capa_57" data-name="Capa 57">
      <path d="M316.843,71.838c0,30.376-27.162,55-61.972,55s-63.028-24.624-63.028-55,28.219-55,63.028-55S316.843,41.463,316.843,71.838Z" fill="none" stroke="#000" stroke-linecap="round" stroke-width="6"/>
      <line x1="194.566" y1="3.369" x2="213.869" y2="30.07" fill="none" stroke="#000" stroke-linecap="round" stroke-width="6"/>
      <line x1="179.467" y1="16.719" x2="210.137" y2="30.07" fill="none" stroke="#000" stroke-linecap="round" stroke-width="6"/>
      <line x1="287.012" y1="24.668" x2="316.843" y2="6.672" fill="none" stroke="#000" stroke-linecap="round" stroke-width="6"/>
      <line x1="298.244" y1="32.366" x2="334.702" y2="32.366" fill="none" stroke="#000" stroke-linecap="round" stroke-width="6"/>
      <line x1="275.25" y1="51.497" x2="290.349" y2="51.497" fill="none" stroke="#000" stroke-linecap="round" stroke-width="6"/>
      <line x1="212.024" y1="51.497" x2="249.299" y2="51.497" fill="none" stroke="#000" stroke-linecap="round" stroke-width="6"/>
      <line x1="244.581" y1="103.399" x2="267.701" y2="95.85" stroke="#000" stroke-linecap="round" stroke-width="6"/>
      <circle cx="229.037" cy="64.735" r="7.104" stroke="#000" stroke-linecap="round" stroke-width="6"/>
      <circle cx="282.8" cy="64.735" r="7.104" stroke="#000" stroke-linecap="round" stroke-width="6"/>
      <path d="M503.455,71.469c0,30.376-27.162,55-61.972,55s-63.028-24.624-63.028-55,28.219-55,63.028-55S503.455,41.093,503.455,71.469Z" fill="none" stroke="#000" stroke-linecap="round" stroke-width="6"/>
      <line x1="381.178" y1="3" x2="400.481" y2="29.7" fill="none" stroke="#000" stroke-linecap="round" stroke-width="6"/>
      <line x1="366.079" y1="16.35" x2="396.749" y2="29.7" fill="none" stroke="#000" stroke-linecap="round" stroke-width="6"/>
      <line x1="473.624" y1="24.299" x2="503.455" y2="6.303" fill="none" stroke="#000" stroke-linecap="round" stroke-width="6"/>
      <line x1="484.856" y1="31.997" x2="521.314" y2="31.997" fill="none" stroke="#000" stroke-linecap="round" stroke-width="6"/>
      <line x1="461.862" y1="51.127" x2="476.961" y2="51.127" fill="none" stroke="#000" stroke-linecap="round" stroke-width="6"/>
      <line x1="398.636" y1="51.127" x2="435.911" y2="51.127" fill="none" stroke="#000" stroke-linecap="round" stroke-width="6"/>
      <line x1="431.193" y1="103.03" x2="454.313" y2="95.48" stroke="#000" stroke-linecap="round" stroke-width="6"/>
      <circle cx="415.649" cy="64.365" r="7.104" stroke="#000" stroke-linecap="round" stroke-width="6"/>
      <circle cx="469.412" cy="64.365" r="7.104" stroke="#000" stroke-linecap="round" stroke-width="6"/>
      <path d="M133.062,71.469c0,30.376-27.162,55-61.971,55s-63.029-24.624-63.029-55,28.219-55,63.029-55S133.062,41.093,133.062,71.469Z" fill="none" stroke="#000" stroke-linecap="round" stroke-width="6"/>
      <line x1="91.47" y1="51.127" x2="106.568" y2="51.127" fill="none" stroke="#000" stroke-linecap="round" stroke-width="6"/>
      <line x1="28.243" y1="51.127" x2="65.519" y2="51.127" fill="none" stroke="#000" stroke-linecap="round" stroke-width="6"/>
      <line x1="60.8" y1="103.03" x2="83.92" y2="95.48" stroke="#000" stroke-linecap="round" stroke-width="6"/>
      <circle cx="45.256" cy="64.365" r="7.104" stroke="#000" stroke-linecap="round" stroke-width="6"/>
      <circle cx="99.019" cy="64.365" r="7.104" stroke="#000" stroke-linecap="round" stroke-width="6"/>
      <path d="M106.568,26.212s14.391-14.672,36.1-3.187" fill="none" stroke="#000" stroke-linecap="round" stroke-width="6"/>
      <path d="M91.915,19.583s17.72-22.819,44.615-8.664" fill="none" stroke="#000" stroke-linecap="round" stroke-width="6"/>
      <path d="M8.807,6.672S43.631,3.347,45.256,21.288" fill="none" stroke="#000" stroke-linecap="round" stroke-width="6"/>
      <path d="M3,21.288s28.191-8.4,26.6,8.782" fill="none" stroke="#000" stroke-linecap="round" stroke-width="6"/>
    </g>
  </g>
</svg>
