<svg xmlns="http://www.w3.org/2000/svg" viewBox="0 0 499.631 137.42">
  <g id="Capa_2" data-name="Capa 2">
    <g id="Capa_21" data-name="Capa 21">
      <path d="M421.966,4.334c-8.56,11.5-5.6,20.328-5.468,27.582" fill="none" stroke="#000" stroke-linecap="round" stroke-width="6"/>
      <path d="M409.512,4.642c-4.579,6.861-2.3,29.491-2.3,29.491" fill="none" stroke="#000" stroke-linecap="round" stroke-width="6"/>
      <path d="M396.338,4.894c-5.688,4.719-1.2,25.96,3.523,31.649" fill="none" stroke="#000" stroke-linecap="round" stroke-width="6"/>
      <path d="M496.631,78.275c0,30.376-27.161,55-61.971,55s-63.029-24.624-63.029-55,28.219-55,63.029-55S496.631,47.9,496.631,78.275Z" fill="#fff" stroke="#000" stroke-linecap="round" stroke-width="6"/>
      <line x1="400.049" y1="53.275" x2="431.745" y2="53.275" fill="#1d1d1b" stroke="#000" stroke-linecap="round" stroke-width="6"/>
      <circle cx="401.048" cy="65.775" r="12.5" stroke="#000" stroke-miterlimit="10"/>
      <line x1="404.813" y1="99.589" x2="463.449" y2="99.589" fill="#1d1d1b" stroke="#000" stroke-linecap="round" stroke-width="6"/>
      <circle cx="458.555" cy="68.71" r="12.5" stroke="#000" stroke-miterlimit="10"/>
      <line x1="464.327" y1="53.275" x2="479.863" y2="53.275" fill="#1d1d1b" stroke="#000" stroke-linecap="round" stroke-width="6"/>
      <path d="M269.231,3c8.561,11.5,5.6,20.329,5.468,27.583" fill="none" stroke="#000" stroke-linecap="round" stroke-width="6"/>
      <path d="M281.686,3.309c4.578,6.861,2.3,29.49,2.3,29.49" fill="none" stroke="#000" stroke-linecap="round" stroke-width="6"/>
      <path d="M294.859,3.56c5.689,4.719,1.2,25.96-3.522,31.649" fill="none" stroke="#000" stroke-linecap="round" stroke-width="6"/>
      <path d="M310.516,79.42c0,30.376-27.161,55-61.971,55s-63.029-24.624-63.029-55,28.219-55,63.029-55S310.516,49.044,310.516,79.42Z" fill="#fff" stroke="#000" stroke-linecap="round" stroke-width="6"/>
      <line x1="213.934" y1="54.42" x2="245.63" y2="54.42" fill="#1d1d1b" stroke="#000" stroke-linecap="round" stroke-width="6"/>
      <circle cx="214.933" cy="66.92" r="12.5" stroke="#000" stroke-miterlimit="10"/>
      <line x1="218.698" y1="100.733" x2="277.334" y2="100.733" fill="#1d1d1b" stroke="#000" stroke-linecap="round" stroke-width="6"/>
      <circle cx="272.439" cy="69.855" r="12.5" stroke="#000" stroke-miterlimit="10"/>
      <line x1="278.211" y1="54.42" x2="293.748" y2="54.42" fill="#1d1d1b" stroke="#000" stroke-linecap="round" stroke-width="6"/>
      <path d="M53.335,4.428c-8.561,11.5-5.6,20.329-5.468,27.583" fill="none" stroke="#000" stroke-linecap="round" stroke-width="6"/>
      <path d="M40.88,4.737c-4.578,6.861-2.3,29.491-2.3,29.491" fill="none" stroke="#000" stroke-linecap="round" stroke-width="6"/>
      <path d="M27.707,4.988c-5.689,4.719-1.2,25.961,3.522,31.649" fill="none" stroke="#000" stroke-linecap="round" stroke-width="6"/>
      <path d="M128,78.37c0,30.375-27.162,55-61.971,55S3,108.745,3,78.37s28.219-55,63.029-55S128,47.994,128,78.37Z" fill="#fff" stroke="#000" stroke-linecap="round" stroke-width="6"/>
      <line x1="31.418" y1="53.37" x2="63.113" y2="53.37" fill="#1d1d1b" stroke="#000" stroke-linecap="round" stroke-width="6"/>
      <circle cx="32.417" cy="65.87" r="12.5" stroke="#000" stroke-miterlimit="10"/>
      <line x1="36.182" y1="99.683" x2="94.818" y2="99.683" fill="#1d1d1b" stroke="#000" stroke-linecap="round" stroke-width="6"/>
      <circle cx="89.923" cy="68.804" r="12.5" stroke="#000" stroke-miterlimit="10"/>
      <line x1="95.695" y1="53.37" x2="111.231" y2="53.37" fill="#1d1d1b" stroke="#000" stroke-linecap="round" stroke-width="6"/>
    </g>
  </g>
</svg>
