<svg xmlns="http://www.w3.org/2000/svg" viewBox="0 0 506.88 116">
  <g id="Capa_2" data-name="Capa 2">
    <g id="Capa_52" data-name="Capa 52">
      <path d="M128,58c0,30.376-27.162,55-61.971,55S3,88.376,3,58,31.219,3,66.029,3,128,27.624,128,58Z" fill="none" stroke="#000" stroke-linecap="round" stroke-width="6"/>
      <line x1="38.366" y1="88.829" x2="91.583" y2="77.873" fill="none" stroke="#000" stroke-linecap="round" stroke-width="6"/>
      <line x1="82.192" y1="3" x2="133.844" y2="3" fill="none" stroke="#000" stroke-linecap="round" stroke-width="6"/>
      <line x1="98.832" y1="11.19" x2="133.844" y2="11.19" fill="none" stroke="#000" stroke-linecap="round" stroke-width="6"/>
      <line x1="113.416" y1="22.352" x2="133.844" y2="22.352" fill="none" stroke="#000" stroke-linecap="round" stroke-width="6"/>
      <line x1="120.06" y1="30.855" x2="133.844" y2="30.855" fill="none" stroke="#000" stroke-linecap="round" stroke-width="6"/>
      <line x1="33.148" y1="28.308" x2="49.322" y2="28.308" fill="none" stroke="#000" stroke-linecap="round" stroke-width="6"/>
      <line x1="82.192" y1="28.308" x2="98.832" y2="28.308" fill="none" stroke="#000" stroke-linecap="round" stroke-width="6"/>
      <circle cx="41.235" cy="46.717" r="9.018" stroke="#000" stroke-linecap="round" stroke-width="6"/>
      <circle cx="90.512" cy="46.841" r="9.018" stroke="#000" stroke-linecap="round" stroke-width="6"/>
      <path d="M311.078,58c0,30.376-27.162,55-61.971,55s-63.029-24.624-63.029-55S214.3,3,249.107,3,311.078,27.624,311.078,58Z" fill="none" stroke="#000" stroke-linecap="round" stroke-width="6"/>
      <line x1="221.444" y1="88.829" x2="274.661" y2="77.873" fill="none" stroke="#000" stroke-linecap="round" stroke-width="6"/>
      <line x1="265.27" y1="3" x2="316.922" y2="3" fill="none" stroke="#000" stroke-linecap="round" stroke-width="6"/>
      <line x1="281.91" y1="11.19" x2="316.922" y2="11.19" fill="none" stroke="#000" stroke-linecap="round" stroke-width="6"/>
      <line x1="296.494" y1="22.352" x2="316.922" y2="22.352" fill="none" stroke="#000" stroke-linecap="round" stroke-width="6"/>
      <line x1="303.138" y1="30.855" x2="316.922" y2="30.855" fill="none" stroke="#000" stroke-linecap="round" stroke-width="6"/>
      <line x1="216.226" y1="28.308" x2="232.4" y2="28.308" fill="none" stroke="#000" stroke-linecap="round" stroke-width="6"/>
      <line x1="265.27" y1="28.308" x2="281.91" y2="28.308" fill="none" stroke="#000" stroke-linecap="round" stroke-width="6"/>
      <circle cx="224.313" cy="46.717" r="9.018" stroke="#000" stroke-linecap="round" stroke-width="6"/>
      <circle cx="273.59" cy="46.841" r="9.018" stroke="#000" stroke-linecap="round" stroke-width="6"/>
      <path d="M498.036,58c0,30.376-27.162,55-61.972,55s-63.028-24.624-63.028-55S401.255,3,436.064,3,498.036,27.624,498.036,58Z" fill="none" stroke="#000" stroke-linecap="round" stroke-width="6"/>
      <line x1="408.401" y1="88.829" x2="461.619" y2="77.873" fill="none" stroke="#000" stroke-linecap="round" stroke-width="6"/>
      <line x1="452.228" y1="3" x2="503.88" y2="3" fill="none" stroke="#000" stroke-linecap="round" stroke-width="6"/>
      <line x1="468.868" y1="11.19" x2="503.88" y2="11.19" fill="none" stroke="#000" stroke-linecap="round" stroke-width="6"/>
      <line x1="483.452" y1="22.352" x2="503.88" y2="22.352" fill="none" stroke="#000" stroke-linecap="round" stroke-width="6"/>
      <line x1="490.096" y1="30.855" x2="503.88" y2="30.855" fill="none" stroke="#000" stroke-linecap="round" stroke-width="6"/>
      <line x1="393.148" y1="28.308" x2="427.061" y2="28.308" fill="none" stroke="#000" stroke-linecap="round" stroke-width="6"/>
      <line x1="445.844" y1="28.308" x2="476.749" y2="28.308" fill="none" stroke="#000" stroke-linecap="round" stroke-width="6"/>
      <circle cx="411.271" cy="46.717" r="9.018" stroke="#000" stroke-linecap="round" stroke-width="6"/>
      <circle cx="460.548" cy="46.841" r="9.018" stroke="#000" stroke-linecap="round" stroke-width="6"/>
    </g>
  </g>
</svg>
