<svg xmlns="http://www.w3.org/2000/svg" viewBox="0 0 510.01 128.424">
  <g id="Capa_2" data-name="Capa 2">
    <g id="Capa_47" data-name="Capa 47">
      <path d="M128,70.424c0,30.376-27.162,55-61.971,55S3,100.8,3,70.424s28.219-55,63.029-55S128,40.049,128,70.424Z" fill="none" stroke="#000" stroke-linecap="round" stroke-width="6"/>
      <line x1="35.757" y1="38.123" x2="50.366" y2="38.123" fill="none" stroke="#000" stroke-linecap="round" stroke-width="6"/>
      <line x1="71.757" y1="38.123" x2="104.627" y2="38.123" fill="none" stroke="#000" stroke-linecap="round" stroke-width="6"/>
      <line x1="83.658" y1="17.631" x2="98.366" y2="3.688" fill="none" stroke="#000" stroke-linecap="round" stroke-width="6"/>
      <line x1="93.67" y1="22.471" x2="108.801" y2="7.34" fill="none" stroke="#000" stroke-linecap="round" stroke-width="6"/>
      <line x1="104.627" y1="27.219" x2="128" y2="3.688" fill="none" stroke="#000" stroke-linecap="round" stroke-width="6"/>
      <line x1="112.27" y1="33.609" x2="136.974" y2="7.34" fill="none" stroke="#000" stroke-linecap="round" stroke-width="6"/>
      <path d="M46.192,99.167s29.217,12,42-4.7" fill="none" stroke="#000" stroke-linecap="round" stroke-width="6"/>
      <circle cx="41.111" cy="53.911" r="5.354" stroke="#000" stroke-linecap="round" stroke-width="6"/>
      <circle cx="91.012" cy="53.911" r="5.354" stroke="#000" stroke-linecap="round" stroke-width="6"/>
      <path d="M311.784,69.736c0,30.376-27.162,55-61.972,55s-63.028-24.624-63.028-55,28.219-55,63.028-55S311.784,39.36,311.784,69.736Z" fill="none" stroke="#000" stroke-linecap="round" stroke-width="6"/>
      <line x1="219.541" y1="37.435" x2="234.149" y2="37.435" fill="none" stroke="#000" stroke-linecap="round" stroke-width="6"/>
      <line x1="255.541" y1="37.435" x2="288.41" y2="37.435" fill="none" stroke="#000" stroke-linecap="round" stroke-width="6"/>
      <line x1="267.442" y1="16.942" x2="282.149" y2="3" fill="none" stroke="#000" stroke-linecap="round" stroke-width="6"/>
      <line x1="277.454" y1="21.783" x2="292.584" y2="6.652" fill="none" stroke="#000" stroke-linecap="round" stroke-width="6"/>
      <line x1="288.41" y1="26.53" x2="311.784" y2="3" fill="none" stroke="#000" stroke-linecap="round" stroke-width="6"/>
      <line x1="296.053" y1="32.921" x2="320.758" y2="6.652" fill="none" stroke="#000" stroke-linecap="round" stroke-width="6"/>
      <path d="M229.976,98.478s29.217,12,42-4.695" fill="none" stroke="#000" stroke-linecap="round" stroke-width="6"/>
      <circle cx="224.894" cy="53.223" r="5.354" stroke="#000" stroke-linecap="round" stroke-width="6"/>
      <circle cx="274.796" cy="53.223" r="5.354" stroke="#000" stroke-linecap="round" stroke-width="6"/>
      <path d="M498.036,70.424c0,30.376-27.162,55-61.972,55s-63.028-24.624-63.028-55,28.219-55,63.028-55S498.036,40.049,498.036,70.424Z" fill="none" stroke="#000" stroke-linecap="round" stroke-width="6"/>
      <line x1="405.793" y1="38.123" x2="420.401" y2="38.123" fill="none" stroke="#000" stroke-linecap="round" stroke-width="6"/>
      <line x1="441.793" y1="38.123" x2="474.662" y2="38.123" fill="none" stroke="#000" stroke-linecap="round" stroke-width="6"/>
      <line x1="453.694" y1="17.631" x2="468.401" y2="3.688" fill="none" stroke="#000" stroke-linecap="round" stroke-width="6"/>
      <line x1="463.706" y1="22.471" x2="478.836" y2="7.34" fill="none" stroke="#000" stroke-linecap="round" stroke-width="6"/>
      <line x1="474.662" y1="27.219" x2="498.036" y2="3.688" fill="none" stroke="#000" stroke-linecap="round" stroke-width="6"/>
      <line x1="482.305" y1="33.609" x2="507.01" y2="7.34" fill="none" stroke="#000" stroke-linecap="round" stroke-width="6"/>
      <circle cx="411.146" cy="53.911" r="5.354" stroke="#000" stroke-linecap="round" stroke-width="6"/>
      <circle cx="461.048" cy="53.911" r="5.354" stroke="#000" stroke-linecap="round" stroke-width="6"/>
      <line x1="420.401" y1="98.217" x2="453.694" y2="98.217" fill="none" stroke="#000" stroke-linecap="round" stroke-width="6"/>
    </g>
  </g>
</svg>
