<svg xmlns="http://www.w3.org/2000/svg" viewBox="0 0 506.269 141.045">
  <g id="Capa_2" data-name="Capa 2">
    <g id="Capa_3" data-name="Capa 3">
      <path d="M502.421,81.466c0,30.375-27.161,55-61.971,55s-63.029-24.625-63.029-55,28.219-55,63.029-55S502.421,51.09,502.421,81.466Z" fill="#fff" stroke="#000" stroke-linecap="round" stroke-width="6"/>
      <circle cx="407.015" cy="70.705" r="12.5" fill="#1d1d1b" stroke="#000" stroke-miterlimit="10"/>
      <circle cx="471.628" cy="70.705" r="12.5" fill="#1d1d1b" stroke="#000" stroke-miterlimit="10"/>
      <path d="M418.581,100.383c-10.44-3.5,52.681,19.263,42.223,15.2" fill="#1d1d1b" stroke="#000" stroke-linecap="round" stroke-width="6"/>
      <path d="M404.97,55.588c-5.03.144,22.812.6,17.9.277" fill="#1d1d1b" stroke="#000" stroke-linecap="round" stroke-width="6"/>
      <path d="M452.618,55.433c-8.223.346,41.453.447,33.388.039" fill="#1d1d1b" stroke="#000" stroke-linecap="round" stroke-width="6"/>
      <line x1="370.453" y1="5.325" x2="396.277" y2="39.266" fill="#1d1d1b" stroke="#000" stroke-linecap="round" stroke-width="6"/>
      <line x1="380.195" y1="3.051" x2="403.171" y2="34.93" fill="#1d1d1b" stroke="#000" stroke-linecap="round" stroke-width="6"/>
      <line x1="391.724" y1="3.023" x2="410.214" y2="30.528" fill="#1d1d1b" stroke="#000" stroke-linecap="round" stroke-width="6"/>
      <line x1="400.839" y1="3" x2="419.361" y2="28.699" fill="#1d1d1b" stroke="#000" stroke-linecap="round" stroke-width="6"/>
      <path d="M317.621,82.629c0,30.376-27.161,55-61.971,55s-63.029-24.624-63.029-55,28.219-55,63.029-55S317.621,52.253,317.621,82.629Z" fill="#fff" stroke="#000" stroke-linecap="round" stroke-width="6"/>
      <circle cx="222.215" cy="71.868" r="12.5" fill="#1d1d1b" stroke="#000" stroke-miterlimit="10"/>
      <circle cx="286.828" cy="71.868" r="12.5" fill="#1d1d1b" stroke="#000" stroke-miterlimit="10"/>
      <path d="M233.78,101.546c-10.439-3.5,52.682,19.263,42.223,15.2" fill="#1d1d1b" stroke="#000" stroke-linecap="round" stroke-width="6"/>
      <path d="M220.17,56.751c-5.031.144,22.812.6,17.9.277" fill="#1d1d1b" stroke="#000" stroke-linecap="round" stroke-width="6"/>
      <path d="M267.818,56.6c-8.223.346,41.452.447,33.387.039" fill="#1d1d1b" stroke="#000" stroke-linecap="round" stroke-width="6"/>
      <line x1="185.693" y1="6.983" x2="211.518" y2="40.924" fill="#1d1d1b" stroke="#000" stroke-linecap="round" stroke-width="6"/>
      <line x1="195.436" y1="4.71" x2="218.412" y2="36.588" fill="#1d1d1b" stroke="#000" stroke-linecap="round" stroke-width="6"/>
      <line x1="206.964" y1="4.681" x2="225.455" y2="32.186" fill="#1d1d1b" stroke="#000" stroke-linecap="round" stroke-width="6"/>
      <line x1="216.08" y1="4.658" x2="232.917" y2="28.019" fill="#1d1d1b" stroke="#000" stroke-linecap="round" stroke-width="6"/>
      <path d="M134.888,81.5c0,30.376-27.161,55-61.971,55S9.888,111.88,9.888,81.5s28.219-55,63.029-55S134.888,51.129,134.888,81.5Z" fill="#fff" stroke="#000" stroke-linecap="round" stroke-width="6"/>
      <circle cx="43.756" cy="71.352" r="8.038" fill="#1d1d1b" stroke="#000" stroke-miterlimit="10"/>
      <line x1="51.048" y1="100.422" x2="93.271" y2="115.624" fill="#1d1d1b" stroke="#000" stroke-linecap="round" stroke-width="6"/>
      <line x1="3" y1="6.334" x2="28.824" y2="40.275" fill="#1d1d1b" stroke="#000" stroke-linecap="round" stroke-width="6"/>
      <line x1="12.742" y1="4.06" x2="35.718" y2="35.939" fill="#1d1d1b" stroke="#000" stroke-linecap="round" stroke-width="6"/>
      <line x1="24.271" y1="4.032" x2="42.762" y2="31.537" fill="#1d1d1b" stroke="#000" stroke-linecap="round" stroke-width="6"/>
      <line x1="33.386" y1="4.009" x2="49.877" y2="26.89" fill="#1d1d1b" stroke="#000" stroke-linecap="round" stroke-width="6"/>
      <circle cx="102.832" cy="71.352" r="8.038" fill="#1d1d1b" stroke="#000" stroke-miterlimit="10"/>
      <line x1="36.826" y1="56.018" x2="59.823" y2="56.018" fill="#1d1d1b" stroke="#000" stroke-linecap="round" stroke-width="6"/>
      <line x1="83.589" y1="56.018" x2="119.935" y2="56.018" fill="#1d1d1b" stroke="#000" stroke-linecap="round" stroke-width="6"/>
      <path d="M317.582,83.045c0,30.376-27.162,55-61.971,55s-63.029-24.624-63.029-55,28.219-55,63.029-55S317.582,52.669,317.582,83.045Z" fill="#fff" stroke="#000" stroke-linecap="round" stroke-width="6"/>
      <circle cx="226.024" cy="71.179" r="9.751" fill="#1d1d1b" stroke="#000" stroke-miterlimit="10"/>
      <line x1="233.741" y1="101.962" x2="275.964" y2="117.165" fill="#1d1d1b" stroke="#000" stroke-linecap="round" stroke-width="6"/>
      <line x1="185.693" y1="7.874" x2="211.518" y2="41.815" fill="#1d1d1b" stroke="#000" stroke-linecap="round" stroke-width="6"/>
      <line x1="195.436" y1="5.601" x2="218.412" y2="37.479" fill="#1d1d1b" stroke="#000" stroke-linecap="round" stroke-width="6"/>
      <line x1="206.964" y1="5.572" x2="225.455" y2="33.077" fill="#1d1d1b" stroke="#000" stroke-linecap="round" stroke-width="6"/>
      <line x1="216.08" y1="5.55" x2="232.571" y2="28.43" fill="#1d1d1b" stroke="#000" stroke-linecap="round" stroke-width="6"/>
      <circle cx="285.1" cy="71.179" r="9.751" fill="#1d1d1b" stroke="#000" stroke-miterlimit="10"/>
      <line x1="219.52" y1="57.559" x2="242.517" y2="57.559" fill="#1d1d1b" stroke="#000" stroke-linecap="round" stroke-width="6"/>
      <line x1="266.283" y1="57.559" x2="302.629" y2="57.559" fill="#1d1d1b" stroke="#000" stroke-linecap="round" stroke-width="6"/>
      <path d="M503.269,81.882c0,30.375-27.162,55-61.971,55s-63.029-24.625-63.029-55,28.219-55,63.029-55S503.269,51.506,503.269,81.882Z" fill="#fff" stroke="#000" stroke-linecap="round" stroke-width="6"/>
      <circle cx="411.711" cy="70.016" r="9.751" fill="#1d1d1b" stroke="#000" stroke-miterlimit="10"/>
      <line x1="419.428" y1="100.799" x2="461.651" y2="116.001" fill="#1d1d1b" stroke="#000" stroke-linecap="round" stroke-width="6"/>
      <line x1="371.381" y1="6.711" x2="397.205" y2="40.652" fill="#1d1d1b" stroke="#000" stroke-linecap="round" stroke-width="6"/>
      <line x1="381.123" y1="4.437" x2="404.099" y2="36.316" fill="#1d1d1b" stroke="#000" stroke-linecap="round" stroke-width="6"/>
      <line x1="392.651" y1="4.409" x2="411.142" y2="31.914" fill="#1d1d1b" stroke="#000" stroke-linecap="round" stroke-width="6"/>
      <line x1="401.767" y1="4.386" x2="418.258" y2="27.267" fill="#1d1d1b" stroke="#000" stroke-linecap="round" stroke-width="6"/>
      <circle cx="470.787" cy="70.016" r="9.751" fill="#1d1d1b" stroke="#000" stroke-miterlimit="10"/>
      <line x1="405.207" y1="56.395" x2="428.204" y2="56.395" fill="#1d1d1b" stroke="#000" stroke-linecap="round" stroke-width="6"/>
      <line x1="451.97" y1="56.395" x2="488.316" y2="56.395" fill="#1d1d1b" stroke="#000" stroke-linecap="round" stroke-width="6"/>
    </g>
  </g>
</svg>
