<svg xmlns="http://www.w3.org/2000/svg" viewBox="0 0 509.24 122.09">
  <g id="Capa_2" data-name="Capa 2">
    <g id="Capa_30" data-name="Capa 30">
      <path d="M133.2,62.45c0,30.376-27.161,55-61.971,55S8.2,92.826,8.2,62.45s28.219-55,63.029-55S133.2,32.075,133.2,62.45Z" fill="none" stroke="#000" stroke-linecap="round" stroke-width="6"/>
      <line x1="42.522" y1="91.715" x2="93.783" y2="85.062" fill="none" stroke="#000" stroke-linecap="round" stroke-width="6"/>
      <line x1="81.652" y1="33.801" x2="109.435" y2="33.801" fill="none" stroke="#000" stroke-linecap="round" stroke-width="6"/>
      <line x1="39" y1="33.801" x2="52.304" y2="33.801" stroke="#000" stroke-linecap="round" stroke-width="6"/>
      <circle cx="44.38" cy="48.965" r="5.38" stroke="#000" stroke-linecap="round" stroke-width="6"/>
      <circle cx="44.38" cy="48.965" r="6.065" stroke="#000" stroke-linecap="round" stroke-width="6"/>
      <circle cx="97.696" cy="48.965" r="6.065" stroke="#000" stroke-linecap="round" stroke-width="6"/>
      <path d="M109.435,18.972s16.043-14.127,28.174,6.221" fill="none" stroke="#000" stroke-linecap="round" stroke-width="6"/>
      <path d="M91.63,10.434S100.043-.509,121.174,7.45" fill="none" stroke="#000" stroke-linecap="round" stroke-width="6"/>
      <path d="M10.826,7.45S24.913-4.326,45.652,10.434" fill="none" stroke="#000" stroke-linecap="round" stroke-width="6"/>
      <path d="M3,19.7s12-13.6,31.434-1.9" fill="none" stroke="#000" stroke-linecap="round" stroke-width="6"/>
      <path d="M315.113,62.45c0,30.376-27.162,55-61.971,55s-63.029-24.624-63.029-55,28.219-55,63.029-55S315.113,32.075,315.113,62.45Z" fill="none" stroke="#000" stroke-linecap="round" stroke-width="6"/>
      <line x1="224.435" y1="91.715" x2="275.696" y2="85.062" fill="none" stroke="#000" stroke-linecap="round" stroke-width="6"/>
      <circle cx="226.294" cy="48.965" r="5.38" stroke="#000" stroke-linecap="round" stroke-width="6"/>
      <circle cx="226.294" cy="48.965" r="6.065" stroke="#000" stroke-linecap="round" stroke-width="6"/>
      <circle cx="279.609" cy="48.965" r="6.065" stroke="#000" stroke-linecap="round" stroke-width="6"/>
      <path d="M291.348,18.972s16.044-14.127,28.174,6.221" fill="none" stroke="#000" stroke-linecap="round" stroke-width="6"/>
      <path d="M273.544,10.434S281.957-.509,303.087,7.45" fill="none" stroke="#000" stroke-linecap="round" stroke-width="6"/>
      <path d="M192.74,7.45s14.087-11.776,34.826,2.984" fill="none" stroke="#000" stroke-linecap="round" stroke-width="6"/>
      <path d="M184.914,19.7s12-13.6,31.433-1.9" fill="none" stroke="#000" stroke-linecap="round" stroke-width="6"/>
      <line x1="255.182" y1="42.899" x2="275.696" y2="22.454" fill="none" stroke="#000" stroke-linecap="round" stroke-width="6"/>
      <line x1="234.309" y1="33.801" x2="245.265" y2="42.899" fill="none" stroke="#000" stroke-linecap="round" stroke-width="6"/>
      <path d="M501.831,64.09c0,30.376-27.162,55-61.971,55s-63.029-24.624-63.029-55,28.219-55,63.029-55S501.831,33.714,501.831,64.09Z" fill="none" stroke="#000" stroke-linecap="round" stroke-width="6"/>
      <line x1="411.153" y1="93.354" x2="462.414" y2="86.702" fill="none" stroke="#000" stroke-linecap="round" stroke-width="6"/>
      <circle cx="413.012" cy="50.604" r="5.38" stroke="#000" stroke-linecap="round" stroke-width="6"/>
      <circle cx="413.012" cy="50.604" r="6.065" stroke="#000" stroke-linecap="round" stroke-width="6"/>
      <circle cx="466.327" cy="50.604" r="6.065" stroke="#000" stroke-linecap="round" stroke-width="6"/>
      <path d="M478.066,20.612s16.044-14.128,28.174,6.22" fill="none" stroke="#000" stroke-linecap="round" stroke-width="6"/>
      <path d="M460.262,12.073S468.675,1.13,489.805,9.09" fill="none" stroke="#000" stroke-linecap="round" stroke-width="6"/>
      <path d="M379.458,9.09s14.087-11.776,34.826,2.983" fill="none" stroke="#000" stroke-linecap="round" stroke-width="6"/>
      <path d="M371.631,21.335s12-13.606,31.434-1.9" fill="none" stroke="#000" stroke-linecap="round" stroke-width="6"/>
      <line x1="441.9" y1="44.539" x2="462.414" y2="24.093" fill="none" stroke="#000" stroke-linecap="round" stroke-width="6"/>
      <line x1="421.027" y1="35.441" x2="431.983" y2="44.539" fill="none" stroke="#000" stroke-linecap="round" stroke-width="6"/>
    </g>
  </g>
</svg>
