<svg xmlns="http://www.w3.org/2000/svg" viewBox="0 0 501.036 142.356">
  <g id="Capa_2" data-name="Capa 2">
    <g id="Capa_35" data-name="Capa 35">
      <path d="M498.036,83.386c0,30.376-27.162,55-61.972,55s-63.028-24.624-63.028-55,28.219-55,63.028-55S498.036,53.011,498.036,83.386Z" fill="none" stroke="#000" stroke-linecap="round" stroke-width="6"/>
      <path d="M128,83.386c0,30.376-27.162,55-61.971,55S3,113.762,3,83.386s28.219-55,63.029-55S128,53.011,128,83.386Z" fill="none" stroke="#000" stroke-linecap="round" stroke-width="6"/>
      <line x1="47.496" y1="54.477" x2="56.366" y2="62.564" fill="none" stroke="#000" stroke-linecap="round" stroke-width="6"/>
      <line x1="69.67" y1="70.129" x2="93.67" y2="45.085" fill="none" stroke="#000" stroke-linecap="round" stroke-width="6"/>
      <path d="M6.8,28.386s16.59-14.35,29.027,6.066" fill="none" stroke="#000" stroke-linecap="round" stroke-width="6"/>
      <path d="M22.714,14.3S33.409,8.278,47.5,29.551" fill="none" stroke="#000" stroke-linecap="round" stroke-width="6"/>
      <path d="M57.931,28.386H56.366S48.8,7.781,35.1,7.259" fill="none" stroke="#000" stroke-linecap="round" stroke-width="6"/>
      <path d="M46.518,4.129S63.952,8.818,66.029,28.386" fill="none" stroke="#000" stroke-linecap="round" stroke-width="6"/>
      <line x1="40.714" y1="101.955" x2="97.322" y2="108.477" fill="none" stroke="#000" stroke-linecap="round" stroke-width="6"/>
      <circle cx="91.844" cy="72.738" r="5.478" stroke="#000" stroke-linecap="round" stroke-width="6"/>
      <circle cx="40.714" cy="72.738" r="5.478" stroke="#000" stroke-linecap="round" stroke-width="6"/>
      <path d="M311.036,84.356c0,30.376-27.162,55-61.972,55s-63.028-24.624-63.028-55,28.219-55,63.028-55S311.036,53.98,311.036,84.356Z" fill="none" stroke="#000" stroke-linecap="round" stroke-width="6"/>
      <line x1="230.532" y1="55.446" x2="239.401" y2="63.533" fill="none" stroke="#000" stroke-linecap="round" stroke-width="6"/>
      <line x1="252.706" y1="71.098" x2="276.706" y2="46.055" fill="none" stroke="#000" stroke-linecap="round" stroke-width="6"/>
      <path d="M189.836,29.356s16.6-14.331,29.039,6.085" fill="none" stroke="#000" stroke-linecap="round" stroke-width="6"/>
      <path d="M205.749,15.272s10.7-6.024,24.783,15.249" fill="none" stroke="#000" stroke-linecap="round" stroke-width="6"/>
      <path d="M240.967,29.356H239.4s-7.565-20.605-21.26-21.127" fill="none" stroke="#000" stroke-linecap="round" stroke-width="6"/>
      <path d="M229.554,5.1s17.434,4.69,19.51,24.258" fill="none" stroke="#000" stroke-linecap="round" stroke-width="6"/>
      <line x1="223.749" y1="102.925" x2="280.358" y2="109.446" fill="none" stroke="#000" stroke-linecap="round" stroke-width="6"/>
      <circle cx="274.88" cy="73.707" r="5.478" stroke="#000" stroke-linecap="round" stroke-width="6"/>
      <circle cx="223.749" cy="73.707" r="5.478" stroke="#000" stroke-linecap="round" stroke-width="6"/>
      <path d="M498.036,82.258c0,30.375-27.162,55-61.972,55s-63.028-24.625-63.028-55,28.219-55,63.028-55S498.036,51.882,498.036,82.258Z" fill="none" stroke="#000" stroke-linecap="round" stroke-width="6"/>
      <line x1="417.532" y1="53.348" x2="426.401" y2="61.435" fill="none" stroke="#000" stroke-linecap="round" stroke-width="6"/>
      <line x1="439.706" y1="69" x2="463.706" y2="43.957" fill="none" stroke="#000" stroke-linecap="round" stroke-width="6"/>
      <path d="M376.836,27.258s17.042-13.63,29.479,6.785" fill="none" stroke="#000" stroke-linecap="round" stroke-width="6"/>
      <path d="M392.749,13.174s10.7-6.025,24.783,15.249" fill="none" stroke="#000" stroke-linecap="round" stroke-width="6"/>
      <path d="M427.967,27.258H426.4S418.836,6.652,405.141,6.13" fill="none" stroke="#000" stroke-linecap="round" stroke-width="6"/>
      <path d="M416.554,3s17.434,4.689,19.51,24.258" fill="none" stroke="#000" stroke-linecap="round" stroke-width="6"/>
      <line x1="410.749" y1="100.826" x2="467.358" y2="107.348" fill="none" stroke="#000" stroke-linecap="round" stroke-width="6"/>
      <circle cx="460.581" cy="70.31" r="6.777" stroke="#000" stroke-linecap="round" stroke-width="6"/>
      <circle cx="412.533" cy="69.825" r="7.262" stroke="#000" stroke-linecap="round" stroke-width="6"/>
    </g>
  </g>
</svg>
