<svg xmlns="http://www.w3.org/2000/svg" viewBox="0 0 501.036 136.418">
  <g id="Capa_2" data-name="Capa 2">
    <g id="Capa_54" data-name="Capa 54">
      <path d="M128,76.917c0,30.375-27.162,55-61.971,55S3,107.292,3,76.917s28.219-55,63.029-55S128,46.541,128,76.917Z" fill="none" stroke="#000" stroke-linecap="round" stroke-width="6"/>
      <line x1="34.714" y1="38.355" x2="63.409" y2="65.758" fill="none" stroke="#000" stroke-linecap="round" stroke-width="6"/>
      <line x1="78.54" y1="62.877" x2="94.714" y2="48.79" fill="none" stroke="#000" stroke-linecap="round" stroke-width="6"/>
      <line x1="27.409" y1="9.659" x2="41.496" y2="21.917" fill="none" stroke="#000" stroke-linecap="round" stroke-width="6"/>
      <line x1="49.061" y1="3.398" x2="59.758" y2="22.187" fill="none" stroke="#000" stroke-linecap="round" stroke-width="6"/>
      <line x1="83.757" y1="3.398" x2="72.294" y2="22.187" fill="none" stroke="#000" stroke-linecap="round" stroke-width="6"/>
      <line x1="103.061" y1="9.659" x2="90.487" y2="26.274" fill="none" stroke="#000" stroke-linecap="round" stroke-width="6"/>
      <line x1="44.105" y1="105.137" x2="72.294" y2="105.137" fill="none" stroke="#000" stroke-linecap="round" stroke-width="6"/>
      <circle cx="37.061" cy="62.877" r="7.043" stroke="#000" stroke-linecap="round" stroke-width="6"/>
      <circle cx="103.061" cy="62.877" r="7.043" stroke="#000" stroke-linecap="round" stroke-width="6"/>
      <path d="M310.053,78.418c0,30.376-27.161,55-61.971,55s-63.029-24.624-63.029-55,28.219-55,63.029-55S310.053,48.043,310.053,78.418Z" fill="none" stroke="#000" stroke-linecap="round" stroke-width="6"/>
      <line x1="216.767" y1="39.856" x2="245.462" y2="67.259" fill="none" stroke="#000" stroke-linecap="round" stroke-width="6"/>
      <line x1="260.593" y1="64.378" x2="276.767" y2="50.291" fill="none" stroke="#000" stroke-linecap="round" stroke-width="6"/>
      <line x1="209.462" y1="11.161" x2="223.549" y2="23.418" fill="none" stroke="#000" stroke-linecap="round" stroke-width="6"/>
      <line x1="231.115" y1="4.9" x2="241.811" y2="23.689" fill="none" stroke="#000" stroke-linecap="round" stroke-width="6"/>
      <line x1="265.81" y1="4.9" x2="254.347" y2="23.689" fill="none" stroke="#000" stroke-linecap="round" stroke-width="6"/>
      <line x1="285.115" y1="11.161" x2="272.54" y2="27.775" fill="none" stroke="#000" stroke-linecap="round" stroke-width="6"/>
      <line x1="226.158" y1="106.639" x2="254.347" y2="106.639" fill="none" stroke="#000" stroke-linecap="round" stroke-width="6"/>
      <circle cx="219.115" cy="64.378" r="7.043" stroke="#000" stroke-linecap="round" stroke-width="6"/>
      <circle cx="285.115" cy="64.378" r="7.043" stroke="#000" stroke-linecap="round" stroke-width="6"/>
      <path d="M498.036,76.519c0,30.375-27.162,55-61.972,55s-63.028-24.625-63.028-55,28.219-55,63.028-55S498.036,46.143,498.036,76.519Z" fill="none" stroke="#000" stroke-linecap="round" stroke-width="6"/>
      <line x1="391.696" y1="47.881" x2="431.368" y2="47.881" fill="none" stroke="#000" stroke-linecap="round" stroke-width="6"/>
      <line x1="461.628" y1="48.086" x2="480.141" y2="47.881" fill="none" stroke="#000" stroke-linecap="round" stroke-width="6"/>
      <line x1="397.445" y1="9.261" x2="411.532" y2="21.519" fill="none" stroke="#000" stroke-linecap="round" stroke-width="6"/>
      <line x1="419.097" y1="3" x2="429.793" y2="21.789" fill="none" stroke="#000" stroke-linecap="round" stroke-width="6"/>
      <line x1="453.793" y1="3" x2="442.33" y2="21.789" fill="none" stroke="#000" stroke-linecap="round" stroke-width="6"/>
      <line x1="473.097" y1="9.261" x2="460.523" y2="25.876" fill="none" stroke="#000" stroke-linecap="round" stroke-width="6"/>
      <line x1="414.141" y1="104.739" x2="442.33" y2="104.739" fill="none" stroke="#000" stroke-linecap="round" stroke-width="6"/>
      <circle cx="407.097" cy="62.478" r="7.043" stroke="#000" stroke-linecap="round" stroke-width="6"/>
      <circle cx="473.097" cy="62.478" r="7.043" stroke="#000" stroke-linecap="round" stroke-width="6"/>
    </g>
  </g>
</svg>
