<svg xmlns="http://www.w3.org/2000/svg" viewBox="0 0 522.13 116">
  <g id="Capa_2" data-name="Capa 2">
    <g id="Capa_41" data-name="Capa 41">
      <path d="M138.286,58c0,30.376-27.161,55-61.971,55S13.286,88.376,13.286,58,41.505,3,76.315,3,138.286,27.624,138.286,58Z" fill="none" stroke="#000" stroke-linecap="round" stroke-width="6"/>
      <line x1="49.174" y1="28.96" x2="64.435" y2="41.873" fill="none" stroke="#000" stroke-linecap="round" stroke-width="6"/>
      <line x1="82.043" y1="44.221" x2="104.348" y2="22.699" fill="none" stroke="#000" stroke-linecap="round" stroke-width="6"/>
      <circle cx="102.761" cy="49.286" r="6.065" stroke="#000" stroke-linecap="round" stroke-width="6"/>
      <circle cx="49.174" cy="49.286" r="6.065" stroke="#000" stroke-linecap="round" stroke-width="6"/>
      <line x1="56.804" y1="81.786" x2="88.304" y2="95.09" stroke="#000" stroke-linecap="round" stroke-width="6"/>
      <line x1="3" y1="28.96" x2="22.782" y2="28.96" stroke="#000" stroke-linecap="round" stroke-width="6"/>
      <line x1="3" y1="19.177" x2="31.671" y2="19.177" stroke="#000" stroke-linecap="round" stroke-width="6"/>
      <line x1="7.304" y1="9.395" x2="43.109" y2="9.395" stroke="#000" stroke-linecap="round" stroke-width="6"/>
      <path d="M321.4,58c0,30.376-27.161,55-61.971,55S196.4,88.376,196.4,58,224.619,3,259.429,3,321.4,27.624,321.4,58Z" fill="none" stroke="#000" stroke-linecap="round" stroke-width="6"/>
      <line x1="232.288" y1="28.96" x2="247.549" y2="41.873" fill="none" stroke="#000" stroke-linecap="round" stroke-width="6"/>
      <line x1="265.157" y1="44.221" x2="287.462" y2="22.699" fill="none" stroke="#000" stroke-linecap="round" stroke-width="6"/>
      <circle cx="285.875" cy="49.286" r="6.065" stroke="#000" stroke-linecap="round" stroke-width="6"/>
      <circle cx="232.288" cy="49.286" r="6.065" stroke="#000" stroke-linecap="round" stroke-width="6"/>
      <line x1="239.918" y1="81.786" x2="271.418" y2="95.09" stroke="#000" stroke-linecap="round" stroke-width="6"/>
      <line x1="186.114" y1="28.96" x2="205.896" y2="28.96" stroke="#000" stroke-linecap="round" stroke-width="6"/>
      <line x1="186.114" y1="19.177" x2="214.785" y2="19.177" stroke="#000" stroke-linecap="round" stroke-width="6"/>
      <line x1="190.418" y1="9.395" x2="226.222" y2="9.395" stroke="#000" stroke-linecap="round" stroke-width="6"/>
      <path d="M508.322,58c0,30.376-27.161,55-61.971,55s-63.029-24.624-63.029-55S411.541,3,446.351,3,508.322,27.624,508.322,58Z" fill="none" stroke="#000" stroke-linecap="round" stroke-width="6"/>
      <line x1="419.21" y1="28.96" x2="434.47" y2="41.873" fill="none" stroke="#000" stroke-linecap="round" stroke-width="6"/>
      <line x1="452.079" y1="44.221" x2="474.384" y2="22.699" fill="none" stroke="#000" stroke-linecap="round" stroke-width="6"/>
      <circle cx="472.797" cy="49.286" r="6.065" stroke="#000" stroke-linecap="round" stroke-width="6"/>
      <circle cx="419.21" cy="49.286" r="6.065" stroke="#000" stroke-linecap="round" stroke-width="6"/>
      <line x1="426.84" y1="81.786" x2="458.34" y2="95.09" stroke="#000" stroke-linecap="round" stroke-width="6"/>
      <line x1="478.862" y1="11.028" x2="510.522" y2="11.028" stroke="#000" stroke-linecap="round" stroke-width="6"/>
      <line x1="519.13" y1="21.134" x2="494.692" y2="21.134" stroke="#000" stroke-linecap="round" stroke-width="6"/>
      <line x1="512.478" y1="30.916" x2="500.421" y2="30.916" stroke="#000" stroke-linecap="round" stroke-width="6"/>
    </g>
  </g>
</svg>
