<svg xmlns="http://www.w3.org/2000/svg" viewBox="0 0 501.036 142.528">
  <g id="Capa_2" data-name="Capa 2">
    <g id="Capa_60" data-name="Capa 60">
      <path d="M311.036,84.528c0,30.376-27.162,55-61.972,55s-63.028-24.624-63.028-55,28.219-55,63.028-55S311.036,54.152,311.036,84.528Z" fill="none" stroke="#000" stroke-linecap="round" stroke-width="6"/>
      <line x1="222.26" y1="51.447" x2="243.492" y2="73.369" fill="none" stroke="#000" stroke-linecap="round" stroke-width="6"/>
      <line x1="258.591" y1="73.369" x2="268.972" y2="62.408" fill="none" stroke="#000" stroke-linecap="round" stroke-width="6"/>
      <path d="M263.781,4.263s12.571,3.712,11.712,30.4" fill="none" stroke="#000" stroke-linecap="round" stroke-width="6"/>
      <path d="M285.958,12.284s10.5-2.839,3.6,30.43" fill="none" stroke="#000" stroke-linecap="round" stroke-width="6"/>
      <path d="M304.831,19.464s13.895,9.88-8.151,29.66" fill="none" stroke="#000" stroke-linecap="round" stroke-width="6"/>
      <path d="M235,112.786s17.458-7.078,28.782,4.246" fill="none" stroke="#000" stroke-linecap="round" stroke-width="6"/>
      <circle cx="277.963" cy="77.896" r="6.632" stroke="#000" stroke-linecap="round" stroke-width="6"/>
      <circle cx="222.26" cy="77.896" r="6.632" stroke="#000" stroke-linecap="round" stroke-width="6"/>
      <path d="M498.036,83.9c0,30.375-27.162,55-61.972,55s-63.028-24.625-63.028-55,28.219-55,63.028-55S498.036,53.521,498.036,83.9Z" fill="none" stroke="#000" stroke-linecap="round" stroke-width="6"/>
      <line x1="409.26" y1="50.815" x2="430.492" y2="72.737" fill="none" stroke="#000" stroke-linecap="round" stroke-width="6"/>
      <line x1="445.591" y1="72.737" x2="455.972" y2="61.776" fill="none" stroke="#000" stroke-linecap="round" stroke-width="6"/>
      <path d="M450.781,3.632s12.571,3.711,11.712,30.4" fill="none" stroke="#000" stroke-linecap="round" stroke-width="6"/>
      <path d="M472.958,11.653s10.5-2.839,3.6,30.429" fill="none" stroke="#000" stroke-linecap="round" stroke-width="6"/>
      <path d="M491.831,18.833s13.895,9.879-8.151,29.66" fill="none" stroke="#000" stroke-linecap="round" stroke-width="6"/>
      <path d="M422,112.154s17.458-7.077,28.782,4.247" fill="none" stroke="#000" stroke-linecap="round" stroke-width="6"/>
      <circle cx="464.963" cy="77.265" r="6.632" stroke="#000" stroke-linecap="round" stroke-width="6"/>
      <circle cx="409.26" cy="77.265" r="6.632" stroke="#000" stroke-linecap="round" stroke-width="6"/>
      <path d="M128,83.265c0,30.376-27.162,55-61.971,55S3,113.641,3,83.265s28.219-55,63.029-55S128,52.889,128,83.265Z" fill="none" stroke="#000" stroke-linecap="round" stroke-width="6"/>
      <line x1="39.224" y1="50.184" x2="60.457" y2="72.106" fill="none" stroke="#000" stroke-linecap="round" stroke-width="6"/>
      <line x1="75.555" y1="72.106" x2="85.936" y2="61.145" fill="none" stroke="#000" stroke-linecap="round" stroke-width="6"/>
      <path d="M80.746,3s12.57,3.712,11.711,30.4" fill="none" stroke="#000" stroke-linecap="round" stroke-width="6"/>
      <path d="M102.922,11.021s10.5-2.839,3.6,30.43" fill="none" stroke="#000" stroke-linecap="round" stroke-width="6"/>
      <path d="M121.8,18.2s13.895,9.88-8.151,29.66" fill="none" stroke="#000" stroke-linecap="round" stroke-width="6"/>
      <circle cx="94.927" cy="76.633" r="6.632" stroke="#000" stroke-linecap="round" stroke-width="6"/>
      <circle cx="39.224" cy="76.633" r="6.632" stroke="#000" stroke-linecap="round" stroke-width="6"/>
      <line x1="34.94" y1="109.97" x2="88.295" y2="118.92" fill="none" stroke="#000" stroke-linecap="round" stroke-width="6"/>
    </g>
  </g>
</svg>
