<svg xmlns="http://www.w3.org/2000/svg" viewBox="0 0 501.036 116.183">
  <g id="Capa_2" data-name="Capa 2">
    <g id="Capa_55" data-name="Capa 55">
      <path d="M128,58c0,30.376-27.162,55-61.971,55S3,88.376,3,58,31.219,3,66.029,3,128,27.624,128,58Z" fill="none" stroke="#000" stroke-linecap="round" stroke-width="6"/>
      <line x1="95.106" y1="9.301" x2="136.385" y2="9.301" fill="none" stroke="#000" stroke-linecap="round" stroke-width="6"/>
      <line x1="108.24" y1="17.547" x2="131.667" y2="17.547" fill="none" stroke="#000" stroke-linecap="round" stroke-width="6"/>
      <line x1="118.344" y1="28.303" x2="128" y2="28.303" fill="none" stroke="#000" stroke-linecap="round" stroke-width="6"/>
      <line x1="70.328" y1="42.377" x2="95.106" y2="22.088" fill="none" stroke="#000" stroke-linecap="round" stroke-width="6"/>
      <line x1="48.151" y1="32.232" x2="58.532" y2="42.377" fill="none" stroke="#000" stroke-linecap="round" stroke-width="6"/>
      <line x1="39.658" y1="80.124" x2="90.145" y2="95.223" fill="none" stroke="#000" stroke-linecap="round" stroke-width="6"/>
      <circle cx="93.448" cy="49.454" r="7.078" stroke="#000" stroke-linecap="round" stroke-width="6"/>
      <circle cx="42.961" cy="49.454" r="7.078" stroke="#000" stroke-linecap="round" stroke-width="6"/>
      <path d="M310.659,58.183c0,30.376-27.162,55-61.972,55s-63.028-24.624-63.028-55,28.219-55,63.028-55S310.659,27.808,310.659,58.183Z" fill="none" stroke="#000" stroke-linecap="round" stroke-width="6"/>
      <line x1="277.765" y1="9.484" x2="319.044" y2="9.484" fill="none" stroke="#000" stroke-linecap="round" stroke-width="6"/>
      <line x1="290.898" y1="17.73" x2="314.325" y2="17.73" fill="none" stroke="#000" stroke-linecap="round" stroke-width="6"/>
      <line x1="301.002" y1="28.487" x2="310.659" y2="28.487" fill="none" stroke="#000" stroke-linecap="round" stroke-width="6"/>
      <line x1="252.986" y1="42.56" x2="277.765" y2="22.271" fill="none" stroke="#000" stroke-linecap="round" stroke-width="6"/>
      <line x1="230.81" y1="32.416" x2="241.19" y2="42.56" fill="none" stroke="#000" stroke-linecap="round" stroke-width="6"/>
      <line x1="222.317" y1="80.307" x2="272.804" y2="95.406" fill="none" stroke="#000" stroke-linecap="round" stroke-width="6"/>
      <circle cx="276.106" cy="49.638" r="7.078" stroke="#000" stroke-linecap="round" stroke-width="6"/>
      <circle cx="225.62" cy="49.638" r="7.078" stroke="#000" stroke-linecap="round" stroke-width="6"/>
      <path d="M498.036,58c0,30.376-27.162,55-61.972,55s-63.028-24.624-63.028-55S401.255,3,436.064,3,498.036,27.624,498.036,58Z" fill="none" stroke="#000" stroke-linecap="round" stroke-width="6"/>
      <line x1="405.919" y1="9.484" x2="364.64" y2="9.484" fill="none" stroke="#000" stroke-linecap="round" stroke-width="6"/>
      <line x1="392.785" y1="17.73" x2="369.359" y2="17.73" fill="none" stroke="#000" stroke-linecap="round" stroke-width="6"/>
      <line x1="382.682" y1="28.487" x2="373.025" y2="28.487" fill="none" stroke="#000" stroke-linecap="round" stroke-width="6"/>
      <line x1="440.363" y1="42.377" x2="465.142" y2="22.088" fill="none" stroke="#000" stroke-linecap="round" stroke-width="6"/>
      <line x1="418.187" y1="32.232" x2="428.568" y2="42.377" fill="none" stroke="#000" stroke-linecap="round" stroke-width="6"/>
      <line x1="409.694" y1="80.124" x2="460.181" y2="95.223" fill="none" stroke="#000" stroke-linecap="round" stroke-width="6"/>
      <circle cx="463.484" cy="49.454" r="7.078" stroke="#000" stroke-linecap="round" stroke-width="6"/>
      <circle cx="412.997" cy="49.454" r="7.078" stroke="#000" stroke-linecap="round" stroke-width="6"/>
    </g>
  </g>
</svg>
