<svg xmlns="http://www.w3.org/2000/svg" viewBox="0 0 526.818 140.335">
  <g id="Capa_2" data-name="Capa 2">
    <g id="Capa_12" data-name="Capa 12">
      <path d="M64.971,136.718c34.81,0,63.029-24.625,63.029-55s-28.219-55-63.029-55S3,51.342,3,81.718" fill="#fff" stroke="#000" stroke-linecap="round" stroke-width="6"/>
      <path d="M3,81.718c0,30.375,27.162,55,61.971,55" fill="#fff" stroke="#000" stroke-linecap="round" stroke-width="6"/>
      <circle cx="106.708" cy="72.502" r="7.895" fill="#1d1d1b" stroke="#000" stroke-miterlimit="10"/>
      <line x1="91.809" y1="93.825" x2="39.206" y2="114.613" fill="#1d1d1b" stroke="#000" stroke-linecap="round" stroke-width="6"/>
      <line x1="24.837" y1="50.479" x2="43.795" y2="68.538" fill="#1d1d1b" stroke="#000" stroke-linecap="round" stroke-width="6"/>
      <line x1="95.311" y1="67.424" x2="103.896" y2="58.383" fill="#1d1d1b" stroke="#000" stroke-linecap="round" stroke-width="6"/>
      <line x1="156.193" y1="19.46" x2="116.203" y2="47.645" fill="#1d1d1b" stroke="#000" stroke-linecap="round" stroke-width="6"/>
      <line x1="147.785" y1="10.767" x2="108.73" y2="39.999" fill="#1d1d1b" stroke="#000" stroke-linecap="round" stroke-width="6"/>
      <line x1="140.42" y1="3" x2="98.13" y2="34.15" fill="#1d1d1b" stroke="#000" stroke-linecap="round" stroke-width="6"/>
      <circle cx="26.834" cy="72.105" r="7.498" fill="#1d1d1b" stroke="#000" stroke-miterlimit="10"/>
      <path d="M186.4,81.718c0,30.375,27.162,55,61.971,55" fill="#fff" stroke="#000" stroke-linecap="round" stroke-width="6"/>
      <circle cx="290.105" cy="72.502" r="7.895" fill="#1d1d1b" stroke="#000" stroke-miterlimit="10"/>
      <path d="M275.206,93.825c12.984-4.841-65.657,26.272-52.6,20.788" fill="#1d1d1b" stroke="#000" stroke-linecap="round" stroke-width="6"/>
      <path d="M208.234,50.479c-5.2-4.943,24.3,23.162,18.958,18.059" fill="#1d1d1b" stroke="#000" stroke-linecap="round" stroke-width="6"/>
      <path d="M278.708,67.424c-2.22,2.137,10.54-11.325,8.585-9.041" fill="#1d1d1b" stroke="#000" stroke-linecap="round" stroke-width="6"/>
      <circle cx="210.231" cy="72.105" r="7.498" fill="#1d1d1b" stroke="#000" stroke-miterlimit="10"/>
      <path d="M432.6,137.131c34.81,0,63.029-24.625,63.029-55s-28.219-55-63.029-55-61.971,24.624-61.971,55" fill="#fff" stroke="#000" stroke-linecap="round" stroke-width="6"/>
      <path d="M370.626,82.131c0,30.375,27.161,55,61.971,55" fill="#fff" stroke="#000" stroke-linecap="round" stroke-width="6"/>
      <circle cx="474.334" cy="72.915" r="7.895" fill="#1d1d1b" stroke="#000" stroke-miterlimit="10"/>
      <path d="M459.435,94.238c12.983-4.841-65.657,26.272-52.6,20.788" fill="#1d1d1b" stroke="#000" stroke-linecap="round" stroke-width="6"/>
      <path d="M392.462,50.892c-5.2-4.943,24.3,23.162,18.959,18.059" fill="#1d1d1b" stroke="#000" stroke-linecap="round" stroke-width="6"/>
      <path d="M462.936,67.837c-2.22,2.137,10.541-11.325,8.585-9.041" fill="#1d1d1b" stroke="#000" stroke-linecap="round" stroke-width="6"/>
      <circle cx="394.46" cy="72.518" r="7.498" fill="#1d1d1b" stroke="#000" stroke-miterlimit="10"/>
      <path d="M246.308,136.923c34.81,0,63.028-24.625,63.028-55s-28.218-55-63.028-55-61.972,24.624-61.972,55" fill="#fff" stroke="#000" stroke-linecap="round" stroke-width="6"/>
      <path d="M184.336,81.923c0,30.375,27.162,55,61.972,55" fill="#fff" stroke="#000" stroke-linecap="round" stroke-width="6"/>
      <circle cx="288.044" cy="72.707" r="7.895" fill="#1d1d1b" stroke="#000" stroke-miterlimit="10"/>
      <line x1="273.145" y1="94.03" x2="220.543" y2="114.818" fill="#1d1d1b" stroke="#000" stroke-linecap="round" stroke-width="6"/>
      <line x1="206.173" y1="50.684" x2="225.132" y2="68.743" fill="#1d1d1b" stroke="#000" stroke-linecap="round" stroke-width="6"/>
      <line x1="276.647" y1="67.628" x2="285.232" y2="58.588" fill="#1d1d1b" stroke="#000" stroke-linecap="round" stroke-width="6"/>
      <line x1="337.529" y1="19.665" x2="297.539" y2="47.849" fill="#1d1d1b" stroke="#000" stroke-linecap="round" stroke-width="6"/>
      <line x1="329.121" y1="10.972" x2="290.067" y2="40.204" fill="#1d1d1b" stroke="#000" stroke-linecap="round" stroke-width="6"/>
      <line x1="321.756" y1="3.205" x2="279.466" y2="34.355" fill="#1d1d1b" stroke="#000" stroke-linecap="round" stroke-width="6"/>
      <circle cx="208.171" cy="72.31" r="7.498" fill="#1d1d1b" stroke="#000" stroke-miterlimit="10"/>
      <path d="M432.6,137.335c34.81,0,63.029-24.624,63.029-55s-28.219-55-63.029-55-61.971,24.625-61.971,55" fill="#fff" stroke="#000" stroke-linecap="round" stroke-width="6"/>
      <path d="M370.626,82.335c0,30.376,27.161,55,61.971,55" fill="#fff" stroke="#000" stroke-linecap="round" stroke-width="6"/>
      <circle cx="474.334" cy="73.12" r="7.895" fill="#1d1d1b" stroke="#000" stroke-miterlimit="10"/>
      <line x1="459.435" y1="94.443" x2="406.832" y2="115.231" fill="#1d1d1b" stroke="#000" stroke-linecap="round" stroke-width="6"/>
      <line x1="392.462" y1="51.096" x2="411.421" y2="69.156" fill="#1d1d1b" stroke="#000" stroke-linecap="round" stroke-width="6"/>
      <line x1="462.936" y1="68.041" x2="471.521" y2="59.001" fill="#1d1d1b" stroke="#000" stroke-linecap="round" stroke-width="6"/>
      <line x1="523.818" y1="20.078" x2="483.828" y2="48.262" fill="#1d1d1b" stroke="#000" stroke-linecap="round" stroke-width="6"/>
      <line x1="500.713" y1="22.386" x2="476.356" y2="40.617" fill="#1d1d1b" stroke="#000" stroke-linecap="round" stroke-width="6"/>
      <line x1="508.046" y1="3.618" x2="465.755" y2="34.768" fill="#1d1d1b" stroke="#000" stroke-linecap="round" stroke-width="6"/>
      <circle cx="394.46" cy="72.722" r="7.498" fill="#1d1d1b" stroke="#000" stroke-miterlimit="10"/>
    </g>
  </g>
</svg>
