<svg xmlns="http://www.w3.org/2000/svg" viewBox="0 0 507.621 138.857">
  <g id="Capa_2" data-name="Capa 2">
    <g id="Capa_10" data-name="Capa 10">
      <path d="M185.558,80.857c0,30.376,27.161,55,61.971,55s63.029-24.624,63.029-55-28.219-55-63.029-55S185.558,50.481,185.558,80.857Z" fill="#fff" stroke="#000" stroke-linecap="round" stroke-width="6"/>
      <circle cx="274.073" cy="71.69" r="7.141" fill="#1d1d1b" stroke="#000" stroke-miterlimit="10"/>
      <line x1="274.366" y1="92.964" x2="221.764" y2="113.752" fill="#1d1d1b" stroke="#000" stroke-linecap="round" stroke-width="6"/>
      <line x1="276.609" y1="40.149" x2="260.663" y2="59.16" fill="#1d1d1b" stroke="#000" stroke-linecap="round" stroke-width="6"/>
      <line x1="238.639" y1="59.423" x2="227.78" y2="53.298" fill="#1d1d1b" stroke="#000" stroke-linecap="round" stroke-width="6"/>
      <line x1="317.442" y1="5.731" x2="292.454" y2="39.53" fill="#1d1d1b" stroke="#000" stroke-linecap="round" stroke-width="6"/>
      <line x1="307.704" y1="3.413" x2="285.494" y2="35.116" fill="#1d1d1b" stroke="#000" stroke-linecap="round" stroke-width="6"/>
      <line x1="296.173" y1="3.413" x2="278.12" y2="31.03" fill="#1d1d1b" stroke="#000" stroke-linecap="round" stroke-width="6"/>
      <line x1="287.055" y1="3.413" x2="270.922" y2="28.19" fill="#1d1d1b" stroke="#000" stroke-linecap="round" stroke-width="6"/>
      <circle cx="229.914" cy="71.645" r="7.096" fill="#1d1d1b" stroke="#000" stroke-miterlimit="10"/>
      <path d="M3,80.444c0,30.376,27.162,55,61.971,55S128,110.82,128,80.444s-28.219-55-63.029-55S3,50.069,3,80.444Z" fill="#fff" stroke="#000" stroke-linecap="round" stroke-width="6"/>
      <circle cx="91.437" cy="68.79" r="9.584" fill="#1d1d1b" stroke="#000" stroke-miterlimit="10"/>
      <line x1="91.809" y1="92.551" x2="39.206" y2="113.34" fill="#1d1d1b" stroke="#000" stroke-linecap="round" stroke-width="6"/>
      <line x1="94.051" y1="39.737" x2="78.105" y2="58.748" fill="#1d1d1b" stroke="#000" stroke-linecap="round" stroke-width="6"/>
      <line x1="57.081" y1="58.01" x2="46.222" y2="51.885" fill="#1d1d1b" stroke="#000" stroke-linecap="round" stroke-width="6"/>
      <line x1="134.885" y1="5.319" x2="109.896" y2="39.118" fill="#1d1d1b" stroke="#000" stroke-linecap="round" stroke-width="6"/>
      <line x1="125.146" y1="3" x2="102.936" y2="34.703" fill="#1d1d1b" stroke="#000" stroke-linecap="round" stroke-width="6"/>
      <line x1="113.615" y1="3" x2="95.562" y2="30.617" fill="#1d1d1b" stroke="#000" stroke-linecap="round" stroke-width="6"/>
      <line x1="104.498" y1="3" x2="88.364" y2="27.777" fill="#1d1d1b" stroke="#000" stroke-linecap="round" stroke-width="6"/>
      <circle cx="47.653" cy="68.414" r="9.915" fill="#1d1d1b" stroke="#000" stroke-miterlimit="10"/>
      <path d="M372.737,80.857c0,30.376,27.161,55,61.971,55s63.029-24.624,63.029-55-28.219-55-63.029-55S372.737,50.481,372.737,80.857Z" fill="#fff" stroke="#000" stroke-linecap="round" stroke-width="6"/>
      <circle cx="461.253" cy="71.69" r="7.141" fill="#1d1d1b" stroke="#000" stroke-miterlimit="10"/>
      <line x1="461.546" y1="92.964" x2="408.943" y2="113.752" fill="#1d1d1b" stroke="#000" stroke-linecap="round" stroke-width="6"/>
      <line x1="463.788" y1="40.149" x2="447.842" y2="59.16" fill="#1d1d1b" stroke="#000" stroke-linecap="round" stroke-width="6"/>
      <line x1="425.818" y1="59.423" x2="414.959" y2="53.298" fill="#1d1d1b" stroke="#000" stroke-linecap="round" stroke-width="6"/>
      <line x1="504.621" y1="5.731" x2="479.633" y2="39.53" fill="#1d1d1b" stroke="#000" stroke-linecap="round" stroke-width="6"/>
      <line x1="494.883" y1="3.413" x2="472.673" y2="35.116" fill="#1d1d1b" stroke="#000" stroke-linecap="round" stroke-width="6"/>
      <line x1="483.352" y1="3.413" x2="465.299" y2="31.03" fill="#1d1d1b" stroke="#000" stroke-linecap="round" stroke-width="6"/>
      <line x1="474.235" y1="3.413" x2="458.101" y2="28.19" fill="#1d1d1b" stroke="#000" stroke-linecap="round" stroke-width="6"/>
      <circle cx="417.093" cy="71.645" r="7.096" fill="#1d1d1b" stroke="#000" stroke-miterlimit="10"/>
    </g>
  </g>
</svg>
