<svg xmlns="http://www.w3.org/2000/svg" viewBox="0 0 499.457 140.738">
  <g id="Capa_2" data-name="Capa 2">
    <g id="Capa_27" data-name="Capa 27">
      <path d="M310.342,82.738c0,30.375-27.161,55-61.971,55s-63.029-24.625-63.029-55,28.219-55,63.029-55S310.342,52.362,310.342,82.738Z" fill="#fff" stroke="#000" stroke-linecap="round" stroke-width="6"/>
      <line x1="195.89" y1="6.741" x2="216.629" y2="32.958" fill="#fff" stroke="#000" stroke-linecap="round" stroke-width="6"/>
      <line x1="195.89" y1="22.784" x2="209.194" y2="38.437" fill="#fff" stroke="#000" stroke-linecap="round" stroke-width="6"/>
      <line x1="192.368" y1="34.915" x2="202.542" y2="44.983" fill="#fff" stroke="#000" stroke-linecap="round" stroke-width="6"/>
      <line x1="209.194" y1="51.35" x2="239.716" y2="51.35" fill="#fff" stroke="#000" stroke-linecap="round" stroke-width="6"/>
      <line x1="250.807" y1="52.915" x2="284.716" y2="52.915" stroke="#000" stroke-linecap="round" stroke-width="6"/>
      <circle cx="212.955" cy="67.98" r="8.413" stroke="#000" stroke-linecap="round" stroke-width="6"/>
      <circle cx="267.738" cy="68.98" r="8.413" stroke="#000" stroke-linecap="round" stroke-width="6"/>
      <line x1="219.368" y1="104.567" x2="271.02" y2="104.567" stroke="#000" stroke-linecap="round" stroke-width="6"/>
      <path d="M496.457,79c0,30.375-27.161,55-61.971,55s-63.029-24.625-63.029-55,28.219-55,63.029-55S496.457,48.621,496.457,79Z" fill="#fff" stroke="#000" stroke-linecap="round" stroke-width="6"/>
      <line x1="382.005" y1="3" x2="402.744" y2="29.217" fill="#fff" stroke="#000" stroke-linecap="round" stroke-width="6"/>
      <line x1="382.005" y1="19.043" x2="395.309" y2="34.696" fill="#fff" stroke="#000" stroke-linecap="round" stroke-width="6"/>
      <line x1="378.483" y1="31.174" x2="388.657" y2="41.242" fill="#fff" stroke="#000" stroke-linecap="round" stroke-width="6"/>
      <line x1="395.309" y1="47.609" x2="407.483" y2="47.609" fill="#fff" stroke="#000" stroke-linecap="round" stroke-width="6"/>
      <line x1="445.44" y1="49.174" x2="462.266" y2="49.174" stroke="#000" stroke-linecap="round" stroke-width="6"/>
      <circle cx="399.07" cy="64.239" r="8.413" stroke="#000" stroke-linecap="round" stroke-width="6"/>
      <circle cx="453.853" cy="65.239" r="8.413" stroke="#000" stroke-linecap="round" stroke-width="6"/>
      <line x1="405.483" y1="100.826" x2="457.135" y2="100.826" stroke="#000" stroke-linecap="round" stroke-width="6"/>
      <path d="M128,79.479c0,30.375-27.162,55-61.971,55S3,109.854,3,79.479s28.219-55,63.029-55S128,49.1,128,79.479Z" fill="#fff" stroke="#000" stroke-linecap="round" stroke-width="6"/>
      <line x1="13.547" y1="3.482" x2="34.287" y2="29.699" fill="#fff" stroke="#000" stroke-linecap="round" stroke-width="6"/>
      <line x1="13.547" y1="19.525" x2="26.852" y2="35.177" fill="#fff" stroke="#000" stroke-linecap="round" stroke-width="6"/>
      <line x1="10.026" y1="31.656" x2="20.2" y2="41.724" fill="#fff" stroke="#000" stroke-linecap="round" stroke-width="6"/>
      <line x1="26.852" y1="48.09" x2="39.026" y2="48.09" fill="#fff" stroke="#000" stroke-linecap="round" stroke-width="6"/>
      <line x1="76.982" y1="49.656" x2="93.808" y2="49.656" stroke="#000" stroke-linecap="round" stroke-width="6"/>
      <circle cx="30.613" cy="64.721" r="8.413" stroke="#000" stroke-linecap="round" stroke-width="6"/>
      <circle cx="85.395" cy="65.721" r="8.413" stroke="#000" stroke-linecap="round" stroke-width="6"/>
      <line x1="37.026" y1="101.308" x2="88.678" y2="101.308" stroke="#000" stroke-linecap="round" stroke-width="6"/>
    </g>
  </g>
</svg>
