<svg xmlns="http://www.w3.org/2000/svg" viewBox="0 0 501.088 136.092">
  <g id="Capa_2" data-name="Capa 2">
    <g id="Capa_26" data-name="Capa 26">
      <path d="M128,75.866c0,30.376-27.162,55-61.971,55S3,106.242,3,75.866s28.219-55,63.029-55S128,45.491,128,75.866Z" fill="#fff" stroke="#000" stroke-linecap="round" stroke-width="6"/>
      <line x1="25.583" y1="48.391" x2="65.5" y2="48.391" stroke="#000" stroke-linecap="round" stroke-width="6"/>
      <line x1="86.627" y1="47.348" x2="101.496" y2="47.348" stroke="#000" stroke-linecap="round" stroke-width="6"/>
      <circle cx="38.692" cy="64.707" r="11.152" stroke="#000" stroke-linecap="round" stroke-width="6"/>
      <circle cx="93.534" cy="64.707" r="6.907" stroke="#000" stroke-linecap="round" stroke-width="6"/>
      <line x1="35.366" y1="108.652" x2="97.974" y2="100.043" stroke="#000" stroke-linecap="round" stroke-width="6"/>
      <line x1="86.627" y1="20.866" x2="106.583" y2="3" stroke="#000" stroke-linecap="round" stroke-width="6"/>
      <line x1="93.534" y1="26.459" x2="115.192" y2="6.913" stroke="#000" stroke-linecap="round" stroke-width="6"/>
      <line x1="104.301" y1="29.855" x2="122.627" y2="13.565" stroke="#000" stroke-linecap="round" stroke-width="6"/>
      <line x1="110.068" y1="36.975" x2="130.453" y2="20.866" stroke="#000" stroke-linecap="round" stroke-width="6"/>
      <path d="M309.809,78.034c0,30.375-27.161,55-61.971,55s-63.029-24.625-63.029-55,28.219-55,63.029-55S309.809,47.658,309.809,78.034Z" fill="#fff" stroke="#000" stroke-linecap="round" stroke-width="6"/>
      <line x1="207.392" y1="50.559" x2="247.309" y2="50.559" stroke="#000" stroke-linecap="round" stroke-width="6"/>
      <line x1="268.436" y1="49.515" x2="283.306" y2="49.515" stroke="#000" stroke-linecap="round" stroke-width="6"/>
      <circle cx="220.501" cy="66.874" r="11.152" stroke="#000" stroke-linecap="round" stroke-width="6"/>
      <circle cx="275.343" cy="66.874" r="6.907" stroke="#000" stroke-linecap="round" stroke-width="6"/>
      <line x1="217.175" y1="110.819" x2="279.784" y2="102.211" stroke="#000" stroke-linecap="round" stroke-width="6"/>
      <line x1="268.436" y1="23.034" x2="288.392" y2="5.167" stroke="#000" stroke-linecap="round" stroke-width="6"/>
      <line x1="275.343" y1="28.626" x2="297.001" y2="9.08" stroke="#000" stroke-linecap="round" stroke-width="6"/>
      <line x1="286.11" y1="32.022" x2="304.436" y2="15.733" stroke="#000" stroke-linecap="round" stroke-width="6"/>
      <path d="M495.635,78.092c0,30.376-27.161,55-61.971,55s-63.029-24.624-63.029-55,28.219-55,63.029-55S495.635,47.717,495.635,78.092Z" fill="#fff" stroke="#000" stroke-linecap="round" stroke-width="6"/>
      <line x1="393.219" y1="50.617" x2="433.135" y2="50.617" stroke="#000" stroke-linecap="round" stroke-width="6"/>
      <line x1="454.262" y1="49.574" x2="469.132" y2="49.574" stroke="#000" stroke-linecap="round" stroke-width="6"/>
      <circle cx="406.327" cy="66.933" r="11.152" stroke="#000" stroke-linecap="round" stroke-width="6"/>
      <circle cx="461.169" cy="66.933" r="6.907" stroke="#000" stroke-linecap="round" stroke-width="6"/>
      <line x1="403.001" y1="110.878" x2="465.61" y2="102.269" stroke="#000" stroke-linecap="round" stroke-width="6"/>
      <line x1="454.262" y1="23.092" x2="474.219" y2="5.226" stroke="#000" stroke-linecap="round" stroke-width="6"/>
      <line x1="461.169" y1="28.685" x2="482.827" y2="9.139" stroke="#000" stroke-linecap="round" stroke-width="6"/>
      <line x1="471.936" y1="32.081" x2="490.262" y2="15.791" stroke="#000" stroke-linecap="round" stroke-width="6"/>
      <line x1="477.703" y1="39.201" x2="498.088" y2="23.092" stroke="#000" stroke-linecap="round" stroke-width="6"/>
    </g>
  </g>
</svg>
