<svg xmlns="http://www.w3.org/2000/svg" viewBox="0 0 528.793 125.957">
  <g id="Capa_2" data-name="Capa 2">
    <g id="Capa_53" data-name="Capa 53">
      <path d="M128,66.605c0,30.376-27.162,55-61.971,55S3,96.981,3,66.605s28.219-55,63.029-55S128,36.23,128,66.605Z" fill="none" stroke="#000" stroke-linecap="round" stroke-width="6"/>
      <line x1="101.837" y1="21.555" x2="128" y2="3" fill="none" stroke="#000" stroke-linecap="round" stroke-width="6"/>
      <line x1="112.017" y1="29.54" x2="142.714" y2="6.652" fill="none" stroke="#000" stroke-linecap="round" stroke-width="6"/>
      <line x1="120.06" y1="39.46" x2="155.757" y2="11.605" fill="none" stroke="#000" stroke-linecap="round" stroke-width="6"/>
      <line x1="39.409" y1="25.533" x2="61.844" y2="46.304" fill="none" stroke="#000" stroke-linecap="round" stroke-width="6"/>
      <line x1="74.634" y1="49.178" x2="94.192" y2="29.54" fill="none" stroke="#000" stroke-linecap="round" stroke-width="6"/>
      <circle cx="46.647" cy="56.416" r="7.238" stroke="#000" stroke-linecap="round" stroke-width="6"/>
      <circle cx="101.837" cy="56.416" r="7.238" stroke="#000" stroke-linecap="round" stroke-width="6"/>
      <line x1="46.647" y1="91.174" x2="81.148" y2="101.087" stroke="#000" stroke-linecap="round" stroke-width="6"/>
      <path d="M498.036,67.217c0,30.376-27.162,55-61.972,55s-63.028-24.624-63.028-55,28.219-55,63.028-55S498.036,36.842,498.036,67.217Z" fill="none" stroke="#000" stroke-linecap="round" stroke-width="6"/>
      <line x1="471.872" y1="22.167" x2="498.036" y2="3.612" fill="none" stroke="#000" stroke-linecap="round" stroke-width="6"/>
      <line x1="482.053" y1="30.152" x2="512.749" y2="7.264" fill="none" stroke="#000" stroke-linecap="round" stroke-width="6"/>
      <line x1="490.096" y1="40.072" x2="525.793" y2="12.217" fill="none" stroke="#000" stroke-linecap="round" stroke-width="6"/>
      <line x1="409.445" y1="26.145" x2="431.88" y2="46.916" fill="none" stroke="#000" stroke-linecap="round" stroke-width="6"/>
      <line x1="444.67" y1="49.79" x2="464.228" y2="30.152" fill="none" stroke="#000" stroke-linecap="round" stroke-width="6"/>
      <circle cx="416.683" cy="57.028" r="7.238" stroke="#000" stroke-linecap="round" stroke-width="6"/>
      <circle cx="471.872" cy="57.028" r="7.238" stroke="#000" stroke-linecap="round" stroke-width="6"/>
      <line x1="416.683" y1="91.786" x2="451.184" y2="101.699" stroke="#000" stroke-linecap="round" stroke-width="6"/>
      <path d="M311.5,67.957c0,30.376-27.161,55-61.971,55s-63.029-24.624-63.029-55,28.219-55,63.029-55S311.5,37.581,311.5,67.957Z" fill="none" stroke="#000" stroke-linecap="round" stroke-width="6"/>
      <line x1="285.337" y1="22.907" x2="311.5" y2="4.352" fill="none" stroke="#000" stroke-linecap="round" stroke-width="6"/>
      <line x1="295.518" y1="30.892" x2="326.214" y2="8.004" fill="none" stroke="#000" stroke-linecap="round" stroke-width="6"/>
      <line x1="303.561" y1="40.812" x2="339.257" y2="12.957" fill="none" stroke="#000" stroke-linecap="round" stroke-width="6"/>
      <line x1="222.91" y1="26.885" x2="245.344" y2="47.656" fill="none" stroke="#000" stroke-linecap="round" stroke-width="6"/>
      <line x1="258.134" y1="50.53" x2="277.692" y2="30.892" fill="none" stroke="#000" stroke-linecap="round" stroke-width="6"/>
      <circle cx="213.461" cy="57.028" r="7.238" stroke="#000" stroke-linecap="round" stroke-width="6"/>
      <circle cx="271.887" cy="57.028" r="7.238" stroke="#000" stroke-linecap="round" stroke-width="6"/>
      <line x1="230.148" y1="92.525" x2="264.649" y2="102.439" stroke="#000" stroke-linecap="round" stroke-width="6"/>
    </g>
  </g>
</svg>
